<svg width="38" height="20" viewBox="0 0 38 20" fill="none" xmlns="http://www.w3.org/2000/svg">
<path d="M2 8.89081C1.30964 8.89081 0.75 9.45045 0.75 10.1408C0.75 10.8312 1.30964 11.3908 2 11.3908L2 8.89081ZM36.8839 11.0247C37.372 10.5365 37.372 9.74508 36.8839 9.25692L28.9289 1.30197C28.4408 0.813816 27.6493 0.813816 27.1612 1.30197C26.673 1.79013 26.673 2.58158 27.1612 3.06974L34.2322 10.1408L27.1612 17.2119C26.673 17.7 26.673 18.4915 27.1612 18.9796C27.6493 19.4678 28.4408 19.4678 28.9289 18.9796L36.8839 11.0247ZM2 11.3908L36 11.3908L36 8.89081L2 8.89081L2 11.3908Z" fill="#C1FFF8"/>
</svg>
