<svg width="80" height="81" viewBox="0 0 80 81" fill="none" xmlns="http://www.w3.org/2000/svg">
<rect y="0.126465" width="80" height="80" rx="10" fill="#171B3F"/>
<path d="M53.7958 27.7966C53.7851 27.7759 53.7675 27.7597 53.7459 27.7509C51.2573 26.6091 48.6311 25.7949 45.9331 25.3287C45.9086 25.3241 45.8833 25.3274 45.8607 25.3381C45.8382 25.3487 45.8196 25.3662 45.8076 25.3881C45.45 26.0371 45.1253 26.7038 44.8349 27.3856C41.9266 26.9441 38.9682 26.9441 36.0599 27.3856C35.7676 26.7021 35.4377 26.0352 35.0719 25.3881C35.0594 25.3667 35.0407 25.3496 35.0183 25.339C34.9959 25.3284 34.9708 25.3248 34.9463 25.3287C32.248 25.7939 29.6216 26.6081 27.1333 27.7509C27.112 27.76 27.0941 27.7754 27.0819 27.795C22.1058 35.2261 20.7427 42.4745 21.4114 49.6332C21.4133 49.6507 21.4187 49.6677 21.4273 49.6831C21.4359 49.6985 21.4474 49.7121 21.4614 49.7229C24.3589 51.8683 27.5998 53.5059 31.0458 54.5658C31.07 54.5731 31.096 54.5728 31.12 54.5649C31.1441 54.557 31.1652 54.5419 31.1804 54.5217C31.9206 53.5146 32.5764 52.4482 33.1412 51.3334C33.149 51.3181 33.1534 51.3013 33.1542 51.2842C33.155 51.267 33.1522 51.2499 33.1459 51.234C33.1396 51.218 33.13 51.2036 33.1177 51.1916C33.1055 51.1796 33.0908 51.1703 33.0747 51.1644C32.0405 50.7687 31.0393 50.2917 30.0805 49.7379C30.0631 49.7277 30.0485 49.7133 30.0379 49.6961C30.0274 49.6788 30.0212 49.6593 30.02 49.6391C30.0188 49.6189 30.0226 49.5988 30.0311 49.5804C30.0395 49.5621 30.0523 49.5461 30.0684 49.5339C30.2696 49.3831 30.4709 49.2263 30.6631 49.068C30.6801 49.0539 30.7008 49.0449 30.7227 49.042C30.7446 49.039 30.7669 49.0422 30.7871 49.0513C37.0687 51.9181 43.8694 51.9181 50.0767 49.0513C50.0969 49.0416 50.1194 49.038 50.1417 49.0407C50.1639 49.0434 50.1849 49.0523 50.2023 49.0665C50.3944 49.2248 50.5957 49.3831 50.7984 49.5339C50.8146 49.546 50.8275 49.5619 50.8361 49.5801C50.8447 49.5984 50.8486 49.6185 50.8475 49.6387C50.8465 49.6589 50.8405 49.6785 50.8301 49.6958C50.8197 49.7131 50.8051 49.7276 50.7878 49.7379C49.8312 50.2964 48.8291 50.7731 47.7922 51.1629C47.7761 51.1691 47.7615 51.1785 47.7493 51.1907C47.7371 51.2029 47.7276 51.2175 47.7214 51.2336C47.7153 51.2496 47.7126 51.2668 47.7135 51.2841C47.7145 51.3013 47.719 51.3181 47.7269 51.3334C48.3012 52.442 48.956 53.5071 49.6862 54.5199C49.701 54.5407 49.722 54.5563 49.7461 54.5645C49.7703 54.5727 49.7964 54.5731 49.8208 54.5656C53.273 53.5093 56.5196 51.8715 59.4207 49.7229C59.4349 49.7126 59.4466 49.6994 59.4552 49.6842C59.4638 49.669 59.4691 49.6521 59.4707 49.6347C60.2712 41.3585 58.1304 34.1696 53.7958 27.7966ZM34.0793 45.2743C32.1881 45.2743 30.6298 43.5387 30.6298 41.4073C30.6298 39.2758 32.1578 37.5402 34.0793 37.5402C36.0158 37.5402 37.559 39.2909 37.5288 41.4072C37.5288 43.5387 36.0006 45.2743 34.0793 45.2743ZM46.8333 45.2743C44.9421 45.2743 43.3838 43.5387 43.3838 41.4073C43.3838 39.2758 44.9119 37.5402 46.8333 37.5402C48.7699 37.5402 50.313 39.2909 50.2828 41.4072C50.2828 43.5387 48.7699 45.2743 46.8333 45.2743Z" fill="#C1FFF8"/>
</svg>
