<svg width="80" height="81" viewBox="0 0 80 81" fill="none" xmlns="http://www.w3.org/2000/svg">
<rect y="0.126465" width="80" height="80" rx="10" fill="#171B3F"/>
<path d="M63 25.6478C61.2722 26.4158 59.4127 26.9338 57.4617 27.1657C59.4537 25.9731 60.9812 24.0841 61.7015 21.8306C59.8382 22.9363 57.7755 23.7387 55.5783 24.1718C53.82 22.2981 51.3137 21.1265 48.5402 21.1265C43.2156 21.1265 38.8985 25.4436 38.8985 30.7692C38.8985 31.5238 38.9834 32.2594 39.1484 32.9664C31.1343 32.5638 24.0284 28.7256 19.2724 22.8915C18.4424 24.3149 17.9673 25.9712 17.9673 27.74C17.9673 31.085 19.6693 34.0368 22.2567 35.7656C20.6768 35.715 19.1894 35.2809 17.889 34.5587C17.8881 34.5988 17.8881 34.6398 17.8881 34.6808C17.8881 39.3519 21.212 43.2483 25.6236 44.1356C24.8146 44.355 23.9626 44.4733 23.083 44.4733C22.4609 44.4733 21.857 44.4132 21.2683 44.2997C22.4962 48.1303 26.0568 50.919 30.2756 50.9963C26.9755 53.5827 22.8187 55.1245 18.3002 55.1245C17.5227 55.1245 16.7547 55.0787 16 54.989C20.2685 57.7262 25.3365 59.3214 30.7813 59.3214C48.5183 59.3214 58.2163 44.6288 58.2163 31.8864C58.2163 31.4685 58.2077 31.0516 58.1896 30.6375C60.0729 29.2808 61.7082 27.5817 63 25.6478Z" fill="#C1FFF8"/>
</svg>
