<svg width="36" height="37" viewBox="0 0 36 37" fill="none" xmlns="http://www.w3.org/2000/svg">
<rect x="0.5" y="0.907715" width="35" height="35" rx="17.5" fill="#171B3F"/>
<path d="M18.2341 14.3052C15.8809 14.3052 13.931 16.2214 13.931 18.6083C13.931 20.9952 15.8473 22.9114 18.2341 22.9114C20.621 22.9114 22.5372 20.9615 22.5372 18.6083C22.5372 16.255 20.5874 14.3052 18.2341 14.3052ZM18.2341 21.365C16.7213 21.365 15.4775 20.1211 15.4775 18.6083C15.4775 17.0955 16.7213 15.8516 18.2341 15.8516C19.747 15.8516 20.9908 17.0955 20.9908 18.6083C20.9908 20.1211 19.747 21.365 18.2341 21.365Z" fill="#C1FFF8"/>
<path d="M22.7053 15.1793C23.2437 15.1793 23.6802 14.7428 23.6802 14.2044C23.6802 13.666 23.2437 13.2295 22.7053 13.2295C22.1668 13.2295 21.7303 13.666 21.7303 14.2044C21.7303 14.7428 22.1668 15.1793 22.7053 15.1793Z" fill="#C1FFF8"/>
<path d="M25.2267 11.683C24.3526 10.7753 23.1087 10.3047 21.6968 10.3047H14.7715C11.8467 10.3047 9.89685 12.2545 9.89685 15.1793V22.071C9.89685 23.5166 10.3675 24.7604 11.3088 25.6681C12.2165 26.5422 13.4267 26.9792 14.8051 26.9792H21.6632C23.1087 26.9792 24.319 26.5086 25.1931 25.6681C26.1007 24.7941 26.5714 23.5502 26.5714 22.1046V15.1793C26.5714 13.7673 26.1007 12.5571 25.2267 11.683ZM25.0922 22.1046C25.0922 23.1468 24.7224 23.9872 24.1173 24.5587C23.5122 25.1302 22.6717 25.4328 21.6632 25.4328H14.8051C13.7965 25.4328 12.9561 25.1302 12.351 24.5587C11.7458 23.9536 11.4433 23.1132 11.4433 22.071V15.1793C11.4433 14.1708 11.7458 13.3303 12.351 12.7252C12.9225 12.1537 13.7965 11.8511 14.8051 11.8511H21.7304C22.7389 11.8511 23.5794 12.1537 24.1845 12.7588C24.756 13.3639 25.0922 14.2044 25.0922 15.1793V22.1046Z" fill="#C1FFF8"/>
<rect x="0.5" y="0.907715" width="35" height="35" rx="17.5" stroke="#283152"/>
</svg>
