<svg width="80" height="81" viewBox="0 0 80 81" fill="none" xmlns="http://www.w3.org/2000/svg">
<rect y="0.126465" width="80" height="80" rx="10" fill="#171B3F"/>
<path d="M48.0016 51.5508C47.9895 52.1314 47.9775 52.7119 47.9775 53.2925C47.9775 56.3526 47.9654 59.4127 47.9895 62.4728C47.9895 62.9445 47.9049 63.138 47.3727 63.1259C43.6474 63.1017 39.922 63.1017 36.1967 63.1259C35.725 63.1259 35.5677 62.9929 35.5798 62.5091C35.604 60.8157 35.5919 59.1224 35.5798 57.4412C35.5798 57.2839 35.7734 56.9816 35.3742 56.9695C35.2896 56.9695 35.217 56.9816 35.1323 56.9816C34.9751 56.909 34.8299 56.9211 34.7332 57.0904C33.2334 57.2477 31.7215 57.3686 30.2337 56.9937C27.597 56.3284 25.7101 54.7681 24.549 52.2886C23.7991 50.6678 22.8073 49.168 21.6582 47.7892C21.2954 47.3538 20.7148 47.1844 20.3278 46.749C20.1826 46.5797 19.9407 46.4466 20.0133 46.2168C20.0858 45.9386 20.3882 45.9507 20.6301 45.9265C23.0492 45.7209 24.7667 46.8699 25.9641 48.8536C27.0648 50.6678 28.5041 52.0104 30.5845 52.5547C32.0601 52.9418 33.5357 52.8571 34.9872 52.4096C35.3258 52.3007 35.5073 52.1556 35.5436 51.7443C35.6524 50.2445 35.9669 48.7931 37.0071 47.5231C36.6079 47.4505 36.2935 47.3779 35.9669 47.3296C33.4027 46.9425 31.0199 46.0596 28.9517 44.4751C26.6415 42.7092 25.2021 40.3506 24.7546 37.4599C24.3676 34.932 24.5127 32.392 24.8393 29.8641C25.0933 27.9167 25.6376 26.0662 27.0406 24.6147C27.5365 24.1067 27.5728 23.6955 27.3551 23.0544C26.6173 20.9015 26.8229 18.7364 27.4881 16.5835C27.6091 16.1843 27.7905 16.0634 28.2259 16.1723C29.8588 16.5714 31.1167 17.5269 32.2536 18.6881C32.81 19.2444 33.2817 19.8734 33.7414 20.5023C33.8744 20.6838 33.9712 20.7805 34.201 20.5991C35.0718 19.9097 36.1241 19.692 37.1764 19.5347C40.2244 19.0993 43.2845 19.0872 46.3325 19.5226C47.3485 19.6678 48.3766 19.8492 49.2233 20.4903C49.6224 20.7926 49.7796 20.6233 49.9974 20.3088C50.8077 19.1235 51.7995 18.1075 52.9607 17.2729C53.6985 16.7407 54.521 16.3779 55.416 16.1602C55.8031 16.0634 55.9603 16.1723 56.0813 16.523C56.9037 18.8453 57.0247 21.1676 56.1054 23.4899C55.9966 23.7802 55.924 23.9858 56.1901 24.2398C57.6778 25.6428 58.3793 27.4329 58.6696 29.4044C59.0204 31.7993 59.226 34.2062 58.9478 36.6374C58.4882 40.7256 56.4078 43.701 52.8034 45.6483C52.6704 45.6362 52.5615 45.6725 52.5132 45.8056C52.4164 45.8539 52.3196 45.9023 52.235 45.9386C51.9205 45.9507 51.6544 46.0838 51.4367 46.2894C51.3399 46.3257 51.2311 46.3499 51.1343 46.3861C50.9892 46.3499 50.8924 46.4103 50.8319 46.5313C50.7714 46.5434 50.6989 46.5676 50.6384 46.5797C50.1546 46.6522 49.6708 46.7127 49.2595 47.003C49.1991 47.0151 49.1265 47.0272 49.066 47.0393C48.7153 47.0272 48.3645 47.0514 48.0621 47.2691C47.796 47.3054 47.542 47.3417 47.2759 47.3779C47.0703 47.39 46.8405 47.3658 46.6591 47.4384C46.4655 47.5231 46.5502 47.644 46.7195 47.6924L46.7316 47.7045C46.7437 47.8738 46.8284 47.9948 46.9856 48.0432C47.0824 48.2367 47.1792 48.4302 47.2759 48.6117C47.3001 48.8657 47.3485 49.1076 47.5662 49.2769C47.5904 49.3858 47.6146 49.4825 47.6388 49.5914C47.6993 49.93 47.6993 50.2687 47.8928 50.5711C47.9049 50.6437 47.917 50.7162 47.9291 50.7767C47.8565 50.9218 47.8928 51.0549 48.0016 51.1758C47.9895 51.3089 47.9895 51.4298 48.0016 51.5508Z" fill="#C1FFF8"/>
</svg>
