<svg width="36" height="37" viewBox="0 0 36 37" fill="none" xmlns="http://www.w3.org/2000/svg">
<rect x="0.5" y="0.907715" width="35" height="35" rx="17.5" fill="#171B3F"/>
<path d="M27.4286 12.5197C26.7353 12.8299 25.9893 13.0392 25.2065 13.1329C26.0057 12.6511 26.6186 11.8881 26.9076 10.9778C26.16 11.4244 25.3324 11.7485 24.4509 11.9235C23.7454 11.1666 22.7398 10.6934 21.6271 10.6934C19.4907 10.6934 17.7586 12.4372 17.7586 14.5885C17.7586 14.8933 17.7927 15.1904 17.8589 15.476C14.6435 15.3134 11.7925 13.763 9.88436 11.4063C9.55134 11.9813 9.36071 12.6504 9.36071 13.3649C9.36071 14.716 10.0436 15.9084 11.0817 16.6067C10.4478 16.5863 9.85106 16.411 9.32933 16.1192C9.32894 16.1354 9.32894 16.152 9.32894 16.1685C9.32894 18.0554 10.6626 19.6293 12.4326 19.9877C12.108 20.0764 11.7661 20.1242 11.4132 20.1242C11.1636 20.1242 10.9213 20.0999 10.6852 20.054C11.1778 21.6013 12.6063 22.7278 14.299 22.759C12.975 23.8038 11.3072 24.4266 9.49431 24.4266C9.18234 24.4266 8.87419 24.4081 8.57141 24.3719C10.284 25.4776 12.3173 26.1219 14.5019 26.1219C21.6183 26.1219 25.5093 20.187 25.5093 15.0398C25.5093 14.871 25.5058 14.7025 25.4986 14.5353C26.2542 13.9873 26.9103 13.3009 27.4286 12.5197Z" fill="#C1FFF8"/>
<rect x="0.5" y="0.907715" width="35" height="35" rx="17.5" stroke="#283152"/>
</svg>
