<svg width="36" height="37" viewBox="0 0 36 37" fill="none" xmlns="http://www.w3.org/2000/svg">
<rect x="0.5" y="0.907715" width="35" height="35" rx="17.5" fill="#171B3F"/>
<path d="M13.5979 26.122H10.2917V15.1016H13.5979V26.122ZM25.7203 26.122H22.4142V20.2349C22.4142 18.7008 21.8676 17.9371 20.7843 17.9371C19.9258 17.9371 19.3814 18.3647 19.1081 19.221C19.1081 20.6118 19.1081 26.122 19.1081 26.122H15.802C15.802 26.122 15.846 16.2036 15.802 15.1016H18.4116L18.6133 17.3056H18.6816C19.3593 16.2036 20.4426 15.4564 21.9282 15.4564C23.0578 15.4564 23.9714 15.7705 24.669 16.5596C25.371 17.3497 25.7203 18.4099 25.7203 19.8987V26.122Z" fill="#C1FFF8"/>
<path d="M11.9449 13.9995C12.8882 13.9995 13.653 13.2594 13.653 12.3464C13.653 11.4335 12.8882 10.6934 11.9449 10.6934C11.0015 10.6934 10.2367 11.4335 10.2367 12.3464C10.2367 13.2594 11.0015 13.9995 11.9449 13.9995Z" fill="#C1FFF8"/>
<rect x="0.5" y="0.907715" width="35" height="35" rx="17.5" stroke="#283152"/>
</svg>
