<svg width="1024" height="58" viewBox="0 0 1024 58" fill="none" xmlns="http://www.w3.org/2000/svg">
<path d="M15.24 56.8065L14.9578 57.7658L14.9689 57.7691L14.98 57.7721L15.24 56.8065ZM7.96 53.2865L7.37303 54.0961L7.96 53.2865ZM2.84 47.5265L1.95822 47.9981L1.96244 48.006L1.9668 48.0138L2.84 47.5265ZM0.84 39.5265H-0.16V39.544L-0.159385 39.5615L0.84 39.5265ZM1.32 38.3265L2.02711 39.0336L2.05426 39.0064L2.07926 38.9773L1.32 38.3265ZM15.08 38.3265L14.3729 39.0336L14.3964 39.0571L14.4215 39.079L15.08 38.3265ZM16.12 40.0065L17.1044 39.8307L17.0898 39.7486L17.0617 39.6701L16.12 40.0065ZM17.64 43.6865L16.8506 44.3004L16.8592 44.3114L16.8681 44.3222L17.64 43.6865ZM20.44 45.7665L20.0461 46.6856L20.0719 46.6967L20.0983 46.7063L20.44 45.7665ZM30.52 43.8465L31.2843 44.4913L31.2892 44.4856L31.294 44.4797L30.52 43.8465ZM32.68 13.0465H33.68V12.0465H32.68V13.0465ZM5.32 12.4865L4.6129 13.1936L4.63644 13.2171L4.66149 13.239L5.32 12.4865ZM5.32 1.68646L4.66149 0.933888L4.63644 0.955812L4.6129 0.979355L5.32 1.68646ZM46.92 1.68646L46.2129 2.39357L46.2364 2.41712L46.2615 2.43904L46.92 1.68646ZM44.52 48.3265L45.3607 48.868L45.3648 48.8615L44.52 48.3265ZM36.2 55.5265L36.6138 56.4369L36.6251 56.4316L36.2 55.5265ZM23.96 56.9265C21.0027 56.9265 18.1837 56.5634 15.5 55.8409L14.98 57.7721C17.8429 58.5429 20.8373 58.9265 23.96 58.9265V56.9265ZM15.5222 55.8471C12.9032 55.0768 10.5812 53.9517 8.54697 52.4769L7.37303 54.0961C9.60547 55.7146 12.1368 56.9361 14.9578 57.7658L15.5222 55.8471ZM8.54697 52.4769C6.53093 51.0152 4.9221 49.2051 3.7132 47.0391L1.9668 48.0138C3.3179 50.4345 5.1224 52.4644 7.37303 54.0961L8.54697 52.4769ZM3.72178 47.0548C2.57839 44.9172 1.9416 42.4046 1.83939 39.4914L-0.159385 39.5615C-0.0482686 42.7283 0.648278 45.5491 1.95822 47.9981L3.72178 47.0548ZM1.84 39.5265C1.84 39.2938 1.9069 39.1538 2.02711 39.0336L0.612893 37.6194C0.0930978 38.1392 -0.16 38.7991 -0.16 39.5265H1.84ZM2.07926 38.9773C2.1918 38.846 2.33063 38.7665 2.6 38.7665L2.6 36.7665C1.8027 36.7665 1.0882 37.0603 0.560743 37.6757L2.07926 38.9773ZM2.6 38.7665H13.4V36.7665H2.6L2.6 38.7665ZM13.4 38.7665C13.9925 38.7665 14.2532 38.9139 14.3729 39.0336L15.7871 37.6194C15.1601 36.9923 14.3008 36.7665 13.4 36.7665V38.7665ZM14.4215 39.079C14.6787 39.3041 14.9473 39.6961 15.1783 40.3428L17.0617 39.6701C16.7594 38.8235 16.3346 38.0955 15.7385 37.5739L14.4215 39.079ZM15.1356 40.1823C15.4238 41.7965 15.9827 43.1845 16.8506 44.3004L18.4294 43.0725C17.8039 42.2684 17.3495 41.2031 17.1044 39.8307L15.1356 40.1823ZM16.8681 44.3222C17.7202 45.3568 18.7849 46.1451 20.0461 46.6856L20.8339 44.8473C19.8551 44.4278 19.0532 43.8294 18.4119 43.0508L16.8681 44.3222ZM20.0983 46.7063C21.3965 47.1784 22.821 47.4065 24.36 47.4065V45.4065C23.019 45.4065 21.8301 45.2079 20.7817 44.8267L20.0983 46.7063ZM24.36 47.4065C27.2582 47.4065 29.6171 46.4673 31.2843 44.4913L29.7557 43.2016C28.543 44.6389 26.7951 45.4065 24.36 45.4065V47.4065ZM31.294 44.4797C32.9358 42.4731 33.68 39.6508 33.68 36.1665H31.68C31.68 39.4022 30.9843 41.6999 29.746 43.2132L31.294 44.4797ZM33.68 36.1665L33.68 13.0465L31.68 13.0465L31.68 36.1665H33.68ZM32.68 12.0465L6.76 12.0465V14.0465L32.68 14.0465V12.0465ZM6.76 12.0465C6.48499 12.0465 6.23537 11.9586 5.97851 11.7339L4.66149 13.239C5.25796 13.761 5.96835 14.0465 6.76 14.0465V12.0465ZM6.02711 11.7794C5.86298 11.6152 5.76 11.4002 5.76 11.0465L3.76 11.0465C3.76 11.866 4.03036 12.611 4.6129 13.1936L6.02711 11.7794ZM5.76 11.0465L5.76 3.12646H3.76L3.76 11.0465L5.76 11.0465ZM5.76 3.12646C5.76 2.77271 5.86298 2.5577 6.02711 2.39357L4.6129 0.979355C4.03036 1.56189 3.76 2.30688 3.76 3.12646H5.76ZM5.97851 2.43904C6.23537 2.21428 6.48499 2.12646 6.76 2.12646V0.126461C5.96835 0.126461 5.25796 0.411976 4.66149 0.933888L5.97851 2.43904ZM6.76 2.12646L45.48 2.12646V0.126461L6.76 0.126461V2.12646ZM45.48 2.12646C45.8337 2.12646 46.0488 2.22944 46.2129 2.39357L47.6271 0.979357C47.0446 0.39682 46.2996 0.126461 45.48 0.126461V2.12646ZM46.2615 2.43904C46.4627 2.61507 46.56 2.8167 46.56 3.12646H48.56C48.56 2.26289 48.2307 1.50452 47.5785 0.933885L46.2615 2.43904ZM46.56 3.12646L46.56 36.5665H48.56L48.56 3.12646H46.56ZM46.56 36.5665C46.56 41.0598 45.5798 44.7841 43.6752 47.7914L45.3648 48.8615C47.5135 45.4688 48.56 41.3532 48.56 36.5665H46.56ZM43.6793 47.785C41.7584 50.7675 39.1319 53.0445 35.7749 54.6213L36.6251 56.4316C40.3081 54.7017 43.2283 52.1788 45.3607 48.8679L43.6793 47.785ZM35.7862 54.6161C32.4195 56.1464 28.4853 56.9265 23.96 56.9265V58.9265C28.7147 58.9265 32.9405 58.1065 36.6138 56.4368L35.7862 54.6161ZM76.2738 55.5265L76.6774 54.6115L76.2738 55.5265ZM67.7937 48.3265L66.9449 48.8552L66.9489 48.8615L67.7937 48.3265ZM64.4337 36.1665L63.434 36.1897L63.4343 36.2L63.4347 36.2104L64.4337 36.1665ZM64.4337 22.3265L63.4347 22.2821L63.4343 22.2929L63.434 22.3037L64.4337 22.3265ZM67.7937 10.2465L66.9473 9.71401L66.945 9.71772L67.7937 10.2465ZM101.714 2.80646L101.299 3.71638L101.304 3.71863L101.714 2.80646ZM110.354 10.2465L109.507 10.7789L109.511 10.7851L110.354 10.2465ZM113.714 22.3265L112.714 22.3598L112.715 22.3719L113.714 22.3265ZM113.714 36.1665L112.715 36.12L112.715 36.1226L113.714 36.1665ZM110.354 48.3265L111.199 48.8615L111.203 48.8552L110.354 48.3265ZM101.874 55.5265L101.47 54.6115L101.874 55.5265ZM95.9538 43.8465L95.2684 43.1183L95.263 43.1234L95.2576 43.1286L95.9538 43.8465ZM98.8337 35.6865L97.8348 35.6411L97.8344 35.6495L97.8342 35.6579L98.8337 35.6865ZM98.8337 22.5665L97.8346 22.609L97.8349 22.614L98.8337 22.5665ZM97.3938 16.4865L96.4993 16.9337L96.5084 16.9518L96.5182 16.9695L97.3938 16.4865ZM94.0338 12.9665L93.5734 13.8542L94.0338 12.9665ZM80.7538 16.4865L81.6293 16.9695L81.6328 16.9633L81.6361 16.9571L80.7538 16.4865ZM79.3138 22.5665L78.3147 22.5239L78.3143 22.5333L78.314 22.5427L79.3138 22.5665ZM79.3138 35.6865L78.314 35.7092L78.3142 35.7192L78.3147 35.7293L79.3138 35.6865ZM82.1937 43.8465L81.4976 44.5644L82.1937 43.8465ZM89.0738 56.9265C84.2739 56.9265 80.1505 56.1438 76.6774 54.6115L75.8701 56.4414C79.6504 58.1091 84.0602 58.9265 89.0738 58.9265V56.9265ZM76.6774 54.6115C73.2233 53.0877 70.554 50.8158 68.6386 47.7914L66.9489 48.8615C69.0868 52.2371 72.0709 54.7653 75.8701 56.4414L76.6774 54.6115ZM68.6425 47.7977C66.728 44.7244 65.6405 40.8491 65.4328 36.1226L63.4347 36.2104C63.6536 41.1904 64.8061 45.4218 66.945 48.8552L68.6425 47.7977ZM65.4335 36.1432C65.3803 33.8576 65.3538 31.572 65.3538 29.2865L63.3538 29.2865C63.3538 31.5876 63.3805 33.8886 63.434 36.1897L65.4335 36.1432ZM65.3538 29.2865C65.3538 27.0009 65.3803 24.6885 65.4335 22.3492L63.434 22.3037C63.3805 24.6578 63.3538 26.9854 63.3538 29.2865L65.3538 29.2865ZM65.4328 22.3709C65.6404 17.6997 66.727 13.8501 68.6425 10.7752L66.945 9.71772C64.8072 13.1495 63.6538 17.3533 63.4347 22.2821L65.4328 22.3709ZM68.6402 10.7789C70.614 7.64103 73.3157 5.29046 76.7686 3.71637L75.9389 1.89656C72.1385 3.62913 69.1335 6.23856 66.9473 9.71401L68.6402 10.7789ZM76.7686 3.71637C80.2398 2.13388 84.333 1.32646 89.0738 1.32646V-0.673538C84.1078 -0.673538 79.721 0.172381 75.9389 1.89656L76.7686 3.71637ZM89.0738 1.32646C93.7594 1.32646 97.8263 2.13327 101.299 3.71637L102.129 1.89656C98.3478 0.172989 93.9881 -0.673538 89.0738 -0.673538V1.32646ZM101.304 3.71863C104.81 5.29399 107.536 7.64478 109.507 10.7789L111.2 9.71401C109.012 6.23481 105.977 3.6256 102.124 1.89429L101.304 3.71863ZM109.511 10.7851C111.474 13.8543 112.559 17.6959 112.714 22.3598L114.713 22.2931C114.549 17.3571 113.394 13.1453 111.196 9.7078L109.511 10.7851ZM112.715 22.3719C112.821 24.7038 112.874 27.0086 112.874 29.2865H114.874C114.874 26.9776 114.82 24.6425 114.713 22.2811L112.715 22.3719ZM112.874 29.2865C112.874 31.5643 112.821 33.8421 112.715 36.12L114.713 36.2129C114.82 33.9041 114.874 31.5953 114.874 29.2865H112.874ZM112.715 36.1226C112.507 40.8491 111.419 44.7244 109.505 47.7977L111.203 48.8552C113.341 45.4218 114.494 41.1904 114.713 36.2104L112.715 36.1226ZM109.509 47.7914C107.593 50.8158 104.924 53.0877 101.47 54.6115L102.277 56.4414C106.077 54.7653 109.061 52.2371 111.199 48.8615L109.509 47.7914ZM101.47 54.6115C97.9971 56.1438 93.8736 56.9265 89.0738 56.9265V58.9265C94.0873 58.9265 98.4971 58.1091 102.277 56.4414L101.47 54.6115ZM89.0738 47.4065C92.1174 47.4065 94.6747 46.4798 96.6499 44.5644L95.2576 43.1286C93.7129 44.6265 91.6834 45.4065 89.0738 45.4065V47.4065ZM96.6391 44.5747C98.7243 42.6121 99.7228 39.5827 99.8333 35.715L97.8342 35.6579C97.7313 39.2569 96.8098 41.6675 95.2684 43.1183L96.6391 44.5747ZM99.8327 35.7319C99.94 33.372 99.9938 31.1434 99.9938 29.0465H97.9938C97.9938 31.1095 97.9408 33.3076 97.8348 35.6411L99.8327 35.7319ZM99.9938 29.0465C99.9938 26.9494 99.94 24.7735 99.8326 22.5189L97.8349 22.614C97.9409 24.8394 97.9938 26.9835 97.9938 29.0465H99.9938ZM99.8328 22.5239C99.7222 19.9235 99.222 17.73 98.2693 16.0034L96.5182 16.9695C97.2722 18.3362 97.732 20.1961 97.8347 22.609L99.8328 22.5239ZM98.2882 16.0393C97.4039 14.2706 96.141 12.9327 94.4941 12.0787L93.5734 13.8542C94.8065 14.4936 95.7836 15.5023 96.4993 16.9337L98.2882 16.0393ZM94.4941 12.0787C92.8917 11.2479 91.0764 10.8465 89.0738 10.8465V12.8465C90.8045 12.8465 92.2958 13.1917 93.5734 13.8542L94.4941 12.0787ZM89.0738 10.8465C87.1194 10.8465 85.3317 11.25 83.7334 12.0787L84.6541 13.8542C85.9358 13.1896 87.4015 12.8465 89.0738 12.8465V10.8465ZM83.7334 12.0787C82.0929 12.9293 80.8083 14.2592 79.8714 16.0159L81.6361 16.9571C82.4059 15.5137 83.4146 14.4969 84.6541 13.8542L83.7334 12.0787ZM79.8782 16.0034C78.9255 17.73 78.4253 19.9235 78.3147 22.5239L80.3128 22.609C80.4155 20.1961 80.8753 18.3362 81.6293 16.9695L79.8782 16.0034ZM78.314 22.5427C78.2605 24.79 78.2337 26.9579 78.2337 29.0465H80.2337C80.2337 26.975 80.2603 24.8229 80.3135 22.5903L78.314 22.5427ZM78.2337 29.0465C78.2337 31.1349 78.2605 33.3559 78.314 35.7092L80.3135 35.6637C80.2603 33.3237 80.2337 31.118 80.2337 29.0465H78.2337ZM78.3147 35.7293C78.48 39.5877 79.4779 42.6059 81.4976 44.5644L82.8899 43.1286C81.3896 41.6737 80.4675 39.2519 80.3128 35.6436L78.3147 35.7293ZM81.4976 44.5644C83.4729 46.4798 86.0301 47.4065 89.0738 47.4065V45.4065C86.4641 45.4065 84.4346 44.6265 82.8899 43.1286L81.4976 44.5644ZM131.707 56.5665L132.414 55.8594V55.8594L131.707 56.5665ZM131.707 1.68646L132.414 2.39357V2.39357L131.707 1.68646ZM145.307 1.68646L144.6 2.39357L144.6 2.39357L145.307 1.68646ZM145.307 56.5665L144.6 55.8594L145.307 56.5665ZM133.147 56.1265C132.793 56.1265 132.578 56.0235 132.414 55.8594L131 57.2736C131.582 57.8561 132.327 58.1265 133.147 58.1265V56.1265ZM132.414 55.8594C132.25 55.6952 132.147 55.4802 132.147 55.1265H130.147C130.147 55.946 130.417 56.691 131 57.2736L132.414 55.8594ZM132.147 55.1265V3.12646H130.147V55.1265H132.147ZM132.147 3.12646C132.147 2.77271 132.25 2.5577 132.414 2.39357L131 0.979355C130.417 1.56189 130.147 2.30688 130.147 3.12646H132.147ZM132.414 2.39357C132.578 2.22944 132.793 2.12646 133.147 2.12646V0.126461C132.327 0.126461 131.582 0.396819 131 0.979358L132.414 2.39357ZM133.147 2.12646L143.867 2.12646V0.126461L133.147 0.126461V2.12646ZM143.867 2.12646C144.221 2.12646 144.436 2.22944 144.6 2.39357L146.014 0.979358C145.431 0.396819 144.686 0.126461 143.867 0.126461V2.12646ZM144.6 2.39357C144.764 2.5577 144.867 2.77271 144.867 3.12646L146.867 3.12646C146.867 2.30688 146.597 1.56189 146.014 0.979355L144.6 2.39357ZM144.867 3.12646V55.1265H146.867V3.12646L144.867 3.12646ZM144.867 55.1265C144.867 55.4802 144.764 55.6952 144.6 55.8594L146.014 57.2736C146.597 56.691 146.867 55.946 146.867 55.1265H144.867ZM144.6 55.8594C144.436 56.0235 144.221 56.1265 143.867 56.1265V58.1265C144.686 58.1265 145.431 57.8561 146.014 57.2736L144.6 55.8594ZM143.867 56.1265H133.147V58.1265H143.867V56.1265ZM165.644 56.5665L166.351 55.8594V55.8594L165.644 56.5665ZM165.644 1.68646L166.351 2.39357V2.39357L165.644 1.68646ZM177.484 1.76646L176.732 2.42497L176.776 2.47514L176.826 2.51904L177.484 1.76646ZM178.284 2.64646L177.39 3.09367L177.413 3.13898L177.44 3.18177L178.284 2.64646ZM197.804 33.4465L196.96 33.9818L198.804 36.8924V33.4465L197.804 33.4465ZM198.364 1.68646L199.071 2.39357V2.39357L198.364 1.68646ZM210.844 1.68646L210.137 2.39357V2.39357L210.844 1.68646ZM210.844 56.5665L211.551 57.2736L211.575 57.25L211.597 57.225L210.844 56.5665ZM198.924 56.4865L198.172 57.145L198.194 57.17L198.217 57.1936L198.924 56.4865ZM198.204 55.6065L197.37 56.157L197.372 56.1612L198.204 55.6065ZM178.684 26.0065L179.519 25.4559L177.684 22.6736V26.0065H178.684ZM167.084 56.1265C166.731 56.1265 166.516 56.0235 166.351 55.8594L164.937 57.2736C165.52 57.8561 166.265 58.1265 167.084 58.1265V56.1265ZM166.351 55.8594C166.187 55.6952 166.084 55.4802 166.084 55.1265H164.084C164.084 55.946 164.355 56.691 164.937 57.2736L166.351 55.8594ZM166.084 55.1265V3.12646H164.084V55.1265H166.084ZM166.084 3.12646C166.084 2.77271 166.187 2.5577 166.351 2.39357L164.937 0.979355C164.355 1.56189 164.084 2.30688 164.084 3.12646H166.084ZM166.351 2.39357C166.516 2.22944 166.731 2.12646 167.084 2.12646V0.126461C166.265 0.126461 165.52 0.396819 164.937 0.979358L166.351 2.39357ZM167.084 2.12646L175.564 2.12646V0.126461L167.084 0.126461V2.12646ZM175.564 2.12646C176.353 2.12646 176.637 2.31678 176.732 2.42497L178.237 1.10796C177.585 0.362808 176.59 0.126461 175.564 0.126461V2.12646ZM176.826 2.51904C177.022 2.69032 177.165 2.82974 177.264 2.93913C177.371 3.05647 177.396 3.10502 177.39 3.09367L179.179 2.19925C178.975 1.79241 178.569 1.38665 178.143 1.01388L176.826 2.51904ZM177.44 3.18177L196.96 33.9818L198.649 32.9112L179.129 2.11115L177.44 3.18177ZM198.804 33.4465V3.12646H196.804V33.4465L198.804 33.4465ZM198.804 3.12646C198.804 2.77271 198.907 2.5577 199.071 2.39357L197.657 0.979355C197.075 1.56189 196.804 2.30688 196.804 3.12646H198.804ZM199.071 2.39357C199.236 2.22944 199.451 2.12646 199.804 2.12646V0.126461C198.985 0.126461 198.24 0.39682 197.657 0.979358L199.071 2.39357ZM199.804 2.12646L209.404 2.12646V0.126461L199.804 0.126461V2.12646ZM209.404 2.12646C209.758 2.12646 209.973 2.22944 210.137 2.39357L211.551 0.97936C210.969 0.396819 210.224 0.126461 209.404 0.126461V2.12646ZM210.137 2.39357C210.301 2.5577 210.404 2.77271 210.404 3.12646L212.404 3.12646C212.404 2.30688 212.134 1.56189 211.551 0.979353L210.137 2.39357ZM210.404 3.12646V55.1265H212.404V3.12646L210.404 3.12646ZM210.404 55.1265C210.404 55.4015 210.317 55.6511 210.092 55.908L211.597 57.225C212.119 56.6285 212.404 55.9181 212.404 55.1265H210.404ZM210.137 55.8594C209.973 56.0235 209.758 56.1265 209.404 56.1265V58.1265C210.224 58.1265 210.969 57.8561 211.551 57.2736L210.137 55.8594ZM209.404 56.1265H200.844V58.1265H209.404V56.1265ZM200.844 56.1265C200.145 56.1265 199.804 55.9523 199.631 55.7794L198.217 57.1936C198.898 57.8739 199.837 58.1265 200.844 58.1265V56.1265ZM199.677 55.828C199.297 55.3936 199.101 55.1484 199.036 55.0518L197.372 56.1612C197.521 56.3845 197.805 56.726 198.172 57.145L199.677 55.828ZM199.039 55.0559L179.519 25.4559L177.85 26.557L197.37 56.157L199.039 55.0559ZM177.684 26.0065V55.1265H179.684V26.0065H177.684ZM177.684 55.1265C177.684 55.4802 177.581 55.6952 177.417 55.8594L178.831 57.2736C179.414 56.691 179.684 55.946 179.684 55.1265H177.684ZM177.417 55.8594C177.253 56.0235 177.038 56.1265 176.684 56.1265V58.1265C177.504 58.1265 178.249 57.8561 178.831 57.2736L177.417 55.8594ZM176.684 56.1265H167.084V58.1265H176.684V56.1265ZM265.696 55.5265L266.099 54.6115L265.696 55.5265ZM257.216 48.3265L256.367 48.8552L256.371 48.8615L257.216 48.3265ZM253.856 36.1665L252.856 36.1897L252.856 36.2L252.857 36.2104L253.856 36.1665ZM253.856 22.3265L252.857 22.2821L252.856 22.2929L252.856 22.3037L253.856 22.3265ZM257.216 10.2465L256.369 9.71401L256.367 9.71772L257.216 10.2465ZM291.136 2.80646L290.721 3.71638L290.726 3.71863L291.136 2.80646ZM299.776 10.2465L298.929 10.7789L298.933 10.7851L299.776 10.2465ZM303.136 22.3265L302.136 22.3598L302.137 22.3719L303.136 22.3265ZM303.136 36.1665L302.137 36.12L302.137 36.1226L303.136 36.1665ZM299.776 48.3265L300.62 48.8615L300.624 48.8552L299.776 48.3265ZM291.296 55.5265L290.892 54.6115L291.296 55.5265ZM285.376 43.8465L284.69 43.1183L284.685 43.1234L284.679 43.1286L285.376 43.8465ZM288.256 35.6865L287.257 35.6411L287.256 35.6495L287.256 35.6579L288.256 35.6865ZM288.256 22.5665L287.257 22.609L287.257 22.614L288.256 22.5665ZM286.816 16.4865L285.921 16.9337L285.93 16.9518L285.94 16.9695L286.816 16.4865ZM283.456 12.9665L282.995 13.8542L283.456 12.9665ZM270.176 16.4865L271.051 16.9695L271.055 16.9633L271.058 16.9571L270.176 16.4865ZM268.736 22.5665L267.737 22.5239L267.736 22.5333L267.736 22.5427L268.736 22.5665ZM268.736 35.6865L267.736 35.7092L267.736 35.7192L267.737 35.7293L268.736 35.6865ZM271.616 43.8465L270.919 44.5644L271.616 43.8465ZM278.496 56.9265C273.696 56.9265 269.572 56.1438 266.099 54.6115L265.292 56.4414C269.072 58.1091 273.482 58.9265 278.496 58.9265V56.9265ZM266.099 54.6115C262.645 53.0877 259.976 50.8158 258.06 47.7914L256.371 48.8615C258.509 52.2371 261.493 54.7653 265.292 56.4414L266.099 54.6115ZM258.064 47.7977C256.15 44.7244 255.062 40.8491 254.855 36.1226L252.857 36.2104C253.076 41.1904 254.228 45.4218 256.367 48.8552L258.064 47.7977ZM254.855 36.1432C254.802 33.8576 254.776 31.572 254.776 29.2865H252.776C252.776 31.5876 252.802 33.8886 252.856 36.1897L254.855 36.1432ZM254.776 29.2865C254.776 27.0009 254.802 24.6885 254.855 22.3492L252.856 22.3037C252.802 24.6578 252.776 26.9854 252.776 29.2865H254.776ZM254.855 22.3709C255.062 17.6997 256.149 13.8501 258.064 10.7752L256.367 9.71772C254.229 13.1495 253.076 17.3533 252.857 22.2821L254.855 22.3709ZM258.062 10.7789C260.036 7.64103 262.738 5.29046 266.19 3.71637L265.361 1.89656C261.56 3.62913 258.555 6.23856 256.369 9.71401L258.062 10.7789ZM266.19 3.71637C269.662 2.13388 273.755 1.32646 278.496 1.32646V-0.673538C273.53 -0.673538 269.143 0.172381 265.361 1.89656L266.19 3.71637ZM278.496 1.32646C283.181 1.32646 287.248 2.13327 290.721 3.71637L291.55 1.89656C287.77 0.172989 283.41 -0.673538 278.496 -0.673538V1.32646ZM290.726 3.71863C294.232 5.29399 296.958 7.64478 298.929 10.7789L300.622 9.71401C298.434 6.23481 295.399 3.6256 291.545 1.89429L290.726 3.71863ZM298.933 10.7851C300.895 13.8543 301.981 17.6959 302.136 22.3598L304.135 22.2931C303.971 17.3571 302.816 13.1453 300.618 9.7078L298.933 10.7851ZM302.137 22.3719C302.243 24.7038 302.296 27.0086 302.296 29.2865H304.296C304.296 26.9776 304.242 24.6425 304.135 22.2811L302.137 22.3719ZM302.296 29.2865C302.296 31.5643 302.243 33.8421 302.137 36.12L304.135 36.2129C304.242 33.9041 304.296 31.5953 304.296 29.2865H302.296ZM302.137 36.1226C301.929 40.8491 300.841 44.7244 298.927 47.7977L300.624 48.8552C302.763 45.4218 303.916 41.1904 304.135 36.2104L302.137 36.1226ZM298.931 47.7914C297.015 50.8158 294.346 53.0877 290.892 54.6115L291.699 56.4414C295.499 54.7653 298.483 52.2371 300.62 48.8615L298.931 47.7914ZM290.892 54.6115C287.419 56.1438 283.295 56.9265 278.496 56.9265V58.9265C283.509 58.9265 287.919 58.1091 291.699 56.4414L290.892 54.6115ZM278.496 47.4065C281.539 47.4065 284.097 46.4798 286.072 44.5644L284.679 43.1286C283.135 44.6265 281.105 45.4065 278.496 45.4065V47.4065ZM286.061 44.5747C288.146 42.6121 289.145 39.5827 289.255 35.715L287.256 35.6579C287.153 39.2569 286.232 41.6675 284.69 43.1183L286.061 44.5747ZM289.255 35.7319C289.362 33.372 289.416 31.1434 289.416 29.0465H287.416C287.416 31.1095 287.363 33.3076 287.257 35.6411L289.255 35.7319ZM289.416 29.0465C289.416 26.9494 289.362 24.7735 289.254 22.5189L287.257 22.614C287.363 24.8394 287.416 26.9835 287.416 29.0465H289.416ZM289.255 22.5239C289.144 19.9235 288.644 17.73 287.691 16.0034L285.94 16.9695C286.694 18.3362 287.154 20.1961 287.257 22.609L289.255 22.5239ZM287.71 16.0393C286.826 14.2706 285.563 12.9327 283.916 12.0787L282.995 13.8542C284.228 14.4936 285.206 15.5023 285.921 16.9337L287.71 16.0393ZM283.916 12.0787C282.314 11.2479 280.498 10.8465 278.496 10.8465V12.8465C280.226 12.8465 281.718 13.1917 282.995 13.8542L283.916 12.0787ZM278.496 10.8465C276.541 10.8465 274.754 11.25 273.155 12.0787L274.076 13.8542C275.358 13.1896 276.823 12.8465 278.496 12.8465V10.8465ZM273.155 12.0787C271.515 12.9293 270.23 14.2592 269.293 16.0159L271.058 16.9571C271.828 15.5137 272.836 14.4969 274.076 13.8542L273.155 12.0787ZM269.3 16.0034C268.347 17.73 267.847 19.9235 267.737 22.5239L269.735 22.609C269.837 20.1961 270.297 18.3362 271.051 16.9695L269.3 16.0034ZM267.736 22.5427C267.682 24.79 267.656 26.9579 267.656 29.0465H269.656C269.656 26.975 269.682 24.8229 269.735 22.5903L267.736 22.5427ZM267.656 29.0465C267.656 31.1349 267.682 33.3559 267.736 35.7092L269.735 35.6637C269.682 33.3237 269.656 31.118 269.656 29.0465H267.656ZM267.737 35.7293C267.902 39.5877 268.9 42.6059 270.919 44.5644L272.312 43.1286C270.811 41.6737 269.889 39.2519 269.735 35.6436L267.737 35.7293ZM270.919 44.5644C272.895 46.4798 275.452 47.4065 278.496 47.4065V45.4065C275.886 45.4065 273.857 44.6265 272.312 43.1286L270.919 44.5644ZM331.369 55.6065L330.96 56.5191L330.968 56.5228L330.976 56.5263L331.369 55.6065ZM323.049 48.3265L322.19 48.8389L322.194 48.8451L323.049 48.3265ZM320.649 1.68646L321.356 2.39357V2.39357L320.649 1.68646ZM333.849 1.68646L333.142 2.39357V2.39357L333.849 1.68646ZM336.889 43.5265L336.16 44.2111L336.171 44.2225L336.182 44.2336L336.889 43.5265ZM350.969 43.5265L350.251 42.8303L350.251 42.8307L350.969 43.5265ZM354.089 1.68646L353.43 0.933888L353.405 0.955813L353.382 0.979355L354.089 1.68646ZM367.289 1.68646L366.582 2.39357L366.605 2.41712L366.63 2.43904L367.289 1.68646ZM364.969 48.3265L365.824 48.8451L365.827 48.8389L364.969 48.3265ZM356.649 55.6065L357.046 56.5243L357.057 56.5191L356.649 55.6065ZM344.009 56.9265C339.315 56.9265 335.24 56.1702 331.761 54.6866L330.976 56.5263C334.751 58.136 339.103 58.9265 344.009 58.9265V56.9265ZM331.777 54.6938C328.384 53.1742 325.769 50.8823 323.904 47.8079L322.194 48.8451C324.276 52.2773 327.207 54.8387 330.96 56.5191L331.777 54.6938ZM323.907 47.814C322.051 44.7039 321.089 40.7082 321.089 35.7665H319.089C319.089 40.9581 320.099 45.3357 322.19 48.8389L323.907 47.814ZM321.089 35.7665V3.12646H319.089V35.7665H321.089ZM321.089 3.12646C321.089 2.77271 321.192 2.5577 321.356 2.39357L319.942 0.979355C319.359 1.56189 319.089 2.30688 319.089 3.12646H321.089ZM321.356 2.39357C321.52 2.22944 321.735 2.12646 322.089 2.12646V0.126461C321.269 0.126461 320.524 0.396819 319.942 0.979358L321.356 2.39357ZM322.089 2.12646L332.409 2.12646V0.126461L322.089 0.126461V2.12646ZM332.409 2.12646C332.763 2.12646 332.978 2.22944 333.142 2.39357L334.556 0.979358C333.973 0.396819 333.228 0.126461 332.409 0.126461V2.12646ZM333.142 2.39357C333.306 2.5577 333.409 2.77271 333.409 3.12646H335.409C335.409 2.30688 335.138 1.56189 334.556 0.979355L333.142 2.39357ZM333.409 3.12646V35.6865H335.409V3.12646H333.409ZM333.409 35.6865C333.409 39.2972 334.269 42.1985 336.16 44.2111L337.618 42.8418C336.202 41.3345 335.409 39.0091 335.409 35.6865H333.409ZM336.182 44.2336C338.122 46.1735 340.776 47.0865 344.009 47.0865V45.0865C341.161 45.0865 339.069 44.2928 337.596 42.8194L336.182 44.2336ZM344.009 47.0865C347.192 47.0865 349.8 46.1706 351.687 44.2223L350.251 42.8307C348.831 44.2957 346.798 45.0865 344.009 45.0865V47.0865ZM351.687 44.2226C353.638 42.2106 354.529 39.3047 354.529 35.6865H352.529C352.529 39.0015 351.713 41.3224 350.251 42.8303L351.687 44.2226ZM354.529 35.6865V3.12646H352.529V35.6865H354.529ZM354.529 3.12646C354.529 2.77271 354.632 2.5577 354.796 2.39357L353.382 0.979355C352.799 1.56189 352.529 2.30688 352.529 3.12646H354.529ZM354.747 2.43904C355.004 2.21428 355.254 2.12646 355.529 2.12646V0.126461C354.737 0.126461 354.027 0.411975 353.43 0.933888L354.747 2.43904ZM355.529 2.12646L365.929 2.12646V0.126461L355.529 0.126461V2.12646ZM365.929 2.12646C366.2 2.12646 366.398 2.2099 366.582 2.39357L367.996 0.979357C367.433 0.416357 366.724 0.126461 365.929 0.126461V2.12646ZM366.63 2.43904C366.831 2.61507 366.929 2.8167 366.929 3.12646H368.929C368.929 2.26289 368.599 1.50452 367.947 0.933885L366.63 2.43904ZM366.929 3.12646V35.7665H368.929V3.12646H366.929ZM366.929 35.7665C366.929 40.7082 365.966 44.7039 364.11 47.814L365.827 48.8389C367.918 45.3357 368.929 40.9581 368.929 35.7665H366.929ZM364.114 47.8079C362.249 50.8823 359.634 53.1742 356.24 54.6938L357.057 56.5191C360.81 54.8387 363.742 52.2773 365.824 48.8451L364.114 47.8079ZM356.252 54.6887C352.83 56.1695 348.758 56.9265 344.009 56.9265V58.9265C348.966 58.9265 353.32 58.1367 357.046 56.5242L356.252 54.6887ZM387.098 56.5665L387.805 55.8594V55.8594L387.098 56.5665ZM387.098 1.68646L387.805 2.39357V2.39357L387.098 1.68646ZM426.538 5.92646L425.908 6.70322L425.913 6.70786L425.919 6.71242L426.538 5.92646ZM429.737 28.9665L428.924 28.3852L428.916 28.3964L429.737 28.9665ZM422.538 34.8865L422.13 33.9733L421.129 34.42L421.665 35.3757L422.538 34.8865ZM433.578 54.5665L434.472 54.1193L434.461 54.098L434.45 54.0772L433.578 54.5665ZM433.258 56.6465L433.965 57.3536V57.3536L433.258 56.6465ZM419.258 56.4065L418.514 57.0754L418.532 57.095L418.55 57.1136L419.258 56.4065ZM418.217 54.9665L419.112 54.5192L419.109 54.5128L419.105 54.5064L418.217 54.9665ZM409.098 37.3665L409.985 36.9064L409.706 36.3665H409.098V37.3665ZM400.858 37.3665V36.3665H399.858V37.3665H400.858ZM400.858 26.0865H399.858V27.0865H400.858V26.0865ZM415.737 24.2465L415.046 23.5245L415.038 23.5318L415.03 23.5394L415.737 24.2465ZM415.818 14.1665L415.08 14.8422L415.088 14.8504L415.096 14.8584L415.818 14.1665ZM400.858 12.2465V11.2465H399.858V12.2465H400.858ZM388.538 56.1265C388.184 56.1265 387.969 56.0235 387.805 55.8594L386.39 57.2736C386.973 57.8561 387.718 58.1265 388.538 58.1265V56.1265ZM387.805 55.8594C387.64 55.6952 387.538 55.4802 387.538 55.1265H385.538C385.538 55.946 385.808 56.691 386.39 57.2736L387.805 55.8594ZM387.538 55.1265V3.12646H385.538V55.1265H387.538ZM387.538 3.12646C387.538 2.77271 387.64 2.5577 387.805 2.39357L386.39 0.979355C385.808 1.56189 385.538 2.30688 385.538 3.12646H387.538ZM387.805 2.39357C387.969 2.22944 388.184 2.12646 388.538 2.12646V0.126461C387.718 0.126461 386.973 0.396819 386.39 0.979358L387.805 2.39357ZM388.538 2.12646L410.298 2.12646V0.126461L388.538 0.126461V2.12646ZM410.298 2.12646C417.029 2.12646 422.193 3.69151 425.908 6.70322L427.167 5.1497C422.988 1.76141 417.326 0.126461 410.298 0.126461V2.12646ZM425.919 6.71242C429.642 9.64092 431.538 13.8104 431.538 19.3665H433.538C433.538 13.2958 431.433 8.50533 427.156 5.14051L425.919 6.71242ZM431.538 19.3665C431.538 22.9831 430.649 25.9703 428.924 28.3852L430.551 29.5477C432.56 26.736 433.538 23.3232 433.538 19.3665H431.538ZM428.916 28.3964C427.21 30.8553 424.955 32.7122 422.13 33.9733L422.945 35.7996C426.094 34.3941 428.639 32.3043 430.559 29.5365L428.916 28.3964ZM421.665 35.3757L432.705 55.0557L434.45 54.0772L423.41 34.3972L421.665 35.3757ZM432.683 55.0137C432.796 55.2401 432.818 55.3788 432.818 55.4465H434.818C434.818 54.9808 434.679 54.5329 434.472 54.1193L432.683 55.0137ZM432.818 55.4465C432.818 55.5479 432.783 55.7064 432.55 55.9394L433.965 57.3536C434.478 56.8399 434.818 56.1984 434.818 55.4465H432.818ZM432.55 55.9394C432.43 56.0596 432.29 56.1265 432.057 56.1265V58.1265C432.785 58.1265 433.445 57.8734 433.965 57.3536L432.55 55.9394ZM432.057 56.1265H421.497V58.1265H432.057V56.1265ZM421.497 56.1265C420.62 56.1265 420.182 55.9168 419.965 55.6994L418.55 57.1136C419.293 57.8562 420.348 58.1265 421.497 58.1265V56.1265ZM420.001 55.7375C419.554 55.241 419.27 54.8361 419.112 54.5192L417.323 55.4137C417.591 55.9502 418.001 56.5053 418.514 57.0754L420.001 55.7375ZM419.105 54.5064L409.985 36.9064L408.21 37.8265L417.33 55.4265L419.105 54.5064ZM409.098 36.3665H400.858V38.3665H409.098V36.3665ZM399.858 37.3665V55.1265H401.858V37.3665H399.858ZM399.858 55.1265C399.858 55.4802 399.755 55.6952 399.59 55.8594L401.005 57.2736C401.587 56.691 401.858 55.946 401.858 55.1265H399.858ZM399.59 55.8594C399.426 56.0235 399.211 56.1265 398.858 56.1265V58.1265C399.677 58.1265 400.422 57.8561 401.005 57.2736L399.59 55.8594ZM398.858 56.1265H388.538V58.1265H398.858V56.1265ZM400.858 27.0865L410.138 27.0865V25.0865L400.858 25.0865V27.0865ZM410.138 27.0865C412.791 27.0865 414.961 26.4375 416.445 24.9536L415.03 23.5394C414.061 24.5087 412.497 25.0865 410.138 25.0865V27.0865ZM416.429 24.9685C417.945 23.5155 418.658 21.5527 418.658 19.2065H416.658C416.658 21.1269 416.09 22.5241 415.046 23.5245L416.429 24.9685ZM418.658 19.2065C418.658 16.9164 417.975 14.9726 416.539 13.4746L415.096 14.8584C416.113 15.9203 416.658 17.3365 416.658 19.2065H418.658ZM416.555 13.4907C415.114 11.9188 412.89 11.2465 410.138 11.2465V13.2465C412.612 13.2465 414.175 13.8541 415.08 14.8422L416.555 13.4907ZM410.138 11.2465L400.858 11.2465V13.2465L410.138 13.2465V11.2465ZM399.858 12.2465V26.0865H401.858V12.2465H399.858ZM484.801 55.4465L484.381 56.354L484.386 56.3564L484.801 55.4465ZM476.401 48.1665L475.55 48.6914L475.556 48.7015L476.401 48.1665ZM473.121 36.2465L472.122 36.2708L472.122 36.2811L472.122 36.2914L473.121 36.2465ZM473.121 22.0065L472.122 21.9605L472.122 21.9719L472.122 21.9832L473.121 22.0065ZM476.481 10.2465L477.326 10.7815L477.33 10.7752L476.481 10.2465ZM484.961 2.88646L485.376 3.79644L485.387 3.79128L484.961 2.88646ZM507.601 1.68646L507.311 2.64334L507.319 2.64573L507.327 2.64799L507.601 1.68646ZM515.441 5.52646L514.835 6.32189L514.841 6.32651L514.847 6.33104L515.441 5.52646ZM520.641 11.6065L519.751 12.0616L519.757 12.0735L519.763 12.0853L520.641 11.6065ZM522.641 19.6065L521.641 19.6243L521.642 19.6707L521.647 19.7169L522.641 19.6065ZM522.161 20.8065L521.51 20.0472L521.481 20.0722L521.454 20.0994L522.161 20.8065ZM508.561 20.8865L507.91 21.6457L507.944 21.6745L507.98 21.7002L508.561 20.8865ZM507.601 19.2065L506.634 19.4619L506.643 19.4926L506.653 19.5227L507.601 19.2065ZM503.921 13.4465L503.379 14.2868L503.395 14.2968L503.411 14.3063L503.921 13.4465ZM490.801 14.3265L491.485 15.056L491.491 15.0504L491.497 15.0447L490.801 14.3265ZM488.001 22.4065L487.002 22.3642L487.002 22.3699L488.001 22.4065ZM488.001 35.8465L487.002 35.8813L487.002 35.8887L488.001 35.8465ZM490.801 44.0065L490.105 44.7247L490.111 44.7304L490.117 44.736L490.801 44.0065ZM504.001 44.8065L503.471 43.9585L504.001 44.8065ZM507.601 39.0465L506.635 38.7888L506.633 38.7963L506.631 38.8039L507.601 39.0465ZM508.481 37.4465L509.062 38.2602L509.072 38.2534L509.081 38.2465L508.481 37.4465ZM522.161 37.4465L521.454 38.1536L521.481 38.1807L521.51 38.2057L522.161 37.4465ZM522.641 38.6465L521.647 38.536L521.642 38.5822L521.641 38.6286L522.641 38.6465ZM520.641 46.7265L519.759 46.2559L519.755 46.2632L520.641 46.7265ZM515.441 52.8065L516.035 53.611L516.041 53.6065L516.047 53.6019L515.441 52.8065ZM507.601 56.6465L507.876 57.608L507.884 57.6057L507.892 57.6033L507.601 56.6465ZM497.841 56.9265C492.88 56.9265 488.682 56.1167 485.216 54.5366L484.386 56.3564C488.174 58.0829 492.669 58.9265 497.841 58.9265V56.9265ZM485.221 54.5389C481.815 52.9629 479.166 50.6623 477.246 47.6314L475.556 48.7015C477.69 52.0706 480.641 54.6233 484.381 56.354L485.221 54.5389ZM477.252 47.6416C475.389 44.6198 474.328 40.8223 474.12 36.2016L472.122 36.2914C472.341 41.164 473.467 45.3132 475.55 48.6914L477.252 47.6416ZM474.121 36.2221C474.068 34.0446 474.041 31.7061 474.041 29.2065H472.041C472.041 31.7201 472.068 34.075 472.122 36.2708L474.121 36.2221ZM474.041 29.2065C474.041 26.7068 474.068 24.3146 474.121 22.0297L472.122 21.9832C472.068 24.285 472.041 26.6927 472.041 29.2065H474.041ZM474.12 22.0524C474.327 17.547 475.411 13.8048 477.326 10.7815L475.636 9.71141C473.498 13.0881 472.342 17.1859 472.122 21.9605L474.12 22.0524ZM477.33 10.7752C479.248 7.69575 481.921 5.37154 485.376 3.79637L484.546 1.97655C480.748 3.70805 477.767 6.29051 475.632 9.71772L477.33 10.7752ZM485.387 3.79128C488.853 2.16036 492.994 1.32646 497.841 1.32646V-0.673538C492.768 -0.673538 488.323 0.19923 484.535 1.98164L485.387 3.79128ZM497.841 1.32646C501.275 1.32646 504.429 1.76865 507.311 2.64334L507.892 0.729583C504.8 -0.209059 501.447 -0.673538 497.841 -0.673538V1.32646ZM507.327 2.64799C510.206 3.47061 512.704 4.69816 514.835 6.32189L516.047 4.73103C513.698 2.94143 510.97 1.60898 507.876 0.724939L507.327 2.64799ZM514.847 6.33104C516.967 7.89554 518.597 9.80407 519.751 12.0616L521.532 11.1514C520.232 8.60886 518.395 6.46405 516.035 4.72189L514.847 6.33104ZM519.763 12.0853C520.957 14.2744 521.591 16.7797 521.641 19.6243L523.641 19.5886C523.585 16.4599 522.885 13.6318 521.519 11.1276L519.763 12.0853ZM521.647 19.7169C521.663 19.861 521.638 19.9378 521.51 20.0472L522.812 21.5657C523.431 21.0351 523.726 20.3119 523.635 19.496L521.647 19.7169ZM521.454 20.0994C521.334 20.2196 521.194 20.2865 520.961 20.2865V22.2865C521.689 22.2865 522.349 22.0334 522.868 21.5136L521.454 20.0994ZM520.961 20.2865L510.161 20.2865V22.2865L520.961 22.2865V20.2865ZM510.161 20.2865C509.576 20.2865 509.28 20.1707 509.142 20.0727L507.98 21.7002C508.59 22.1356 509.36 22.2865 510.161 22.2865V20.2865ZM509.212 20.1272C509.043 19.982 508.795 19.6263 508.55 18.8902L506.653 19.5227C506.941 20.3866 507.333 21.1509 507.91 21.6457L509.212 20.1272ZM508.568 18.9511C507.786 15.9899 506.451 13.7857 504.432 12.5866L503.411 14.3063C504.805 15.1339 505.923 16.7697 506.634 19.4619L508.568 18.9511ZM504.463 12.6062C502.613 11.4122 500.359 10.8465 497.761 10.8465V12.8465C500.07 12.8465 501.923 13.3474 503.379 14.2868L504.463 12.6062ZM497.761 10.8465C494.632 10.8465 492.04 11.7339 490.105 13.6082L491.497 15.0447C492.976 13.6123 495.023 12.8465 497.761 12.8465V10.8465ZM490.117 13.5969C488.131 15.4595 487.167 18.4708 487.002 22.3642L489 22.4487C489.156 18.7688 490.059 16.3934 491.485 15.056L490.117 13.5969ZM487.002 22.3699C486.841 26.7682 486.841 31.272 487.002 35.8813L489.001 35.8116C488.841 31.2476 488.841 26.7914 489.001 22.443L487.002 22.3699ZM487.002 35.8887C487.167 39.7857 488.132 42.8126 490.105 44.7247L491.497 43.2882C490.057 41.8936 489.156 39.4806 489 35.8042L487.002 35.8887ZM490.117 44.736C492.053 46.5509 494.641 47.4065 497.761 47.4065V45.4065C495.015 45.4065 492.963 44.662 491.485 43.2769L490.117 44.736ZM497.761 47.4065C500.361 47.4065 502.634 46.8402 504.531 45.6545L503.471 43.9585C501.955 44.906 500.068 45.4065 497.761 45.4065V47.4065ZM504.531 45.6545C506.535 44.4019 507.842 42.2075 508.571 39.289L506.631 38.8039C505.974 41.4321 504.88 43.0777 503.471 43.9585L504.531 45.6545ZM508.567 39.3041C508.764 38.5681 508.979 38.3195 509.062 38.2602L507.9 36.6327C507.236 37.1068 506.865 37.9248 506.635 38.7888L508.567 39.3041ZM509.081 38.2465C509.289 38.0905 509.619 37.9665 510.161 37.9665V35.9665C509.317 35.9665 508.527 36.1624 507.881 36.6465L509.081 38.2465ZM510.161 37.9665H520.961V35.9665H510.161V37.9665ZM520.961 37.9665C521.194 37.9665 521.334 38.0334 521.454 38.1536L522.868 36.7394C522.349 36.2196 521.689 35.9665 520.961 35.9665V37.9665ZM521.51 38.2057C521.638 38.3151 521.663 38.3919 521.647 38.536L523.635 38.7569C523.726 37.941 523.431 37.2178 522.812 36.6872L521.51 38.2057ZM521.641 38.6286C521.591 41.473 520.957 44.0087 519.759 46.2559L521.524 47.1971C522.885 44.6442 523.585 41.7933 523.641 38.6643L521.641 38.6286ZM519.755 46.2632C518.601 48.4718 516.966 50.3875 514.835 52.011L516.047 53.6019C518.396 51.8121 520.229 49.6745 521.527 47.1897L519.755 46.2632ZM514.847 52.0019C512.709 53.5799 510.201 54.812 507.311 55.6896L507.892 57.6033C510.974 56.6675 513.693 55.3397 516.035 53.611L514.847 52.0019ZM507.327 55.6849C504.44 56.5096 501.28 56.9265 497.841 56.9265V58.9265C501.442 58.9265 504.789 58.49 507.876 57.608L507.327 55.6849ZM549.133 55.5265L549.537 54.6115L549.133 55.5265ZM540.653 48.3265L539.804 48.8552L539.808 48.8615L540.653 48.3265ZM537.293 36.1665L536.293 36.1897L536.294 36.2L536.294 36.2104L537.293 36.1665ZM537.293 22.3265L536.294 22.2821L536.294 22.2929L536.293 22.3037L537.293 22.3265ZM540.653 10.2465L539.807 9.71401L539.804 9.71772L540.653 10.2465ZM574.573 2.80646L574.158 3.71638L574.163 3.71863L574.573 2.80646ZM583.213 10.2465L582.367 10.7789L582.371 10.7851L583.213 10.2465ZM586.573 22.3265L585.574 22.3598L585.574 22.3719L586.573 22.3265ZM586.573 36.1665L585.574 36.12L585.574 36.1226L586.573 36.1665ZM583.213 48.3265L584.058 48.8615L584.062 48.8552L583.213 48.3265ZM574.733 55.5265L574.329 54.6115L574.733 55.5265ZM568.813 43.8465L568.128 43.1183L568.122 43.1234L568.117 43.1286L568.813 43.8465ZM571.693 35.6865L570.694 35.6411L570.694 35.6495L570.694 35.6579L571.693 35.6865ZM571.693 22.5665L570.694 22.609L570.694 22.614L571.693 22.5665ZM570.253 16.4865L569.359 16.9337L569.368 16.9518L569.378 16.9695L570.253 16.4865ZM566.893 12.9665L566.433 13.8542L566.893 12.9665ZM553.613 16.4865L554.489 16.9695L554.492 16.9633L554.495 16.9571L553.613 16.4865ZM552.173 22.5665L551.174 22.5239L551.174 22.5333L551.173 22.5427L552.173 22.5665ZM552.173 35.6865L551.173 35.7092L551.174 35.7192L551.174 35.7293L552.173 35.6865ZM555.053 43.8465L554.357 44.5644L555.053 43.8465ZM561.933 56.9265C557.133 56.9265 553.01 56.1438 549.537 54.6115L548.729 56.4414C552.51 58.1091 556.92 58.9265 561.933 58.9265V56.9265ZM549.537 54.6115C546.083 53.0877 543.413 50.8158 541.498 47.7914L539.808 48.8615C541.946 52.2371 544.93 54.7653 548.729 56.4414L549.537 54.6115ZM541.502 47.7977C539.587 44.7244 538.5 40.8491 538.292 36.1226L536.294 36.2104C536.513 41.1904 537.666 45.4218 539.804 48.8552L541.502 47.7977ZM538.293 36.1432C538.24 33.8576 538.213 31.572 538.213 29.2865H536.213C536.213 31.5876 536.24 33.8886 536.293 36.1897L538.293 36.1432ZM538.213 29.2865C538.213 27.0009 538.24 24.6885 538.293 22.3492L536.293 22.3037C536.24 24.6578 536.213 26.9854 536.213 29.2865H538.213ZM538.292 22.3709C538.5 17.6997 539.586 13.8501 541.502 10.7752L539.804 9.71772C537.667 13.1495 536.513 17.3533 536.294 22.2821L538.292 22.3709ZM541.5 10.7789C543.473 7.64103 546.175 5.29046 549.628 3.71637L548.798 1.89656C544.998 3.62913 541.993 6.23856 539.807 9.71401L541.5 10.7789ZM549.628 3.71637C553.099 2.13388 557.192 1.32646 561.933 1.32646V-0.673538C556.967 -0.673538 552.58 0.172381 548.798 1.89656L549.628 3.71637ZM561.933 1.32646C566.619 1.32646 570.686 2.13327 574.158 3.71637L574.988 1.89656C571.207 0.172989 566.848 -0.673538 561.933 -0.673538V1.32646ZM574.163 3.71863C577.67 5.29399 580.395 7.64478 582.367 10.7789L584.06 9.71401C581.871 6.23481 578.836 3.6256 574.983 1.89429L574.163 3.71863ZM582.371 10.7851C584.333 13.8543 585.418 17.6959 585.574 22.3598L587.573 22.2931C587.408 17.3571 586.253 13.1453 584.056 9.7078L582.371 10.7851ZM585.574 22.3719C585.68 24.7038 585.733 27.0086 585.733 29.2865H587.733C587.733 26.9776 587.679 24.6425 587.572 22.2811L585.574 22.3719ZM585.733 29.2865C585.733 31.5643 585.68 33.8421 585.574 36.12L587.572 36.2129C587.679 33.9041 587.733 31.5953 587.733 29.2865H585.733ZM585.574 36.1226C585.366 40.8491 584.279 44.7244 582.364 47.7977L584.062 48.8552C586.201 45.4218 587.353 41.1904 587.572 36.2104L585.574 36.1226ZM582.368 47.7914C580.453 50.8158 577.784 53.0877 574.329 54.6115L575.137 56.4414C578.936 54.7653 581.92 52.2371 584.058 48.8615L582.368 47.7914ZM574.329 54.6115C570.856 56.1438 566.733 56.9265 561.933 56.9265V58.9265C566.947 58.9265 571.357 58.1091 575.137 56.4414L574.329 54.6115ZM561.933 47.4065C564.977 47.4065 567.534 46.4798 569.509 44.5644L568.117 43.1286C566.572 44.6265 564.543 45.4065 561.933 45.4065V47.4065ZM569.498 44.5747C571.584 42.6121 572.582 39.5827 572.693 35.715L570.694 35.6579C570.591 39.2569 569.669 41.6675 568.128 43.1183L569.498 44.5747ZM572.692 35.7319C572.799 33.372 572.853 31.1434 572.853 29.0465H570.853C570.853 31.1095 570.8 33.3076 570.694 35.6411L572.692 35.7319ZM572.853 29.0465C572.853 26.9494 572.799 24.7735 572.692 22.5189L570.694 22.614C570.8 24.8394 570.853 26.9835 570.853 29.0465H572.853ZM572.692 22.5239C572.582 19.9235 572.081 17.73 571.129 16.0034L569.378 16.9695C570.132 18.3362 570.591 20.1961 570.694 22.609L572.692 22.5239ZM571.148 16.0393C570.263 14.2706 569 12.9327 567.353 12.0787L566.433 13.8542C567.666 14.4936 568.643 15.5023 569.359 16.9337L571.148 16.0393ZM567.353 12.0787C565.751 11.2479 563.936 10.8465 561.933 10.8465V12.8465C563.664 12.8465 565.155 13.1917 566.433 13.8542L567.353 12.0787ZM561.933 10.8465C559.979 10.8465 558.191 11.25 556.593 12.0787L557.513 13.8542C558.795 13.1896 560.261 12.8465 561.933 12.8465V10.8465ZM556.593 12.0787C554.952 12.9293 553.668 14.2592 552.731 16.0159L554.495 16.9571C555.265 15.5137 556.274 14.4969 557.513 13.8542L556.593 12.0787ZM552.738 16.0034C551.785 17.73 551.285 19.9235 551.174 22.5239L553.172 22.609C553.275 20.1961 553.735 18.3362 554.489 16.9695L552.738 16.0034ZM551.173 22.5427C551.12 24.79 551.093 26.9579 551.093 29.0465L553.093 29.0465C553.093 26.975 553.12 24.8229 553.173 22.5903L551.173 22.5427ZM551.093 29.0465C551.093 31.1349 551.12 33.3559 551.173 35.7092L553.173 35.6637C553.12 33.3237 553.093 31.118 553.093 29.0465L551.093 29.0465ZM551.174 35.7293C551.339 39.5877 552.337 42.6059 554.357 44.5644L555.749 43.1286C554.249 41.6737 553.327 39.2519 553.172 35.6436L551.174 35.7293ZM554.357 44.5644C556.332 46.4798 558.889 47.4065 561.933 47.4065V45.4065C559.323 45.4065 557.294 44.6265 555.749 43.1286L554.357 44.5644ZM604.566 56.5665L603.859 57.2736L603.883 57.2971L603.908 57.319L604.566 56.5665ZM604.566 1.68646L603.908 0.933888L603.883 0.955812L603.859 0.979355L604.566 1.68646ZM616.566 1.84646L615.819 2.51083L615.858 2.55479L615.902 2.59387L616.566 1.84646ZM617.446 2.88646L616.518 3.25785L616.542 3.3172L616.573 3.37304L617.446 2.88646ZM631.526 28.1665L630.653 28.653L631.526 30.2216L632.4 28.653L631.526 28.1665ZM645.606 2.88646L644.749 2.37196L644.74 2.38579L644.733 2.39988L645.606 2.88646ZM646.406 1.84646L645.659 1.18208L645.654 1.18796L646.406 1.84646ZM658.406 1.68646L657.699 2.39357L657.723 2.41711L657.748 2.43904L658.406 1.68646ZM658.406 56.5665L657.748 55.8139L657.723 55.8358L657.699 55.8594L658.406 56.5665ZM645.926 56.5665L645.219 57.2736L645.243 57.2971L645.268 57.319L645.926 56.5665ZM645.366 25.1265H646.366L644.487 24.6509L645.366 25.1265ZM636.326 41.8465L635.447 41.3709L635.428 41.4049L635.412 41.4403L636.326 41.8465ZM635.366 43.1265L634.708 42.3739L635.366 43.1265ZM627.686 43.1265L628.345 42.3739H628.345L627.686 43.1265ZM626.646 41.8465L625.767 42.3221L625.772 42.3321L626.646 41.8465ZM617.606 25.1265L618.486 24.6509L616.606 25.1265H617.606ZM606.006 56.1265C605.731 56.1265 605.482 56.0386 605.225 55.8139L603.908 57.319C604.504 57.841 605.215 58.1265 606.006 58.1265V56.1265ZM605.273 55.8594C605.109 55.6952 605.006 55.4802 605.006 55.1265H603.006C603.006 55.946 603.277 56.691 603.859 57.2736L605.273 55.8594ZM605.006 55.1265V3.12646L603.006 3.12646V55.1265H605.006ZM605.006 3.12646C605.006 2.77271 605.109 2.5577 605.273 2.39357L603.859 0.979355C603.277 1.56189 603.006 2.30688 603.006 3.12646L605.006 3.12646ZM605.225 2.43904C605.482 2.21428 605.731 2.12646 606.006 2.12646V0.126461C605.215 0.126461 604.504 0.411976 603.908 0.933888L605.225 2.43904ZM606.006 2.12646L614.646 2.12646V0.126461L606.006 0.126461V2.12646ZM614.646 2.12646C615.313 2.12646 615.639 2.30855 615.819 2.51083L617.314 1.1821C616.64 0.424371 615.686 0.126461 614.646 0.126461V2.12646ZM615.902 2.59387C616.12 2.78752 616.276 2.94657 616.383 3.0724C616.496 3.20557 616.521 3.26495 616.518 3.25785L618.375 2.51507C618.173 2.0118 617.717 1.53154 617.231 1.09905L615.902 2.59387ZM616.573 3.37304L630.653 28.653L632.4 27.6799L618.32 2.39988L616.573 3.37304ZM632.4 28.653L646.48 3.37304L644.733 2.39988L630.653 27.6799L632.4 28.653ZM646.464 3.40096C646.578 3.21088 646.798 2.91694 647.159 2.50496L645.654 1.18796C645.267 1.62932 644.955 2.02871 644.749 2.37196L646.464 3.40096ZM647.154 2.51083C647.323 2.32071 647.664 2.12646 648.406 2.12646V0.126461C647.335 0.126461 646.343 0.412217 645.659 1.1821L647.154 2.51083ZM648.406 2.12646L656.966 2.12646V0.126461L648.406 0.126461V2.12646ZM656.966 2.12646C657.32 2.12646 657.535 2.22944 657.699 2.39357L659.113 0.979357C658.531 0.39682 657.786 0.126461 656.966 0.126461V2.12646ZM657.748 2.43904C657.949 2.61506 658.046 2.8167 658.046 3.12646L660.046 3.12646C660.046 2.26289 659.717 1.50453 659.065 0.933887L657.748 2.43904ZM658.046 3.12646V55.1265H660.046V3.12646L658.046 3.12646ZM658.046 55.1265C658.046 55.4362 657.949 55.6379 657.748 55.8139L659.065 57.319C659.717 56.7484 660.046 55.99 660.046 55.1265H658.046ZM657.699 55.8594C657.535 56.0235 657.32 56.1265 656.966 56.1265V58.1265C657.786 58.1265 658.531 57.8561 659.113 57.2736L657.699 55.8594ZM656.966 56.1265H647.446V58.1265H656.966V56.1265ZM647.446 56.1265C647.093 56.1265 646.822 56.0217 646.585 55.8139L645.268 57.319C645.884 57.8579 646.627 58.1265 647.446 58.1265V56.1265ZM646.633 55.8594C646.469 55.6952 646.366 55.4802 646.366 55.1265H644.366C644.366 55.946 644.637 56.691 645.219 57.2736L646.633 55.8594ZM646.366 55.1265V25.1265H644.366V55.1265H646.366ZM644.487 24.6509L635.447 41.3709L637.206 42.3221L646.246 25.6021L644.487 24.6509ZM635.412 41.4403C635.263 41.7774 635.034 42.0884 634.708 42.3739L636.025 43.879C636.552 43.4178 636.963 42.8755 637.24 42.2526L635.412 41.4403ZM634.708 42.3739C634.515 42.5429 634.189 42.6865 633.606 42.6865V44.6865C634.517 44.6865 635.365 44.4567 636.025 43.879L634.708 42.3739ZM633.606 42.6865H629.446V44.6865H633.606V42.6865ZM629.446 42.6865C628.864 42.6865 628.538 42.5429 628.345 42.3739L627.028 43.879C627.688 44.4567 628.535 44.6865 629.446 44.6865V42.6865ZM628.345 42.3739C628.002 42.0739 627.729 41.7368 627.52 41.3608L625.772 42.3321C626.097 42.9161 626.517 43.4323 627.028 43.879L628.345 42.3739ZM627.526 41.3709L618.486 24.6509L616.727 25.6021L625.767 42.3221L627.526 41.3709ZM616.606 25.1265V55.1265H618.606V25.1265H616.606ZM616.606 55.1265C616.606 55.4802 616.503 55.6952 616.339 55.8594L617.753 57.2736C618.336 56.691 618.606 55.946 618.606 55.1265H616.606ZM616.339 55.8594C616.175 56.0235 615.96 56.1265 615.606 56.1265V58.1265C616.426 58.1265 617.171 57.8561 617.753 57.2736L616.339 55.8594ZM615.606 56.1265H606.006V58.1265H615.606V56.1265ZM678.738 56.5665L678.031 57.2736L678.055 57.2971L678.08 57.319L678.738 56.5665ZM678.738 1.68646L678.08 0.933888L678.055 0.955812L678.031 0.979355L678.738 1.68646ZM690.738 1.84646L689.991 2.51083L690.03 2.55479L690.074 2.59387L690.738 1.84646ZM691.618 2.88646L690.69 3.25785L690.713 3.3172L690.745 3.37304L691.618 2.88646ZM705.698 28.1665L704.824 28.653L705.698 30.2216L706.572 28.653L705.698 28.1665ZM719.778 2.88646L718.921 2.37196L718.912 2.38579L718.904 2.39988L719.778 2.88646ZM720.578 1.84646L719.831 1.18208L719.826 1.18796L720.578 1.84646ZM732.578 1.68646L731.871 2.39357L731.895 2.41711L731.92 2.43904L732.578 1.68646ZM732.578 56.5665L731.92 55.8139L731.895 55.8358L731.871 55.8594L732.578 56.5665ZM720.098 56.5665L719.391 57.2736L719.415 57.2971L719.44 57.319L720.098 56.5665ZM719.538 25.1265H720.538L718.658 24.6509L719.538 25.1265ZM710.498 41.8465L709.618 41.3709L709.6 41.4049L709.584 41.4403L710.498 41.8465ZM709.538 43.1265L708.88 42.3739L709.538 43.1265ZM701.858 43.1265L702.517 42.3739H702.517L701.858 43.1265ZM700.818 41.8465L699.938 42.3221L699.944 42.3321L700.818 41.8465ZM691.778 25.1265L692.658 24.6509L690.778 25.1265H691.778ZM680.178 56.1265C679.903 56.1265 679.654 56.0386 679.397 55.8139L678.08 57.319C678.676 57.841 679.386 58.1265 680.178 58.1265V56.1265ZM679.445 55.8594C679.281 55.6952 679.178 55.4802 679.178 55.1265H677.178C677.178 55.946 677.448 56.691 678.031 57.2736L679.445 55.8594ZM679.178 55.1265V3.12646H677.178V55.1265H679.178ZM679.178 3.12646C679.178 2.77271 679.281 2.5577 679.445 2.39357L678.031 0.979355C677.448 1.56189 677.178 2.30688 677.178 3.12646H679.178ZM679.397 2.43904C679.654 2.21428 679.903 2.12646 680.178 2.12646V0.126461C679.386 0.126461 678.676 0.411976 678.08 0.933888L679.397 2.43904ZM680.178 2.12646L688.818 2.12646V0.126461L680.178 0.126461V2.12646ZM688.818 2.12646C689.485 2.12646 689.811 2.30855 689.991 2.51083L691.486 1.1821C690.812 0.424371 689.858 0.126461 688.818 0.126461V2.12646ZM690.074 2.59387C690.292 2.78752 690.448 2.94657 690.555 3.0724C690.667 3.20557 690.693 3.26495 690.69 3.25785L692.547 2.51507C692.345 2.0118 691.889 1.53154 691.402 1.09905L690.074 2.59387ZM690.745 3.37304L704.824 28.653L706.572 27.6799L692.492 2.39988L690.745 3.37304ZM706.572 28.653L720.652 3.37304L718.904 2.39988L704.824 27.6799L706.572 28.653ZM720.636 3.40096C720.75 3.21088 720.97 2.91694 721.331 2.50496L719.826 1.18796C719.439 1.62932 719.127 2.02871 718.921 2.37196L720.636 3.40096ZM721.326 2.51083C721.495 2.32071 721.836 2.12646 722.578 2.12646V0.126461C721.507 0.126461 720.515 0.412217 719.831 1.1821L721.326 2.51083ZM722.578 2.12646L731.138 2.12646V0.126461L722.578 0.126461V2.12646ZM731.138 2.12646C731.492 2.12646 731.707 2.22944 731.871 2.39357L733.285 0.979357C732.703 0.39682 731.958 0.126461 731.138 0.126461V2.12646ZM731.92 2.43904C732.121 2.61506 732.218 2.8167 732.218 3.12646H734.218C734.218 2.26289 733.889 1.50453 733.237 0.933887L731.92 2.43904ZM732.218 3.12646V55.1265H734.218V3.12646H732.218ZM732.218 55.1265C732.218 55.4362 732.121 55.6379 731.92 55.8139L733.237 57.319C733.889 56.7484 734.218 55.99 734.218 55.1265H732.218ZM731.871 55.8594C731.707 56.0235 731.492 56.1265 731.138 56.1265V58.1265C731.958 58.1265 732.703 57.8561 733.285 57.2736L731.871 55.8594ZM731.138 56.1265L721.618 56.1265V58.1265L731.138 58.1265V56.1265ZM721.618 56.1265C721.264 56.1265 720.994 56.0217 720.757 55.8139L719.44 57.319C720.055 57.8579 720.798 58.1265 721.618 58.1265V56.1265ZM720.805 55.8594C720.641 55.6952 720.538 55.4802 720.538 55.1265H718.538C718.538 55.946 718.808 56.691 719.391 57.2736L720.805 55.8594ZM720.538 55.1265V25.1265H718.538V55.1265H720.538ZM718.658 24.6509L709.618 41.3709L711.378 42.3221L720.418 25.6021L718.658 24.6509ZM709.584 41.4403C709.435 41.7774 709.206 42.0884 708.88 42.3739L710.197 43.879C710.724 43.4178 711.135 42.8755 711.412 42.2526L709.584 41.4403ZM708.88 42.3739C708.687 42.5429 708.361 42.6865 707.778 42.6865V44.6865C708.689 44.6865 709.536 44.4567 710.197 43.879L708.88 42.3739ZM707.778 42.6865H703.618V44.6865H707.778V42.6865ZM703.618 42.6865C703.036 42.6865 702.71 42.5429 702.517 42.3739L701.2 43.879C701.86 44.4567 702.707 44.6865 703.618 44.6865V42.6865ZM702.517 42.3739C702.174 42.0739 701.901 41.7368 701.692 41.3608L699.944 42.3321C700.268 42.9161 700.689 43.4323 701.2 43.879L702.517 42.3739ZM701.698 41.3709L692.658 24.6509L690.898 25.6021L699.938 42.3221L701.698 41.3709ZM690.778 25.1265V55.1265H692.778V25.1265H690.778ZM690.778 55.1265C690.778 55.4802 690.675 55.6952 690.511 55.8594L691.925 57.2736C692.508 56.691 692.778 55.946 692.778 55.1265H690.778ZM690.511 55.8594C690.347 56.0235 690.132 56.1265 689.778 56.1265V58.1265C690.598 58.1265 691.343 57.8561 691.925 57.2736L690.511 55.8594ZM689.778 56.1265L680.178 56.1265V58.1265L689.778 58.1265V56.1265ZM763.15 55.6065L762.741 56.5191L762.75 56.5228L762.758 56.5263L763.15 55.6065ZM754.83 48.3265L753.971 48.8389L753.975 48.8451L754.83 48.3265ZM752.43 1.68646L753.137 2.39357V2.39357L752.43 1.68646ZM765.63 1.68646L764.923 2.39357V2.39357L765.63 1.68646ZM768.67 43.5265L767.941 44.2111L767.952 44.2225L767.963 44.2336L768.67 43.5265ZM782.75 43.5265L782.032 42.8303L782.032 42.8307L782.75 43.5265ZM785.87 1.68646L785.211 0.933888L785.186 0.955813L785.163 0.979355L785.87 1.68646ZM799.07 1.68646L798.363 2.39357L798.386 2.41712L798.411 2.43904L799.07 1.68646ZM796.75 48.3265L797.605 48.8451L797.609 48.8389L796.75 48.3265ZM788.43 55.6065L788.827 56.5243L788.839 56.5191L788.43 55.6065ZM775.79 56.9265C771.096 56.9265 767.021 56.1702 763.542 54.6866L762.758 56.5263C766.532 58.136 770.884 58.9265 775.79 58.9265V56.9265ZM763.559 54.6938C760.165 53.1742 757.55 50.8823 755.685 47.8079L753.975 48.8451C756.057 52.2773 758.988 54.8387 762.741 56.5191L763.559 54.6938ZM755.689 47.814C753.833 44.7039 752.87 40.7082 752.87 35.7665H750.87C750.87 40.9581 751.881 45.3357 753.971 48.8389L755.689 47.814ZM752.87 35.7665V3.12646H750.87V35.7665H752.87ZM752.87 3.12646C752.87 2.77271 752.973 2.5577 753.137 2.39357L751.723 0.979355C751.14 1.56189 750.87 2.30688 750.87 3.12646H752.87ZM753.137 2.39357C753.301 2.22944 753.516 2.12646 753.87 2.12646V0.126461C753.05 0.126461 752.305 0.396819 751.723 0.979358L753.137 2.39357ZM753.87 2.12646L764.19 2.12646V0.126461L753.87 0.126461V2.12646ZM764.19 2.12646C764.544 2.12646 764.759 2.22944 764.923 2.39357L766.337 0.979358C765.755 0.396819 765.01 0.126461 764.19 0.126461V2.12646ZM764.923 2.39357C765.087 2.5577 765.19 2.77271 765.19 3.12646H767.19C767.19 2.30688 766.92 1.56189 766.337 0.979355L764.923 2.39357ZM765.19 3.12646V35.6865H767.19V3.12646H765.19ZM765.19 35.6865C765.19 39.2972 766.05 42.1985 767.941 44.2111L769.399 42.8418C767.983 41.3345 767.19 39.0091 767.19 35.6865H765.19ZM767.963 44.2336C769.903 46.1735 772.557 47.0865 775.79 47.0865V45.0865C772.943 45.0865 770.851 44.2928 769.377 42.8194L767.963 44.2336ZM775.79 47.0865C778.974 47.0865 781.581 46.1706 783.468 44.2223L782.032 42.8307C780.613 44.2957 778.58 45.0865 775.79 45.0865V47.0865ZM783.468 44.2226C785.419 42.2106 786.31 39.3047 786.31 35.6865H784.31C784.31 39.0015 783.494 41.3224 782.032 42.8303L783.468 44.2226ZM786.31 35.6865V3.12646L784.31 3.12646V35.6865H786.31ZM786.31 3.12646C786.31 2.77271 786.413 2.5577 786.577 2.39357L785.163 0.979355C784.58 1.56189 784.31 2.30688 784.31 3.12646L786.31 3.12646ZM786.529 2.43904C786.785 2.21428 787.035 2.12646 787.31 2.12646V0.126461C786.518 0.126461 785.808 0.411975 785.211 0.933888L786.529 2.43904ZM787.31 2.12646L797.71 2.12646V0.126461L787.31 0.126461V2.12646ZM797.71 2.12646C797.981 2.12646 798.179 2.2099 798.363 2.39357L799.777 0.979357C799.214 0.416357 798.506 0.126461 797.71 0.126461V2.12646ZM798.411 2.43904C798.613 2.61507 798.71 2.8167 798.71 3.12646H800.71C800.71 2.26289 800.381 1.50452 799.729 0.933885L798.411 2.43904ZM798.71 3.12646V35.7665H800.71V3.12646H798.71ZM798.71 35.7665C798.71 40.7082 797.747 44.7039 795.891 47.814L797.609 48.8389C799.699 45.3357 800.71 40.9581 800.71 35.7665H798.71ZM795.895 47.8079C794.03 50.8823 791.415 53.1742 788.021 54.6938L788.839 56.5191C792.592 54.8387 795.523 52.2773 797.605 48.8451L795.895 47.8079ZM788.033 54.6887C784.612 56.1695 780.539 56.9265 775.79 56.9265V58.9265C780.747 58.9265 785.102 58.1367 788.827 56.5242L788.033 54.6887ZM818.879 56.5665L819.586 55.8594V55.8594L818.879 56.5665ZM818.879 1.68646L819.586 2.39357V2.39357L818.879 1.68646ZM830.719 1.76646L829.966 2.42497L830.01 2.47514L830.06 2.51904L830.719 1.76646ZM831.519 2.64646L830.624 3.09367L830.647 3.13898L830.674 3.18177L831.519 2.64646ZM851.039 33.4465L850.194 33.9818L852.039 36.8924V33.4465H851.039ZM851.599 1.68646L852.306 2.39357V2.39357L851.599 1.68646ZM864.079 1.68646L863.372 2.39357V2.39357L864.079 1.68646ZM864.079 56.5665L864.786 57.2736L864.809 57.25L864.831 57.225L864.079 56.5665ZM852.159 56.4865L851.406 57.145L851.428 57.17L851.452 57.1936L852.159 56.4865ZM851.439 55.6065L850.604 56.157L850.607 56.1612L851.439 55.6065ZM831.919 26.0065L832.754 25.4559L830.919 22.6736V26.0065H831.919ZM820.319 56.1265C819.965 56.1265 819.75 56.0235 819.586 55.8594L818.172 57.2736C818.754 57.8561 819.499 58.1265 820.319 58.1265V56.1265ZM819.586 55.8594C819.422 55.6952 819.319 55.4802 819.319 55.1265H817.319C817.319 55.946 817.589 56.691 818.172 57.2736L819.586 55.8594ZM819.319 55.1265V3.12646L817.319 3.12646V55.1265H819.319ZM819.319 3.12646C819.319 2.77271 819.422 2.5577 819.586 2.39357L818.172 0.979355C817.589 1.56189 817.319 2.30688 817.319 3.12646L819.319 3.12646ZM819.586 2.39357C819.75 2.22944 819.965 2.12646 820.319 2.12646V0.126461C819.499 0.126461 818.754 0.396819 818.172 0.979358L819.586 2.39357ZM820.319 2.12646L828.799 2.12646V0.126461L820.319 0.126461V2.12646ZM828.799 2.12646C829.587 2.12646 829.872 2.31678 829.966 2.42497L831.471 1.10796C830.819 0.362808 829.824 0.126461 828.799 0.126461V2.12646ZM830.06 2.51904C830.256 2.69032 830.399 2.82974 830.499 2.93913C830.605 3.05647 830.63 3.10502 830.624 3.09367L832.413 2.19925C832.21 1.79241 831.803 1.38665 831.377 1.01388L830.06 2.51904ZM830.674 3.18177L850.194 33.9818L851.883 32.9112L832.363 2.11115L830.674 3.18177ZM852.039 33.4465V3.12646H850.039V33.4465H852.039ZM852.039 3.12646C852.039 2.77271 852.142 2.5577 852.306 2.39357L850.892 0.979355C850.309 1.56189 850.039 2.30688 850.039 3.12646H852.039ZM852.306 2.39357C852.47 2.22944 852.685 2.12646 853.039 2.12646V0.126461C852.219 0.126461 851.474 0.39682 850.892 0.979358L852.306 2.39357ZM853.039 2.12646L862.639 2.12646V0.126461L853.039 0.126461V2.12646ZM862.639 2.12646C862.992 2.12646 863.208 2.22944 863.372 2.39357L864.786 0.97936C864.203 0.396819 863.458 0.126461 862.639 0.126461V2.12646ZM863.372 2.39357C863.536 2.5577 863.639 2.77271 863.639 3.12646H865.639C865.639 2.30688 865.368 1.56189 864.786 0.979353L863.372 2.39357ZM863.639 3.12646V55.1265H865.639V3.12646H863.639ZM863.639 55.1265C863.639 55.4015 863.551 55.6511 863.326 55.908L864.831 57.225C865.353 56.6285 865.639 55.9181 865.639 55.1265H863.639ZM863.372 55.8594C863.208 56.0235 862.992 56.1265 862.639 56.1265V58.1265C863.458 58.1265 864.203 57.8561 864.786 57.2736L863.372 55.8594ZM862.639 56.1265L854.079 56.1265V58.1265L862.639 58.1265V56.1265ZM854.079 56.1265C853.38 56.1265 853.039 55.9523 852.866 55.7794L851.452 57.1936C852.132 57.8739 853.071 58.1265 854.079 58.1265V56.1265ZM852.911 55.828C852.531 55.3936 852.335 55.1484 852.271 55.0518L850.607 56.1612C850.756 56.3845 851.04 56.726 851.406 57.145L852.911 55.828ZM852.274 55.0559L832.754 25.4559L831.084 26.557L850.604 56.157L852.274 55.0559ZM830.919 26.0065V55.1265H832.919V26.0065H830.919ZM830.919 55.1265C830.919 55.4802 830.816 55.6952 830.652 55.8594L832.066 57.2736C832.648 56.691 832.919 55.946 832.919 55.1265H830.919ZM830.652 55.8594C830.487 56.0235 830.273 56.1265 829.919 56.1265V58.1265C830.738 58.1265 831.483 57.8561 832.066 57.2736L830.652 55.8594ZM829.919 56.1265H820.319V58.1265H829.919V56.1265ZM884.379 56.5665L885.086 55.8594V55.8594L884.379 56.5665ZM884.379 1.68646L885.086 2.39357V2.39357L884.379 1.68646ZM897.979 1.68646L897.272 2.39357V2.39357L897.979 1.68646ZM897.979 56.5665L897.272 55.8594L897.979 56.5665ZM885.819 56.1265C885.465 56.1265 885.25 56.0235 885.086 55.8594L883.672 57.2736C884.254 57.8561 884.999 58.1265 885.819 58.1265V56.1265ZM885.086 55.8594C884.922 55.6952 884.819 55.4802 884.819 55.1265H882.819C882.819 55.946 883.089 56.691 883.672 57.2736L885.086 55.8594ZM884.819 55.1265V3.12646H882.819V55.1265H884.819ZM884.819 3.12646C884.819 2.77271 884.922 2.5577 885.086 2.39357L883.672 0.979355C883.089 1.56189 882.819 2.30688 882.819 3.12646H884.819ZM885.086 2.39357C885.25 2.22944 885.465 2.12646 885.819 2.12646V0.126461C884.999 0.126461 884.254 0.396819 883.672 0.979358L885.086 2.39357ZM885.819 2.12646L896.539 2.12646V0.126461L885.819 0.126461V2.12646ZM896.539 2.12646C896.893 2.12646 897.107 2.22944 897.272 2.39357L898.686 0.979358C898.103 0.396819 897.358 0.126461 896.539 0.126461V2.12646ZM897.272 2.39357C897.436 2.5577 897.539 2.77271 897.539 3.12646H899.539C899.539 2.30688 899.268 1.56189 898.686 0.979355L897.272 2.39357ZM897.539 3.12646V55.1265H899.539V3.12646H897.539ZM897.539 55.1265C897.539 55.4802 897.436 55.6952 897.272 55.8594L898.686 57.2736C899.268 56.691 899.539 55.946 899.539 55.1265H897.539ZM897.272 55.8594C897.108 56.0235 896.893 56.1265 896.539 56.1265V58.1265C897.358 58.1265 898.103 57.8561 898.686 57.2736L897.272 55.8594ZM896.539 56.1265H885.819V58.1265H896.539V56.1265ZM930.076 13.6865H931.076V12.6865H930.076V13.6865ZM914.396 13.1265L913.644 13.785L913.666 13.81L913.689 13.8336L914.396 13.1265ZM914.396 1.68646L915.103 2.39357V2.39357L914.396 1.68646ZM960.316 13.1265L961.023 13.8336L961.047 13.81L961.069 13.785L960.316 13.1265ZM944.636 13.6865V12.6865H943.636V13.6865H944.636ZM932.076 56.1265C931.722 56.1265 931.508 56.0235 931.343 55.8594L929.929 57.2736C930.512 57.8561 931.257 58.1265 932.076 58.1265V56.1265ZM931.343 55.8594C931.179 55.6952 931.076 55.4802 931.076 55.1265H929.076C929.076 55.946 929.347 56.691 929.929 57.2736L931.343 55.8594ZM931.076 55.1265V13.6865H929.076V55.1265H931.076ZM930.076 12.6865H915.836V14.6865H930.076V12.6865ZM915.836 12.6865C915.482 12.6865 915.267 12.5835 915.103 12.4194L913.689 13.8336C914.272 14.4161 915.017 14.6865 915.836 14.6865V12.6865ZM915.149 12.468C914.924 12.2111 914.836 11.9615 914.836 11.6865H912.836C912.836 12.4781 913.122 13.1885 913.644 13.785L915.149 12.468ZM914.836 11.6865V3.12646L912.836 3.12646V11.6865H914.836ZM914.836 3.12646C914.836 2.77271 914.939 2.5577 915.103 2.39357L913.689 0.979355C913.107 1.56189 912.836 2.30688 912.836 3.12646L914.836 3.12646ZM915.103 2.39357C915.268 2.22944 915.482 2.12646 915.836 2.12646V0.126461C915.017 0.126461 914.272 0.396819 913.689 0.979358L915.103 2.39357ZM915.836 2.12646L958.876 2.12646V0.126461L915.836 0.126461V2.12646ZM958.876 2.12646C959.23 2.12646 959.445 2.22944 959.609 2.39357L961.023 0.979357C960.441 0.39682 959.696 0.126461 958.876 0.126461V2.12646ZM959.609 2.39357C959.773 2.5577 959.876 2.77271 959.876 3.12646H961.876C961.876 2.30688 961.606 1.56189 961.023 0.979357L959.609 2.39357ZM959.876 3.12646V11.6865L961.876 11.6865V3.12646H959.876ZM959.876 11.6865C959.876 11.9615 959.788 12.2111 959.564 12.468L961.069 13.785C961.591 13.1885 961.876 12.4781 961.876 11.6865L959.876 11.6865ZM959.609 12.4194C959.445 12.5835 959.23 12.6865 958.876 12.6865V14.6865C959.696 14.6865 960.441 14.4161 961.023 13.8336L959.609 12.4194ZM958.876 12.6865H944.636V14.6865H958.876V12.6865ZM943.636 13.6865V55.1265H945.636V13.6865H943.636ZM943.636 55.1265C943.636 55.4802 943.533 55.6952 943.369 55.8594L944.783 57.2736C945.366 56.691 945.636 55.946 945.636 55.1265H943.636ZM943.369 55.8594C943.205 56.0235 942.99 56.1265 942.636 56.1265V58.1265C943.456 58.1265 944.201 57.8561 944.783 57.2736L943.369 55.8594ZM942.636 56.1265H932.076V58.1265H942.636V56.1265ZM991.107 56.5665L990.4 57.2736L990.423 57.2971L990.448 57.319L991.107 56.5665ZM990.547 37.9265H991.547V37.6729L991.426 37.4499L990.547 37.9265ZM971.987 3.68646L971.038 4.00269L971.066 4.0859L971.108 4.16301L971.987 3.68646ZM971.827 3.28646L970.878 3.60269L970.901 3.67011L970.932 3.73367L971.827 3.28646ZM972.227 1.68646L972.934 2.39357V2.39357L972.227 1.68646ZM985.347 1.76646L984.64 2.47357L984.684 2.51759L984.733 2.55582L985.347 1.76646ZM986.227 2.80646L985.278 3.12269L985.308 3.21181L985.354 3.29383L986.227 2.80646ZM997.747 23.4465L996.874 23.9338L997.747 25.4983L998.62 23.9338L997.747 23.4465ZM1009.27 2.80646L1010.14 3.29383L1010.15 3.27399L1010.16 3.25367L1009.27 2.80646ZM1010.15 1.76646L1010.81 2.51906L1010.81 2.51387L1010.15 1.76646ZM1023.27 1.68646L1022.51 2.33725L1022.53 2.36641L1022.56 2.39357L1023.27 1.68646ZM1023.67 3.28646L1022.72 2.97024L1022.67 3.12419V3.28646H1023.67ZM1023.59 3.68646L1024.47 4.16459L1024.51 4.08676L1024.54 4.00269L1023.59 3.68646ZM1004.95 37.9265L1004.07 37.4483L1003.95 37.6719V37.9265H1004.95ZM992.547 56.1265C992.272 56.1265 992.022 56.0386 991.765 55.8139L990.448 57.319C991.045 57.841 991.755 58.1265 992.547 58.1265V56.1265ZM991.814 55.8594C991.65 55.6952 991.547 55.4802 991.547 55.1265H989.547C989.547 55.946 989.817 56.691 990.4 57.2736L991.814 55.8594ZM991.547 55.1265V37.9265H989.547V55.1265H991.547ZM991.426 37.4499L972.866 3.20991L971.108 4.16301L989.668 38.403L991.426 37.4499ZM972.936 3.37023C972.873 3.18213 972.802 3.00157 972.721 2.83925L970.932 3.73367C970.958 3.78469 970.994 3.8708 971.038 4.00269L972.936 3.37023ZM972.776 2.97024C972.754 2.90665 972.747 2.85328 972.747 2.80646H970.747C970.747 3.07964 970.793 3.34627 970.878 3.60269L972.776 2.97024ZM972.747 2.80646C972.747 2.66235 972.789 2.53866 972.934 2.39357L971.52 0.979355C971.025 1.47427 970.747 2.09724 970.747 2.80646H972.747ZM972.934 2.39357C973.14 2.18718 973.32 2.12646 973.507 2.12646V0.126461C972.734 0.126461 972.06 0.439079 971.52 0.979358L972.934 2.39357ZM973.507 2.12646L983.507 2.12646V0.126461L973.507 0.126461V2.12646ZM983.507 2.12646C984.131 2.12646 984.456 2.28942 984.64 2.47357L986.054 1.05936C985.385 0.390172 984.483 0.126461 983.507 0.126461V2.12646ZM984.733 2.55582C985.166 2.8924 985.267 3.08784 985.278 3.12269L987.176 2.49024C986.974 1.88508 986.488 1.38719 985.961 0.977108L984.733 2.55582ZM985.354 3.29383L996.874 23.9338L998.62 22.9591L987.1 2.3191L985.354 3.29383ZM998.62 23.9338L1010.14 3.29383L1008.39 2.3191L996.874 22.9591L998.62 23.9338ZM1010.16 3.25367C1010.24 3.09771 1010.43 2.85112 1010.81 2.51904L1009.49 1.01388C1009.01 1.42847 1008.61 1.87521 1008.37 2.35925L1010.16 3.25367ZM1010.81 2.51387C1011.07 2.28715 1011.45 2.12646 1012.07 2.12646V0.126461C1011.08 0.126461 1010.19 0.392442 1009.48 1.01905L1010.81 2.51387ZM1012.07 2.12646L1022.07 2.12646V0.126461L1012.07 0.126461V2.12646ZM1022.07 2.12646C1022.25 2.12646 1022.37 2.17935 1022.51 2.33725L1024.03 1.03567C1023.52 0.446905 1022.85 0.126461 1022.07 0.126461V2.12646ZM1022.56 2.39357C1022.7 2.53866 1022.75 2.66235 1022.75 2.80646L1024.75 2.80646C1024.75 2.09724 1024.47 1.47427 1023.97 0.979357L1022.56 2.39357ZM1022.75 2.80646C1022.75 2.85328 1022.74 2.90665 1022.72 2.97024L1024.62 3.60268C1024.7 3.34627 1024.75 3.07964 1024.75 2.80646L1022.75 2.80646ZM1022.67 3.28646C1022.67 3.25889 1022.67 3.2516 1022.67 3.27035C1022.66 3.28808 1022.65 3.32065 1022.64 3.37023L1024.54 4.00269C1024.61 3.79278 1024.67 3.54438 1024.67 3.28646H1022.67ZM1022.71 3.20833L1004.07 37.4483L1005.83 38.4046L1024.47 4.16459L1022.71 3.20833ZM1003.95 37.9265V55.1265H1005.95V37.9265H1003.95ZM1003.95 55.1265C1003.95 55.4802 1003.84 55.6952 1003.68 55.8594L1005.09 57.2736C1005.68 56.691 1005.95 55.946 1005.95 55.1265H1003.95ZM1003.68 55.8594C1003.52 56.0235 1003.3 56.1265 1002.95 56.1265V58.1265C1003.77 58.1265 1004.51 57.8561 1005.09 57.2736L1003.68 55.8594ZM1002.95 56.1265L992.547 56.1265V58.1265L1002.95 58.1265V56.1265Z" fill="url(#paint0_linear_22_235)" fill-opacity="0.2"/>
<defs>
<linearGradient id="paint0_linear_22_235" x1="512" y1="-4.87354" x2="512" y2="65.1265" gradientUnits="userSpaceOnUse">
<stop stop-color="#C1FFF8"/>
<stop offset="1" stop-color="#C1FFF8" stop-opacity="0"/>
</linearGradient>
</defs>
</svg>
