<svg width="124" height="125" viewBox="0 0 124 125" fill="none" xmlns="http://www.w3.org/2000/svg">
<path d="M111.238 56.2883L103.385 48.435C102.042 47.0917 100.957 44.4567 100.957 42.5967V31.4367C100.957 26.89 97.2366 23.17 92.69 23.17H81.5816C79.7216 23.17 77.0866 22.085 75.7433 20.7417L67.89 12.8883C64.6866 9.68501 59.4166 9.68501 56.2133 12.8883L48.2566 20.7417C46.965 22.085 44.33 23.17 42.4183 23.17H31.31C26.7633 23.17 23.0433 26.89 23.0433 31.4367V42.545C23.0433 44.405 21.9583 47.04 20.615 48.3833L12.7616 56.2367C9.5583 59.44 9.5583 64.71 12.7616 67.9133L20.615 75.7667C21.9583 77.11 23.0433 79.745 23.0433 81.605V92.7133C23.0433 97.26 26.7633 100.98 31.31 100.98H42.4183C44.2783 100.98 46.9133 102.065 48.2566 103.408L56.11 111.262C59.3133 114.465 64.5833 114.465 67.7866 111.262L75.64 103.408C76.9833 102.065 79.6183 100.98 81.4783 100.98H92.5866C97.1333 100.98 100.853 97.26 100.853 92.7133V81.605C100.853 79.745 101.938 77.11 103.282 75.7667L111.135 67.9133C114.493 64.7617 114.493 59.4917 111.238 56.2883ZM41.3333 46.6267C41.3333 43.785 43.6583 41.46 46.5 41.46C49.3416 41.46 51.6666 43.785 51.6666 46.6267C51.6666 49.4683 49.3933 51.7933 46.5 51.7933C43.6583 51.7933 41.3333 49.4683 41.3333 46.6267ZM49.2383 80.365C48.4633 81.14 47.4816 81.5017 46.5 81.5017C45.5183 81.5017 44.5366 81.14 43.7616 80.365C42.2633 78.8667 42.2633 76.3867 43.7616 74.8883L74.7616 43.8883C76.26 42.39 78.74 42.39 80.2383 43.8883C81.7366 45.3867 81.7366 47.8667 80.2383 49.365L49.2383 80.365ZM77.5 82.7933C74.6066 82.7933 72.2816 80.4683 72.2816 77.6267C72.2816 74.785 74.6066 72.46 77.4483 72.46C80.29 72.46 82.615 74.785 82.615 77.6267C82.615 80.4683 80.3416 82.7933 77.5 82.7933Z" fill="#C1FFF8"/>
</svg>
