<svg width="124" height="125" viewBox="0 0 124 125" fill="none" xmlns="http://www.w3.org/2000/svg">
<path d="M65.875 82.3798H69.2333C72.5917 82.3798 75.3817 79.3831 75.3817 75.7665C75.3817 71.2715 73.78 70.3931 71.145 69.4631L65.9267 67.6548V82.3798H65.875Z" fill="#C1FFF8"/>
<path d="M61.845 9.94296C33.325 10.0463 10.23 33.2446 10.3334 61.7646C10.4367 90.2846 33.635 113.38 62.155 113.276C90.675 113.173 113.77 89.9746 113.667 61.4546C113.563 32.9346 90.365 9.89129 61.845 9.94296ZM73.6767 62.1263C77.7067 63.5213 83.1317 66.518 83.1317 75.7663C83.1317 83.723 76.88 90.1296 69.2333 90.1296H65.875V93.1263C65.875 95.2446 64.1184 97.0013 62 97.0013C59.8817 97.0013 58.125 95.2446 58.125 93.1263V90.1296H56.265C47.7917 90.1296 40.92 82.9996 40.92 74.2163C40.92 72.098 42.6767 70.3413 44.795 70.3413C46.9134 70.3413 48.67 72.098 48.67 74.2163C48.67 78.7113 52.08 82.3796 56.265 82.3796H58.125V64.9163L50.3233 62.1263C46.2934 60.7313 40.8684 57.7346 40.8684 48.4863C40.8684 40.5296 47.12 34.123 54.7667 34.123H58.125V31.1263C58.125 29.008 59.8817 27.2513 62 27.2513C64.1184 27.2513 65.875 29.008 65.875 31.1263V34.123H67.735C76.2084 34.123 83.08 41.253 83.08 50.0363C83.08 52.1546 81.3233 53.9113 79.205 53.9113C77.0867 53.9113 75.33 52.1546 75.33 50.0363C75.33 45.5413 71.92 41.873 67.735 41.873H65.875V59.3363L73.6767 62.1263Z" fill="#C1FFF8"/>
<path d="M48.67 48.538C48.67 53.033 50.2717 53.9114 52.9067 54.8414L58.125 56.6497V41.873H54.7667C51.4084 41.873 48.67 44.8697 48.67 48.538Z" fill="#C1FFF8"/>
</svg>
