<svg width="571" height="59" viewBox="0 0 571 59" fill="none" xmlns="http://www.w3.org/2000/svg">
<path d="M11.9888 55.7277L11.5688 56.6353L11.5739 56.6376L11.9888 55.7277ZM3.58875 48.4477L2.73752 48.9726L2.74393 48.9828L3.58875 48.4477ZM0.30875 36.5277L-0.690953 36.5521L-0.690702 36.5624L-0.690242 36.5726L0.30875 36.5277ZM0.30875 22.2877L-0.690195 22.2418L-0.690716 22.2531L-0.69098 22.2645L0.30875 22.2877ZM3.66875 10.5277L4.51359 11.0628L4.51753 11.0565L3.66875 10.5277ZM12.1488 3.16771L12.5636 4.07769L12.5745 4.07253L12.1488 3.16771ZM34.7888 1.96771L34.4983 2.92459L34.5061 2.92698L34.514 2.92924L34.7888 1.96771ZM42.6288 5.80771L42.0227 6.60314L42.0288 6.60776L42.0349 6.61229L42.6288 5.80771ZM47.8288 11.8877L46.9383 12.3428L46.9444 12.3548L46.9509 12.3666L47.8288 11.8877ZM49.8288 19.8877L48.8289 19.9056L48.8297 19.952L48.8349 19.9981L49.8288 19.8877ZM49.3488 21.0877L48.698 20.3285L48.6688 20.3534L48.6416 20.3806L49.3488 21.0877ZM35.7488 21.1677L35.098 21.927L35.1315 21.9557L35.1675 21.9814L35.7488 21.1677ZM34.7888 19.4877L33.8219 19.7431L33.83 19.7738L33.8401 19.8039L34.7888 19.4877ZM31.1088 13.7277L30.5666 14.568L30.5822 14.5781L30.5982 14.5876L31.1088 13.7277ZM17.9888 14.6077L18.6727 15.3372L18.6787 15.3316L18.6845 15.326L17.9888 14.6077ZM15.1888 22.6877L14.1896 22.6455L14.1894 22.6512L15.1888 22.6877ZM15.1888 36.1277L14.1893 36.1626L14.1896 36.1699L15.1888 36.1277ZM17.9888 44.2877L17.293 45.006L17.2988 45.0117L17.3048 45.0173L17.9888 44.2877ZM31.1888 45.0877L30.6588 44.2397L31.1888 45.0877ZM34.7888 39.3277L33.8225 39.0701L33.8205 39.0776L33.8186 39.0852L34.7888 39.3277ZM35.6688 37.7277L36.25 38.5414L36.2594 38.5347L36.2687 38.5277L35.6688 37.7277ZM49.3488 37.7277L48.6416 38.4348L48.6688 38.462L48.698 38.487L49.3488 37.7277ZM49.8288 38.9277L48.8349 38.8173L48.8297 38.8634L48.8289 38.9099L49.8288 38.9277ZM47.8288 47.0077L46.9464 46.5371L46.9425 46.5445L47.8288 47.0077ZM42.6288 53.0877L43.2226 53.8923L43.2287 53.8878L43.2348 53.8831L42.6288 53.0877ZM34.7888 56.9277L35.0635 57.8892L35.0714 57.887L35.0792 57.8846L34.7888 56.9277ZM25.0288 57.2077C20.0677 57.2077 15.8697 56.398 12.4036 54.8178L11.5739 56.6376C15.3611 58.3641 19.8564 59.2077 25.0288 59.2077V57.2077ZM12.4087 54.8202C9.00257 53.2442 6.35316 50.9436 4.43357 47.9127L2.74393 48.9828C4.87767 52.3518 7.82826 54.9046 11.5688 56.6353L12.4087 54.8202ZM4.43992 47.9228C2.57647 44.901 1.51541 41.1035 1.30774 36.4828L-0.690242 36.5726C-0.471247 41.4452 0.654364 45.5944 2.73758 48.9726L4.43992 47.9228ZM1.30845 36.5033C1.25534 34.3259 1.22875 31.9874 1.22875 29.4877H-0.77125C-0.77125 32.0014 -0.74451 34.3562 -0.690953 36.5521L1.30845 36.5033ZM1.22875 29.4877C1.22875 26.9881 1.25534 24.5959 1.30848 22.311L-0.69098 22.2645C-0.744509 24.5662 -0.77125 26.974 -0.77125 29.4877H1.22875ZM1.30769 22.3336C1.51484 17.8283 2.5988 14.0861 4.51357 11.0628L2.82393 9.99266C0.685362 13.3693 -0.470671 17.4671 -0.690195 22.2418L1.30769 22.3336ZM4.51753 11.0565C6.43588 7.977 9.10835 5.65279 12.5636 4.07762L11.7339 2.2578C7.93582 3.9893 4.95495 6.57176 2.81997 9.99897L4.51753 11.0565ZM12.5745 4.07253C16.0403 2.44161 20.1818 1.60771 25.0288 1.60771V-0.392288C19.9557 -0.392288 15.5106 0.48048 11.723 2.26289L12.5745 4.07253ZM25.0288 1.60771C28.4627 1.60771 31.6169 2.0499 34.4983 2.92459L35.0792 1.01083C31.9872 0.0721908 28.6348 -0.392288 25.0288 -0.392288V1.60771ZM34.514 2.92924C37.3932 3.75186 39.8916 4.97941 42.0227 6.60314L43.2348 5.01228C40.8859 3.22268 38.1576 1.89023 35.0635 1.00619L34.514 2.92924ZM42.0349 6.61229C44.1546 8.17679 45.7845 10.0853 46.9383 12.3428L48.7192 11.4326C47.4197 8.89011 45.583 6.7453 43.2226 5.00314L42.0349 6.61229ZM46.9509 12.3666C48.1449 14.5557 48.7781 17.0609 48.8289 19.9056L50.8286 19.8699C50.7727 16.7412 50.0726 13.9131 48.7066 11.4089L46.9509 12.3666ZM48.8349 19.9981C48.8509 20.1423 48.8256 20.2191 48.698 20.3285L49.9995 21.847C50.6186 21.3164 50.9133 20.5932 50.8226 19.7773L48.8349 19.9981ZM48.6416 20.3806C48.5214 20.5008 48.3814 20.5677 48.1488 20.5677V22.5677C48.8761 22.5677 49.5361 22.3146 50.0559 21.7948L48.6416 20.3806ZM48.1488 20.5677H37.3488V22.5677H48.1488V20.5677ZM37.3488 20.5677C36.7634 20.5677 36.4671 20.4519 36.33 20.354L35.1675 21.9814C35.7771 22.4168 36.5474 22.5677 37.3488 22.5677V20.5677ZM36.3995 20.4085C36.2302 20.2633 35.9828 19.9076 35.7374 19.1715L33.8401 19.8039C34.128 20.6678 34.5206 21.4321 35.098 21.927L36.3995 20.4085ZM35.7556 19.2323C34.9734 16.2712 33.6388 14.067 31.6193 12.8679L30.5982 14.5876C31.992 15.4151 33.1108 17.0509 33.8219 19.7431L35.7556 19.2323ZM31.6509 12.8874C29.8002 11.6935 27.547 11.1277 24.9487 11.1277V13.1277C27.2572 13.1277 29.1106 13.6286 30.5666 14.568L31.6509 12.8874ZM24.9487 11.1277C21.82 11.1277 19.2277 12.0152 17.293 13.8895L18.6845 15.326C20.1631 13.8936 22.2109 13.1277 24.9487 13.1277V11.1277ZM17.3048 13.8782C15.318 15.7408 14.3542 18.7521 14.1896 22.6455L16.1879 22.7299C16.3433 19.05 17.2461 16.6746 18.6727 15.3372L17.3048 13.8782ZM14.1894 22.6512C14.0285 27.0494 14.0286 31.5533 14.1894 36.1626L16.1881 36.0929C16.0289 31.5288 16.029 27.0727 16.1881 22.7243L14.1894 22.6512ZM14.1896 36.1699C14.3543 40.0669 15.3192 43.0939 17.293 45.006L18.6845 43.5695C17.245 42.1749 16.3432 39.7619 16.1879 36.0855L14.1896 36.1699ZM17.3048 45.0173C19.2408 46.8322 21.8288 47.6877 24.9487 47.6877V45.6877C22.2021 45.6877 20.1501 44.9432 18.6727 43.5582L17.3048 45.0173ZM24.9487 47.6877C27.5483 47.6877 29.8215 47.1215 31.7188 45.9357L30.6588 44.2397C29.1427 45.1873 27.2558 45.6877 24.9487 45.6877V47.6877ZM31.7188 45.9357C33.7229 44.6831 35.0293 42.4888 35.7589 39.5703L33.8186 39.0852C33.1616 41.7133 32.068 43.3589 30.6588 44.2397L31.7188 45.9357ZM35.755 39.5854C35.9513 38.8493 36.167 38.6007 36.25 38.5414L35.0875 36.914C34.4238 37.388 34.0529 38.2061 33.8225 39.0701L35.755 39.5854ZM36.2687 38.5277C36.4767 38.3718 36.8068 38.2477 37.3488 38.2477V36.2477C36.5041 36.2477 35.7142 36.4436 35.0688 36.9277L36.2687 38.5277ZM37.3488 38.2477H48.1488V36.2477H37.3488V38.2477ZM48.1488 38.2477C48.3814 38.2477 48.5214 38.3146 48.6416 38.4348L50.0559 37.0206C49.5361 36.5008 48.8761 36.2477 48.1488 36.2477V38.2477ZM48.698 38.487C48.8256 38.5964 48.8509 38.6732 48.8349 38.8173L50.8226 39.0381C50.9133 38.2223 50.6186 37.4991 49.9995 36.9685L48.698 38.487ZM48.8289 38.9099C48.7781 41.7542 48.1449 44.2899 46.9464 46.5371L48.7111 47.4783C50.0726 44.9255 50.7727 42.0745 50.8286 38.9456L48.8289 38.9099ZM46.9425 46.5445C45.788 48.753 44.1537 50.6687 42.0227 52.2923L43.2348 53.8831C45.5839 52.0934 47.4161 49.9557 48.715 47.471L46.9425 46.5445ZM42.0349 52.2831C39.897 53.8611 37.389 55.0933 34.4983 55.9708L35.0792 57.8846C38.1619 56.9488 40.8805 55.621 43.2226 53.8923L42.0349 52.2831ZM34.514 55.9662C31.6277 56.7909 28.468 57.2077 25.0288 57.2077V59.2077C28.6295 59.2077 31.9765 58.7712 35.0635 57.8892L34.514 55.9662ZM76.3206 55.8077L76.7243 54.8928L76.3206 55.8077ZM67.8406 48.6077L66.9918 49.1365L66.9958 49.1428L67.8406 48.6077ZM64.4806 36.4477L63.4809 36.471L63.4811 36.4813L63.4816 36.4916L64.4806 36.4477ZM64.4806 22.6077L63.4816 22.5633L63.4811 22.5741L63.4809 22.585L64.4806 22.6077ZM67.8406 10.5277L66.9942 9.99526L66.9918 9.99897L67.8406 10.5277ZM101.761 3.08771L101.346 3.99763L101.351 3.99988L101.761 3.08771ZM110.401 10.5277L109.554 11.0602L109.558 11.0664L110.401 10.5277ZM113.761 22.6077L112.761 22.641L112.762 22.6531L113.761 22.6077ZM113.761 36.4477L112.762 36.4013L112.762 36.4038L113.761 36.4477ZM110.401 48.6077L111.245 49.1428L111.249 49.1365L110.401 48.6077ZM101.921 55.8077L101.517 54.8928L101.921 55.8077ZM96.0006 44.1277L95.3153 43.3995L95.3098 43.4046L95.3045 43.4098L96.0006 44.1277ZM98.8806 35.9677L97.8817 35.9223L97.8813 35.9307L97.881 35.9392L98.8806 35.9677ZM98.8806 22.8477L97.8815 22.8902L97.8818 22.8953L98.8806 22.8477ZM97.4406 16.7677L96.5462 17.2149L96.5553 17.233L96.565 17.2508L97.4406 16.7677ZM94.0806 13.2477L93.6203 14.1355L94.0806 13.2477ZM80.8006 16.7677L81.6762 17.2508L81.6796 17.2446L81.683 17.2383L80.8006 16.7677ZM79.3606 22.8477L78.3615 22.8052L78.3611 22.8146L78.3609 22.8239L79.3606 22.8477ZM79.3606 35.9677L78.3609 35.9904L78.3611 36.0005L78.3615 36.0105L79.3606 35.9677ZM82.2406 44.1277L81.5445 44.8456L82.2406 44.1277ZM89.1206 57.2077C84.3208 57.2077 80.1973 56.425 76.7243 54.8928L75.917 56.7226C79.6973 58.3904 84.1071 59.2077 89.1206 59.2077V57.2077ZM76.7243 54.8928C73.2702 53.3689 70.6009 51.097 68.6854 48.0727L66.9958 49.1428C69.1337 52.5184 72.1178 55.0465 75.917 56.7226L76.7243 54.8928ZM68.6894 48.079C66.7749 45.0057 65.6874 41.1304 65.4797 36.4038L63.4816 36.4916C63.7005 41.4717 64.853 45.7031 66.9918 49.1365L68.6894 48.079ZM65.4804 36.4245C65.4272 34.1389 65.4006 31.8533 65.4006 29.5677H63.4006C63.4006 31.8688 63.4274 34.1699 63.4809 36.471L65.4804 36.4245ZM65.4006 29.5677C65.4006 27.2821 65.4272 24.9697 65.4804 22.6304L63.4809 22.585C63.4274 24.9391 63.4006 27.2666 63.4006 29.5677H65.4006ZM65.4796 22.6521C65.6872 17.9809 66.7739 14.1314 68.6894 11.0565L66.9918 9.99897C64.854 13.4307 63.7007 17.6345 63.4816 22.5633L65.4796 22.6521ZM68.6871 11.0602C70.6609 7.92228 73.3626 5.57171 76.8154 3.99762L75.9858 2.17781C72.1853 3.91038 69.1803 6.51981 66.9942 9.99526L68.6871 11.0602ZM76.8154 3.99762C80.2867 2.41513 84.3799 1.60771 89.1206 1.60771V-0.392288C84.1547 -0.392288 79.7679 0.453631 75.9858 2.17781L76.8154 3.99762ZM89.1206 1.60771C93.8062 1.60771 97.8732 2.41452 101.346 3.99762L102.175 2.17781C98.3947 0.454239 94.035 -0.392288 89.1206 -0.392288V1.60771ZM101.351 3.99988C104.857 5.57524 107.583 7.92603 109.554 11.0602L111.247 9.99526C109.059 6.51606 106.024 3.90685 102.17 2.17554L101.351 3.99988ZM109.558 11.0664C111.52 14.1356 112.606 17.9771 112.761 22.641L114.76 22.5744C114.596 17.6383 113.441 13.4265 111.243 9.98905L109.558 11.0664ZM112.762 22.6531C112.868 24.985 112.921 27.2899 112.921 29.5677H114.921C114.921 27.2589 114.867 24.9237 114.76 22.5623L112.762 22.6531ZM112.921 29.5677C112.921 31.8455 112.868 34.1234 112.762 36.4013L114.76 36.4942C114.867 34.1854 114.921 31.8766 114.921 29.5677H112.921ZM112.762 36.4038C112.554 41.1304 111.466 45.0057 109.552 48.079L111.249 49.1365C113.388 45.7031 114.541 41.4717 114.76 36.4916L112.762 36.4038ZM109.556 48.0727C107.64 51.097 104.971 53.3689 101.517 54.8928L102.324 56.7226C106.123 55.0465 109.108 52.5184 111.245 49.1428L109.556 48.0727ZM101.517 54.8928C98.0439 56.425 93.9204 57.2077 89.1206 57.2077V59.2077C94.1341 59.2077 98.544 58.3904 102.324 56.7226L101.517 54.8928ZM89.1206 47.6877C92.1643 47.6877 94.7215 46.761 96.6968 44.8456L95.3045 43.4098C93.7597 44.9078 91.7303 45.6877 89.1206 45.6877V47.6877ZM96.686 44.8559C98.7712 42.8934 99.7697 39.864 99.8802 35.9963L97.881 35.9392C97.7782 39.5381 96.8567 41.9487 95.3153 43.3995L96.686 44.8559ZM99.8796 36.0131C99.9869 33.6532 100.041 31.4246 100.041 29.3277H98.0406C98.0406 31.3908 97.9877 33.5889 97.8817 35.9223L99.8796 36.0131ZM100.041 29.3277C100.041 27.2307 99.9869 25.0548 99.8795 22.8001L97.8818 22.8953C97.9877 25.1206 98.0406 27.2647 98.0406 29.3277H100.041ZM99.8797 22.8052C99.7691 20.2048 99.2688 18.0113 98.3162 16.2846L96.565 17.2508C97.3191 18.6175 97.7789 20.4773 97.8815 22.8902L99.8797 22.8052ZM98.3351 16.3205C97.4508 14.5519 96.1879 13.2139 94.5409 12.36L93.6203 14.1355C94.8534 14.7748 95.8305 15.7835 96.5462 17.2149L98.3351 16.3205ZM94.5409 12.36C92.9386 11.5291 91.1232 11.1277 89.1206 11.1277V13.1277C90.8514 13.1277 92.3426 13.473 93.6203 14.1355L94.5409 12.36ZM89.1206 11.1277C87.1662 11.1277 85.3786 11.5312 83.7803 12.36L84.7009 14.1355C85.9826 13.4709 87.4484 13.1277 89.1206 13.1277V11.1277ZM83.7803 12.36C82.1398 13.2106 80.8552 14.5405 79.9183 16.2971L81.683 17.2383C82.4528 15.795 83.4614 14.7782 84.7009 14.1355L83.7803 12.36ZM79.925 16.2846C78.9724 18.0113 78.4722 20.2048 78.3615 22.8052L80.3597 22.8902C80.4624 20.4773 80.9222 18.6175 81.6762 17.2508L79.925 16.2846ZM78.3609 22.8239C78.3074 25.0712 78.2806 27.2392 78.2806 29.3277H80.2806C80.2806 27.2562 80.3072 25.1042 80.3603 22.8715L78.3609 22.8239ZM78.2806 29.3277C78.2806 31.4162 78.3074 33.6371 78.3609 35.9904L80.3604 35.945C80.3072 33.605 80.2806 31.3993 80.2806 29.3277H78.2806ZM78.3615 36.0105C78.5269 39.8689 79.5248 42.8871 81.5445 44.8456L82.9368 43.4098C81.4365 41.955 80.5144 39.5332 80.3597 35.9249L78.3615 36.0105ZM81.5445 44.8456C83.5197 46.761 86.077 47.6877 89.1206 47.6877V45.6877C86.511 45.6877 84.4815 44.9078 82.9368 43.4098L81.5445 44.8456ZM131.754 56.8477L132.461 56.1406V56.1406L131.754 56.8477ZM131.754 1.96771L132.461 2.67482V2.67482L131.754 1.96771ZM143.594 2.04771L142.841 2.70622L142.885 2.75639L142.935 2.80029L143.594 2.04771ZM144.394 2.92771L143.499 3.37492L143.522 3.42023L143.549 3.46302L144.394 2.92771ZM163.914 33.7277L163.069 34.263L164.914 37.1736V33.7277H163.914ZM164.474 1.96771L165.181 2.67482V2.67482L164.474 1.96771ZM176.954 1.96771L176.247 2.67482V2.67482L176.954 1.96771ZM176.954 56.8477L177.661 57.5548L177.684 57.5313L177.706 57.5062L176.954 56.8477ZM165.034 56.7677L164.281 57.4262L164.303 57.4513L164.327 57.4748L165.034 56.7677ZM164.314 55.8877L163.479 56.4382L163.482 56.4424L164.314 55.8877ZM144.794 26.2877L145.629 25.7372L143.794 22.9549V26.2877H144.794ZM133.194 56.4077C132.84 56.4077 132.625 56.3047 132.461 56.1406L131.047 57.5548C131.629 58.1374 132.374 58.4077 133.194 58.4077V56.4077ZM132.461 56.1406C132.297 55.9765 132.194 55.7615 132.194 55.4077H130.194C130.194 56.2273 130.464 56.9723 131.047 57.5548L132.461 56.1406ZM132.194 55.4077V3.40771L130.194 3.40771V55.4077H132.194ZM132.194 3.40771C132.194 3.05396 132.297 2.83895 132.461 2.67482L131.047 1.2606C130.464 1.84314 130.194 2.58813 130.194 3.40771L132.194 3.40771ZM132.461 2.67482C132.625 2.51069 132.84 2.40771 133.194 2.40771V0.407711C132.374 0.407711 131.629 0.678069 131.047 1.26061L132.461 2.67482ZM133.194 2.40771L141.674 2.40771V0.407711L133.194 0.407711V2.40771ZM141.674 2.40771C142.462 2.40771 142.747 2.59803 142.841 2.70622L144.346 1.38921C143.694 0.644058 142.699 0.407711 141.674 0.407711V2.40771ZM142.935 2.80029C143.131 2.97157 143.274 3.11099 143.374 3.22038C143.48 3.33772 143.505 3.38627 143.499 3.37492L145.288 2.4805C145.085 2.07366 144.678 1.6679 144.252 1.29513L142.935 2.80029ZM143.549 3.46302L163.069 34.263L164.758 33.1924L145.238 2.3924L143.549 3.46302ZM164.914 33.7277V3.40771L162.914 3.40771V33.7277H164.914ZM164.914 3.40771C164.914 3.05396 165.017 2.83895 165.181 2.67482L163.767 1.2606C163.184 1.84314 162.914 2.58813 162.914 3.40771L164.914 3.40771ZM165.181 2.67482C165.345 2.51069 165.56 2.40771 165.914 2.40771V0.407711C165.094 0.407711 164.349 0.67807 163.767 1.26061L165.181 2.67482ZM165.914 2.40771L175.514 2.40771V0.407711L165.914 0.407711V2.40771ZM175.514 2.40771C175.868 2.40771 176.083 2.51069 176.247 2.67482L177.661 1.26061C177.078 0.678069 176.333 0.407711 175.514 0.407711V2.40771ZM176.247 2.67482C176.411 2.83895 176.514 3.05396 176.514 3.40771H178.514C178.514 2.58813 178.243 1.84314 177.661 1.2606L176.247 2.67482ZM176.514 3.40771V55.4077H178.514V3.40771H176.514ZM176.514 55.4077C176.514 55.6827 176.426 55.9323 176.201 56.1892L177.706 57.5062C178.228 56.9098 178.514 56.1994 178.514 55.4077H176.514ZM176.247 56.1406C176.083 56.3047 175.868 56.4077 175.514 56.4077V58.4077C176.333 58.4077 177.078 58.1374 177.661 57.5548L176.247 56.1406ZM175.514 56.4077H166.954V58.4077H175.514V56.4077ZM166.954 56.4077C166.255 56.4077 165.914 56.2336 165.741 56.0606L164.327 57.4748C165.007 58.1552 165.946 58.4077 166.954 58.4077V56.4077ZM165.786 56.1092C165.406 55.6749 165.21 55.4297 165.146 55.333L163.482 56.4424C163.631 56.6658 163.915 57.0072 164.281 57.4262L165.786 56.1092ZM165.149 55.3372L145.629 25.7372L143.959 26.8382L163.479 56.4382L165.149 55.3372ZM143.794 26.2877V55.4077H145.794V26.2877H143.794ZM143.794 55.4077C143.794 55.7615 143.691 55.9765 143.527 56.1406L144.941 57.5548C145.523 56.9723 145.794 56.2273 145.794 55.4077H143.794ZM143.527 56.1406C143.363 56.3047 143.148 56.4077 142.794 56.4077V58.4077C143.613 58.4077 144.358 58.1374 144.941 57.5548L143.527 56.1406ZM142.794 56.4077H133.194V58.4077H142.794V56.4077ZM209.014 13.9677H210.014V12.9677H209.014V13.9677ZM193.334 13.4077L192.581 14.0662L192.603 14.0913L192.627 14.1148L193.334 13.4077ZM193.334 1.96771L194.041 2.67482L194.041 2.67482L193.334 1.96771ZM239.254 13.4077L239.961 14.1148L239.984 14.0913L240.006 14.0662L239.254 13.4077ZM223.574 13.9677V12.9677H222.574V13.9677H223.574ZM211.014 56.4077C210.66 56.4077 210.445 56.3047 210.281 56.1406L208.867 57.5548C209.449 58.1374 210.194 58.4077 211.014 58.4077V56.4077ZM210.281 56.1406C210.117 55.9765 210.014 55.7615 210.014 55.4077H208.014C208.014 56.2273 208.284 56.9723 208.867 57.5548L210.281 56.1406ZM210.014 55.4077V13.9677H208.014V55.4077H210.014ZM209.014 12.9677L194.774 12.9677V14.9677L209.014 14.9677V12.9677ZM194.774 12.9677C194.42 12.9677 194.205 12.8647 194.041 12.7006L192.627 14.1148C193.209 14.6974 193.954 14.9677 194.774 14.9677V12.9677ZM194.086 12.7492C193.862 12.4923 193.774 12.2427 193.774 11.9677H191.774C191.774 12.7594 192.059 13.4697 192.581 14.0662L194.086 12.7492ZM193.774 11.9677V3.40771L191.774 3.40771V11.9677H193.774ZM193.774 3.40771C193.774 3.05396 193.877 2.83895 194.041 2.67482L192.627 1.2606C192.044 1.84314 191.774 2.58813 191.774 3.40771L193.774 3.40771ZM194.041 2.67482C194.205 2.51069 194.42 2.40771 194.774 2.40771V0.407711C193.954 0.407711 193.209 0.678069 192.627 1.26061L194.041 2.67482ZM194.774 2.40771L237.814 2.40771V0.407711L194.774 0.407711V2.40771ZM237.814 2.40771C238.167 2.40771 238.383 2.51069 238.547 2.67482L239.961 1.26061C239.378 0.67807 238.633 0.407711 237.814 0.407711V2.40771ZM238.547 2.67482C238.711 2.83895 238.814 3.05396 238.814 3.40771H240.814C240.814 2.58813 240.543 1.84314 239.961 1.26061L238.547 2.67482ZM238.814 3.40771V11.9677H240.814V3.40771H238.814ZM238.814 11.9677C238.814 12.2427 238.726 12.4923 238.501 12.7492L240.006 14.0662C240.528 13.4697 240.814 12.7594 240.814 11.9677H238.814ZM238.547 12.7006C238.383 12.8647 238.167 12.9677 237.814 12.9677V14.9677C238.633 14.9677 239.378 14.6974 239.961 14.1148L238.547 12.7006ZM237.814 12.9677L223.574 12.9677V14.9677L237.814 14.9677V12.9677ZM222.574 13.9677V55.4077H224.574V13.9677H222.574ZM222.574 55.4077C222.574 55.7615 222.471 55.9765 222.307 56.1406L223.721 57.5548C224.303 56.9723 224.574 56.2273 224.574 55.4077H222.574ZM222.307 56.1406C222.143 56.3047 221.928 56.4077 221.574 56.4077V58.4077C222.393 58.4077 223.138 58.1374 223.721 57.5548L222.307 56.1406ZM221.574 56.4077H211.014V58.4077H221.574V56.4077ZM244.981 56.9277L244.222 57.5785L244.272 57.6369L244.33 57.687L244.981 56.9277ZM244.581 55.0077L243.642 54.664L243.624 54.7138L243.611 54.7652L244.581 55.0077ZM263.381 3.64771L264.32 3.99145L264.335 3.95168L264.346 3.91083L263.381 3.64771ZM264.341 2.12771L265.006 2.87513L265.01 2.87101L264.341 2.12771ZM280.421 2.12771L279.714 2.83482L279.753 2.87398L279.797 2.90858L280.421 2.12771ZM281.461 3.64771L280.496 3.91083L280.507 3.95102L280.522 3.99016L281.461 3.64771ZM300.181 55.0077L299.242 55.3502L299.261 55.4038L299.287 55.4549L300.181 55.0077ZM299.781 56.9277L300.488 57.6348V57.6348L299.781 56.9277ZM286.901 56.8477L286.149 57.5062L286.193 57.5564L286.243 57.6003L286.901 56.8477ZM286.181 55.7277L287.13 55.4115L287.123 55.3909L287.115 55.3706L286.181 55.7277ZM283.061 47.5677L283.995 47.2106L283.75 46.5677L283.061 46.5677V47.5677ZM261.701 47.5677V46.5677H261.007L260.764 47.2186L261.701 47.5677ZM258.661 55.7277L257.724 55.3786L257.718 55.3949L257.713 55.4115L258.661 55.7277ZM257.941 56.8477L258.648 57.5548L258.672 57.5313L258.694 57.5062L257.941 56.8477ZM264.981 36.0477L264.037 35.7186L263.574 37.0477H264.981V36.0477ZM279.861 36.0477V37.0477H281.279L280.803 35.7123L279.861 36.0477ZM272.341 14.9277L273.283 14.5923L272.331 11.918L271.397 14.5986L272.341 14.9277ZM246.181 56.4077C246.029 56.4077 245.853 56.3582 245.632 56.1685L244.33 57.687C244.856 58.1372 245.48 58.4077 246.181 58.4077V56.4077ZM245.741 56.2769C245.551 56.0556 245.501 55.8798 245.501 55.7277H243.501C243.501 56.429 243.772 57.0532 244.222 57.5785L245.741 56.2769ZM245.501 55.7277C245.501 55.5261 245.522 55.3696 245.551 55.2503L243.611 54.7652C243.534 55.0725 243.501 55.3959 243.501 55.7277H245.501ZM245.52 55.3515L264.32 3.99145L262.442 3.30397L243.642 54.664L245.52 55.3515ZM264.346 3.91083C264.452 3.52205 264.662 3.18051 265.006 2.87512L263.677 1.3803C263.06 1.92825 262.63 2.60004 262.416 3.38459L264.346 3.91083ZM265.01 2.87101C265.315 2.59644 265.774 2.40771 266.501 2.40771V0.407711C265.415 0.407711 264.434 0.698987 263.672 1.38442L265.01 2.87101ZM266.501 2.40771L278.341 2.40771V0.407711L266.501 0.407711V2.40771ZM278.341 2.40771C279.075 2.40771 279.478 2.59864 279.714 2.83482L281.128 1.4206C280.405 0.696784 279.421 0.407711 278.341 0.407711V2.40771ZM279.797 2.90858C280.186 3.22004 280.399 3.55321 280.496 3.91083L282.426 3.38459C282.204 2.56888 281.723 1.88872 281.046 1.34684L279.797 2.90858ZM280.522 3.99016L299.242 55.3502L301.121 54.6653L282.401 3.30526L280.522 3.99016ZM299.287 55.4549C299.316 55.5137 299.341 55.5978 299.341 55.7277H301.341C301.341 55.3243 301.26 54.9284 301.076 54.5605L299.287 55.4549ZM299.341 55.7277C299.341 55.8292 299.307 55.9876 299.074 56.2206L300.488 57.6348C301.002 57.1211 301.341 56.4796 301.341 55.7277H299.341ZM299.074 56.2206C298.954 56.3408 298.814 56.4077 298.581 56.4077V58.4077C299.309 58.4077 299.969 58.1546 300.488 57.6348L299.074 56.2206ZM298.581 56.4077H288.741V58.4077H298.581V56.4077ZM288.741 56.4077C288.085 56.4077 287.741 56.2541 287.56 56.0951L286.243 57.6003C286.914 58.188 287.798 58.4077 288.741 58.4077V56.4077ZM287.654 56.1892C287.316 55.8036 287.175 55.548 287.13 55.4115L285.233 56.0439C285.4 56.5474 285.739 57.0385 286.149 57.5062L287.654 56.1892ZM287.115 55.3706L283.995 47.2106L282.127 47.9249L285.247 56.0849L287.115 55.3706ZM283.061 46.5677H261.701V48.5677H283.061V46.5677ZM260.764 47.2186L257.724 55.3786L259.598 56.0768L262.638 47.9168L260.764 47.2186ZM257.713 55.4115C257.667 55.548 257.526 55.8036 257.189 56.1892L258.694 57.5062C259.103 57.0385 259.442 56.5474 259.61 56.0439L257.713 55.4115ZM257.234 56.1406C257.145 56.2301 256.84 56.4077 256.021 56.4077V58.4077C257.016 58.4077 257.991 58.212 258.648 57.5548L257.234 56.1406ZM256.021 56.4077H246.181V58.4077H256.021V56.4077ZM264.981 37.0477H279.861V35.0477H264.981V37.0477ZM280.803 35.7123L273.283 14.5923L271.399 15.2631L278.919 36.3831L280.803 35.7123ZM271.397 14.5986L264.037 35.7186L265.926 36.3768L273.286 15.2568L271.397 14.5986ZM323.395 55.7277L322.975 56.6353L322.98 56.6376L323.395 55.7277ZM314.995 48.4477L314.144 48.9726L314.15 48.9828L314.995 48.4477ZM311.715 36.5277L310.715 36.5521L310.716 36.5624L310.716 36.5726L311.715 36.5277ZM311.715 22.2877L310.716 22.2418L310.716 22.2531L310.715 22.2645L311.715 22.2877ZM315.075 10.5277L315.92 11.0628L315.924 11.0565L315.075 10.5277ZM323.555 3.16771L323.97 4.07769L323.981 4.07253L323.555 3.16771ZM346.195 1.96771L345.905 2.92459L345.912 2.92698L345.92 2.92924L346.195 1.96771ZM354.035 5.80771L353.429 6.60314L353.435 6.60776L353.441 6.61229L354.035 5.80771ZM359.235 11.8877L358.345 12.3428L358.351 12.3548L358.357 12.3666L359.235 11.8877ZM361.235 19.8877L360.235 19.9056L360.236 19.952L360.241 19.9981L361.235 19.8877ZM360.755 21.0877L360.104 20.3285L360.075 20.3534L360.048 20.3806L360.755 21.0877ZM347.155 21.1677L346.504 21.927L346.538 21.9557L346.574 21.9814L347.155 21.1677ZM346.195 19.4877L345.228 19.7431L345.236 19.7738L345.246 19.8039L346.195 19.4877ZM342.515 13.7277L341.973 14.568L341.988 14.5781L342.004 14.5876L342.515 13.7277ZM329.395 14.6077L330.079 15.3372L330.085 15.3316L330.091 15.326L329.395 14.6077ZM326.595 22.6877L325.596 22.6455L325.596 22.6512L326.595 22.6877ZM326.595 36.1277L325.596 36.1626L325.596 36.1699L326.595 36.1277ZM329.395 44.2877L328.699 45.006L328.705 45.0117L328.711 45.0173L329.395 44.2877ZM342.595 45.0877L342.065 44.2397L342.595 45.0877ZM346.195 39.3277L345.229 39.0701L345.227 39.0776L345.225 39.0852L346.195 39.3277ZM347.075 37.7277L347.656 38.5414L347.666 38.5347L347.675 38.5277L347.075 37.7277ZM360.755 37.7277L360.048 38.4348L360.075 38.462L360.104 38.487L360.755 37.7277ZM361.235 38.9277L360.241 38.8173L360.236 38.8634L360.235 38.9099L361.235 38.9277ZM359.235 47.0077L358.353 46.5371L358.349 46.5445L359.235 47.0077ZM354.035 53.0877L354.629 53.8923L354.635 53.8878L354.641 53.8831L354.035 53.0877ZM346.195 56.9277L346.47 57.8892L346.478 57.887L346.485 57.8846L346.195 56.9277ZM336.435 57.2077C331.474 57.2077 327.276 56.398 323.81 54.8178L322.98 56.6376C326.767 58.3641 331.263 59.2077 336.435 59.2077V57.2077ZM323.815 54.8202C320.409 53.2442 317.759 50.9436 315.84 47.9127L314.15 48.9828C316.284 52.3518 319.234 54.9046 322.975 56.6353L323.815 54.8202ZM315.846 47.9228C313.983 44.901 312.922 41.1035 312.714 36.4828L310.716 36.5726C310.935 41.4452 312.061 45.5944 314.144 48.9726L315.846 47.9228ZM312.715 36.5033C312.662 34.3259 312.635 31.9874 312.635 29.4877H310.635C310.635 32.0014 310.662 34.3562 310.715 36.5521L312.715 36.5033ZM312.635 29.4877C312.635 26.9881 312.662 24.5959 312.715 22.311L310.715 22.2645C310.662 24.5662 310.635 26.974 310.635 29.4877H312.635ZM312.714 22.3336C312.921 17.8283 314.005 14.0861 315.92 11.0628L314.23 9.99266C312.092 13.3693 310.936 17.4671 310.716 22.2418L312.714 22.3336ZM315.924 11.0565C317.842 7.977 320.515 5.65279 323.97 4.07762L323.14 2.2578C319.342 3.9893 316.361 6.57176 314.226 9.99897L315.924 11.0565ZM323.981 4.07253C327.447 2.44161 331.588 1.60771 336.435 1.60771V-0.392288C331.362 -0.392288 326.917 0.48048 323.129 2.26289L323.981 4.07253ZM336.435 1.60771C339.869 1.60771 343.023 2.0499 345.905 2.92459L346.485 1.01083C343.393 0.0721908 340.041 -0.392288 336.435 -0.392288V1.60771ZM345.92 2.92924C348.799 3.75186 351.298 4.97941 353.429 6.60314L354.641 5.01228C352.292 3.22268 349.564 1.89023 346.47 1.00619L345.92 2.92924ZM353.441 6.61229C355.561 8.17679 357.191 10.0853 358.345 12.3428L360.125 11.4326C358.826 8.89011 356.989 6.7453 354.629 5.00314L353.441 6.61229ZM358.357 12.3666C359.551 14.5557 360.184 17.0609 360.235 19.9056L362.235 19.8699C362.179 16.7412 361.479 13.9131 360.113 11.4089L358.357 12.3666ZM360.241 19.9981C360.257 20.1423 360.232 20.2191 360.104 20.3285L361.406 21.847C362.025 21.3164 362.32 20.5932 362.229 19.7773L360.241 19.9981ZM360.048 20.3806C359.928 20.5008 359.788 20.5677 359.555 20.5677V22.5677C360.282 22.5677 360.942 22.3146 361.462 21.7948L360.048 20.3806ZM359.555 20.5677H348.755V22.5677H359.555V20.5677ZM348.755 20.5677C348.17 20.5677 347.873 20.4519 347.736 20.354L346.574 21.9814C347.183 22.4168 347.954 22.5677 348.755 22.5677V20.5677ZM347.806 20.4085C347.636 20.2633 347.389 19.9076 347.144 19.1715L345.246 19.8039C345.534 20.6678 345.927 21.4321 346.504 21.927L347.806 20.4085ZM347.162 19.2323C346.38 16.2712 345.045 14.067 343.026 12.8679L342.004 14.5876C343.398 15.4151 344.517 17.0509 345.228 19.7431L347.162 19.2323ZM343.057 12.8874C341.206 11.6935 338.953 11.1277 336.355 11.1277V13.1277C338.663 13.1277 340.517 13.6286 341.973 14.568L343.057 12.8874ZM336.355 11.1277C333.226 11.1277 330.634 12.0152 328.699 13.8895L330.091 15.326C331.569 13.8936 333.617 13.1277 336.355 13.1277V11.1277ZM328.711 13.8782C326.724 15.7408 325.76 18.7521 325.596 22.6455L327.594 22.7299C327.75 19.05 328.652 16.6746 330.079 15.3372L328.711 13.8782ZM325.596 22.6512C325.435 27.0494 325.435 31.5533 325.596 36.1626L327.594 36.0929C327.435 31.5288 327.435 27.0727 327.594 22.7243L325.596 22.6512ZM325.596 36.1699C325.761 40.0669 326.725 43.0939 328.699 45.006L330.091 43.5695C328.651 42.1749 327.749 39.7619 327.594 36.0855L325.596 36.1699ZM328.711 45.0173C330.647 46.8322 333.235 47.6877 336.355 47.6877V45.6877C333.608 45.6877 331.556 44.9432 330.079 43.5582L328.711 45.0173ZM336.355 47.6877C338.955 47.6877 341.228 47.1215 343.125 45.9357L342.065 44.2397C340.549 45.1873 338.662 45.6877 336.355 45.6877V47.6877ZM343.125 45.9357C345.129 44.6831 346.436 42.4888 347.165 39.5703L345.225 39.0852C344.568 41.7133 343.474 43.3589 342.065 44.2397L343.125 45.9357ZM347.161 39.5854C347.358 38.8493 347.573 38.6007 347.656 38.5414L346.494 36.914C345.83 37.388 345.459 38.2061 345.229 39.0701L347.161 39.5854ZM347.675 38.5277C347.883 38.3718 348.213 38.2477 348.755 38.2477V36.2477C347.91 36.2477 347.12 36.4436 346.475 36.9277L347.675 38.5277ZM348.755 38.2477H359.555V36.2477H348.755V38.2477ZM359.555 38.2477C359.788 38.2477 359.928 38.3146 360.048 38.4348L361.462 37.0206C360.942 36.5008 360.282 36.2477 359.555 36.2477V38.2477ZM360.104 38.487C360.232 38.5964 360.257 38.6732 360.241 38.8173L362.229 39.0381C362.32 38.2223 362.025 37.4991 361.406 36.9685L360.104 38.487ZM360.235 38.9099C360.184 41.7542 359.551 44.2899 358.353 46.5371L360.117 47.4783C361.479 44.9255 362.179 42.0745 362.235 38.9456L360.235 38.9099ZM358.349 46.5445C357.194 48.753 355.56 50.6687 353.429 52.2923L354.641 53.8831C356.99 52.0934 358.822 49.9557 360.121 47.471L358.349 46.5445ZM353.441 52.2831C351.303 53.8611 348.795 55.0933 345.905 55.9708L346.485 57.8846C349.568 56.9488 352.287 55.621 354.629 53.8923L353.441 52.2831ZM345.92 55.9662C343.034 56.7909 339.874 57.2077 336.435 57.2077V59.2077C340.036 59.2077 343.383 58.7712 346.47 57.8892L345.92 55.9662ZM389.967 13.9677H390.967V12.9677H389.967V13.9677ZM374.287 13.4077L373.534 14.0662L373.556 14.0913L373.58 14.1148L374.287 13.4077ZM374.287 1.96771L374.994 2.67482V2.67482L374.287 1.96771ZM420.207 13.4077L420.914 14.1148L420.938 14.0913L420.959 14.0662L420.207 13.4077ZM404.527 13.9677V12.9677H403.527V13.9677H404.527ZM391.967 56.4077C391.613 56.4077 391.398 56.3047 391.234 56.1406L389.82 57.5548C390.402 58.1374 391.147 58.4077 391.967 58.4077V56.4077ZM391.234 56.1406C391.07 55.9765 390.967 55.7615 390.967 55.4077H388.967C388.967 56.2273 389.237 56.9723 389.82 57.5548L391.234 56.1406ZM390.967 55.4077V13.9677H388.967V55.4077H390.967ZM389.967 12.9677L375.727 12.9677V14.9677L389.967 14.9677V12.9677ZM375.727 12.9677C375.373 12.9677 375.158 12.8647 374.994 12.7006L373.58 14.1148C374.162 14.6974 374.907 14.9677 375.727 14.9677V12.9677ZM375.039 12.7492C374.815 12.4923 374.727 12.2427 374.727 11.9677H372.727C372.727 12.7594 373.012 13.4697 373.534 14.0662L375.039 12.7492ZM374.727 11.9677V3.40771L372.727 3.40771V11.9677H374.727ZM374.727 3.40771C374.727 3.05396 374.83 2.83895 374.994 2.67482L373.58 1.2606C372.997 1.84314 372.727 2.58813 372.727 3.40771L374.727 3.40771ZM374.994 2.67482C375.158 2.51069 375.373 2.40771 375.727 2.40771V0.407711C374.907 0.407711 374.162 0.678069 373.58 1.26061L374.994 2.67482ZM375.727 2.40771L418.767 2.40771V0.407711L375.727 0.407711V2.40771ZM418.767 2.40771C419.121 2.40771 419.336 2.51069 419.5 2.67482L420.914 1.26061C420.331 0.67807 419.586 0.407711 418.767 0.407711V2.40771ZM419.5 2.67482C419.664 2.83895 419.767 3.05396 419.767 3.40771H421.767C421.767 2.58813 421.497 1.84314 420.914 1.26061L419.5 2.67482ZM419.767 3.40771V11.9677H421.767V3.40771H419.767ZM419.767 11.9677C419.767 12.2427 419.679 12.4923 419.454 12.7492L420.959 14.0662C421.481 13.4697 421.767 12.7594 421.767 11.9677H419.767ZM419.5 12.7006C419.336 12.8647 419.121 12.9677 418.767 12.9677V14.9677C419.586 14.9677 420.331 14.6974 420.914 14.1148L419.5 12.7006ZM418.767 12.9677L404.527 12.9677V14.9677L418.767 14.9677V12.9677ZM403.527 13.9677V55.4077H405.527V13.9677L403.527 13.9677ZM403.527 55.4077C403.527 55.7615 403.424 55.9765 403.26 56.1406L404.674 57.5548C405.257 56.9723 405.527 56.2273 405.527 55.4077H403.527ZM403.26 56.1406C403.096 56.3047 402.881 56.4077 402.527 56.4077V58.4077C403.346 58.4077 404.091 58.1374 404.674 57.5548L403.26 56.1406ZM402.527 56.4077H391.967V58.4077H402.527V56.4077ZM469.994 55.8877L469.585 56.8004L469.593 56.8041L469.601 56.8076L469.994 55.8877ZM461.674 48.6077L460.815 49.1202L460.819 49.1263L461.674 48.6077ZM459.274 1.96771L459.981 2.67482V2.67482L459.274 1.96771ZM472.474 1.96771L471.767 2.67482V2.67482L472.474 1.96771ZM475.514 43.8077L474.785 44.4924L474.796 44.5038L474.807 44.5148L475.514 43.8077ZM489.594 43.8077L488.876 43.1116L488.876 43.1119L489.594 43.8077ZM492.714 1.96771L492.055 1.21514L492.03 1.23706L492.007 1.2606L492.714 1.96771ZM505.914 1.96771L505.207 2.67482L505.23 2.69837L505.255 2.72029L505.914 1.96771ZM503.594 48.6077L504.449 49.1263L504.452 49.1202L503.594 48.6077ZM495.274 55.8877L495.671 56.8055L495.682 56.8004L495.274 55.8877ZM482.634 57.2077C477.94 57.2077 473.865 56.4515 470.386 54.9679L469.601 56.8076C473.376 58.4173 477.728 59.2077 482.634 59.2077V57.2077ZM470.402 54.975C467.009 53.4555 464.394 51.1635 462.529 48.0891L460.819 49.1263C462.901 52.5586 465.832 55.12 469.585 56.8004L470.402 54.975ZM462.532 48.0953C460.676 44.9851 459.714 40.9894 459.714 36.0477H457.714C457.714 41.2393 458.724 45.617 460.815 49.1202L462.532 48.0953ZM459.714 36.0477V3.40771H457.714V36.0477H459.714ZM459.714 3.40771C459.714 3.05396 459.817 2.83895 459.981 2.67482L458.567 1.2606C457.984 1.84314 457.714 2.58813 457.714 3.40771H459.714ZM459.981 2.67482C460.145 2.51069 460.36 2.40771 460.714 2.40771V0.407711C459.894 0.407711 459.149 0.678069 458.567 1.26061L459.981 2.67482ZM460.714 2.40771L471.034 2.40771V0.407711L460.714 0.407711V2.40771ZM471.034 2.40771C471.388 2.40771 471.603 2.51069 471.767 2.67482L473.181 1.26061C472.598 0.678069 471.853 0.407711 471.034 0.407711V2.40771ZM471.767 2.67482C471.931 2.83895 472.034 3.05396 472.034 3.40771L474.034 3.40771C474.034 2.58813 473.763 1.84314 473.181 1.2606L471.767 2.67482ZM472.034 3.40771V35.9677H474.034V3.40771L472.034 3.40771ZM472.034 35.9677C472.034 39.5784 472.894 42.4797 474.785 44.4924L476.243 43.123C474.827 41.6157 474.034 39.2903 474.034 35.9677H472.034ZM474.807 44.5148C476.747 46.4547 479.401 47.3677 482.634 47.3677V45.3677C479.786 45.3677 477.694 44.574 476.221 43.1006L474.807 44.5148ZM482.634 47.3677C485.817 47.3677 488.425 46.4519 490.312 44.5035L488.876 43.1119C487.456 44.5769 485.423 45.3677 482.634 45.3677V47.3677ZM490.312 44.5039C492.263 42.4918 493.154 39.586 493.154 35.9677H491.154C491.154 39.2828 490.338 41.6036 488.876 43.1116L490.312 44.5039ZM493.154 35.9677V3.40771H491.154V35.9677H493.154ZM493.154 3.40771C493.154 3.05396 493.257 2.83895 493.421 2.67482L492.007 1.2606C491.424 1.84314 491.154 2.58813 491.154 3.40771H493.154ZM493.372 2.72029C493.629 2.49553 493.879 2.40771 494.154 2.40771V0.407711C493.362 0.407711 492.652 0.693225 492.055 1.21514L493.372 2.72029ZM494.154 2.40771L504.554 2.40771V0.407711L494.154 0.407711V2.40771ZM504.554 2.40771C504.825 2.40771 505.023 2.49115 505.207 2.67482L506.621 1.26061C506.058 0.697607 505.349 0.407711 504.554 0.407711V2.40771ZM505.255 2.72029C505.456 2.89632 505.554 3.09795 505.554 3.40771L507.554 3.40771C507.554 2.54414 507.224 1.78577 506.572 1.21513L505.255 2.72029ZM505.554 3.40771V36.0477H507.554V3.40771L505.554 3.40771ZM505.554 36.0477C505.554 40.9894 504.591 44.9851 502.735 48.0953L504.452 49.1202C506.543 45.617 507.554 41.2393 507.554 36.0477H505.554ZM502.739 48.0891C500.874 51.1635 498.259 53.4555 494.865 54.975L495.682 56.8004C499.435 55.12 502.367 52.5586 504.449 49.1263L502.739 48.0891ZM494.877 54.97C491.455 56.4508 487.383 57.2077 482.634 57.2077V59.2077C487.591 59.2077 491.945 58.418 495.671 56.8054L494.877 54.97ZM532.763 55.9677L532.36 56.8833L532.372 56.8883L532.763 55.9677ZM524.763 49.9677L523.958 50.5621L524.763 49.9677ZM521.883 42.1277H520.883V42.1469L520.883 42.1661L521.883 42.1277ZM522.362 41.0077L521.655 40.3006L522.362 41.0077ZM535.403 40.8477L534.821 41.6614L534.846 41.6794L534.872 41.6957L535.403 40.8477ZM536.523 41.8877L537.405 41.4171L537.369 41.3493L537.323 41.2877L536.523 41.8877ZM538.282 44.2077L537.575 44.9148L537.588 44.927L537.6 44.9388L538.282 44.2077ZM541.323 46.0477L540.958 46.979L540.982 46.9883L541.006 46.9964L541.323 46.0477ZM553.003 45.2477L552.488 44.3902L552.482 44.3941L552.475 44.3981L553.003 45.2477ZM554.122 38.4477L553.439 39.1772L553.451 39.189L553.464 39.2003L554.122 38.4477ZM549.963 36.3677L549.638 37.3137L549.654 37.3191L549.67 37.3241L549.963 36.3677ZM542.443 34.4477L542.237 35.4263L542.243 35.4277L542.443 34.4477ZM532.042 31.1677L531.602 32.0655L531.612 32.0705L531.622 32.0752L532.042 31.1677ZM525.562 25.8077L524.73 26.3624L524.737 26.3717L525.562 25.8077ZM526.042 8.76771L525.234 8.17848L525.227 8.18969L526.042 8.76771ZM533.802 2.76771L533.403 1.85088L533.802 2.76771ZM555.242 2.04771L554.915 2.99271L554.921 2.99459L555.242 2.04771ZM562.362 5.88771L563.003 5.11949V5.11949L562.362 5.88771ZM566.682 11.0077L565.799 11.4756L565.807 11.4913L565.816 11.5067L566.682 11.0077ZM568.283 16.2077H569.283V16.1921L569.282 16.1765L568.283 16.2077ZM567.802 17.4077L568.51 18.1148L568.537 18.0877L568.562 18.0585L567.802 17.4077ZM554.523 17.5677L554.075 18.4621H554.075L554.523 17.5677ZM553.403 16.5277L552.438 16.7908L552.48 16.9474L552.57 17.0824L553.403 16.5277ZM550.843 13.4877L550.28 14.3146L550.299 14.3274L550.318 14.3394L550.843 13.4877ZM540.042 13.4077L540.573 14.2558L540.582 14.25L540.042 13.4077ZM539.162 19.9677L538.407 20.6226L538.419 20.6366L538.431 20.65L539.162 19.9677ZM542.763 22.0477L542.428 22.9902L542.437 22.9934L542.763 22.0477ZM549.722 23.8877L549.509 24.8647L549.524 24.8679L549.539 24.8707L549.722 23.8877ZM561.482 27.3277L561.061 28.2347L561.068 28.2378L561.075 28.2409L561.482 27.3277ZM568.042 32.6077L567.198 33.1433L567.204 33.1527L568.042 32.6077ZM567.003 50.1277L566.214 49.5127L566.212 49.5149L567.003 50.1277ZM558.523 56.1277L558.88 57.0618L558.523 56.1277ZM546.042 57.2077C540.794 57.2077 536.511 56.4717 533.153 55.0471L532.372 56.8883C536.054 58.4504 540.624 59.2077 546.042 59.2077V57.2077ZM533.165 55.0522C529.764 53.5577 527.253 51.6544 525.567 49.3733L523.958 50.5621C525.899 53.1877 528.721 55.2844 532.36 56.8832L533.165 55.0522ZM525.567 49.3733C523.86 47.0648 522.98 44.6421 522.882 42.0893L520.883 42.1661C520.998 45.16 522.038 47.964 523.958 50.5621L525.567 49.3733ZM522.883 42.1277C522.883 41.9836 522.924 41.8599 523.07 41.7148L521.655 40.3006C521.16 40.7955 520.883 41.4185 520.883 42.1277H522.883ZM523.07 41.7148C523.276 41.5084 523.456 41.4477 523.643 41.4477V39.4477C522.87 39.4477 522.196 39.7603 521.655 40.3006L523.07 41.7148ZM523.643 41.4477H533.722V39.4477H523.643V41.4477ZM533.722 41.4477C534.38 41.4477 534.694 41.5706 534.821 41.6614L535.984 40.034C535.364 39.5915 534.558 39.4477 533.722 39.4477V41.4477ZM534.872 41.6957C535.188 41.8932 535.472 42.1537 535.722 42.4877L537.323 41.2877C536.933 40.7684 536.47 40.3356 535.932 39.9997L534.872 41.6957ZM535.64 42.3583C536.12 43.2583 536.77 44.1096 537.575 44.9148L538.99 43.5006C538.302 42.8125 537.778 42.1171 537.405 41.4171L535.64 42.3583ZM537.6 44.9388C538.509 45.7873 539.637 46.4621 540.958 46.979L541.687 45.1165C540.555 44.6734 539.656 44.1215 538.965 43.4767L537.6 44.9388ZM541.006 46.9964C542.419 47.4673 544.106 47.6877 546.042 47.6877V45.6877C544.245 45.6877 542.786 45.4815 541.639 45.099L541.006 46.9964ZM546.042 47.6877C549.207 47.6877 551.749 47.2025 553.53 46.0974L552.475 44.3981C551.162 45.2129 549.065 45.6877 546.042 45.6877V47.6877ZM553.517 46.1052C555.372 44.9922 556.403 43.3831 556.403 41.3277H554.403C554.403 42.579 553.833 43.5832 552.488 44.3902L553.517 46.1052ZM556.403 41.3277C556.403 39.8775 555.86 38.6391 554.781 37.6951L553.464 39.2003C554.092 39.7497 554.403 40.4313 554.403 41.3277H556.403ZM554.806 37.7182C553.789 36.7639 552.23 36.015 550.255 35.4114L549.67 37.3241C551.535 37.8937 552.75 38.5315 553.439 39.1772L554.806 37.7182ZM550.287 35.4218C548.362 34.7618 545.808 34.1118 542.642 33.4678L542.243 35.4277C545.37 36.0637 547.83 36.6936 549.638 37.3137L550.287 35.4218ZM542.648 33.4692C538.648 32.6269 535.257 31.554 532.463 30.2602L531.622 32.0752C534.588 33.4481 538.13 34.5618 542.237 35.4263L542.648 33.4692ZM532.483 30.2699C529.782 28.9449 527.767 27.2629 526.388 25.2438L524.737 26.3717C526.344 28.7258 528.65 30.6171 531.602 32.0655L532.483 30.2699ZM526.395 25.253C525.033 23.2114 524.323 20.6424 524.323 17.4877H522.323C522.323 20.9464 523.105 23.9241 524.73 26.3624L526.395 25.253ZM524.323 17.4877C524.323 14.4333 525.169 11.7302 526.859 9.34573L525.227 8.18969C523.289 10.9252 522.323 14.0355 522.323 17.4877H524.323ZM526.851 9.35688C528.599 6.95945 531.035 5.06359 534.202 3.68455L533.403 1.85088C529.957 3.35184 527.22 5.45597 525.234 8.17854L526.851 9.35688ZM534.202 3.68455C537.355 2.31156 541.132 1.60771 545.562 1.60771V-0.392288C540.926 -0.392288 536.864 0.343864 533.403 1.85088L534.202 3.68455ZM545.562 1.60771C549.158 1.60771 552.27 2.07702 554.915 2.9927L555.57 1.10273C552.668 0.0983992 549.327 -0.392288 545.562 -0.392288V1.60771ZM554.921 2.99459C557.653 3.9226 559.913 5.1482 561.722 6.65593L563.003 5.11949C560.972 3.42723 558.485 2.09282 555.564 1.10083L554.921 2.99459ZM561.722 6.65593C563.564 8.19031 564.911 9.7994 565.799 11.4756L567.566 10.5398C566.534 8.58936 565.001 6.78511 563.003 5.11949L561.722 6.65593ZM565.816 11.5067C566.763 13.151 567.236 14.7252 567.283 16.2389L569.282 16.1765C569.223 14.2768 568.629 12.3844 567.549 10.5087L565.816 11.5067ZM567.283 16.2077C567.283 16.3598 567.233 16.5356 567.043 16.7569L568.562 18.0585C569.012 17.5332 569.283 16.909 569.283 16.2077H567.283ZM567.095 16.7006C566.975 16.8208 566.835 16.8877 566.602 16.8877V18.8877C567.33 18.8877 567.99 18.6346 568.51 18.1148L567.095 16.7006ZM566.602 16.8877L556.042 16.8877V18.8877L566.602 18.8877V16.8877ZM556.042 16.8877C555.576 16.8877 555.229 16.8031 554.97 16.6733L554.075 18.4621C554.669 18.759 555.336 18.8877 556.042 18.8877V16.8877ZM554.97 16.6733C554.728 16.5526 554.478 16.3385 554.235 15.973L552.57 17.0824C552.967 17.677 553.463 18.1562 554.075 18.4621L554.97 16.6733ZM554.367 16.2646C553.96 14.7729 552.895 13.5764 551.367 12.6361L550.318 14.3394C551.564 15.1057 552.205 15.9359 552.438 16.7908L554.367 16.2646ZM551.405 12.6608C549.856 11.6076 547.88 11.1277 545.562 11.1277V13.1277C547.618 13.1277 549.162 13.5544 550.28 14.3146L551.405 12.6608ZM545.562 11.1277C543.111 11.1277 541.058 11.5707 539.503 12.5654L540.582 14.25C541.694 13.538 543.32 13.1277 545.562 13.1277V11.1277ZM539.513 12.5597C537.898 13.5691 537.122 15.1696 537.122 17.1677L539.122 17.1677C539.122 15.7525 539.627 14.8464 540.573 14.2557L539.513 12.5597ZM537.122 17.1677C537.122 18.473 537.555 19.6393 538.407 20.6226L539.918 19.3128C539.384 18.6961 539.122 17.9958 539.122 17.1677L537.122 17.1677ZM538.431 20.65C539.334 21.6174 540.705 22.3788 542.428 22.9901L543.097 21.1053C541.513 20.5433 540.484 19.918 539.894 19.2854L538.431 20.65ZM542.437 22.9934C544.197 23.5982 546.559 24.2211 549.509 24.8647L549.936 22.9107C547.019 22.2743 544.742 21.6706 543.088 21.102L542.437 22.9934ZM549.539 24.8707C554.347 25.7689 558.178 26.896 561.061 28.2347L561.904 26.4207C558.814 24.9861 554.805 23.8199 549.906 22.9047L549.539 24.8707ZM561.075 28.2409C563.929 29.5151 565.941 31.1615 567.198 33.1433L568.887 32.0722C567.37 29.6806 565.009 27.807 561.89 26.4146L561.075 28.2409ZM567.204 33.1527C568.46 35.0842 569.122 37.5744 569.122 40.6877H571.122C571.122 37.2944 570.399 34.3979 568.881 32.0627L567.204 33.1527ZM569.122 40.6877C569.122 44.1088 568.147 47.0349 566.214 49.5127L567.791 50.7427C570.018 47.8872 571.122 44.52 571.122 40.6877H569.122ZM566.212 49.5149C564.316 51.96 561.651 53.8609 558.165 55.1937L558.88 57.0618C562.647 55.6212 565.636 53.5221 567.793 50.7405L566.212 49.5149ZM558.165 55.1937C554.674 56.5287 550.639 57.2077 546.042 57.2077V59.2077C550.833 59.2077 555.118 58.5001 558.88 57.0618L558.165 55.1937Z" fill="url(#paint0_linear_22_256)" fill-opacity="0.2"/>
<defs>
<linearGradient id="paint0_linear_22_256" x1="284.5" y1="-4.59229" x2="284.5" y2="65.4077" gradientUnits="userSpaceOnUse">
<stop stop-color="#C1FFF8"/>
<stop offset="1" stop-color="#C1FFF8" stop-opacity="0"/>
</linearGradient>
</defs>
</svg>
