<svg width="80" height="81" viewBox="0 0 80 81" fill="none" xmlns="http://www.w3.org/2000/svg">
<rect y="0.126465" width="80" height="80" rx="10" fill="#171B3F"/>
<path d="M39.445 31.9868C34.2872 31.9868 30.0137 36.1867 30.0137 41.4181C30.0137 46.6496 34.2136 50.8494 39.445 50.8494C44.6764 50.8494 48.8763 46.5759 48.8763 41.4181C48.8763 36.2604 44.6027 31.9868 39.445 31.9868ZM39.445 47.4601C36.1293 47.4601 33.4031 44.7338 33.4031 41.4181C33.4031 38.1024 36.1293 35.3762 39.445 35.3762C42.7607 35.3762 45.4869 38.1024 45.4869 41.4181C45.4869 44.7338 42.7607 47.4601 39.445 47.4601Z" fill="#C1FFF8"/>
<path d="M49.2448 33.9025C50.4249 33.9025 51.3816 32.9458 51.3816 31.7657C51.3816 30.5856 50.4249 29.6289 49.2448 29.6289C48.0647 29.6289 47.108 30.5856 47.108 31.7657C47.108 32.9458 48.0647 33.9025 49.2448 33.9025Z" fill="#C1FFF8"/>
<path d="M54.7709 26.2397C52.8552 24.2503 50.129 23.2188 47.0343 23.2188H31.8558C25.4454 23.2188 21.1719 27.4923 21.1719 33.9027V49.0075C21.1719 52.1758 22.2034 54.9021 24.2665 56.8915C26.2559 58.8072 28.9085 59.7651 31.9295 59.7651H46.9606C50.129 59.7651 52.7815 58.7335 54.6973 56.8915C56.6867 54.9758 57.7182 52.2495 57.7182 49.0812V33.9027C57.7182 30.808 56.6867 28.1555 54.7709 26.2397ZM54.4762 49.0812C54.4762 51.3653 53.6657 53.2074 52.3394 54.46C51.0131 55.7126 49.1711 56.3757 46.9606 56.3757H31.9295C29.719 56.3757 27.877 55.7126 26.5507 54.46C25.2244 53.1337 24.5613 51.2916 24.5613 49.0075V33.9027C24.5613 31.6922 25.2244 29.8501 26.5507 28.5239C27.8033 27.2713 29.719 26.6081 31.9295 26.6081H47.108C49.3185 26.6081 51.1605 27.2713 52.4868 28.5975C53.7394 29.9238 54.4762 31.7659 54.4762 33.9027V49.0812Z" fill="#C1FFF8"/>
</svg>
