<svg width="786" height="59" viewBox="0 0 786 59" fill="none" xmlns="http://www.w3.org/2000/svg">
<path d="M1.16 56.7216L1.86711 56.0145L1.86711 56.0145L1.16 56.7216ZM1.16 1.84161L1.86711 2.54872L1.86711 2.54872L1.16 1.84161ZM14.52 1.84161L13.8129 2.54872L13.8364 2.57227L13.8615 2.59419L14.52 1.84161ZM15.16 45.2016H14.16V46.2016H15.16V45.2016ZM40.76 45.8416L40.0074 46.5001L40.0513 46.5503L40.1015 46.5942L40.76 45.8416ZM40.76 56.7216L40.1015 55.969L40.0764 55.991L40.0529 56.0145L40.76 56.7216ZM2.6 56.2816C2.24625 56.2816 2.03124 56.1786 1.86711 56.0145L0.452894 57.4287C1.03543 58.0113 1.78042 58.2816 2.6 58.2816V56.2816ZM1.86711 56.0145C1.70298 55.8504 1.6 55.6354 1.6 55.2816H-0.4C-0.4 56.1012 -0.129643 56.8462 0.452894 57.4287L1.86711 56.0145ZM1.6 55.2816L1.6 3.28162H-0.4L-0.4 55.2816H1.6ZM1.6 3.28162C1.6 2.92786 1.70298 2.71285 1.86711 2.54872L0.452896 1.13451C-0.129644 1.71704 -0.4 2.46203 -0.4 3.28162H1.6ZM1.86711 2.54872C2.03124 2.38459 2.24625 2.28161 2.6 2.28161V0.281612C1.78042 0.281612 1.03543 0.55197 0.452892 1.13451L1.86711 2.54872ZM2.6 2.28161L13.16 2.28161V0.281612L2.6 0.281612V2.28161ZM13.16 2.28161C13.4311 2.28161 13.6292 2.36505 13.8129 2.54872L15.2271 1.13451C14.6641 0.571508 13.9555 0.281612 13.16 0.281612V2.28161ZM13.8615 2.59419C14.0627 2.77022 14.16 2.97185 14.16 3.28162L16.16 3.28162C16.16 2.41804 15.8307 1.65968 15.1785 1.08904L13.8615 2.59419ZM14.16 3.28162L14.16 45.2016H16.16L16.16 3.28162L14.16 3.28162ZM15.16 46.2016L39.32 46.2016V44.2016L15.16 44.2016V46.2016ZM39.32 46.2016C39.6298 46.2016 39.8314 46.2989 40.0074 46.5001L41.5126 45.1831C40.9419 44.531 40.1836 44.2016 39.32 44.2016V46.2016ZM40.1015 46.5942C40.3027 46.7702 40.4 46.9719 40.4 47.2816H42.4C42.4 46.418 42.0707 45.6597 41.4185 45.089L40.1015 46.5942ZM40.4 47.2816V55.2816H42.4V47.2816H40.4ZM40.4 55.2816C40.4 55.5914 40.3027 55.793 40.1015 55.969L41.4185 57.4742C42.0707 56.9036 42.4 56.1452 42.4 55.2816H40.4ZM40.0529 56.0145C39.8888 56.1786 39.6737 56.2816 39.32 56.2816V58.2816C40.1396 58.2816 40.8846 58.0113 41.4671 57.4287L40.0529 56.0145ZM39.32 56.2816L2.6 56.2816V58.2816L39.32 58.2816V56.2816ZM56.8944 56.7216L57.6015 56.0145V56.0145L56.8944 56.7216ZM56.8944 1.84161L57.6015 2.54872L57.6015 2.54872L56.8944 1.84161ZM97.1344 12.2416L97.8415 12.9487L97.8415 12.9487L97.1344 12.2416ZM70.1744 12.8016V11.8016H69.1744V12.8016H70.1744ZM70.1744 23.6016H69.1744V24.6016H70.1744V23.6016ZM95.3744 24.2416L94.6218 24.9001L94.6437 24.9252L94.6673 24.9487L95.3744 24.2416ZM95.3744 34.0816L96.0815 34.7887L96.105 34.7652L96.127 34.7401L95.3744 34.0816ZM70.1744 34.6416V33.6416H69.1744V34.6416H70.1744ZM70.1744 45.7616H69.1744V46.7616H70.1744V45.7616ZM97.7744 46.3216L97.0673 47.0287V47.0287L97.7744 46.3216ZM97.7744 56.7216L97.0673 56.0145V56.0145L97.7744 56.7216ZM58.3344 56.2816C57.9806 56.2816 57.7656 56.1786 57.6015 56.0145L56.1873 57.4287C56.7698 58.0113 57.5148 58.2816 58.3344 58.2816V56.2816ZM57.6015 56.0145C57.4374 55.8504 57.3344 55.6354 57.3344 55.2816H55.3344C55.3344 56.1012 55.6047 56.8462 56.1873 57.4287L57.6015 56.0145ZM57.3344 55.2816L57.3344 3.28162H55.3344L55.3344 55.2816H57.3344ZM57.3344 3.28162C57.3344 2.92786 57.4374 2.71285 57.6015 2.54872L56.1873 1.13451C55.6047 1.71704 55.3344 2.46203 55.3344 3.28162H57.3344ZM57.6015 2.54872C57.7656 2.38459 57.9806 2.28161 58.3344 2.28161V0.281612C57.5148 0.281612 56.7698 0.55197 56.1873 1.13451L57.6015 2.54872ZM58.3344 2.28161L95.6944 2.28161V0.281612L58.3344 0.281612V2.28161ZM95.6944 2.28161C96.0481 2.28161 96.2631 2.38459 96.4273 2.54872L97.8415 1.13451C97.2589 0.551971 96.514 0.281612 95.6944 0.281612V2.28161ZM96.4273 2.54872C96.5914 2.71285 96.6944 2.92786 96.6944 3.28162L98.6944 3.28162C98.6944 2.46203 98.424 1.71704 97.8415 1.13451L96.4273 2.54872ZM96.6944 3.28162V10.8016H98.6944V3.28162L96.6944 3.28162ZM96.6944 10.8016C96.6944 11.1554 96.5914 11.3704 96.4273 11.5345L97.8415 12.9487C98.424 12.3662 98.6944 11.6212 98.6944 10.8016H96.6944ZM96.4273 11.5345C96.2631 11.6986 96.0481 11.8016 95.6944 11.8016V13.8016C96.514 13.8016 97.2589 13.5313 97.8415 12.9487L96.4273 11.5345ZM95.6944 11.8016L70.1744 11.8016V13.8016L95.6944 13.8016V11.8016ZM69.1744 12.8016V23.6016H71.1744V12.8016H69.1744ZM70.1744 24.6016L93.9344 24.6016V22.6016L70.1744 22.6016V24.6016ZM93.9344 24.6016C94.2441 24.6016 94.4458 24.6989 94.6218 24.9001L96.127 23.5831C95.5563 22.931 94.798 22.6016 93.9344 22.6016V24.6016ZM94.6673 24.9487C94.8314 25.1129 94.9344 25.3279 94.9344 25.6816H96.9344C96.9344 24.862 96.664 24.117 96.0815 23.5345L94.6673 24.9487ZM94.9344 25.6816V32.6416H96.9344V25.6816H94.9344ZM94.9344 32.6416C94.9344 32.9166 94.8466 33.1662 94.6218 33.4231L96.127 34.7401C96.6489 34.1437 96.9344 33.4333 96.9344 32.6416H94.9344ZM94.6673 33.3745C94.5031 33.5386 94.2881 33.6416 93.9344 33.6416V35.6416C94.754 35.6416 95.4989 35.3713 96.0815 34.7887L94.6673 33.3745ZM93.9344 33.6416H70.1744V35.6416H93.9344V33.6416ZM69.1744 34.6416L69.1744 45.7616H71.1744L71.1744 34.6416H69.1744ZM70.1744 46.7616H96.3344V44.7616H70.1744V46.7616ZM96.3344 46.7616C96.6881 46.7616 96.9031 46.8646 97.0673 47.0287L98.4815 45.6145C97.8989 45.032 97.154 44.7616 96.3344 44.7616V46.7616ZM97.0673 47.0287C97.2314 47.1929 97.3344 47.4079 97.3344 47.7616H99.3344C99.3344 46.942 99.064 46.197 98.4815 45.6145L97.0673 47.0287ZM97.3344 47.7616V55.2816H99.3344V47.7616H97.3344ZM97.3344 55.2816C97.3344 55.6354 97.2314 55.8504 97.0673 56.0145L98.4815 57.4287C99.064 56.8462 99.3344 56.1012 99.3344 55.2816H97.3344ZM97.0673 56.0145C96.9031 56.1786 96.6881 56.2816 96.3344 56.2816V58.2816C97.154 58.2816 97.8989 58.0113 98.4815 57.4287L97.0673 56.0145ZM96.3344 56.2816L58.3344 56.2816V58.2816L96.3344 58.2816V56.2816ZM111.028 56.8016L110.269 57.4524L110.319 57.5108L110.377 57.5609L111.028 56.8016ZM110.628 54.8816L109.689 54.5379L109.671 54.5877L109.658 54.6391L110.628 54.8816ZM129.428 3.52161L130.367 3.86535L130.382 3.82559L130.393 3.78473L129.428 3.52161ZM130.388 2.00161L131.053 2.74903L131.057 2.74491L130.388 2.00161ZM146.468 2.00161L145.761 2.70872L145.8 2.74788L145.843 2.78248L146.468 2.00161ZM147.508 3.52161L146.543 3.78473L146.554 3.82492L146.569 3.86406L147.508 3.52161ZM166.228 54.8816L165.289 55.2241L165.308 55.2777L165.334 55.3288L166.228 54.8816ZM165.828 56.8016L166.535 57.5087V57.5087L165.828 56.8016ZM152.948 56.7216L152.196 57.3801L152.239 57.4303L152.29 57.4742L152.948 56.7216ZM152.228 55.6016L153.177 55.2854L153.17 55.2648L153.162 55.2445L152.228 55.6016ZM149.108 47.4416L150.042 47.0845L149.796 46.4416L149.108 46.4416V47.4416ZM127.748 47.4416V46.4416H127.054L126.811 47.0925L127.748 47.4416ZM124.708 55.6016L123.771 55.2525L123.765 55.2688L123.759 55.2854L124.708 55.6016ZM123.988 56.7216L124.695 57.4287L124.719 57.4052L124.741 57.3801L123.988 56.7216ZM131.028 35.9216L130.084 35.5925L129.621 36.9216H131.028V35.9216ZM145.908 35.9216V36.9216H147.326L146.85 35.5862L145.908 35.9216ZM138.388 14.8016L139.33 14.4662L138.378 11.7919L137.444 14.4725L138.388 14.8016ZM112.228 56.2816C112.076 56.2816 111.9 56.2321 111.679 56.0424L110.377 57.5609C110.903 58.0111 111.527 58.2816 112.228 58.2816V56.2816ZM111.787 56.1508C111.598 55.9295 111.548 55.7537 111.548 55.6016H109.548C109.548 56.3029 109.819 56.9271 110.269 57.4524L111.787 56.1508ZM111.548 55.6016C111.548 55.4001 111.568 55.2435 111.598 55.1242L109.658 54.6391C109.581 54.9464 109.548 55.2698 109.548 55.6016H111.548ZM111.567 55.2254L130.367 3.86535L128.489 3.17787L109.689 54.5379L111.567 55.2254ZM130.393 3.78473C130.499 3.39595 130.709 3.05441 131.052 2.74902L129.724 1.2542C129.107 1.80215 128.677 2.47394 128.463 3.25849L130.393 3.78473ZM131.057 2.74491C131.362 2.47034 131.821 2.28161 132.548 2.28161V0.281612C131.462 0.281612 130.481 0.572888 129.719 1.25832L131.057 2.74491ZM132.548 2.28161L144.388 2.28161V0.281612L132.548 0.281612V2.28161ZM144.388 2.28161C145.121 2.28161 145.525 2.47254 145.761 2.70872L147.175 1.29451C146.451 0.570685 145.468 0.281612 144.388 0.281612V2.28161ZM145.843 2.78248C146.233 3.09394 146.446 3.42711 146.543 3.78473L148.473 3.25849C148.25 2.44278 147.77 1.76262 147.093 1.22074L145.843 2.78248ZM146.569 3.86406L165.289 55.2241L167.168 54.5392L148.448 3.17916L146.569 3.86406ZM165.334 55.3288C165.363 55.3876 165.388 55.4717 165.388 55.6016H167.388C167.388 55.1982 167.306 54.8023 167.123 54.4344L165.334 55.3288ZM165.388 55.6016C165.388 55.7031 165.354 55.8615 165.121 56.0945L166.535 57.5087C167.049 56.995 167.388 56.3535 167.388 55.6016H165.388ZM165.121 56.0945C165.001 56.2147 164.861 56.2816 164.628 56.2816V58.2816C165.355 58.2816 166.015 58.0285 166.535 57.5087L165.121 56.0945ZM164.628 56.2816H154.788V58.2816H164.628V56.2816ZM154.788 56.2816C154.132 56.2816 153.788 56.128 153.607 55.969L152.29 57.4742C152.961 58.0619 153.845 58.2816 154.788 58.2816V56.2816ZM153.701 56.0631C153.363 55.6775 153.222 55.4219 153.177 55.2854L151.279 55.9178C151.447 56.4213 151.786 56.9124 152.196 57.3801L153.701 56.0631ZM153.162 55.2445L150.042 47.0845L148.174 47.7988L151.294 55.9588L153.162 55.2445ZM149.108 46.4416H127.748V48.4416H149.108V46.4416ZM126.811 47.0925L123.771 55.2525L125.645 55.9507L128.685 47.7907L126.811 47.0925ZM123.759 55.2854C123.714 55.4219 123.573 55.6775 123.236 56.0631L124.741 57.3801C125.15 56.9124 125.489 56.4213 125.657 55.9178L123.759 55.2854ZM123.281 56.0145C123.192 56.104 122.887 56.2816 122.068 56.2816V58.2816C123.062 58.2816 124.038 58.0859 124.695 57.4287L123.281 56.0145ZM122.068 56.2816H112.228V58.2816H122.068V56.2816ZM131.028 36.9216H145.908V34.9216H131.028V36.9216ZM146.85 35.5862L139.33 14.4662L137.446 15.137L144.966 36.257L146.85 35.5862ZM137.444 14.4725L130.084 35.5925L131.972 36.2507L139.332 15.1307L137.444 14.4725ZM181.254 56.7216L181.961 56.0145V56.0145L181.254 56.7216ZM181.254 1.84161L181.961 2.54872V2.54872L181.254 1.84161ZM220.694 6.08161L220.064 6.85837L220.07 6.86301L220.075 6.86757L220.694 6.08161ZM223.894 29.1216L223.08 28.5403L223.072 28.5515L223.894 29.1216ZM216.694 35.0416L216.286 34.1285L215.285 34.5752L215.822 35.5309L216.694 35.0416ZM227.734 54.7216L228.628 54.2744L228.618 54.2531L228.606 54.2324L227.734 54.7216ZM227.414 56.8016L228.121 57.5087V57.5087L227.414 56.8016ZM213.414 56.5616L212.67 57.2306L212.688 57.2501L212.707 57.2687L213.414 56.5616ZM212.374 55.1216L213.268 54.6744L213.265 54.6679L213.262 54.6615L212.374 55.1216ZM203.254 37.5216L204.142 37.0615L203.862 36.5216H203.254V37.5216ZM195.014 37.5216V36.5216H194.014V37.5216H195.014ZM195.014 26.2416H194.014V27.2416H195.014V26.2416ZM209.894 24.4016L209.202 23.6796L209.194 23.687L209.187 23.6945L209.894 24.4016ZM209.974 14.3216L209.237 14.9973L209.244 15.0055L209.252 15.0135L209.974 14.3216ZM195.014 12.4016V11.4016H194.014V12.4016H195.014ZM182.694 56.2816C182.34 56.2816 182.125 56.1786 181.961 56.0145L180.547 57.4287C181.129 58.0113 181.874 58.2816 182.694 58.2816V56.2816ZM181.961 56.0145C181.797 55.8504 181.694 55.6354 181.694 55.2816H179.694C179.694 56.1012 179.964 56.8462 180.547 57.4287L181.961 56.0145ZM181.694 55.2816V3.28162L179.694 3.28162V55.2816H181.694ZM181.694 3.28162C181.694 2.92786 181.797 2.71285 181.961 2.54872L180.547 1.13451C179.964 1.71704 179.694 2.46203 179.694 3.28162L181.694 3.28162ZM181.961 2.54872C182.125 2.38459 182.34 2.28161 182.694 2.28161V0.281612C181.874 0.281612 181.129 0.55197 180.547 1.13451L181.961 2.54872ZM182.694 2.28161L204.454 2.28161V0.281612L182.694 0.281612V2.28161ZM204.454 2.28161C211.185 2.28161 216.35 3.84666 220.064 6.85837L221.324 5.30486C217.145 1.91656 211.482 0.281612 204.454 0.281612V2.28161ZM220.075 6.86757C223.798 9.79607 225.694 13.9656 225.694 19.5216L227.694 19.5216C227.694 13.451 225.589 8.66049 221.312 5.29566L220.075 6.86757ZM225.694 19.5216C225.694 23.1382 224.805 26.1254 223.08 28.5404L224.707 29.7029C226.716 26.8912 227.694 23.4783 227.694 19.5216L225.694 19.5216ZM223.072 28.5515C221.366 31.0105 219.111 32.8674 216.286 34.1285L217.101 35.9548C220.25 34.5492 222.795 32.4594 224.715 29.6917L223.072 28.5515ZM215.822 35.5309L226.862 55.2109L228.606 54.2324L217.566 34.5524L215.822 35.5309ZM226.839 55.1688C226.953 55.3952 226.974 55.5339 226.974 55.6016H228.974C228.974 55.136 228.835 54.688 228.628 54.2744L226.839 55.1688ZM226.974 55.6016C226.974 55.7031 226.94 55.8615 226.707 56.0945L228.121 57.5087C228.635 56.995 228.974 56.3535 228.974 55.6016H226.974ZM226.707 56.0945C226.586 56.2147 226.446 56.2816 226.214 56.2816V58.2816C226.941 58.2816 227.601 58.0285 228.121 57.5087L226.707 56.0945ZM226.214 56.2816H215.654V58.2816H226.214V56.2816ZM215.654 56.2816C214.776 56.2816 214.338 56.0719 214.121 55.8545L212.707 57.2687C213.449 58.0113 214.505 58.2816 215.654 58.2816V56.2816ZM214.157 55.8927C213.71 55.3961 213.427 54.9912 213.268 54.6744L211.479 55.5688C211.748 56.1054 212.157 56.6605 212.67 57.2306L214.157 55.8927ZM213.262 54.6615L204.142 37.0615L202.366 37.9817L211.486 55.5817L213.262 54.6615ZM203.254 36.5216H195.014V38.5216H203.254V36.5216ZM194.014 37.5216V55.2816H196.014V37.5216H194.014ZM194.014 55.2816C194.014 55.6354 193.911 55.8504 193.747 56.0145L195.161 57.4287C195.743 56.8462 196.014 56.1012 196.014 55.2816H194.014ZM193.747 56.0145C193.583 56.1786 193.367 56.2816 193.014 56.2816V58.2816C193.833 58.2816 194.578 58.0113 195.161 57.4287L193.747 56.0145ZM193.014 56.2816H182.694V58.2816H193.014V56.2816ZM195.014 27.2416H204.294V25.2416H195.014V27.2416ZM204.294 27.2416C206.947 27.2416 209.117 26.5927 210.601 25.1087L209.187 23.6945C208.217 24.6639 206.654 25.2416 204.294 25.2416V27.2416ZM210.586 25.1236C212.102 23.6707 212.814 21.7079 212.814 19.3616H210.814C210.814 21.282 210.246 22.6792 209.202 23.6796L210.586 25.1236ZM212.814 19.3616C212.814 17.0716 212.131 15.1278 210.696 13.6297L209.252 15.0135C210.269 16.0755 210.814 17.4916 210.814 19.3616H212.814ZM210.711 13.6459C209.27 12.0739 207.046 11.4016 204.294 11.4016V13.4016C206.768 13.4016 208.331 14.0093 209.237 14.9973L210.711 13.6459ZM204.294 11.4016H195.014V13.4016H204.294V11.4016ZM194.014 12.4016V26.2416H196.014V12.4016H194.014ZM244.566 56.7216L245.273 56.0145V56.0145L244.566 56.7216ZM244.566 1.84161L245.273 2.54872V2.54872L244.566 1.84161ZM256.406 1.92161L255.654 2.58012L255.698 2.63029L255.748 2.67419L256.406 1.92161ZM257.206 2.80161L256.312 3.24883L256.334 3.29414L256.362 3.33692L257.206 2.80161ZM276.726 33.6016L275.882 34.1369L277.726 37.0476V33.6016H276.726ZM277.286 1.84161L277.993 2.54872V2.54872L277.286 1.84161ZM289.766 1.84161L289.059 2.54872V2.54872L289.766 1.84161ZM289.766 56.7216L290.473 57.4287L290.497 57.4052L290.519 57.3801L289.766 56.7216ZM277.846 56.6416L277.094 57.3001L277.116 57.3252L277.139 57.3487L277.846 56.6416ZM277.126 55.7616L276.291 56.3121L276.294 56.3163L277.126 55.7616ZM257.606 26.1616L258.441 25.6111L256.606 22.8288V26.1616H257.606ZM246.006 56.2816C245.652 56.2816 245.437 56.1786 245.273 56.0145L243.859 57.4287C244.442 58.0113 245.187 58.2816 246.006 58.2816V56.2816ZM245.273 56.0145C245.109 55.8504 245.006 55.6354 245.006 55.2816H243.006C243.006 56.1012 243.277 56.8462 243.859 57.4287L245.273 56.0145ZM245.006 55.2816V3.28162H243.006V55.2816H245.006ZM245.006 3.28162C245.006 2.92786 245.109 2.71285 245.273 2.54872L243.859 1.13451C243.277 1.71704 243.006 2.46203 243.006 3.28162H245.006ZM245.273 2.54872C245.437 2.38459 245.652 2.28161 246.006 2.28161V0.281612C245.187 0.281612 244.442 0.55197 243.859 1.13451L245.273 2.54872ZM246.006 2.28161L254.486 2.28161V0.281612L246.006 0.281612V2.28161ZM254.486 2.28161C255.274 2.28161 255.559 2.47193 255.654 2.58012L257.159 1.26311C256.507 0.517959 255.511 0.281612 254.486 0.281612V2.28161ZM255.748 2.67419C255.944 2.84547 256.087 2.98489 256.186 3.09429C256.293 3.21162 256.318 3.26018 256.312 3.24883L258.101 2.3544C257.897 1.94756 257.491 1.5418 257.065 1.16904L255.748 2.67419ZM256.362 3.33692L275.882 34.1369L277.571 33.0663L258.051 2.2663L256.362 3.33692ZM277.726 33.6016V3.28162H275.726V33.6016H277.726ZM277.726 3.28162C277.726 2.92786 277.829 2.71285 277.993 2.54872L276.579 1.13451C275.997 1.71704 275.726 2.46203 275.726 3.28162H277.726ZM277.993 2.54872C278.158 2.38459 278.372 2.28161 278.726 2.28161V0.281612C277.907 0.281612 277.162 0.551971 276.579 1.13451L277.993 2.54872ZM278.726 2.28161L288.326 2.28161V0.281612L278.726 0.281612V2.28161ZM288.326 2.28161C288.68 2.28161 288.895 2.38459 289.059 2.54872L290.473 1.13451C289.891 0.55197 289.146 0.281612 288.326 0.281612V2.28161ZM289.059 2.54872C289.223 2.71285 289.326 2.92786 289.326 3.28162L291.326 3.28162C291.326 2.46203 291.056 1.71704 290.473 1.1345L289.059 2.54872ZM289.326 3.28162V55.2816H291.326V3.28162L289.326 3.28162ZM289.326 55.2816C289.326 55.5566 289.238 55.8062 289.014 56.0631L290.519 57.3801C291.041 56.7837 291.326 56.0733 291.326 55.2816H289.326ZM289.059 56.0145C288.895 56.1786 288.68 56.2816 288.326 56.2816V58.2816C289.146 58.2816 289.891 58.0113 290.473 57.4287L289.059 56.0145ZM288.326 56.2816L279.766 56.2816V58.2816L288.326 58.2816V56.2816ZM279.766 56.2816C279.067 56.2816 278.726 56.1075 278.553 55.9345L277.139 57.3487C277.819 58.0291 278.759 58.2816 279.766 58.2816V56.2816ZM278.599 55.9831C278.219 55.5488 278.023 55.3036 277.958 55.2069L276.294 56.3163C276.443 56.5397 276.727 56.8811 277.094 57.3001L278.599 55.9831ZM277.961 55.2111L258.441 25.6111L256.771 26.7121L276.291 56.3121L277.961 55.2111ZM256.606 26.1616V55.2816H258.606V26.1616H256.606ZM256.606 55.2816C256.606 55.6354 256.503 55.8504 256.339 56.0145L257.753 57.4287C258.336 56.8462 258.606 56.1012 258.606 55.2816H256.606ZM256.339 56.0145C256.175 56.1786 255.96 56.2816 255.606 56.2816V58.2816C256.426 58.2816 257.171 58.0113 257.753 57.4287L256.339 56.0145ZM255.606 56.2816H246.006V58.2816H255.606V56.2816ZM328.106 56.8016L327.347 57.4524L327.397 57.5108L327.455 57.5609L328.106 56.8016ZM327.706 54.8816L326.767 54.5379L326.749 54.5877L326.736 54.6391L327.706 54.8816ZM346.506 3.52161L347.445 3.86535L347.46 3.82559L347.471 3.78473L346.506 3.52161ZM347.466 2.00161L348.131 2.74903L348.135 2.74491L347.466 2.00161ZM363.546 2.00161L362.839 2.70872L362.878 2.74788L362.922 2.78248L363.546 2.00161ZM364.586 3.52161L363.621 3.78473L363.632 3.82492L363.647 3.86406L364.586 3.52161ZM383.306 54.8816L382.367 55.2241L382.386 55.2777L382.412 55.3288L383.306 54.8816ZM382.906 56.8016L383.613 57.5087V57.5087L382.906 56.8016ZM370.026 56.7216L369.274 57.3801L369.318 57.4303L369.368 57.4742L370.026 56.7216ZM369.306 55.6016L370.255 55.2854L370.248 55.2648L370.24 55.2445L369.306 55.6016ZM366.186 47.4416L367.12 47.0845L366.875 46.4416H366.186V47.4416ZM344.826 47.4416V46.4416H344.132L343.889 47.0925L344.826 47.4416ZM341.786 55.6016L340.849 55.2525L340.843 55.2688L340.838 55.2854L341.786 55.6016ZM341.066 56.7216L341.773 57.4287L341.797 57.4052L341.819 57.3801L341.066 56.7216ZM348.106 35.9216L347.162 35.5925L346.699 36.9216H348.106V35.9216ZM362.986 35.9216V36.9216H364.404L363.928 35.5862L362.986 35.9216ZM355.466 14.8016L356.408 14.4662L355.456 11.7919L354.522 14.4725L355.466 14.8016ZM329.306 56.2816C329.154 56.2816 328.978 56.2321 328.757 56.0424L327.455 57.5609C327.981 58.0111 328.605 58.2816 329.306 58.2816V56.2816ZM328.866 56.1508C328.676 55.9295 328.626 55.7537 328.626 55.6016H326.626C326.626 56.3029 326.897 56.9271 327.347 57.4524L328.866 56.1508ZM328.626 55.6016C328.626 55.4001 328.647 55.2435 328.676 55.1242L326.736 54.6391C326.659 54.9464 326.626 55.2698 326.626 55.6016H328.626ZM328.645 55.2254L347.445 3.86535L345.567 3.17787L326.767 54.5379L328.645 55.2254ZM347.471 3.78473C347.577 3.39595 347.787 3.05441 348.131 2.74902L346.802 1.2542C346.185 1.80215 345.755 2.47394 345.541 3.25849L347.471 3.78473ZM348.135 2.74491C348.44 2.47034 348.899 2.28161 349.626 2.28161V0.281612C348.54 0.281612 347.559 0.572888 346.797 1.25832L348.135 2.74491ZM349.626 2.28161L361.466 2.28161V0.281612L349.626 0.281612V2.28161ZM361.466 2.28161C362.2 2.28161 362.603 2.47254 362.839 2.70872L364.253 1.29451C363.53 0.570685 362.546 0.281612 361.466 0.281612V2.28161ZM362.922 2.78248C363.311 3.09394 363.524 3.42711 363.621 3.78473L365.551 3.25849C365.329 2.44278 364.848 1.76262 364.171 1.22074L362.922 2.78248ZM363.647 3.86406L382.367 55.2241L384.246 54.5392L365.526 3.17916L363.647 3.86406ZM382.412 55.3288C382.441 55.3876 382.466 55.4717 382.466 55.6016H384.466C384.466 55.1982 384.385 54.8023 384.201 54.4344L382.412 55.3288ZM382.466 55.6016C382.466 55.7031 382.432 55.8615 382.199 56.0945L383.613 57.5087C384.127 56.995 384.466 56.3535 384.466 55.6016H382.466ZM382.199 56.0945C382.079 56.2147 381.939 56.2816 381.706 56.2816V58.2816C382.434 58.2816 383.094 58.0285 383.613 57.5087L382.199 56.0945ZM381.706 56.2816H371.866V58.2816H381.706V56.2816ZM371.866 56.2816C371.21 56.2816 370.866 56.128 370.685 55.969L369.368 57.4742C370.039 58.0619 370.923 58.2816 371.866 58.2816V56.2816ZM370.779 56.0631C370.441 55.6775 370.3 55.4219 370.255 55.2854L368.358 55.9178C368.525 56.4213 368.864 56.9124 369.274 57.3801L370.779 56.0631ZM370.24 55.2445L367.12 47.0845L365.252 47.7988L368.372 55.9588L370.24 55.2445ZM366.186 46.4416H344.826V48.4416H366.186V46.4416ZM343.889 47.0925L340.849 55.2525L342.723 55.9507L345.763 47.7907L343.889 47.0925ZM340.838 55.2854C340.792 55.4219 340.651 55.6775 340.314 56.0631L341.819 57.3801C342.228 56.9124 342.567 56.4213 342.735 55.9178L340.838 55.2854ZM340.359 56.0145C340.27 56.104 339.965 56.2816 339.146 56.2816V58.2816C340.141 58.2816 341.116 58.0859 341.773 57.4287L340.359 56.0145ZM339.146 56.2816H329.306V58.2816H339.146V56.2816ZM348.106 36.9216H362.986V34.9216H348.106V36.9216ZM363.928 35.5862L356.408 14.4662L354.524 15.137L362.044 36.257L363.928 35.5862ZM354.522 14.4725L347.162 35.5925L349.051 36.2507L356.411 15.1307L354.522 14.4725ZM398.332 56.7216L399.039 56.0145V56.0145L398.332 56.7216ZM398.332 1.84161L399.039 2.54872V2.54872L398.332 1.84161ZM435.452 3.20161L435.852 2.28507L435.452 3.20161ZM441.932 8.72161L441.066 9.22189L441.073 9.23335L441.08 9.24463L441.932 8.72161ZM442.972 22.2416L442.077 21.7944L442.074 21.8011L442.071 21.8078L442.972 22.2416ZM440.332 25.8416L439.663 25.0983L439.653 25.1069L439.644 25.1157L440.332 25.8416ZM437.452 27.9216L437.026 27.0168L435.11 27.9187L437.024 28.8254L437.452 27.9216ZM442.812 32.6416L441.995 33.2191L442 33.2256L442.005 33.2321L442.812 32.6416ZM442.812 49.4416L441.964 48.9116L441.961 48.9165L442.812 49.4416ZM435.932 55.2816L436.34 56.1948L436.347 56.1914L435.932 55.2816ZM412.092 46.8816H411.092V47.8816H412.092V46.8816ZM428.492 44.8816L429.243 45.5422L428.492 44.8816ZM428.412 35.6016L427.675 36.2773L427.682 36.2855L427.69 36.2935L428.412 35.6016ZM412.092 33.6816V32.6816H411.092V33.6816H412.092ZM412.092 23.5216H411.092V24.5216H412.092V23.5216ZM427.452 21.8416L426.745 21.1345L426.736 21.1431L426.728 21.152L427.452 21.8416ZM427.452 13.3616L426.728 14.0513L426.745 14.0689L426.762 14.0858L427.452 13.3616ZM412.092 11.6816V10.6816H411.092V11.6816H412.092ZM399.772 56.2816C399.418 56.2816 399.203 56.1786 399.039 56.0145L397.625 57.4287C398.207 58.0113 398.952 58.2816 399.772 58.2816V56.2816ZM399.039 56.0145C398.875 55.8504 398.772 55.6354 398.772 55.2816H396.772C396.772 56.1012 397.042 56.8462 397.625 57.4287L399.039 56.0145ZM398.772 55.2816V3.28162H396.772V55.2816H398.772ZM398.772 3.28162C398.772 2.92786 398.875 2.71285 399.039 2.54872L397.625 1.13451C397.042 1.71704 396.772 2.46203 396.772 3.28162H398.772ZM399.039 2.54872C399.203 2.38459 399.418 2.28161 399.772 2.28161V0.281612C398.952 0.281612 398.207 0.55197 397.625 1.13451L399.039 2.54872ZM399.772 2.28161L424.172 2.28161V0.281612L399.772 0.281612V2.28161ZM424.172 2.28161C428.676 2.28161 432.287 2.91162 435.052 4.11815L435.852 2.28507C432.75 0.931602 428.841 0.281612 424.172 0.281612V2.28161ZM435.052 4.11815C437.821 5.32644 439.802 7.03449 441.066 9.22189L442.798 8.22133C441.288 5.60873 438.949 3.63678 435.852 2.28507L435.052 4.11815ZM441.08 9.24463C442.407 11.4073 443.092 14.019 443.092 17.1216H445.092C445.092 13.7176 444.337 10.7292 442.784 8.1986L441.08 9.24463ZM443.092 17.1216C443.092 18.9097 442.745 20.4594 442.077 21.7944L443.866 22.6888C444.692 21.0372 445.092 19.1735 445.092 17.1216H443.092ZM442.071 21.8078C441.428 23.1439 440.622 24.2348 439.663 25.0983L441.001 26.5849C442.175 25.5285 443.129 24.2194 443.873 22.6754L442.071 21.8078ZM439.644 25.1157C438.68 26.029 437.807 26.6494 437.026 27.0168L437.878 28.8264C438.91 28.3405 439.957 27.5742 441.02 26.5676L439.644 25.1157ZM437.024 28.8254C438.867 29.6987 440.529 31.1455 441.995 33.2191L443.628 32.0641C442.002 29.7644 440.09 28.0645 437.88 27.0179L437.024 28.8254ZM442.005 33.2321C443.469 35.2331 444.212 37.5821 444.212 40.3216H446.212C446.212 37.1945 445.355 34.4235 443.619 32.0511L442.005 33.2321ZM444.212 40.3216C444.212 43.6858 443.449 46.5354 441.964 48.9116L443.66 49.9716C445.375 47.2278 446.212 43.9974 446.212 40.3216H444.212ZM441.961 48.9165C440.532 51.2326 438.402 53.0559 435.517 54.3718L436.347 56.1914C439.542 54.734 441.999 52.664 443.663 49.9667L441.961 48.9165ZM435.524 54.3685C432.701 55.6287 429.17 56.2816 424.892 56.2816V58.2816C429.361 58.2816 433.189 57.6012 436.34 56.1948L435.524 54.3685ZM424.892 56.2816L399.772 56.2816V58.2816L424.892 58.2816V56.2816ZM412.092 47.8816L423.292 47.8816V45.8816L412.092 45.8816V47.8816ZM423.292 47.8816C425.783 47.8816 427.827 47.1503 429.243 45.5422L427.741 44.221C426.81 45.2796 425.387 45.8816 423.292 45.8816V47.8816ZM429.243 45.5422C430.569 44.0345 431.252 42.2821 431.252 40.3216H429.252C429.252 41.7745 428.761 43.0621 427.741 44.221L429.243 45.5422ZM431.252 40.3216C431.252 38.2122 430.549 36.3865 429.134 34.9097L427.69 36.2935C428.728 37.3768 429.252 38.6977 429.252 40.3216H431.252ZM429.149 34.9259C427.735 33.3833 425.726 32.6816 423.292 32.6816V34.6816C425.338 34.6816 426.742 35.2599 427.675 36.2773L429.149 34.9259ZM423.292 32.6816L412.092 32.6816V34.6816L423.292 34.6816V32.6816ZM411.092 33.6816V46.8816H413.092V33.6816H411.092ZM412.092 24.5216H422.572V22.5216H412.092V24.5216ZM422.572 24.5216C424.917 24.5216 426.854 23.9198 428.176 22.5313L426.728 21.152C425.917 22.0034 424.6 22.5216 422.572 22.5216V24.5216ZM428.159 22.5487C429.488 21.2195 430.132 19.5145 430.132 17.5216H428.132C428.132 19.0487 427.656 20.2237 426.745 21.1345L428.159 22.5487ZM430.132 17.5216C430.132 15.5726 429.481 13.9134 428.142 12.6375L426.762 14.0858C427.662 14.9431 428.132 16.0573 428.132 17.5216H430.132ZM428.176 12.672C426.854 11.2834 424.917 10.6816 422.572 10.6816V12.6816C424.6 12.6816 425.917 13.1998 426.728 14.0513L428.176 12.672ZM422.572 10.6816L412.092 10.6816V12.6816H422.572V10.6816ZM411.092 11.6816V23.5216H413.092V11.6816H411.092ZM472.18 55.6816L472.584 54.7667L472.18 55.6816ZM463.7 48.4816L462.851 49.0104L462.855 49.0167L463.7 48.4816ZM460.34 36.3216L459.34 36.3449L459.341 36.3552L459.341 36.3655L460.34 36.3216ZM460.34 22.4816L459.341 22.4372L459.341 22.448L459.34 22.4589L460.34 22.4816ZM463.7 10.4016L462.854 9.86916L462.851 9.87287L463.7 10.4016ZM497.62 2.96161L497.205 3.87154L497.21 3.87378L497.62 2.96161ZM506.26 10.4016L505.414 10.9341L505.417 10.9403L506.26 10.4016ZM509.62 22.4816L508.62 22.5149L508.621 22.527L509.62 22.4816ZM509.62 36.3216L508.621 36.2752L508.621 36.2777L509.62 36.3216ZM506.26 48.4816L507.105 49.0167L507.109 49.0104L506.26 48.4816ZM497.78 55.6816L497.376 54.7667L497.78 55.6816ZM491.86 44.0016L491.175 43.2734L491.169 43.2785L491.164 43.2837L491.86 44.0016ZM494.74 35.8416L493.741 35.7962L493.741 35.8046L493.74 35.8131L494.74 35.8416ZM494.74 22.7216L493.741 22.7641L493.741 22.7692L494.74 22.7216ZM493.3 16.6416L492.406 17.0888L492.415 17.107L492.424 17.1247L493.3 16.6416ZM489.94 13.1216L489.48 14.0094L489.94 13.1216ZM476.66 16.6416L477.536 17.1247L477.539 17.1185L477.542 17.1122L476.66 16.6416ZM475.22 22.7216L474.221 22.6791L474.221 22.6885L474.22 22.6978L475.22 22.7216ZM475.22 35.8416L474.22 35.8643L474.22 35.8744L474.221 35.8844L475.22 35.8416ZM478.1 44.0016L477.404 44.7195L478.1 44.0016ZM484.98 57.0816C480.18 57.0816 476.057 56.2989 472.584 54.7667L471.776 56.5965C475.557 58.2643 479.966 59.0816 484.98 59.0816V57.0816ZM472.584 54.7667C469.13 53.2428 466.46 50.9709 464.545 47.9466L462.855 49.0167C464.993 52.3923 467.977 54.9204 471.776 56.5965L472.584 54.7667ZM464.549 47.9529C462.634 44.8796 461.547 41.0043 461.339 36.2777L459.341 36.3655C459.56 41.3456 460.712 45.577 462.851 49.0104L464.549 47.9529ZM461.34 36.2984C461.287 34.0128 461.26 31.7272 461.26 29.4416H459.26C459.26 31.7427 459.287 34.0438 459.34 36.3449L461.34 36.2984ZM461.26 29.4416C461.26 27.156 461.287 24.8436 461.34 22.5043L459.34 22.4589C459.287 24.813 459.26 27.1405 459.26 29.4416H461.26ZM461.339 22.526C461.547 17.8548 462.633 14.0053 464.549 10.9304L462.851 9.87287C460.713 13.3046 459.56 17.5084 459.341 22.4372L461.339 22.526ZM464.546 10.9341C466.52 7.79618 469.222 5.44562 472.675 3.87152L471.845 2.05171C468.045 3.78428 465.04 6.39372 462.854 9.86916L464.546 10.9341ZM472.675 3.87152C476.146 2.28903 480.239 1.48161 484.98 1.48161V-0.518387C480.014 -0.518387 475.627 0.327533 471.845 2.05171L472.675 3.87152ZM484.98 1.48161C489.666 1.48161 493.733 2.28842 497.205 3.87152L498.035 2.05171C494.254 0.328141 489.894 -0.518387 484.98 -0.518387V1.48161ZM497.21 3.87378C500.717 5.44914 503.442 7.79993 505.414 10.9341L507.106 9.86916C504.918 6.38997 501.883 3.78075 498.03 2.04945L497.21 3.87378ZM505.417 10.9403C507.38 14.0095 508.465 17.851 508.621 22.5149L510.619 22.4483C510.455 17.5122 509.3 13.3004 507.103 9.86295L505.417 10.9403ZM508.621 22.527C508.727 24.8589 508.78 27.1638 508.78 29.4416H510.78C510.78 27.1328 510.726 24.7976 510.619 22.4362L508.621 22.527ZM508.78 29.4416C508.78 31.7194 508.727 33.9973 508.621 36.2752L510.619 36.3681C510.726 34.0593 510.78 31.7505 510.78 29.4416H508.78ZM508.621 36.2777C508.413 41.0043 507.326 44.8796 505.411 47.9529L507.109 49.0104C509.248 45.577 510.4 41.3456 510.619 36.3655L508.621 36.2777ZM505.415 47.9466C503.5 50.9709 500.83 53.2428 497.376 54.7667L498.184 56.5965C501.983 54.9204 504.967 52.3923 507.105 49.0167L505.415 47.9466ZM497.376 54.7667C493.903 56.2989 489.78 57.0816 484.98 57.0816V59.0816C489.994 59.0816 494.403 58.2643 498.184 56.5965L497.376 54.7667ZM484.98 47.5616C488.024 47.5616 490.581 46.6349 492.556 44.7195L491.164 43.2837C489.619 44.7817 487.59 45.5616 484.98 45.5616V47.5616ZM492.545 44.7298C494.631 42.7673 495.629 39.7379 495.74 35.8702L493.74 35.8131C493.638 39.412 492.716 41.8226 491.175 43.2734L492.545 44.7298ZM495.739 35.887C495.846 33.5271 495.9 31.2985 495.9 29.2016H493.9C493.9 31.2647 493.847 33.4628 493.741 35.7962L495.739 35.887ZM495.9 29.2016C495.9 27.1046 495.846 24.9287 495.739 22.674L493.741 22.7692C493.847 24.9946 493.9 27.1386 493.9 29.2016H495.9ZM495.739 22.6791C495.628 20.0787 495.128 17.8852 494.176 16.1585L492.424 17.1247C493.178 18.4914 493.638 20.3512 493.741 22.7641L495.739 22.6791ZM494.194 16.1944C493.31 14.4258 492.047 13.0878 490.4 12.2339L489.48 14.0094C490.713 14.6487 491.69 15.6574 492.406 17.0888L494.194 16.1944ZM490.4 12.2339C488.798 11.403 486.983 11.0016 484.98 11.0016V13.0016C486.711 13.0016 488.202 13.3469 489.48 14.0094L490.4 12.2339ZM484.98 11.0016C483.026 11.0016 481.238 11.4051 479.64 12.2339L480.56 14.0094C481.842 13.3448 483.308 13.0016 484.98 13.0016V11.0016ZM479.64 12.2339C477.999 13.0845 476.715 14.4144 475.778 16.171L477.542 17.1122C478.312 15.6689 479.321 14.6521 480.56 14.0094L479.64 12.2339ZM475.784 16.1585C474.832 17.8852 474.332 20.0787 474.221 22.6791L476.219 22.7641C476.322 20.3512 476.782 18.4914 477.536 17.1247L475.784 16.1585ZM474.22 22.6978C474.167 24.9451 474.14 27.1131 474.14 29.2016H476.14C476.14 27.1301 476.167 24.9781 476.22 22.7454L474.22 22.6978ZM474.14 29.2016C474.14 31.2901 474.167 33.511 474.22 35.8643L476.22 35.8189C476.167 33.4789 476.14 31.2732 476.14 29.2016H474.14ZM474.221 35.8844C474.386 39.7428 475.384 42.761 477.404 44.7195L478.796 43.2837C477.296 41.8289 476.374 39.4071 476.219 35.7988L474.221 35.8844ZM477.404 44.7195C479.379 46.6349 481.936 47.5616 484.98 47.5616V45.5616C482.37 45.5616 480.341 44.7817 478.796 43.2837L477.404 44.7195ZM537.853 55.7616L537.444 56.6743L537.453 56.678L537.461 56.6815L537.853 55.7616ZM529.533 48.4816L528.674 48.9941L528.678 49.0002L529.533 48.4816ZM527.133 1.84161L527.84 2.54872V2.54872L527.133 1.84161ZM540.333 1.84161L539.626 2.54872V2.54872L540.333 1.84161ZM543.373 43.6816L542.644 44.3663L542.655 44.3777L542.666 44.3887L543.373 43.6816ZM557.453 43.6816L556.735 42.9855L556.735 42.9858L557.453 43.6816ZM560.573 1.84161L559.915 1.08904L559.89 1.11096L559.866 1.13451L560.573 1.84161ZM573.773 1.84161L573.066 2.54872L573.09 2.57227L573.115 2.59419L573.773 1.84161ZM571.453 48.4816L572.308 49.0002L572.312 48.9941L571.453 48.4816ZM563.133 55.7616L563.53 56.6794L563.542 56.6743L563.133 55.7616ZM550.493 57.0816C545.799 57.0816 541.724 56.3254 538.245 54.8418L537.461 56.6815C541.235 58.2912 545.587 59.0816 550.493 59.0816V57.0816ZM538.262 54.8489C534.868 53.3294 532.253 51.0374 530.388 47.963L528.678 49.0002C530.76 52.4325 533.691 54.9939 537.444 56.6743L538.262 54.8489ZM530.392 47.9692C528.536 44.859 527.573 40.8633 527.573 35.9216H525.573C525.573 41.1132 526.584 45.4909 528.674 48.9941L530.392 47.9692ZM527.573 35.9216V3.28162H525.573V35.9216H527.573ZM527.573 3.28162C527.573 2.92786 527.676 2.71285 527.84 2.54872L526.426 1.13451C525.844 1.71704 525.573 2.46203 525.573 3.28162H527.573ZM527.84 2.54872C528.004 2.38459 528.219 2.28161 528.573 2.28161V0.281612C527.754 0.281612 527.009 0.55197 526.426 1.13451L527.84 2.54872ZM528.573 2.28161L538.893 2.28161V0.281612L528.573 0.281612V2.28161ZM538.893 2.28161C539.247 2.28161 539.462 2.38459 539.626 2.54872L541.04 1.13451C540.458 0.55197 539.713 0.281612 538.893 0.281612V2.28161ZM539.626 2.54872C539.79 2.71285 539.893 2.92786 539.893 3.28162H541.893C541.893 2.46203 541.623 1.71704 541.04 1.13451L539.626 2.54872ZM539.893 3.28162V35.8416H541.893V3.28162H539.893ZM539.893 35.8416C539.893 39.4523 540.754 42.3536 542.644 44.3663L544.102 42.9969C542.686 41.4896 541.893 39.1642 541.893 35.8416H539.893ZM542.666 44.3887C544.606 46.3286 547.26 47.2416 550.493 47.2416V45.2416C547.646 45.2416 545.554 44.4479 544.08 42.9745L542.666 44.3887ZM550.493 47.2416C553.677 47.2416 556.284 46.3258 558.171 44.3774L556.735 42.9858C555.316 44.4508 553.283 45.2416 550.493 45.2416V47.2416ZM558.171 44.3778C560.122 42.3657 561.013 39.4599 561.013 35.8416H559.013C559.013 39.1567 558.197 41.4775 556.735 42.9855L558.171 44.3778ZM561.013 35.8416V3.28162H559.013V35.8416H561.013ZM561.013 3.28162C561.013 2.92786 561.116 2.71285 561.28 2.54872L559.866 1.13451C559.284 1.71704 559.013 2.46203 559.013 3.28162H561.013ZM561.232 2.59419C561.489 2.36943 561.738 2.28161 562.013 2.28161V0.281612C561.221 0.281612 560.511 0.567127 559.915 1.08904L561.232 2.59419ZM562.013 2.28161L572.413 2.28161V0.281612L562.013 0.281612V2.28161ZM572.413 2.28161C572.684 2.28161 572.882 2.36505 573.066 2.54872L574.48 1.13451C573.917 0.571508 573.209 0.281612 572.413 0.281612V2.28161ZM573.115 2.59419C573.316 2.77022 573.413 2.97185 573.413 3.28162H575.413C575.413 2.41804 575.084 1.65967 574.432 1.08904L573.115 2.59419ZM573.413 3.28162V35.9216H575.413V3.28162H573.413ZM573.413 35.9216C573.413 40.8633 572.451 44.859 570.594 47.9692L572.312 48.9941C574.402 45.4909 575.413 41.1132 575.413 35.9216H573.413ZM570.598 47.963C568.733 51.0374 566.118 53.3294 562.724 54.8489L563.542 56.6743C567.295 54.9939 570.226 52.4325 572.308 49.0002L570.598 47.963ZM562.736 54.8439C559.315 56.3247 555.242 57.0816 550.493 57.0816V59.0816C555.45 59.0816 559.805 58.2919 563.53 56.6793L562.736 54.8439ZM605.342 13.8416H606.342V12.8416H605.342V13.8416ZM589.662 13.2816L588.909 13.9401L588.931 13.9652L588.955 13.9887L589.662 13.2816ZM589.662 1.84161L590.369 2.54872V2.54872L589.662 1.84161ZM635.582 13.2816L636.289 13.9887L636.312 13.9652L636.334 13.9401L635.582 13.2816ZM619.902 13.8416V12.8416H618.902V13.8416H619.902ZM607.342 56.2816C606.988 56.2816 606.773 56.1786 606.609 56.0145L605.195 57.4287C605.777 58.0113 606.522 58.2816 607.342 58.2816V56.2816ZM606.609 56.0145C606.445 55.8504 606.342 55.6354 606.342 55.2816H604.342C604.342 56.1012 604.612 56.8462 605.195 57.4287L606.609 56.0145ZM606.342 55.2816V13.8416H604.342V55.2816H606.342ZM605.342 12.8416L591.102 12.8416V14.8416L605.342 14.8416V12.8416ZM591.102 12.8416C590.748 12.8416 590.533 12.7386 590.369 12.5745L588.955 13.9887C589.537 14.5713 590.282 14.8416 591.102 14.8416V12.8416ZM590.414 12.6231C590.19 12.3662 590.102 12.1166 590.102 11.8416H588.102C588.102 12.6333 588.387 13.3437 588.909 13.9401L590.414 12.6231ZM590.102 11.8416V3.28162L588.102 3.28162V11.8416H590.102ZM590.102 3.28162C590.102 2.92786 590.205 2.71285 590.369 2.54872L588.955 1.13451C588.372 1.71704 588.102 2.46203 588.102 3.28162L590.102 3.28162ZM590.369 2.54872C590.533 2.38459 590.748 2.28161 591.102 2.28161V0.281612C590.282 0.281612 589.537 0.55197 588.955 1.13451L590.369 2.54872ZM591.102 2.28161L634.142 2.28161V0.281612L591.102 0.281612V2.28161ZM634.142 2.28161C634.496 2.28161 634.711 2.38459 634.875 2.54872L636.289 1.13451C635.706 0.551971 634.961 0.281612 634.142 0.281612V2.28161ZM634.875 2.54872C635.039 2.71285 635.142 2.92786 635.142 3.28162H637.142C637.142 2.46203 636.872 1.71704 636.289 1.13451L634.875 2.54872ZM635.142 3.28162V11.8416H637.142V3.28162H635.142ZM635.142 11.8416C635.142 12.1166 635.054 12.3662 634.829 12.6231L636.334 13.9401C636.856 13.3436 637.142 12.6333 637.142 11.8416H635.142ZM634.875 12.5745C634.711 12.7386 634.496 12.8416 634.142 12.8416V14.8416C634.961 14.8416 635.706 14.5713 636.289 13.9887L634.875 12.5745ZM634.142 12.8416L619.902 12.8416V14.8416L634.142 14.8416V12.8416ZM618.902 13.8416V55.2816H620.902V13.8416H618.902ZM618.902 55.2816C618.902 55.6354 618.799 55.8504 618.635 56.0145L620.049 57.4287C620.632 56.8462 620.902 56.1012 620.902 55.2816H618.902ZM618.635 56.0145C618.471 56.1786 618.256 56.2816 617.902 56.2816V58.2816C618.721 58.2816 619.466 58.0113 620.049 57.4287L618.635 56.0145ZM617.902 56.2816H607.342V58.2816H617.902V56.2816ZM685.369 55.7616L684.96 56.6743L684.968 56.678L684.976 56.6815L685.369 55.7616ZM677.049 48.4816L676.19 48.9941L676.194 49.0002L677.049 48.4816ZM674.649 1.84161L675.356 2.54872V2.54872L674.649 1.84161ZM687.849 1.84161L687.142 2.54872V2.54872L687.849 1.84161ZM690.889 43.6816L690.16 44.3663L690.171 44.3777L690.182 44.3887L690.889 43.6816ZM704.969 43.6816L704.251 42.9855L704.25 42.9858L704.969 43.6816ZM708.089 1.84161L707.43 1.08904L707.405 1.11096L707.382 1.13451L708.089 1.84161ZM721.289 1.84161L720.582 2.54872L720.605 2.57227L720.63 2.59419L721.289 1.84161ZM718.969 48.4816L719.824 49.0002L719.827 48.9941L718.969 48.4816ZM710.649 55.7616L711.046 56.6794L711.057 56.6743L710.649 55.7616ZM698.009 57.0816C693.315 57.0816 689.24 56.3254 685.761 54.8418L684.976 56.6815C688.751 58.2912 693.103 59.0816 698.009 59.0816V57.0816ZM685.777 54.8489C682.384 53.3294 679.769 51.0374 677.904 47.963L676.194 49.0002C678.276 52.4325 681.207 54.9939 684.96 56.6743L685.777 54.8489ZM677.907 47.9692C676.051 44.859 675.089 40.8633 675.089 35.9216H673.089C673.089 41.1132 674.099 45.4909 676.19 48.9941L677.907 47.9692ZM675.089 35.9216V3.28162H673.089V35.9216H675.089ZM675.089 3.28162C675.089 2.92786 675.192 2.71285 675.356 2.54872L673.942 1.13451C673.359 1.71704 673.089 2.46203 673.089 3.28162H675.089ZM675.356 2.54872C675.52 2.38459 675.735 2.28161 676.089 2.28161V0.281612C675.269 0.281612 674.524 0.55197 673.942 1.13451L675.356 2.54872ZM676.089 2.28161L686.409 2.28161V0.281612L676.089 0.281612V2.28161ZM686.409 2.28161C686.763 2.28161 686.978 2.38459 687.142 2.54872L688.556 1.13451C687.973 0.55197 687.228 0.281612 686.409 0.281612V2.28161ZM687.142 2.54872C687.306 2.71285 687.409 2.92786 687.409 3.28162L689.409 3.28162C689.409 2.46203 689.138 1.71704 688.556 1.13451L687.142 2.54872ZM687.409 3.28162V35.8416H689.409V3.28162L687.409 3.28162ZM687.409 35.8416C687.409 39.4523 688.269 42.3536 690.16 44.3663L691.618 42.9969C690.202 41.4896 689.409 39.1642 689.409 35.8416H687.409ZM690.182 44.3887C692.122 46.3286 694.776 47.2416 698.009 47.2416V45.2416C695.161 45.2416 693.069 44.4479 691.596 42.9745L690.182 44.3887ZM698.009 47.2416C701.192 47.2416 703.8 46.3258 705.687 44.3774L704.25 42.9858C702.831 44.4508 700.798 45.2416 698.009 45.2416V47.2416ZM705.687 44.3778C707.638 42.3657 708.529 39.4599 708.529 35.8416H706.529C706.529 39.1567 705.713 41.4775 704.251 42.9855L705.687 44.3778ZM708.529 35.8416V3.28162H706.529V35.8416H708.529ZM708.529 3.28162C708.529 2.92786 708.632 2.71285 708.796 2.54872L707.382 1.13451C706.799 1.71704 706.529 2.46203 706.529 3.28162H708.529ZM708.747 2.59419C709.004 2.36943 709.254 2.28161 709.529 2.28161V0.281612C708.737 0.281612 708.027 0.567127 707.43 1.08904L708.747 2.59419ZM709.529 2.28161L719.929 2.28161V0.281612L709.529 0.281612V2.28161ZM719.929 2.28161C720.2 2.28161 720.398 2.36505 720.582 2.54872L721.996 1.13451C721.433 0.571508 720.724 0.281612 719.929 0.281612V2.28161ZM720.63 2.59419C720.831 2.77022 720.929 2.97185 720.929 3.28162L722.929 3.28162C722.929 2.41804 722.599 1.65967 721.947 1.08904L720.63 2.59419ZM720.929 3.28162V35.9216H722.929V3.28162L720.929 3.28162ZM720.929 35.9216C720.929 40.8633 719.966 44.859 718.11 47.9692L719.827 48.9941C721.918 45.4909 722.929 41.1132 722.929 35.9216H720.929ZM718.114 47.963C716.249 51.0374 713.634 53.3294 710.24 54.8489L711.057 56.6743C714.81 54.9939 717.742 52.4325 719.824 49.0002L718.114 47.963ZM710.252 54.8439C706.83 56.3247 702.758 57.0816 698.009 57.0816V59.0816C702.966 59.0816 707.32 58.2919 711.046 56.6793L710.252 54.8439ZM748.138 55.8416L747.735 56.7572L747.747 56.7622L748.138 55.8416ZM740.138 49.8416L739.333 50.436L740.138 49.8416ZM737.258 42.0016H736.258V42.0208L736.258 42.04L737.258 42.0016ZM737.737 40.8816L737.03 40.1745L737.737 40.8816ZM750.778 40.7216L750.196 41.5353L750.221 41.5533L750.247 41.5696L750.778 40.7216ZM751.898 41.7616L752.78 41.291L752.744 41.2232L752.698 41.1616L751.898 41.7616ZM753.657 44.0816L752.95 44.7887L752.963 44.8009L752.975 44.8127L753.657 44.0816ZM756.698 45.9216L756.333 46.8529L756.357 46.8622L756.381 46.8703L756.698 45.9216ZM768.378 45.1216L767.863 44.2641L767.857 44.268L767.85 44.272L768.378 45.1216ZM769.497 38.3216L768.814 39.0512L768.826 39.0629L768.839 39.0742L769.497 38.3216ZM765.338 36.2416L765.013 37.1876L765.029 37.193L765.045 37.198L765.338 36.2416ZM757.818 34.3216L757.612 35.3002L757.618 35.3016L757.818 34.3216ZM747.417 31.0416L746.977 31.9394L746.987 31.9444L746.997 31.9491L747.417 31.0416ZM740.938 25.6816L740.105 26.2364L740.112 26.2456L740.938 25.6816ZM741.417 8.64161L740.609 8.05239L740.602 8.0636L741.417 8.64161ZM749.177 2.64161L748.778 1.72478L749.177 2.64161ZM770.617 1.92161L770.29 2.86662L770.296 2.8685L770.617 1.92161ZM777.737 5.76161L778.378 4.99339V4.99339L777.737 5.76161ZM782.057 10.8816L781.174 11.3495L781.182 11.3652L781.191 11.3806L782.057 10.8816ZM783.658 16.0816H784.658V16.066L784.657 16.0504L783.658 16.0816ZM783.177 17.2816L783.885 17.9887L783.912 17.9616L783.937 17.9324L783.177 17.2816ZM769.898 17.4416L769.45 18.336H769.45L769.898 17.4416ZM768.778 16.4016L767.813 16.6647L767.855 16.8213L767.945 16.9563L768.778 16.4016ZM766.218 13.3616L765.655 14.1885L765.674 14.2013L765.693 14.2133L766.218 13.3616ZM755.417 13.2816L755.948 14.1297L755.957 14.1239L755.417 13.2816ZM754.537 19.8416L753.782 20.4965L753.794 20.5105L753.806 20.5239L754.537 19.8416ZM758.138 21.9216L757.803 22.8641L757.812 22.8673L758.138 21.9216ZM765.097 23.7616L764.884 24.7386L764.899 24.7418L764.914 24.7446L765.097 23.7616ZM776.857 27.2016L776.436 28.1086L776.443 28.1117L776.45 28.1148L776.857 27.2016ZM783.417 32.4816L782.573 33.0172L782.579 33.0266L783.417 32.4816ZM782.378 50.0016L781.589 49.3866L781.587 49.3888L782.378 50.0016ZM773.898 56.0016L774.255 56.9357L773.898 56.0016ZM761.417 57.0816C756.169 57.0816 751.886 56.3456 748.528 54.921L747.747 56.7622C751.429 58.3243 755.999 59.0816 761.417 59.0816V57.0816ZM748.54 54.9261C745.139 53.4316 742.628 51.5283 740.942 49.2472L739.333 50.436C741.274 53.0616 744.096 55.1583 747.735 56.7571L748.54 54.9261ZM740.942 49.2472C739.235 46.9387 738.355 44.516 738.257 41.9632L736.258 42.04C736.373 45.0339 737.413 47.8379 739.333 50.436L740.942 49.2472ZM738.258 42.0016C738.258 41.8575 738.299 41.7338 738.445 41.5887L737.03 40.1745C736.535 40.6694 736.258 41.2924 736.258 42.0016H738.258ZM738.445 41.5887C738.651 41.3823 738.831 41.3216 739.018 41.3216V39.3216C738.245 39.3216 737.571 39.6342 737.03 40.1745L738.445 41.5887ZM739.018 41.3216H749.097V39.3216H739.018V41.3216ZM749.097 41.3216C749.755 41.3216 750.069 41.4445 750.196 41.5353L751.359 39.9079C750.739 39.4654 749.933 39.3216 749.097 39.3216V41.3216ZM750.247 41.5696C750.563 41.7671 750.847 42.0276 751.097 42.3616L752.698 41.1616C752.308 40.6423 751.845 40.2095 751.307 39.8736L750.247 41.5696ZM751.015 42.2322C751.495 43.1322 752.145 43.9835 752.95 44.7887L754.365 43.3745C753.677 42.6864 753.153 41.991 752.78 41.291L751.015 42.2322ZM752.975 44.8127C753.884 45.6612 755.012 46.336 756.333 46.8529L757.062 44.9904C755.93 44.5473 755.031 43.9954 754.34 43.3506L752.975 44.8127ZM756.381 46.8703C757.794 47.3412 759.481 47.5616 761.417 47.5616V45.5616C759.62 45.5616 758.161 45.3554 757.014 44.9729L756.381 46.8703ZM761.417 47.5616C764.582 47.5616 767.124 47.0764 768.905 45.9713L767.85 44.272C766.537 45.0868 764.44 45.5616 761.417 45.5616V47.5616ZM768.892 45.9791C770.747 44.8661 771.778 43.257 771.778 41.2016H769.778C769.778 42.4529 769.208 43.4571 767.863 44.2641L768.892 45.9791ZM771.778 41.2016C771.778 39.7514 771.235 38.513 770.156 37.569L768.839 39.0742C769.467 39.6236 769.778 40.3052 769.778 41.2016H771.778ZM770.181 37.5921C769.164 36.6378 767.605 35.8889 765.63 35.2853L765.045 37.198C766.91 37.7677 768.125 38.4054 768.814 39.0512L770.181 37.5921ZM765.662 35.2957C763.737 34.6357 761.183 33.9857 758.017 33.3417L757.618 35.3016C760.745 35.9376 763.205 36.5675 765.013 37.1876L765.662 35.2957ZM758.023 33.3431C754.023 32.5008 750.632 31.4279 747.838 30.1341L746.997 31.9491C749.963 33.322 753.505 34.4357 757.612 35.3002L758.023 33.3431ZM747.858 30.1438C745.157 28.8188 743.142 27.1368 741.763 25.1177L740.112 26.2456C741.719 28.5997 744.025 30.4911 746.977 31.9394L747.858 30.1438ZM741.77 25.1269C740.408 23.0853 739.698 20.5163 739.698 17.3616H737.698C737.698 20.8203 738.48 23.798 740.105 26.2363L741.77 25.1269ZM739.698 17.3616C739.698 14.3072 740.544 11.6041 742.234 9.21963L740.602 8.0636C738.664 10.7991 737.698 13.9094 737.698 17.3616H739.698ZM742.226 9.23079C743.974 6.83335 746.41 4.93749 749.577 3.55845L748.778 1.72478C745.332 3.22574 742.595 5.32987 740.609 8.05244L742.226 9.23079ZM749.577 3.55845C752.73 2.18546 756.507 1.48161 760.938 1.48161V-0.518387C756.301 -0.518387 752.239 0.217766 748.778 1.72478L749.577 3.55845ZM760.938 1.48161C764.533 1.48161 767.645 1.95093 770.29 2.8666L770.945 0.976628C768.043 -0.0276995 764.702 -0.518387 760.938 -0.518387V1.48161ZM770.296 2.8685C773.028 3.7965 775.288 5.0221 777.097 6.52983L778.378 4.99339C776.347 3.30113 773.86 1.96672 770.939 0.974732L770.296 2.8685ZM777.097 6.52983C778.939 8.06421 780.286 9.6733 781.174 11.3495L782.941 10.4137C781.909 8.46326 780.376 6.65902 778.378 4.99339L777.097 6.52983ZM781.191 11.3806C782.138 13.0249 782.611 14.5991 782.658 16.1128L784.657 16.0504C784.598 14.1507 784.004 12.2583 782.924 10.3826L781.191 11.3806ZM782.658 16.0816C782.658 16.2337 782.608 16.4095 782.418 16.6308L783.937 17.9324C784.387 17.4071 784.658 16.7829 784.658 16.0816H782.658ZM782.47 16.5745C782.35 16.6947 782.21 16.7616 781.977 16.7616V18.7616C782.705 18.7616 783.365 18.5085 783.885 17.9887L782.47 16.5745ZM781.977 16.7616L771.417 16.7616V18.7616L781.977 18.7616V16.7616ZM771.417 16.7616C770.951 16.7616 770.604 16.677 770.345 16.5472L769.45 18.336C770.044 18.6329 770.711 18.7616 771.417 18.7616V16.7616ZM770.345 16.5472C770.103 16.4265 769.853 16.2124 769.61 15.8469L767.945 16.9563C768.342 17.5509 768.838 18.0301 769.45 18.336L770.345 16.5472ZM769.742 16.1385C769.335 14.6468 768.27 13.4503 766.742 12.51L765.693 14.2133C766.939 14.9796 767.58 15.8098 767.813 16.6647L769.742 16.1385ZM766.78 12.5347C765.231 11.4815 763.255 11.0016 760.938 11.0016V13.0016C762.993 13.0016 764.537 13.4283 765.655 14.1885L766.78 12.5347ZM760.938 11.0016C758.486 11.0016 756.433 11.4446 754.878 12.4393L755.957 14.1239C757.069 13.4119 758.695 13.0016 760.938 13.0016V11.0016ZM754.888 12.4336C753.273 13.443 752.497 15.0435 752.497 17.0416H754.497C754.497 15.6264 755.002 14.7203 755.948 14.1296L754.888 12.4336ZM752.497 17.0416C752.497 18.3469 752.93 19.5132 753.782 20.4965L755.293 19.1867C754.759 18.57 754.497 17.8697 754.497 17.0416H752.497ZM753.806 20.5239C754.709 21.4913 756.08 22.2527 757.803 22.864L758.472 20.9792C756.888 20.4172 755.859 19.7919 755.269 19.1593L753.806 20.5239ZM757.812 22.8673C759.572 23.4721 761.934 24.095 764.884 24.7386L765.311 22.7846C762.394 22.1482 760.117 21.5445 758.463 20.9759L757.812 22.8673ZM764.914 24.7446C769.722 25.6428 773.553 26.7699 776.436 28.1086L777.279 26.2946C774.189 24.86 770.18 23.6938 765.281 22.7786L764.914 24.7446ZM776.45 28.1148C779.304 29.389 781.316 31.0354 782.573 33.0172L784.262 31.9461C782.745 29.5545 780.384 27.6809 777.265 26.2885L776.45 28.1148ZM782.579 33.0266C783.835 34.9581 784.497 37.4483 784.497 40.5616H786.497C786.497 37.1683 785.774 34.2718 784.256 31.9366L782.579 33.0266ZM784.497 40.5616C784.497 43.9827 783.522 46.9088 781.589 49.3866L783.166 50.6166C785.393 47.7611 786.497 44.3939 786.497 40.5616H784.497ZM781.587 49.3888C779.691 51.8339 777.026 53.7348 773.54 55.0676L774.255 56.9357C778.022 55.4951 781.011 53.396 783.168 50.6144L781.587 49.3888ZM773.54 55.0676C770.049 56.4026 766.014 57.0816 761.417 57.0816V59.0816C766.208 59.0816 770.493 58.374 774.255 56.9357L773.54 55.0676Z" fill="url(#paint0_linear_22_139)" fill-opacity="0.2"/>
<defs>
<linearGradient id="paint0_linear_22_139" x1="391.5" y1="-4.71838" x2="391.5" y2="65.2816" gradientUnits="userSpaceOnUse">
<stop stop-color="#C1FFF8"/>
<stop offset="1" stop-color="#C1FFF8" stop-opacity="0"/>
</linearGradient>
</defs>
</svg>
