<svg width="731" height="58" viewBox="0 0 731 58" fill="none" xmlns="http://www.w3.org/2000/svg">
<path d="M1.55063 56.5665L0.843519 57.2736L0.867063 57.2971L0.892121 57.319L1.55063 56.5665ZM1.55063 1.68646L0.892119 0.933888L0.867063 0.955812L0.843521 0.979355L1.55063 1.68646ZM13.5506 1.84646L12.8032 2.51083L12.8423 2.55479L12.8863 2.59387L13.5506 1.84646ZM14.4306 2.88646L13.5021 3.25785L13.5259 3.3172L13.557 3.37304L14.4306 2.88646ZM28.5106 28.1665L27.637 28.653L28.5106 30.2216L29.3843 28.653L28.5106 28.1665ZM42.5906 2.88646L41.7331 2.37196L41.7248 2.38579L41.717 2.39988L42.5906 2.88646ZM43.3906 1.84646L42.6432 1.18208L42.638 1.18796L43.3906 1.84646ZM55.3906 1.68646L54.6835 2.39357L54.7071 2.41711L54.7321 2.43904L55.3906 1.68646ZM55.3906 56.5665L54.7321 55.8139L54.7071 55.8358L54.6835 55.8594L55.3906 56.5665ZM42.9106 56.5665L42.2035 57.2736L42.2271 57.2971L42.2521 57.319L42.9106 56.5665ZM42.3506 25.1265H43.3506L41.471 24.6509L42.3506 25.1265ZM33.3106 41.8465L32.431 41.3709L32.4125 41.4049L32.3968 41.4403L33.3106 41.8465ZM32.3506 43.1265L31.6921 42.3739H31.6921L32.3506 43.1265ZM24.6706 43.1265L25.3291 42.3739H25.3291L24.6706 43.1265ZM23.6306 41.8465L22.7509 42.3221L22.7565 42.3321L23.6306 41.8465ZM14.5906 25.1265L15.4703 24.6509L13.5906 25.1265H14.5906ZM2.99063 56.1265C2.71561 56.1265 2.46599 56.0386 2.20913 55.8139L0.892121 57.319C1.48859 57.841 2.19897 58.1265 2.99063 58.1265V56.1265ZM2.25773 55.8594C2.0936 55.6952 1.99062 55.4802 1.99062 55.1265H-0.0093751C-0.0093751 55.946 0.260982 56.691 0.843519 57.2736L2.25773 55.8594ZM1.99062 55.1265L1.99062 3.12646H-0.0093751L-0.0093751 55.1265H1.99062ZM1.99062 3.12646C1.99062 2.77271 2.0936 2.5577 2.25773 2.39357L0.843521 0.979355C0.260981 1.56189 -0.0093751 2.30688 -0.0093751 3.12646H1.99062ZM2.20913 2.43904C2.466 2.21428 2.71561 2.12646 2.99063 2.12646V0.126461C2.19897 0.126461 1.48859 0.411976 0.892119 0.933888L2.20913 2.43904ZM2.99063 2.12646L11.6306 2.12646V0.126461L2.99063 0.126461V2.12646ZM11.6306 2.12646C12.2973 2.12646 12.6234 2.30855 12.8032 2.51083L14.298 1.1821C13.6245 0.424371 12.6706 0.126461 11.6306 0.126461V2.12646ZM12.8863 2.59387C13.1041 2.78752 13.2608 2.94657 13.3672 3.0724C13.4799 3.20557 13.505 3.26495 13.5021 3.25785L15.3591 2.51507C15.1578 2.0118 14.7015 1.53154 14.215 1.09905L12.8863 2.59387ZM13.557 3.37304L27.637 28.653L29.3843 27.6799L15.3043 2.39988L13.557 3.37304ZM29.3843 28.653L43.4643 3.37304L41.717 2.39988L27.637 27.6799L29.3843 28.653ZM43.4481 3.40096C43.5622 3.21088 43.7827 2.91694 44.1432 2.50496L42.638 1.18796C42.2519 1.62932 41.9391 2.02871 41.7331 2.37196L43.4481 3.40096ZM44.138 2.51083C44.307 2.32071 44.6483 2.12646 45.3906 2.12646V0.126461C44.3196 0.126461 43.3276 0.412217 42.6432 1.1821L44.138 2.51083ZM45.3906 2.12646L53.9506 2.12646V0.126461L45.3906 0.126461V2.12646ZM53.9506 2.12646C54.3044 2.12646 54.5194 2.22944 54.6835 2.39357L56.0977 0.979357C55.5152 0.39682 54.7702 0.126461 53.9506 0.126461V2.12646ZM54.7321 2.43904C54.9333 2.61506 55.0306 2.8167 55.0306 3.12646H57.0306C57.0306 2.26289 56.7013 1.50453 56.0491 0.933887L54.7321 2.43904ZM55.0306 3.12646L55.0306 55.1265H57.0306L57.0306 3.12646H55.0306ZM55.0306 55.1265C55.0306 55.4362 54.9333 55.6379 54.7321 55.8139L56.0491 57.319C56.7013 56.7484 57.0306 55.99 57.0306 55.1265H55.0306ZM54.6835 55.8594C54.5194 56.0235 54.3044 56.1265 53.9506 56.1265V58.1265C54.7702 58.1265 55.5152 57.8561 56.0977 57.2736L54.6835 55.8594ZM53.9506 56.1265H44.4306V58.1265H53.9506V56.1265ZM44.4306 56.1265C44.077 56.1265 43.8067 56.0217 43.5691 55.8139L42.2521 57.319C42.8679 57.8579 43.611 58.1265 44.4306 58.1265V56.1265ZM43.6177 55.8594C43.4536 55.6952 43.3506 55.4802 43.3506 55.1265H41.3506C41.3506 55.946 41.621 56.691 42.2035 57.2736L43.6177 55.8594ZM43.3506 55.1265V25.1265H41.3506V55.1265H43.3506ZM41.471 24.6509L32.431 41.3709L34.1903 42.3221L43.2303 25.6021L41.471 24.6509ZM32.3968 41.4403C32.247 41.7774 32.0184 42.0884 31.6921 42.3739L33.0091 43.879C33.5362 43.4178 33.9476 42.8755 34.2244 42.2526L32.3968 41.4403ZM31.6921 42.3739C31.499 42.5429 31.1732 42.6865 30.5906 42.6865V44.6865C31.5014 44.6865 32.3489 44.4567 33.0091 43.879L31.6921 42.3739ZM30.5906 42.6865H26.4306V44.6865H30.5906V42.6865ZM26.4306 42.6865C25.8481 42.6865 25.5222 42.5429 25.3291 42.3739L24.0121 43.879C24.6723 44.4567 25.5199 44.6865 26.4306 44.6865V42.6865ZM25.3291 42.3739C24.9863 42.0739 24.7137 41.7368 24.5048 41.3608L22.7565 42.3321C23.0809 42.9161 23.5016 43.4323 24.0121 43.879L25.3291 42.3739ZM24.5103 41.3709L15.4703 24.6509L13.711 25.6021L22.751 42.3221L24.5103 41.3709ZM13.5906 25.1265L13.5906 55.1265H15.5906L15.5906 25.1265H13.5906ZM13.5906 55.1265C13.5906 55.4802 13.4876 55.6952 13.3235 55.8594L14.7377 57.2736C15.3203 56.691 15.5906 55.946 15.5906 55.1265H13.5906ZM13.3235 55.8594C13.1594 56.0235 12.9444 56.1265 12.5906 56.1265V58.1265C13.4102 58.1265 14.1552 57.8561 14.7377 57.2736L13.3235 55.8594ZM12.5906 56.1265H2.99063V58.1265H12.5906V56.1265ZM75.7225 56.5665L76.4296 55.8594V55.8594L75.7225 56.5665ZM75.7225 1.68646L76.4296 2.39357L76.4296 2.39357L75.7225 1.68646ZM115.963 12.0865L116.67 12.7936L116.67 12.7936L115.963 12.0865ZM89.0025 12.6465V11.6465H88.0025V12.6465H89.0025ZM89.0025 23.4465H88.0025V24.4465H89.0025V23.4465ZM114.202 24.0865L113.45 24.745L113.472 24.77L113.495 24.7936L114.202 24.0865ZM114.202 33.9265L114.91 34.6336L114.933 34.61L114.955 34.585L114.202 33.9265ZM89.0025 34.4865V33.4865H88.0025V34.4865H89.0025ZM89.0025 45.6065H88.0025V46.6065H89.0025V45.6065ZM116.603 46.1665L115.895 46.8736V46.8736L116.603 46.1665ZM116.603 56.5665L115.895 55.8594V55.8594L116.603 56.5665ZM77.1625 56.1265C76.8088 56.1265 76.5937 56.0235 76.4296 55.8594L75.0154 57.2736C75.5979 57.8561 76.3429 58.1265 77.1625 58.1265V56.1265ZM76.4296 55.8594C76.2655 55.6952 76.1625 55.4802 76.1625 55.1265H74.1625C74.1625 55.946 74.4329 56.691 75.0154 57.2736L76.4296 55.8594ZM76.1625 55.1265L76.1625 3.12646L74.1625 3.12646L74.1625 55.1265H76.1625ZM76.1625 3.12646C76.1625 2.77271 76.2655 2.5577 76.4296 2.39357L75.0154 0.979355C74.4329 1.56189 74.1625 2.30688 74.1625 3.12646L76.1625 3.12646ZM76.4296 2.39357C76.5937 2.22944 76.8088 2.12646 77.1625 2.12646V0.126461C76.3429 0.126461 75.5979 0.396819 75.0154 0.979358L76.4296 2.39357ZM77.1625 2.12646L114.523 2.12646V0.126461L77.1625 0.126461V2.12646ZM114.523 2.12646C114.876 2.12646 115.091 2.22944 115.255 2.39357L116.67 0.979357C116.087 0.39682 115.342 0.126461 114.523 0.126461V2.12646ZM115.255 2.39357C115.42 2.5577 115.522 2.77271 115.522 3.12646H117.522C117.522 2.30688 117.252 1.56189 116.67 0.979357L115.255 2.39357ZM115.522 3.12646V10.6465H117.522V3.12646H115.522ZM115.522 10.6465C115.522 11.0002 115.42 11.2152 115.255 11.3794L116.67 12.7936C117.252 12.211 117.522 11.466 117.522 10.6465H115.522ZM115.255 11.3794C115.091 11.5435 114.876 11.6465 114.523 11.6465V13.6465C115.342 13.6465 116.087 13.3761 116.67 12.7936L115.255 11.3794ZM114.523 11.6465L89.0025 11.6465V13.6465L114.523 13.6465V11.6465ZM88.0025 12.6465V23.4465H90.0025V12.6465H88.0025ZM89.0025 24.4465L112.763 24.4465V22.4465L89.0025 22.4465V24.4465ZM112.763 24.4465C113.072 24.4465 113.274 24.5438 113.45 24.745L114.955 23.428C114.384 22.7758 113.626 22.4465 112.763 22.4465V24.4465ZM113.495 24.7936C113.66 24.9577 113.762 25.1727 113.762 25.5265H115.762C115.762 24.7069 115.492 23.9619 114.91 23.3794L113.495 24.7936ZM113.762 25.5265V32.4865H115.762V25.5265H113.762ZM113.762 32.4865C113.762 32.7615 113.675 33.0111 113.45 33.268L114.955 34.585C115.477 33.9885 115.762 33.2781 115.762 32.4865H113.762ZM113.495 33.2194C113.331 33.3835 113.116 33.4865 112.763 33.4865V35.4865C113.582 35.4865 114.327 35.2161 114.91 34.6336L113.495 33.2194ZM112.763 33.4865L89.0025 33.4865V35.4865L112.763 35.4865V33.4865ZM88.0025 34.4865L88.0025 45.6065H90.0025L90.0025 34.4865H88.0025ZM89.0025 46.6065L115.163 46.6065V44.6065L89.0025 44.6065V46.6065ZM115.163 46.6065C115.516 46.6065 115.731 46.7094 115.895 46.8736L117.31 45.4594C116.727 44.8768 115.982 44.6065 115.163 44.6065V46.6065ZM115.895 46.8736C116.06 47.0377 116.163 47.2527 116.163 47.6065H118.163C118.163 46.7869 117.892 46.0419 117.31 45.4594L115.895 46.8736ZM116.163 47.6065V55.1265H118.163V47.6065H116.163ZM116.163 55.1265C116.163 55.4802 116.06 55.6952 115.895 55.8594L117.31 57.2736C117.892 56.691 118.163 55.946 118.163 55.1265H116.163ZM115.895 55.8594C115.731 56.0235 115.516 56.1265 115.163 56.1265V58.1265C115.982 58.1265 116.727 57.8561 117.31 57.2736L115.895 55.8594ZM115.163 56.1265L77.1625 56.1265V58.1265L115.163 58.1265V56.1265ZM134.816 56.5665L135.523 55.8594V55.8594L134.816 56.5665ZM134.816 1.68646L135.523 2.39357V2.39357L134.816 1.68646ZM175.056 12.0865L175.763 12.7936L175.763 12.7936L175.056 12.0865ZM148.096 12.6465V11.6465H147.096V12.6465H148.096ZM148.096 23.4465H147.096V24.4465H148.096V23.4465ZM173.296 24.0865L172.544 24.745L172.566 24.77L172.589 24.7936L173.296 24.0865ZM173.296 33.9265L174.003 34.6336L174.027 34.61L174.049 34.585L173.296 33.9265ZM148.096 34.4865V33.4865H147.096V34.4865H148.096ZM148.096 45.6065H147.096V46.6065H148.096V45.6065ZM175.696 46.1665L174.989 46.8736L174.989 46.8736L175.696 46.1665ZM175.696 56.5665L174.989 55.8594L174.989 55.8594L175.696 56.5665ZM136.256 56.1265C135.902 56.1265 135.687 56.0235 135.523 55.8594L134.109 57.2736C134.692 57.8561 135.437 58.1265 136.256 58.1265V56.1265ZM135.523 55.8594C135.359 55.6952 135.256 55.4802 135.256 55.1265H133.256C133.256 55.946 133.527 56.691 134.109 57.2736L135.523 55.8594ZM135.256 55.1265V3.12646H133.256V55.1265H135.256ZM135.256 3.12646C135.256 2.77271 135.359 2.5577 135.523 2.39357L134.109 0.979355C133.527 1.56189 133.256 2.30688 133.256 3.12646H135.256ZM135.523 2.39357C135.687 2.22944 135.902 2.12646 136.256 2.12646V0.126461C135.437 0.126461 134.692 0.396819 134.109 0.979358L135.523 2.39357ZM136.256 2.12646L173.616 2.12646V0.126461L136.256 0.126461V2.12646ZM173.616 2.12646C173.97 2.12646 174.185 2.22944 174.349 2.39357L175.763 0.979357C175.181 0.39682 174.436 0.126461 173.616 0.126461V2.12646ZM174.349 2.39357C174.513 2.5577 174.616 2.77271 174.616 3.12646H176.616C176.616 2.30688 176.346 1.56189 175.763 0.979357L174.349 2.39357ZM174.616 3.12646V10.6465H176.616V3.12646H174.616ZM174.616 10.6465C174.616 11.0002 174.513 11.2152 174.349 11.3794L175.763 12.7936C176.346 12.211 176.616 11.466 176.616 10.6465H174.616ZM174.349 11.3794C174.185 11.5435 173.97 11.6465 173.616 11.6465V13.6465C174.436 13.6465 175.181 13.3761 175.763 12.7936L174.349 11.3794ZM173.616 11.6465L148.096 11.6465V13.6465L173.616 13.6465V11.6465ZM147.096 12.6465V23.4465H149.096V12.6465H147.096ZM148.096 24.4465L171.856 24.4465V22.4465L148.096 22.4465V24.4465ZM171.856 24.4465C172.166 24.4465 172.368 24.5438 172.544 24.745L174.049 23.428C173.478 22.7758 172.72 22.4465 171.856 22.4465V24.4465ZM172.589 24.7936C172.753 24.9577 172.856 25.1727 172.856 25.5265H174.856C174.856 24.7069 174.586 23.9619 174.003 23.3794L172.589 24.7936ZM172.856 25.5265V32.4865H174.856V25.5265H172.856ZM172.856 32.4865C172.856 32.7615 172.768 33.0111 172.544 33.268L174.049 34.585C174.571 33.9885 174.856 33.2781 174.856 32.4865H172.856ZM172.589 33.2194C172.425 33.3835 172.21 33.4865 171.856 33.4865V35.4865C172.676 35.4865 173.421 35.2161 174.003 34.6336L172.589 33.2194ZM171.856 33.4865L148.096 33.4865V35.4865L171.856 35.4865V33.4865ZM147.096 34.4865V45.6065H149.096V34.4865H147.096ZM148.096 46.6065L174.256 46.6065V44.6065L148.096 44.6065V46.6065ZM174.256 46.6065C174.61 46.6065 174.825 46.7094 174.989 46.8736L176.403 45.4594C175.821 44.8768 175.076 44.6065 174.256 44.6065V46.6065ZM174.989 46.8736C175.153 47.0377 175.256 47.2527 175.256 47.6065H177.256C177.256 46.7869 176.986 46.0419 176.403 45.4594L174.989 46.8736ZM175.256 47.6065V55.1265H177.256V47.6065H175.256ZM175.256 55.1265C175.256 55.4802 175.153 55.6952 174.989 55.8594L176.403 57.2736C176.986 56.691 177.256 55.946 177.256 55.1265H175.256ZM174.989 55.8594C174.825 56.0235 174.61 56.1265 174.256 56.1265V58.1265C175.076 58.1265 175.821 57.8561 176.403 57.2736L174.989 55.8594ZM174.256 56.1265L136.256 56.1265V58.1265L174.256 58.1265V56.1265ZM205.67 13.6865H206.67V12.6865H205.67V13.6865ZM189.99 13.1265L189.237 13.785L189.259 13.81L189.283 13.8336L189.99 13.1265ZM189.99 1.68646L190.697 2.39357L190.697 2.39357L189.99 1.68646ZM235.91 13.1265L236.617 13.8336L236.641 13.81L236.663 13.785L235.91 13.1265ZM220.23 13.6865V12.6865H219.23V13.6865H220.23ZM207.67 56.1265C207.316 56.1265 207.101 56.0235 206.937 55.8594L205.523 57.2736C206.105 57.8561 206.85 58.1265 207.67 58.1265V56.1265ZM206.937 55.8594C206.773 55.6952 206.67 55.4802 206.67 55.1265H204.67C204.67 55.946 204.94 56.691 205.523 57.2736L206.937 55.8594ZM206.67 55.1265V13.6865L204.67 13.6865V55.1265H206.67ZM205.67 12.6865L191.43 12.6865V14.6865L205.67 14.6865V12.6865ZM191.43 12.6865C191.076 12.6865 190.861 12.5835 190.697 12.4194L189.283 13.8336C189.865 14.4161 190.61 14.6865 191.43 14.6865V12.6865ZM190.743 12.468C190.518 12.2111 190.43 11.9615 190.43 11.6865H188.43C188.43 12.4781 188.716 13.1885 189.237 13.785L190.743 12.468ZM190.43 11.6865V3.12646H188.43V11.6865H190.43ZM190.43 3.12646C190.43 2.77271 190.533 2.5577 190.697 2.39357L189.283 0.979355C188.7 1.56189 188.43 2.30688 188.43 3.12646H190.43ZM190.697 2.39357C190.861 2.22944 191.076 2.12646 191.43 2.12646V0.126461C190.61 0.126461 189.865 0.396819 189.283 0.979358L190.697 2.39357ZM191.43 2.12646L234.47 2.12646V0.126461L191.43 0.126461V2.12646ZM234.47 2.12646C234.824 2.12646 235.039 2.22944 235.203 2.39357L236.617 0.979357C236.035 0.39682 235.29 0.126461 234.47 0.126461V2.12646ZM235.203 2.39357C235.367 2.5577 235.47 2.77271 235.47 3.12646H237.47C237.47 2.30688 237.2 1.56189 236.617 0.979357L235.203 2.39357ZM235.47 3.12646V11.6865H237.47V3.12646H235.47ZM235.47 11.6865C235.47 11.9615 235.382 12.2111 235.157 12.468L236.663 13.785C237.184 13.1885 237.47 12.4781 237.47 11.6865H235.47ZM235.203 12.4194C235.039 12.5835 234.824 12.6865 234.47 12.6865V14.6865C235.29 14.6865 236.035 14.4161 236.617 13.8336L235.203 12.4194ZM234.47 12.6865L220.23 12.6865V14.6865L234.47 14.6865V12.6865ZM219.23 13.6865V55.1265H221.23V13.6865H219.23ZM219.23 55.1265C219.23 55.4802 219.127 55.6952 218.963 55.8594L220.377 57.2736C220.96 56.691 221.23 55.946 221.23 55.1265H219.23ZM218.963 55.8594C218.799 56.0235 218.584 56.1265 218.23 56.1265V58.1265C219.05 58.1265 219.795 57.8561 220.377 57.2736L218.963 55.8594ZM218.23 56.1265H207.67V58.1265H218.23V56.1265ZM284.977 55.5265L285.381 54.6115L284.977 55.5265ZM276.497 48.3265L275.648 48.8552L275.652 48.8615L276.497 48.3265ZM273.137 36.1665L272.137 36.1897L272.137 36.2L272.138 36.2104L273.137 36.1665ZM273.137 22.3265L272.138 22.2821L272.137 22.2929L272.137 22.3037L273.137 22.3265ZM276.497 10.2465L275.65 9.71401L275.648 9.71772L276.497 10.2465ZM310.417 2.80646L310.002 3.71638L310.007 3.71863L310.417 2.80646ZM319.057 10.2465L318.21 10.7789L318.214 10.7851L319.057 10.2465ZM322.417 22.3265L321.417 22.3598L321.418 22.3719L322.417 22.3265ZM322.417 36.1665L321.418 36.12L321.418 36.1226L322.417 36.1665ZM319.057 48.3265L319.902 48.8615L319.906 48.8552L319.057 48.3265ZM310.577 55.5265L310.173 54.6115L310.577 55.5265ZM304.657 43.8465L303.972 43.1183L303.966 43.1234L303.961 43.1286L304.657 43.8465ZM307.537 35.6865L306.538 35.6411L306.538 35.6495L306.537 35.6579L307.537 35.6865ZM307.537 22.5665L306.538 22.609L306.538 22.614L307.537 22.5665ZM306.097 16.4865L305.202 16.9337L305.212 16.9518L305.221 16.9695L306.097 16.4865ZM302.737 12.9665L302.277 13.8542L302.737 12.9665ZM289.457 16.4865L290.332 16.9695L290.336 16.9633L290.339 16.9571L289.457 16.4865ZM288.017 22.5665L287.018 22.5239L287.017 22.5333L287.017 22.5427L288.017 22.5665ZM288.017 35.6865L287.017 35.7092L287.017 35.7192L287.018 35.7293L288.017 35.6865ZM290.897 43.8465L290.201 44.5644L290.897 43.8465ZM297.777 56.9265C292.977 56.9265 288.854 56.1438 285.381 54.6115L284.573 56.4414C288.354 58.1091 292.763 58.9265 297.777 58.9265V56.9265ZM285.381 54.6115C281.926 53.0877 279.257 50.8158 277.342 47.7914L275.652 48.8615C277.79 52.2371 280.774 54.7653 284.573 56.4414L285.381 54.6115ZM277.346 47.7977C275.431 44.7244 274.344 40.8491 274.136 36.1226L272.138 36.2104C272.357 41.1904 273.509 45.4218 275.648 48.8552L277.346 47.7977ZM274.137 36.1432C274.083 33.8576 274.057 31.572 274.057 29.2865H272.057C272.057 31.5876 272.084 33.8886 272.137 36.1897L274.137 36.1432ZM274.057 29.2865C274.057 27.0009 274.083 24.6885 274.137 22.3492L272.137 22.3037C272.084 24.6578 272.057 26.9854 272.057 29.2865H274.057ZM274.136 22.3709C274.344 17.6997 275.43 13.8501 277.346 10.7752L275.648 9.71772C273.51 13.1495 272.357 17.3533 272.138 22.2821L274.136 22.3709ZM277.343 10.7789C279.317 7.64103 282.019 5.29046 285.472 3.71637L284.642 1.89656C280.842 3.62913 277.837 6.23856 275.65 9.71401L277.343 10.7789ZM285.472 3.71637C288.943 2.13388 293.036 1.32646 297.777 1.32646V-0.673538C292.811 -0.673538 288.424 0.172381 284.642 1.89656L285.472 3.71637ZM297.777 1.32646C302.462 1.32646 306.529 2.13327 310.002 3.71637L310.832 1.89656C307.051 0.172989 302.691 -0.673538 297.777 -0.673538V1.32646ZM310.007 3.71863C313.514 5.29399 316.239 7.64478 318.21 10.7789L319.903 9.71401C317.715 6.23481 314.68 3.6256 310.827 1.89429L310.007 3.71863ZM318.214 10.7851C320.177 13.8543 321.262 17.6959 321.417 22.3598L323.416 22.2931C323.252 17.3571 322.097 13.1453 319.899 9.7078L318.214 10.7851ZM321.418 22.3719C321.524 24.7038 321.577 27.0086 321.577 29.2865H323.577C323.577 26.9776 323.523 24.6425 323.416 22.2811L321.418 22.3719ZM321.577 29.2865C321.577 31.5643 321.524 33.8421 321.418 36.12L323.416 36.2129C323.523 33.9041 323.577 31.5953 323.577 29.2865H321.577ZM321.418 36.1226C321.21 40.8491 320.123 44.7244 318.208 47.7977L319.906 48.8552C322.044 45.4218 323.197 41.1904 323.416 36.2104L321.418 36.1226ZM318.212 47.7914C316.297 50.8158 313.627 53.0877 310.173 54.6115L310.981 56.4414C314.78 54.7653 317.764 52.2371 319.902 48.8615L318.212 47.7914ZM310.173 54.6115C306.7 56.1438 302.577 56.9265 297.777 56.9265V58.9265C302.79 58.9265 307.2 58.1091 310.981 56.4414L310.173 54.6115ZM297.777 47.4065C300.821 47.4065 303.378 46.4798 305.353 44.5644L303.961 43.1286C302.416 44.6265 300.387 45.4065 297.777 45.4065V47.4065ZM305.342 44.5747C307.427 42.6121 308.426 39.5827 308.536 35.715L306.537 35.6579C306.434 39.2569 305.513 41.6675 303.972 43.1183L305.342 44.5747ZM308.536 35.7319C308.643 33.372 308.697 31.1434 308.697 29.0465H306.697C306.697 31.1095 306.644 33.3076 306.538 35.6411L308.536 35.7319ZM308.697 29.0465C308.697 26.9494 308.643 24.7735 308.536 22.5189L306.538 22.614C306.644 24.8394 306.697 26.9835 306.697 29.0465H308.697ZM308.536 22.5239C308.425 19.9235 307.925 17.73 306.972 16.0034L305.221 16.9695C305.975 18.3362 306.435 20.1961 306.538 22.609L308.536 22.5239ZM306.991 16.0393C306.107 14.2706 304.844 12.9327 303.197 12.0787L302.277 13.8542C303.51 14.4936 304.487 15.5023 305.202 16.9337L306.991 16.0393ZM303.197 12.0787C301.595 11.2479 299.779 10.8465 297.777 10.8465V12.8465C299.508 12.8465 300.999 13.1917 302.277 13.8542L303.197 12.0787ZM297.777 10.8465C295.822 10.8465 294.035 11.25 292.437 12.0787L293.357 13.8542C294.639 13.1896 296.105 12.8465 297.777 12.8465V10.8465ZM292.437 12.0787C290.796 12.9293 289.511 14.2592 288.575 16.0159L290.339 16.9571C291.109 15.5137 292.118 14.4969 293.357 13.8542L292.437 12.0787ZM288.581 16.0034C287.629 17.73 287.128 19.9235 287.018 22.5239L289.016 22.609C289.119 20.1961 289.578 18.3362 290.332 16.9695L288.581 16.0034ZM287.017 22.5427C286.964 24.79 286.937 26.9579 286.937 29.0465H288.937C288.937 26.975 288.963 24.8229 289.017 22.5903L287.017 22.5427ZM286.937 29.0465C286.937 31.1349 286.964 33.3559 287.017 35.7092L289.017 35.6637C288.963 33.3237 288.937 31.118 288.937 29.0465H286.937ZM287.018 35.7293C287.183 39.5877 288.181 42.6059 290.201 44.5644L291.593 43.1286C290.093 41.6737 289.171 39.2519 289.016 35.6436L287.018 35.7293ZM290.201 44.5644C292.176 46.4798 294.733 47.4065 297.777 47.4065V45.4065C295.167 45.4065 293.138 44.6265 291.593 43.1286L290.201 44.5644ZM350.65 55.6065L350.241 56.5191L350.249 56.5228L350.258 56.5263L350.65 55.6065ZM342.33 48.3265L341.471 48.8389L341.475 48.8451L342.33 48.3265ZM339.93 1.68646L340.637 2.39357V2.39357L339.93 1.68646ZM353.13 1.68646L352.423 2.39357V2.39357L353.13 1.68646ZM356.17 43.5265L355.441 44.2111L355.452 44.2225L355.463 44.2336L356.17 43.5265ZM370.25 43.5265L369.532 42.8303L369.532 42.8307L370.25 43.5265ZM373.37 1.68646L372.711 0.933888L372.686 0.955813L372.663 0.979355L373.37 1.68646ZM386.57 1.68646L385.863 2.39357L385.886 2.41712L385.911 2.43904L386.57 1.68646ZM384.25 48.3265L385.105 48.8451L385.109 48.8389L384.25 48.3265ZM375.93 55.6065L376.327 56.5243L376.339 56.5191L375.93 55.6065ZM363.29 56.9265C358.596 56.9265 354.521 56.1702 351.042 54.6866L350.258 56.5263C354.032 58.136 358.384 58.9265 363.29 58.9265V56.9265ZM351.059 54.6938C347.665 53.1742 345.05 50.8823 343.185 47.8079L341.475 48.8451C343.557 52.2773 346.488 54.8387 350.241 56.5191L351.059 54.6938ZM343.189 47.814C341.333 44.7039 340.37 40.7082 340.37 35.7665H338.37C338.37 40.9581 339.381 45.3357 341.471 48.8389L343.189 47.814ZM340.37 35.7665V3.12646L338.37 3.12646V35.7665H340.37ZM340.37 3.12646C340.37 2.77271 340.473 2.5577 340.637 2.39357L339.223 0.979355C338.64 1.56189 338.37 2.30688 338.37 3.12646L340.37 3.12646ZM340.637 2.39357C340.801 2.22944 341.016 2.12646 341.37 2.12646V0.126461C340.55 0.126461 339.805 0.396819 339.223 0.979358L340.637 2.39357ZM341.37 2.12646L351.69 2.12646V0.126461L341.37 0.126461V2.12646ZM351.69 2.12646C352.044 2.12646 352.259 2.22944 352.423 2.39357L353.837 0.979358C353.255 0.396819 352.51 0.126461 351.69 0.126461V2.12646ZM352.423 2.39357C352.587 2.5577 352.69 2.77271 352.69 3.12646H354.69C354.69 2.30688 354.42 1.56189 353.837 0.979355L352.423 2.39357ZM352.69 3.12646V35.6865H354.69V3.12646H352.69ZM352.69 35.6865C352.69 39.2972 353.55 42.1985 355.441 44.2111L356.899 42.8418C355.483 41.3345 354.69 39.0091 354.69 35.6865H352.69ZM355.463 44.2336C357.403 46.1735 360.057 47.0865 363.29 47.0865V45.0865C360.443 45.0865 358.351 44.2928 356.877 42.8194L355.463 44.2336ZM363.29 47.0865C366.474 47.0865 369.081 46.1706 370.968 44.2223L369.532 42.8307C368.113 44.2957 366.08 45.0865 363.29 45.0865V47.0865ZM370.968 44.2226C372.919 42.2106 373.81 39.3047 373.81 35.6865H371.81C371.81 39.0015 370.994 41.3224 369.532 42.8303L370.968 44.2226ZM373.81 35.6865V3.12646L371.81 3.12646V35.6865H373.81ZM373.81 3.12646C373.81 2.77271 373.913 2.5577 374.077 2.39357L372.663 0.979355C372.08 1.56189 371.81 2.30688 371.81 3.12646L373.81 3.12646ZM374.029 2.43904C374.285 2.21428 374.535 2.12646 374.81 2.12646V0.126461C374.018 0.126461 373.308 0.411975 372.711 0.933888L374.029 2.43904ZM374.81 2.12646L385.21 2.12646V0.126461L374.81 0.126461V2.12646ZM385.21 2.12646C385.481 2.12646 385.679 2.2099 385.863 2.39357L387.277 0.979357C386.714 0.416357 386.006 0.126461 385.21 0.126461V2.12646ZM385.911 2.43904C386.113 2.61507 386.21 2.8167 386.21 3.12646H388.21C388.21 2.26289 387.881 1.50452 387.229 0.933885L385.911 2.43904ZM386.21 3.12646V35.7665H388.21V3.12646H386.21ZM386.21 35.7665C386.21 40.7082 385.247 44.7039 383.391 47.814L385.109 48.8389C387.199 45.3357 388.21 40.9581 388.21 35.7665H386.21ZM383.395 47.8079C381.53 50.8823 378.915 53.1742 375.521 54.6938L376.339 56.5191C380.092 54.8387 383.023 52.2773 385.105 48.8451L383.395 47.8079ZM375.533 54.6887C372.112 56.1695 368.039 56.9265 363.29 56.9265V58.9265C368.247 58.9265 372.602 58.1367 376.327 56.5242L375.533 54.6887ZM406.379 56.5665L407.086 55.8594V55.8594L406.379 56.5665ZM406.379 1.68646L407.086 2.39357V2.39357L406.379 1.68646ZM445.819 5.92646L445.189 6.70322L445.195 6.70786L445.2 6.71242L445.819 5.92646ZM449.019 28.9665L448.205 28.3852L448.197 28.3964L449.019 28.9665ZM441.819 34.8865L441.411 33.9733L440.41 34.42L440.947 35.3757L441.819 34.8865ZM452.859 54.5665L453.753 54.1193L453.743 54.098L453.731 54.0772L452.859 54.5665ZM452.539 56.6465L453.246 57.3536V57.3536L452.539 56.6465ZM438.539 56.4065L437.795 57.0754L437.813 57.095L437.832 57.1136L438.539 56.4065ZM437.499 54.9665L438.393 54.5192L438.39 54.5128L438.387 54.5064L437.499 54.9665ZM428.379 37.3665L429.267 36.9064L428.987 36.3665H428.379V37.3665ZM420.139 37.3665V36.3665H419.139V37.3665H420.139ZM420.139 26.0865H419.139V27.0865H420.139V26.0865ZM435.019 24.2465L434.327 23.5245L434.319 23.5318L434.312 23.5394L435.019 24.2465ZM435.099 14.1665L434.362 14.8422L434.369 14.8504L434.377 14.8584L435.099 14.1665ZM420.139 12.2465V11.2465H419.139V12.2465H420.139ZM407.819 56.1265C407.465 56.1265 407.25 56.0235 407.086 55.8594L405.672 57.2736C406.254 57.8561 406.999 58.1265 407.819 58.1265V56.1265ZM407.086 55.8594C406.922 55.6952 406.819 55.4802 406.819 55.1265H404.819C404.819 55.946 405.089 56.691 405.672 57.2736L407.086 55.8594ZM406.819 55.1265V3.12646L404.819 3.12646V55.1265H406.819ZM406.819 3.12646C406.819 2.77271 406.922 2.5577 407.086 2.39357L405.672 0.979355C405.089 1.56189 404.819 2.30688 404.819 3.12646L406.819 3.12646ZM407.086 2.39357C407.25 2.22944 407.465 2.12646 407.819 2.12646V0.126461C406.999 0.126461 406.254 0.396819 405.672 0.979358L407.086 2.39357ZM407.819 2.12646L429.579 2.12646V0.126461L407.819 0.126461V2.12646ZM429.579 2.12646C436.31 2.12646 441.475 3.69151 445.189 6.70322L446.449 5.1497C442.27 1.76141 436.607 0.126461 429.579 0.126461V2.12646ZM445.2 6.71242C448.923 9.64092 450.819 13.8104 450.819 19.3665H452.819C452.819 13.2958 450.714 8.50533 446.437 5.14051L445.2 6.71242ZM450.819 19.3665C450.819 22.9831 449.93 25.9703 448.205 28.3852L449.832 29.5477C451.841 26.736 452.819 23.3232 452.819 19.3665H450.819ZM448.197 28.3964C446.491 30.8553 444.236 32.7122 441.411 33.9733L442.226 35.7996C445.375 34.3941 447.92 32.3043 449.84 29.5365L448.197 28.3964ZM440.947 35.3757L451.987 55.0557L453.731 54.0772L442.691 34.3972L440.947 35.3757ZM451.964 55.0137C452.078 55.2401 452.099 55.3788 452.099 55.4465H454.099C454.099 54.9808 453.96 54.5329 453.753 54.1193L451.964 55.0137ZM452.099 55.4465C452.099 55.5479 452.065 55.7064 451.832 55.9394L453.246 57.3536C453.76 56.8399 454.099 56.1984 454.099 55.4465H452.099ZM451.832 55.9394C451.711 56.0596 451.571 56.1265 451.339 56.1265V58.1265C452.066 58.1265 452.726 57.8734 453.246 57.3536L451.832 55.9394ZM451.339 56.1265H440.779V58.1265H451.339V56.1265ZM440.779 56.1265C439.901 56.1265 439.463 55.9168 439.246 55.6994L437.832 57.1136C438.574 57.8562 439.63 58.1265 440.779 58.1265V56.1265ZM439.282 55.7375C438.835 55.241 438.552 54.8361 438.393 54.5192L436.604 55.4137C436.873 55.9502 437.282 56.5053 437.795 57.0754L439.282 55.7375ZM438.387 54.5064L429.267 36.9064L427.491 37.8265L436.611 55.4265L438.387 54.5064ZM428.379 36.3665H420.139V38.3665H428.379V36.3665ZM419.139 37.3665V55.1265H421.139V37.3665H419.139ZM419.139 55.1265C419.139 55.4802 419.036 55.6952 418.872 55.8594L420.286 57.2736C420.868 56.691 421.139 55.946 421.139 55.1265H419.139ZM418.872 55.8594C418.708 56.0235 418.492 56.1265 418.139 56.1265V58.1265C418.958 58.1265 419.703 57.8561 420.286 57.2736L418.872 55.8594ZM418.139 56.1265L407.819 56.1265V58.1265L418.139 58.1265V56.1265ZM420.139 27.0865L429.419 27.0865V25.0865L420.139 25.0865V27.0865ZM429.419 27.0865C432.072 27.0865 434.242 26.4375 435.726 24.9536L434.312 23.5394C433.342 24.5087 431.779 25.0865 429.419 25.0865V27.0865ZM435.711 24.9685C437.227 23.5155 437.939 21.5527 437.939 19.2065H435.939C435.939 21.1269 435.371 22.5241 434.327 23.5245L435.711 24.9685ZM437.939 19.2065C437.939 16.9164 437.256 14.9726 435.821 13.4746L434.377 14.8584C435.394 15.9203 435.939 17.3365 435.939 19.2065H437.939ZM435.836 13.4907C434.395 11.9188 432.171 11.2465 429.419 11.2465V13.2465C431.893 13.2465 433.456 13.8541 434.362 14.8422L435.836 13.4907ZM429.419 11.2465L420.139 11.2465V13.2465L429.419 13.2465V11.2465ZM419.139 12.2465V26.0865H421.139V12.2465H419.139ZM504.608 13.6865H505.608V12.6865H504.608V13.6865ZM488.927 13.1265L488.175 13.785L488.197 13.81L488.22 13.8336L488.927 13.1265ZM488.927 1.68646L489.635 2.39357V2.39357L488.927 1.68646ZM534.848 13.1265L535.555 13.8336L535.578 13.81L535.6 13.785L534.848 13.1265ZM519.167 13.6865V12.6865H518.167V13.6865H519.167ZM506.608 56.1265C506.254 56.1265 506.039 56.0235 505.875 55.8594L504.46 57.2736C505.043 57.8561 505.788 58.1265 506.608 58.1265V56.1265ZM505.875 55.8594C505.71 55.6952 505.608 55.4802 505.608 55.1265H503.608C503.608 55.946 503.878 56.691 504.46 57.2736L505.875 55.8594ZM505.608 55.1265V13.6865H503.608V55.1265H505.608ZM504.608 12.6865L490.367 12.6865V14.6865L504.608 14.6865V12.6865ZM490.367 12.6865C490.014 12.6865 489.799 12.5835 489.635 12.4194L488.22 13.8336C488.803 14.4161 489.548 14.6865 490.367 14.6865V12.6865ZM489.68 12.468C489.455 12.2111 489.367 11.9615 489.367 11.6865H487.367C487.367 12.4781 487.653 13.1885 488.175 13.785L489.68 12.468ZM489.367 11.6865V3.12646L487.367 3.12646V11.6865H489.367ZM489.367 3.12646C489.367 2.77271 489.47 2.5577 489.635 2.39357L488.22 0.979355C487.638 1.56189 487.367 2.30688 487.367 3.12646L489.367 3.12646ZM489.635 2.39357C489.799 2.22944 490.014 2.12646 490.367 2.12646V0.126461C489.548 0.126461 488.803 0.396819 488.22 0.979358L489.635 2.39357ZM490.367 2.12646L533.408 2.12646V0.126461L490.367 0.126461V2.12646ZM533.408 2.12646C533.761 2.12646 533.976 2.22944 534.14 2.39357L535.555 0.979357C534.972 0.39682 534.227 0.126461 533.408 0.126461V2.12646ZM534.14 2.39357C534.305 2.5577 534.408 2.77271 534.408 3.12646H536.408C536.408 2.30688 536.137 1.56189 535.555 0.979357L534.14 2.39357ZM534.408 3.12646V11.6865L536.408 11.6865V3.12646H534.408ZM534.408 11.6865C534.408 11.9615 534.32 12.2111 534.095 12.468L535.6 13.785C536.122 13.1885 536.408 12.4781 536.408 11.6865L534.408 11.6865ZM534.14 12.4194C533.976 12.5835 533.761 12.6865 533.408 12.6865V14.6865C534.227 14.6865 534.972 14.4161 535.555 13.8336L534.14 12.4194ZM533.408 12.6865H519.167V14.6865H533.408V12.6865ZM518.167 13.6865V55.1265H520.167V13.6865H518.167ZM518.167 55.1265C518.167 55.4802 518.065 55.6952 517.9 55.8594L519.315 57.2736C519.897 56.691 520.167 55.946 520.167 55.1265H518.167ZM517.9 55.8594C517.736 56.0235 517.521 56.1265 517.167 56.1265V58.1265C517.987 58.1265 518.732 57.8561 519.315 57.2736L517.9 55.8594ZM517.167 56.1265H506.608V58.1265H517.167V56.1265ZM551.238 56.5665L551.945 55.8594V55.8594L551.238 56.5665ZM551.238 1.68646L551.945 2.39357V2.39357L551.238 1.68646ZM591.478 12.0865L592.185 12.7936V12.7936L591.478 12.0865ZM564.518 12.6465V11.6465H563.518V12.6465H564.518ZM564.518 23.4465H563.518V24.4465H564.518V23.4465ZM589.718 24.0865L588.966 24.745L588.987 24.77L589.011 24.7936L589.718 24.0865ZM589.718 33.9265L590.425 34.6336L590.449 34.61L590.471 34.585L589.718 33.9265ZM564.518 34.4865V33.4865H563.518V34.4865H564.518ZM564.518 45.6065H563.518V46.6065H564.518V45.6065ZM592.118 46.1665L591.411 46.8736V46.8736L592.118 46.1665ZM592.118 56.5665L591.411 55.8594V55.8594L592.118 56.5665ZM552.678 56.1265C552.324 56.1265 552.109 56.0235 551.945 55.8594L550.531 57.2736C551.114 57.8561 551.859 58.1265 552.678 58.1265V56.1265ZM551.945 55.8594C551.781 55.6952 551.678 55.4802 551.678 55.1265H549.678C549.678 55.946 549.948 56.691 550.531 57.2736L551.945 55.8594ZM551.678 55.1265V3.12646L549.678 3.12646V55.1265H551.678ZM551.678 3.12646C551.678 2.77271 551.781 2.5577 551.945 2.39357L550.531 0.979355C549.948 1.56189 549.678 2.30688 549.678 3.12646L551.678 3.12646ZM551.945 2.39357C552.109 2.22944 552.324 2.12646 552.678 2.12646V0.126461C551.859 0.126461 551.114 0.396819 550.531 0.979358L551.945 2.39357ZM552.678 2.12646L590.038 2.12646V0.126461L552.678 0.126461V2.12646ZM590.038 2.12646C590.392 2.12646 590.607 2.22944 590.771 2.39357L592.185 0.979357C591.603 0.39682 590.858 0.126461 590.038 0.126461V2.12646ZM590.771 2.39357C590.935 2.5577 591.038 2.77271 591.038 3.12646H593.038C593.038 2.30688 592.768 1.56189 592.185 0.979357L590.771 2.39357ZM591.038 3.12646V10.6465H593.038V3.12646H591.038ZM591.038 10.6465C591.038 11.0002 590.935 11.2152 590.771 11.3794L592.185 12.7936C592.768 12.211 593.038 11.466 593.038 10.6465H591.038ZM590.771 11.3794C590.607 11.5435 590.392 11.6465 590.038 11.6465V13.6465C590.858 13.6465 591.603 13.3761 592.185 12.7936L590.771 11.3794ZM590.038 11.6465L564.518 11.6465V13.6465L590.038 13.6465V11.6465ZM563.518 12.6465V23.4465H565.518V12.6465H563.518ZM564.518 24.4465L588.278 24.4465V22.4465L564.518 22.4465V24.4465ZM588.278 24.4465C588.588 24.4465 588.789 24.5438 588.966 24.745L590.471 23.428C589.9 22.7758 589.142 22.4465 588.278 22.4465V24.4465ZM589.011 24.7936C589.175 24.9577 589.278 25.1727 589.278 25.5265H591.278C591.278 24.7069 591.008 23.9619 590.425 23.3794L589.011 24.7936ZM589.278 25.5265V32.4865H591.278V25.5265H589.278ZM589.278 32.4865C589.278 32.7615 589.19 33.0111 588.966 33.268L590.471 34.585C590.993 33.9885 591.278 33.2781 591.278 32.4865H589.278ZM589.011 33.2194C588.847 33.3835 588.632 33.4865 588.278 33.4865V35.4865C589.098 35.4865 589.843 35.2161 590.425 34.6336L589.011 33.2194ZM588.278 33.4865H564.518V35.4865H588.278V33.4865ZM563.518 34.4865V45.6065H565.518V34.4865H563.518ZM564.518 46.6065H590.678V44.6065H564.518V46.6065ZM590.678 46.6065C591.032 46.6065 591.247 46.7094 591.411 46.8736L592.825 45.4594C592.243 44.8768 591.498 44.6065 590.678 44.6065V46.6065ZM591.411 46.8736C591.575 47.0377 591.678 47.2527 591.678 47.6065H593.678C593.678 46.7869 593.408 46.0419 592.825 45.4594L591.411 46.8736ZM591.678 47.6065V55.1265H593.678V47.6065H591.678ZM591.678 55.1265C591.678 55.4802 591.575 55.6952 591.411 55.8594L592.825 57.2736C593.408 56.691 593.678 55.946 593.678 55.1265H591.678ZM591.411 55.8594C591.247 56.0235 591.032 56.1265 590.678 56.1265V58.1265C591.498 58.1265 592.243 57.8561 592.825 57.2736L591.411 55.8594ZM590.678 56.1265H552.678V58.1265H590.678V56.1265ZM605.372 56.6465L604.613 57.2973L604.663 57.3557L604.721 57.4057L605.372 56.6465ZM604.972 54.7265L604.033 54.3827L604.015 54.4325L604.002 54.4839L604.972 54.7265ZM623.772 3.36646L624.711 3.7102L624.726 3.67043L624.737 3.62958L623.772 3.36646ZM624.732 1.84646L625.396 2.59388L625.401 2.58976L624.732 1.84646ZM640.812 1.84646L640.105 2.55357L640.144 2.59273L640.187 2.62733L640.812 1.84646ZM641.852 3.36646L640.887 3.62958L640.898 3.66977L640.912 3.70891L641.852 3.36646ZM660.572 54.7265L659.632 55.0689L659.652 55.1226L659.677 55.1737L660.572 54.7265ZM660.172 56.6465L660.879 57.3536V57.3536L660.172 56.6465ZM647.292 56.5665L646.539 57.225L646.583 57.2751L646.633 57.319L647.292 56.5665ZM646.572 55.4465L647.521 55.1302L647.514 55.1096L647.506 55.0893L646.572 55.4465ZM643.452 47.2865L644.386 46.9293L644.14 46.2865H643.452V47.2865ZM622.092 47.2865V46.2865H621.397L621.155 46.9374L622.092 47.2865ZM619.052 55.4465L618.115 55.0974L618.109 55.1137L618.103 55.1302L619.052 55.4465ZM618.332 56.5665L619.039 57.2736L619.062 57.25L619.084 57.225L618.332 56.5665ZM625.372 35.7665L624.428 35.4374L623.964 36.7665H625.372V35.7665ZM640.252 35.7665V36.7665H641.669L641.194 35.431L640.252 35.7665ZM632.732 14.6465L633.674 14.311L632.722 11.6367L631.788 14.3174L632.732 14.6465ZM606.572 56.1265C606.42 56.1265 606.244 56.0769 606.023 55.8872L604.721 57.4057C605.246 57.856 605.871 58.1265 606.572 58.1265V56.1265ZM606.131 55.9957C605.941 55.7743 605.892 55.5985 605.892 55.4465H603.892C603.892 56.1478 604.162 56.7719 604.613 57.2973L606.131 55.9957ZM605.892 55.4465C605.892 55.2449 605.912 55.0883 605.942 54.969L604.002 54.4839C603.925 54.7913 603.892 55.1147 603.892 55.4465H605.892ZM605.911 55.0702L624.711 3.7102L622.833 3.02272L604.033 54.3827L605.911 55.0702ZM624.737 3.62958C624.843 3.2408 625.053 2.89926 625.396 2.59387L624.068 1.09905C623.451 1.647 623.021 2.31879 622.807 3.10334L624.737 3.62958ZM625.401 2.58976C625.706 2.31519 626.165 2.12646 626.892 2.12646V0.126461C625.806 0.126461 624.825 0.417737 624.063 1.10317L625.401 2.58976ZM626.892 2.12646L638.732 2.12646V0.126461L626.892 0.126461V2.12646ZM638.732 2.12646C639.465 2.12646 639.869 2.31739 640.105 2.55357L641.519 1.13935C640.795 0.415534 639.812 0.126461 638.732 0.126461V2.12646ZM640.187 2.62733C640.576 2.93879 640.79 3.27196 640.887 3.62958L642.817 3.10334C642.594 2.28763 642.114 1.60747 641.437 1.06559L640.187 2.62733ZM640.912 3.70891L659.632 55.0689L661.511 54.384L642.791 3.02401L640.912 3.70891ZM659.677 55.1737C659.707 55.2325 659.732 55.3165 659.732 55.4465H661.732C661.732 55.0431 661.65 54.6471 661.466 54.2793L659.677 55.1737ZM659.732 55.4465C659.732 55.5479 659.698 55.7064 659.465 55.9394L660.879 57.3536C661.393 56.8399 661.732 56.1984 661.732 55.4465H659.732ZM659.465 55.9394C659.345 56.0596 659.205 56.1265 658.972 56.1265V58.1265C659.699 58.1265 660.359 57.8734 660.879 57.3536L659.465 55.9394ZM658.972 56.1265H649.132V58.1265H658.972V56.1265ZM649.132 56.1265C648.475 56.1265 648.132 55.9729 647.95 55.8139L646.633 57.319C647.305 57.9067 648.188 58.1265 649.132 58.1265V56.1265ZM648.044 55.908C647.707 55.5224 647.566 55.2668 647.521 55.1302L645.623 55.7627C645.791 56.2662 646.13 56.7572 646.539 57.225L648.044 55.908ZM647.506 55.0893L644.386 46.9293L642.518 47.6436L645.638 55.8036L647.506 55.0893ZM643.452 46.2865L622.092 46.2865V48.2865L643.452 48.2865V46.2865ZM621.155 46.9374L618.115 55.0974L619.989 55.7956L623.029 47.6356L621.155 46.9374ZM618.103 55.1302C618.058 55.2668 617.917 55.5224 617.579 55.908L619.084 57.225C619.494 56.7572 619.833 56.2662 620.001 55.7627L618.103 55.1302ZM617.625 55.8594C617.535 55.9488 617.231 56.1265 616.412 56.1265V58.1265C617.406 58.1265 618.382 57.9308 619.039 57.2736L617.625 55.8594ZM616.412 56.1265H606.572V58.1265H616.412V56.1265ZM625.372 36.7665L640.252 36.7665V34.7665L625.372 34.7665V36.7665ZM641.194 35.431L633.674 14.311L631.79 14.9819L639.31 36.1019L641.194 35.431ZM631.788 14.3174L624.428 35.4374L626.316 36.0955L633.676 14.9755L631.788 14.3174ZM675.597 56.5665L674.89 57.2736L674.914 57.2971L674.939 57.319L675.597 56.5665ZM675.597 1.68646L674.939 0.933888L674.914 0.955812L674.89 0.979355L675.597 1.68646ZM687.597 1.84646L686.85 2.51083L686.889 2.55479L686.933 2.59387L687.597 1.84646ZM688.477 2.88646L687.549 3.25785L687.573 3.3172L687.604 3.37304L688.477 2.88646ZM702.557 28.1665L701.684 28.653L702.557 30.2216L703.431 28.653L702.557 28.1665ZM716.638 2.88646L715.78 2.37196L715.772 2.38579L715.764 2.39988L716.638 2.88646ZM717.438 1.84646L716.69 1.18208L716.685 1.18796L717.438 1.84646ZM729.438 1.68646L728.73 2.39357L728.754 2.41711L728.779 2.43904L729.438 1.68646ZM729.438 56.5665L728.779 55.8139L728.754 55.8358L728.73 55.8594L729.438 56.5665ZM716.958 56.5665L716.25 57.2736L716.274 57.2971L716.299 57.319L716.958 56.5665ZM716.398 25.1265H717.398L715.518 24.6509L716.398 25.1265ZM707.357 41.8465L706.478 41.3709L706.459 41.4049L706.444 41.4403L707.357 41.8465ZM706.398 43.1265L705.739 42.3739L706.398 43.1265ZM698.718 43.1265L699.376 42.3739H699.376L698.718 43.1265ZM697.677 41.8465L696.798 42.3221L696.803 42.3321L697.677 41.8465ZM688.638 25.1265L689.517 24.6509L687.638 25.1265H688.638ZM677.037 56.1265C676.763 56.1265 676.513 56.0386 676.256 55.8139L674.939 57.319C675.535 57.841 676.246 58.1265 677.037 58.1265V56.1265ZM676.305 55.8594C676.141 55.6952 676.037 55.4802 676.037 55.1265H674.037C674.037 55.946 674.308 56.691 674.89 57.2736L676.305 55.8594ZM676.037 55.1265V3.12646H674.037V55.1265H676.037ZM676.037 3.12646C676.037 2.77271 676.141 2.5577 676.305 2.39357L674.89 0.979355C674.308 1.56189 674.037 2.30688 674.037 3.12646H676.037ZM676.256 2.43904C676.513 2.21428 676.763 2.12646 677.037 2.12646V0.126461C676.246 0.126461 675.535 0.411976 674.939 0.933888L676.256 2.43904ZM677.037 2.12646L685.677 2.12646V0.126461L677.037 0.126461V2.12646ZM685.677 2.12646C686.344 2.12646 686.67 2.30855 686.85 2.51083L688.345 1.1821C687.671 0.424371 686.717 0.126461 685.677 0.126461V2.12646ZM686.933 2.59387C687.151 2.78752 687.308 2.94657 687.414 3.0724C687.527 3.20557 687.552 3.26495 687.549 3.25785L689.406 2.51507C689.205 2.0118 688.748 1.53154 688.262 1.09905L686.933 2.59387ZM687.604 3.37304L701.684 28.653L703.431 27.6799L689.351 2.39988L687.604 3.37304ZM703.431 28.653L717.511 3.37304L715.764 2.39988L701.684 27.6799L703.431 28.653ZM717.495 3.40096C717.609 3.21088 717.83 2.91694 718.19 2.50496L716.685 1.18796C716.299 1.62932 715.986 2.02871 715.78 2.37196L717.495 3.40096ZM718.185 2.51083C718.354 2.32071 718.695 2.12646 719.438 2.12646V0.126461C718.366 0.126461 717.374 0.412217 716.69 1.1821L718.185 2.51083ZM719.438 2.12646L727.997 2.12646V0.126461L719.438 0.126461V2.12646ZM727.997 2.12646C728.351 2.12646 728.566 2.22944 728.73 2.39357L730.145 0.979357C729.562 0.39682 728.817 0.126461 727.997 0.126461V2.12646ZM728.779 2.43904C728.98 2.61506 729.078 2.8167 729.078 3.12646H731.078C731.078 2.26289 730.748 1.50453 730.096 0.933887L728.779 2.43904ZM729.078 3.12646V55.1265H731.078V3.12646H729.078ZM729.078 55.1265C729.078 55.4362 728.98 55.6379 728.779 55.8139L730.096 57.319C730.748 56.7484 731.078 55.99 731.078 55.1265H729.078ZM728.73 55.8594C728.566 56.0235 728.351 56.1265 727.997 56.1265V58.1265C728.817 58.1265 729.562 57.8561 730.145 57.2736L728.73 55.8594ZM727.997 56.1265L718.477 56.1265V58.1265L727.997 58.1265V56.1265ZM718.477 56.1265C718.124 56.1265 717.854 56.0217 717.616 55.8139L716.299 57.319C716.915 57.8579 717.658 58.1265 718.477 58.1265V56.1265ZM717.665 55.8594C717.5 55.6952 717.398 55.4802 717.398 55.1265H715.398C715.398 55.946 715.668 56.691 716.25 57.2736L717.665 55.8594ZM717.398 55.1265V25.1265H715.398V55.1265H717.398ZM715.518 24.6509L706.478 41.3709L708.237 42.3221L717.277 25.6021L715.518 24.6509ZM706.444 41.4403C706.294 41.7774 706.065 42.0884 705.739 42.3739L707.056 43.879C707.583 43.4178 707.994 42.8755 708.271 42.2526L706.444 41.4403ZM705.739 42.3739C705.546 42.5429 705.22 42.6865 704.638 42.6865V44.6865C705.548 44.6865 706.396 44.4567 707.056 43.879L705.739 42.3739ZM704.638 42.6865H700.477V44.6865H704.638V42.6865ZM700.477 42.6865C699.895 42.6865 699.569 42.5429 699.376 42.3739L698.059 43.879C698.719 44.4567 699.567 44.6865 700.477 44.6865V42.6865ZM699.376 42.3739C699.033 42.0739 698.761 41.7368 698.552 41.3608L696.803 42.3321C697.128 42.9161 697.548 43.4323 698.059 43.879L699.376 42.3739ZM698.557 41.3709L689.517 24.6509L687.758 25.6021L696.798 42.3221L698.557 41.3709ZM687.638 25.1265V55.1265H689.638V25.1265H687.638ZM687.638 55.1265C687.638 55.4802 687.535 55.6952 687.37 55.8594L688.785 57.2736C689.367 56.691 689.638 55.946 689.638 55.1265H687.638ZM687.37 55.8594C687.206 56.0235 686.991 56.1265 686.638 56.1265V58.1265C687.457 58.1265 688.202 57.8561 688.785 57.2736L687.37 55.8594ZM686.638 56.1265L677.037 56.1265V58.1265L686.638 58.1265V56.1265Z" fill="url(#paint0_linear_22_271)" fill-opacity="0.2"/>
<defs>
<linearGradient id="paint0_linear_22_271" x1="365.5" y1="-4.87354" x2="365.5" y2="65.1265" gradientUnits="userSpaceOnUse">
<stop stop-color="#C1FFF8"/>
<stop offset="1" stop-color="#C1FFF8" stop-opacity="0"/>
</linearGradient>
</defs>
</svg>
