<svg width="80" height="81" viewBox="0 0 80 81" fill="none" xmlns="http://www.w3.org/2000/svg">
<rect y="0.126465" width="80" height="80" rx="10" fill="#171B3F"/>
<path d="M61 40C61 51.5973 51.5973 61 40 61C28.4027 61 19 51.5973 19 40C19 28.4027 28.4027 19 40 19C51.5997 19 61 28.4027 61 40Z" fill="#C1FFF8"/>
<path d="M29.3605 40.7056L29.4511 40.5633L34.9141 32.0172C34.9939 31.892 35.1816 31.905 35.242 32.0409C36.1546 34.0863 36.9421 36.63 36.5732 38.2137C36.4157 38.8652 35.9842 39.7477 35.4987 40.5633C35.4362 40.6819 35.3671 40.7985 35.2938 40.9106C35.2592 40.9624 35.201 40.9926 35.1384 40.9926H29.5201C29.3691 40.9926 29.2807 40.8286 29.3605 40.7056Z" fill="#171B3F"/>
<path d="M53.7107 42.2935V43.6463C53.7107 43.7239 53.6632 43.793 53.5942 43.8232C53.1713 44.0045 51.7236 44.669 51.1216 45.5061C49.5854 47.6442 48.4117 50.7015 45.7881 50.7015H34.8429C30.9636 50.7015 27.82 47.5472 27.82 43.6549V43.5298C27.82 43.4262 27.9041 43.3421 28.0077 43.3421H34.1093C34.2301 43.3421 34.3186 43.4543 34.3078 43.5729C34.2646 43.9699 34.338 44.3756 34.5257 44.7445C34.8882 45.4802 35.639 45.9398 36.4503 45.9398H39.4708V43.5816H36.4847C36.3316 43.5816 36.241 43.4047 36.3294 43.2795C36.3618 43.2299 36.3985 43.1781 36.4373 43.1198C36.7199 42.7186 37.1234 42.095 37.5247 41.3852C37.7987 40.9062 38.0641 40.3948 38.2777 39.8814C38.3208 39.7886 38.3554 39.6937 38.3899 39.6009C38.4482 39.4369 38.5085 39.2837 38.5517 39.1305C38.5948 39.0011 38.6294 38.8652 38.6639 38.7378C38.7653 38.302 38.8085 37.8403 38.8085 37.3613C38.8085 37.1736 38.7998 36.9773 38.7826 36.7896C38.7739 36.5846 38.748 36.3796 38.7221 36.1747C38.7049 35.9934 38.6725 35.8144 38.638 35.6267C38.5948 35.3526 38.5344 35.0808 38.4654 34.8068L38.4417 34.7032C38.3899 34.5155 38.3467 34.3364 38.2863 34.1487C38.1159 33.5597 37.9195 32.9858 37.7124 32.4486C37.6369 32.235 37.5506 32.03 37.4643 31.8251C37.337 31.5165 37.2075 31.236 37.0889 30.9706C37.0285 30.8498 36.9767 30.7398 36.9249 30.6276C36.8667 30.5003 36.8062 30.373 36.7458 30.2522C36.7027 30.1594 36.653 30.0731 36.6185 29.9868L36.2496 29.305C36.1978 29.2122 36.2841 29.1022 36.3855 29.1303L38.6941 29.756H38.7006C38.7049 29.756 38.7071 29.7581 38.7092 29.7581L39.0134 29.8422L39.3478 29.9372L39.4708 29.9717V28.5995C39.4708 27.9371 40.0016 27.3999 40.6575 27.3999C40.9854 27.3999 41.2832 27.5336 41.4967 27.7516C41.7103 27.9695 41.8441 28.2672 41.8441 28.5995V30.6362L42.0901 30.7053C42.1095 30.7117 42.1289 30.7204 42.1462 30.7333C42.2066 30.7786 42.2929 30.8455 42.4029 30.9275C42.4893 30.9965 42.582 31.0807 42.6942 31.167C42.9164 31.3461 43.1818 31.5769 43.4731 31.8423C43.5507 31.9092 43.6263 31.9782 43.6953 32.0473C44.0707 32.3968 44.4914 32.8067 44.8928 33.2598C45.005 33.3871 45.115 33.5165 45.2272 33.6525C45.3394 33.7906 45.458 33.9265 45.5616 34.0625C45.6975 34.2437 45.8442 34.4314 45.9715 34.6277C46.032 34.7205 46.101 34.8154 46.1593 34.9082C46.3232 35.1563 46.4678 35.4131 46.6059 35.6698C46.6641 35.7885 46.7245 35.9179 46.7763 36.0452C46.9295 36.3883 47.0503 36.7378 47.128 37.0873C47.1517 37.1628 47.169 37.2448 47.1776 37.3182V37.3354C47.2035 37.439 47.2121 37.5491 47.2207 37.6612C47.2553 38.0194 47.238 38.3775 47.1604 38.7378C47.128 38.8911 47.0848 39.0356 47.033 39.1888C46.9812 39.3355 46.9295 39.4887 46.8626 39.6332C46.7332 39.9331 46.58 40.233 46.3987 40.5135C46.3405 40.6171 46.2714 40.7271 46.2024 40.8307C46.1269 40.9407 46.0492 41.0443 45.9802 41.1457C45.8852 41.2752 45.7838 41.4111 45.6803 41.5319C45.5875 41.6592 45.4925 41.7865 45.389 41.8987C45.2445 42.0691 45.1064 42.2309 44.9618 42.3863C44.8755 42.4877 44.7827 42.5913 44.6878 42.684C44.595 42.7876 44.5001 42.8804 44.4138 42.9666C44.2692 43.1112 44.1484 43.2234 44.047 43.3162L43.8096 43.5341C43.7752 43.5643 43.7298 43.5816 43.6824 43.5816H41.8441V45.9398H44.157C44.6748 45.9398 45.1668 45.7564 45.5637 45.4198C45.6997 45.3011 46.293 44.7876 46.9942 44.0131C47.0179 43.9872 47.0482 43.9678 47.0827 43.9591L53.4712 42.1123C53.5899 42.0777 53.7107 42.1684 53.7107 42.2935Z" fill="#171B3F"/>
</svg>
