<svg width="80" height="81" viewBox="0 0 80 81" fill="none" xmlns="http://www.w3.org/2000/svg">
<rect y="0.126465" width="80" height="80" rx="10" fill="#171B3F"/>
<path fill-rule="evenodd" clip-rule="evenodd" d="M61.2382 40.1891C61.2382 37.628 59.1596 35.5495 56.5987 35.5495C55.3367 35.5495 54.2232 36.032 53.4067 36.8487C50.2518 34.5845 45.8721 33.0999 41.047 32.9144L43.1626 23.0043L50.0291 24.4518C50.1033 26.1962 51.5508 27.6067 53.3324 27.6067C55.1512 27.6067 56.6357 26.1221 56.6357 24.3033C56.6357 22.4847 55.1512 21 53.3324 21C52.0334 21 50.9198 21.7424 50.4002 22.8558L42.7172 21.2228C42.4945 21.1856 42.2718 21.2228 42.0862 21.3341C41.9006 21.4454 41.7893 21.631 41.715 21.8537L39.3768 32.9144C34.4403 33.0627 30.0234 34.5102 26.8315 36.8487C26.015 36.0692 24.8644 35.5495 23.6395 35.5495C21.0785 35.5495 19 37.628 19 40.1891C19 42.082 20.1135 43.678 21.7466 44.4203C21.6724 44.8657 21.6353 45.3482 21.6353 45.8307C21.6353 52.957 29.9121 58.71 40.1562 58.71C50.4002 58.71 58.6771 52.957 58.6771 45.8307C58.6771 45.3482 58.6401 44.9029 58.5658 44.4575C60.0876 43.7151 61.2382 42.082 61.2382 40.1891ZM47.9506 52.2148C45.6865 54.4788 41.3811 54.6273 40.119 54.6273C38.8571 54.6273 34.5146 54.4416 32.2876 52.2148C31.9535 51.8807 31.9535 51.324 32.2876 50.9899C32.6217 50.6558 33.1784 50.6558 33.5125 50.9899C34.9228 52.4003 37.9663 52.9199 40.1562 52.9199C42.346 52.9199 45.3525 52.4003 46.8 50.9899C47.134 50.6558 47.6908 50.6558 48.0248 50.9899C48.2847 51.361 48.2847 51.8807 47.9506 52.2148ZM29.5039 43.4924C29.5039 41.6738 30.9885 40.1891 32.8073 40.1891C34.6259 40.1891 36.1106 41.6738 36.1106 43.4924C36.1106 45.3111 34.6259 46.7958 32.8073 46.7958C30.9885 46.7958 29.5039 45.3111 29.5039 43.4924ZM47.3567 46.7958C45.538 46.7958 44.0533 45.3111 44.0533 43.4924C44.0533 41.6738 45.538 40.1891 47.3567 40.1891C49.1755 40.1891 50.66 41.6738 50.66 43.4924C50.66 45.3111 49.1755 46.7958 47.3567 46.7958Z" fill="#C1FFF8"/>
</svg>
