<svg width="880" height="58" viewBox="0 0 880 58" fill="none" xmlns="http://www.w3.org/2000/svg">
<path d="M11.7 55.6865L11.2977 56.6021L11.3095 56.607L11.7 55.6865ZM3.7 49.6865L2.89582 50.2809L3.7 49.6865ZM0.82 41.8465H-0.18V41.8657L-0.179261 41.8849L0.82 41.8465ZM1.3 40.7265L0.592893 40.0194L1.3 40.7265ZM14.34 40.5665L13.7588 41.3802L13.7839 41.3981L13.81 41.4145L14.34 40.5665ZM15.46 41.6065L16.3424 41.1359L16.3062 41.068L16.26 41.0065L15.46 41.6065ZM17.22 43.9265L16.5129 44.6336L16.5251 44.6458L16.5377 44.6575L17.22 43.9265ZM20.26 45.7665L19.8956 46.6977L19.9195 46.707L19.9438 46.7151L20.26 45.7665ZM31.94 44.9665L31.4255 44.109L31.419 44.1129L31.4126 44.1168L31.94 44.9665ZM33.06 38.1665L32.3761 38.896L32.3886 38.9077L32.4015 38.919L33.06 38.1665ZM28.9 36.0865L28.5757 37.0324L28.5916 37.0379L28.6078 37.0428L28.9 36.0865ZM21.38 34.1665L21.174 35.145L21.1807 35.1464L21.38 34.1665ZM10.98 30.8865L10.5396 31.7843L10.5497 31.7892L10.5599 31.7939L10.98 30.8865ZM4.5 25.5265L3.6679 26.0812L3.6742 26.0904L4.5 25.5265ZM4.98 8.48646L4.17192 7.89723L4.16398 7.90844L4.98 8.48646ZM12.74 2.48646L12.3407 1.56963L12.74 2.48646ZM34.18 1.76646L33.8529 2.71146L33.8584 2.71334L34.18 1.76646ZM41.3 5.60646L41.9402 4.83824V4.83824L41.3 5.60646ZM45.62 10.7265L44.7362 11.1943L44.7445 11.21L44.7534 11.2254L45.62 10.7265ZM47.22 15.9265H48.22V15.9108L48.2195 15.8952L47.22 15.9265ZM46.74 17.1265L47.4471 17.8336L47.4743 17.8064L47.4993 17.7773L46.74 17.1265ZM33.46 17.2865L33.0128 18.1809L33.46 17.2865ZM32.34 16.2465L31.3752 16.5096L31.4179 16.6661L31.5079 16.8012L32.34 16.2465ZM29.78 13.2065L29.2177 14.0334L29.2365 14.0462L29.2559 14.0581L29.78 13.2065ZM18.98 13.1265L19.51 13.9745L19.5191 13.9687L18.98 13.1265ZM18.1 19.6865L17.3443 20.3414L17.3564 20.3553L17.3689 20.3688L18.1 19.6865ZM21.7 21.7665L21.3656 22.7089L21.3749 22.7121L21.7 21.7665ZM28.66 23.6065L28.4468 24.5835L28.4616 24.5867L28.4764 24.5895L28.66 23.6065ZM40.42 27.0465L39.9989 27.9535L40.0056 27.9566L40.0124 27.9596L40.42 27.0465ZM46.98 32.3265L46.1354 32.862L46.1416 32.8715L46.98 32.3265ZM45.94 49.8465L45.1515 49.2314L45.1498 49.2336L45.94 49.8465ZM37.46 55.8465L37.8171 56.7805L37.46 55.8465ZM24.98 56.9265C19.7315 56.9265 15.4485 56.1905 12.0906 54.7659L11.3095 56.607C14.9915 58.1691 19.5618 58.9265 24.98 58.9265V56.9265ZM12.1023 54.7709C8.70103 53.2765 6.19016 51.3731 4.50418 49.0921L2.89582 50.2809C4.83651 52.9065 7.65898 55.0031 11.2977 56.602L12.1023 54.7709ZM4.50418 49.0921C2.79786 46.7835 1.91745 44.3608 1.81926 41.808L-0.179261 41.8849C-0.0641122 44.8788 0.975472 47.6827 2.89582 50.2809L4.50418 49.0921ZM1.82 41.8465C1.82 41.7024 1.86202 41.5787 2.00711 41.4336L0.592893 40.0194C0.0979822 40.5143 -0.18 41.1372 -0.18 41.8465H1.82ZM2.00711 41.4336C2.2135 41.2272 2.39299 41.1665 2.58 41.1665V39.1665C1.80702 39.1665 1.13317 39.4791 0.592893 40.0194L2.00711 41.4336ZM2.58 41.1665H12.66V39.1665H2.58V41.1665ZM12.66 41.1665C13.3178 41.1665 13.6316 41.2894 13.7588 41.3802L14.9212 39.7527C14.3017 39.3102 13.4955 39.1665 12.66 39.1665V41.1665ZM13.81 41.4145C14.126 41.612 14.4095 41.8724 14.66 42.2065L16.26 41.0065C15.8705 40.4872 15.4073 40.0543 14.87 39.7185L13.81 41.4145ZM14.5776 42.0771C15.0576 42.9771 15.7077 43.8283 16.5129 44.6336L17.9271 43.2194C17.239 42.5313 16.7157 41.8359 16.3424 41.1359L14.5776 42.0771ZM16.5377 44.6575C17.4468 45.506 18.5746 46.1808 19.8956 46.6977L20.6244 44.8352C19.492 44.3921 18.5932 43.8402 17.9023 43.1954L16.5377 44.6575ZM19.9438 46.7151C21.3565 47.1861 23.0439 47.4065 24.98 47.4065V45.4065C23.1827 45.4065 21.7235 45.2002 20.5762 44.8178L19.9438 46.7151ZM24.98 47.4065C28.1444 47.4065 30.6868 46.9213 32.4674 45.8161L31.4126 44.1168C30.0999 44.9316 28.0023 45.4065 24.98 45.4065V47.4065ZM32.4545 45.824C34.3094 44.711 35.34 43.1018 35.34 41.0465H33.34C33.34 42.2977 32.7706 43.3019 31.4255 44.109L32.4545 45.824ZM35.34 41.0465C35.34 39.5962 34.7973 38.3579 33.7185 37.4139L32.4015 38.919C33.0293 39.4684 33.34 40.15 33.34 41.0465H35.34ZM33.7439 37.4369C32.7261 36.4827 31.1678 35.7338 29.1922 35.1301L28.6078 37.0428C30.4722 37.6125 31.6873 38.2503 32.3761 38.896L33.7439 37.4369ZM29.2243 35.1405C27.2995 34.4806 24.7456 33.8305 21.5793 33.1865L21.1807 35.1464C24.3077 35.7824 26.7672 36.4123 28.5757 37.0324L29.2243 35.1405ZM21.586 33.1879C17.5855 32.3457 14.1946 31.2727 11.4001 29.979L10.5599 31.7939C13.5254 33.1669 17.0679 34.2806 21.174 35.145L21.586 33.1879ZM11.4204 29.9887C8.71951 28.6637 6.70474 26.9817 5.3258 24.9625L3.6742 26.0904C5.28193 28.4446 7.58716 30.3359 10.5396 31.7843L11.4204 29.9887ZM5.33205 24.9718C3.97096 22.9301 3.26 20.3611 3.26 17.2065H1.26C1.26 20.6652 2.04237 23.6428 3.66795 26.0812L5.33205 24.9718ZM3.26 17.2065C3.26 14.152 4.10702 11.449 5.79602 9.06448L4.16398 7.90844C2.22631 10.644 1.26 13.7542 1.26 17.2065H3.26ZM5.78801 9.07563C7.53614 6.6782 9.97258 4.78234 13.1393 3.4033L12.3407 1.56963C8.89408 3.07059 6.1572 5.17472 4.17199 7.89729L5.78801 9.07563ZM13.1393 3.4033C16.2921 2.03031 20.0699 1.32646 24.5 1.32646V-0.673538C19.8634 -0.673538 15.8013 0.0626144 12.3407 1.56963L13.1393 3.4033ZM24.5 1.32646C28.0957 1.32646 31.2076 1.79577 33.8529 2.71145L34.5071 0.821476C31.6057 -0.182851 28.2643 -0.673538 24.5 -0.673538V1.32646ZM33.8584 2.71334C36.5909 3.64135 38.8505 4.86695 40.6598 6.37468L41.9402 4.83824C39.9095 3.14598 37.4225 1.81157 34.5016 0.819581L33.8584 2.71334ZM40.6598 6.37468C42.5011 7.90906 43.8488 9.51815 44.7362 11.1943L46.5038 10.2586C45.4712 8.30811 43.9389 6.50386 41.9402 4.83824L40.6598 6.37468ZM44.7534 11.2254C45.7001 12.8698 46.1732 14.444 46.2205 15.9577L48.2195 15.8952C48.1602 13.9956 47.5666 12.1032 46.4866 10.2275L44.7534 11.2254ZM46.22 15.9265C46.22 16.0785 46.1705 16.2543 45.9807 16.4757L47.4993 17.7773C47.9495 17.2519 48.22 16.6278 48.22 15.9265H46.22ZM46.0329 16.4194C45.9127 16.5396 45.7726 16.6065 45.54 16.6065L45.54 18.6065C46.2674 18.6065 46.9273 18.3534 47.4471 17.8336L46.0329 16.4194ZM45.54 16.6065H34.98L34.98 18.6065H45.54L45.54 16.6065ZM34.98 16.6065C34.5135 16.6065 34.1668 16.5218 33.9072 16.392L33.0128 18.1809C33.6066 18.4778 34.2731 18.6065 34.98 18.6065L34.98 16.6065ZM33.9072 16.392C33.6658 16.2713 33.4157 16.0572 33.1721 15.6918L31.5079 16.8012C31.9043 17.3957 32.4009 17.8749 33.0128 18.1809L33.9072 16.392ZM33.3048 15.9833C32.8979 14.4916 31.8322 13.2952 30.3041 12.3548L29.2559 14.0581C30.5011 14.8244 31.1421 15.6546 31.3752 16.5096L33.3048 15.9833ZM30.3423 12.3795C28.7936 11.3264 26.8175 10.8465 24.5 10.8465V12.8465C26.5559 12.8465 28.0998 13.2732 29.2177 14.0334L30.3423 12.3795ZM24.5 10.8465C22.0488 10.8465 19.9952 11.2895 18.4409 12.2842L19.5191 13.9687C20.6315 13.2568 22.2579 12.8465 24.5 12.8465V10.8465ZM18.45 12.2785C16.8351 13.2878 16.06 14.8884 16.06 16.8865H18.06C18.06 15.4712 18.5649 14.5651 19.51 13.9745L18.45 12.2785ZM16.06 16.8865C16.06 18.1917 16.4921 19.3581 17.3443 20.3414L18.8557 19.0315C18.3212 18.4149 18.06 17.7145 18.06 16.8865H16.06ZM17.3689 20.3688C18.2718 21.3361 19.6426 22.0975 21.3656 22.7089L22.0344 20.824C20.4507 20.2621 19.4215 19.6368 18.8311 19.0041L17.3689 20.3688ZM21.3749 22.7121C23.1343 23.3169 25.4969 23.9399 28.4468 24.5835L28.8732 22.6294C25.9564 21.9931 23.6791 21.3893 22.0251 20.8208L21.3749 22.7121ZM28.4764 24.5895C33.2841 25.4876 37.1154 26.6147 39.9989 27.9535L40.8411 26.1395C37.7512 24.7049 33.7425 23.5386 28.8436 22.6235L28.4764 24.5895ZM40.0124 27.9596C42.8666 29.2338 44.8788 30.8802 46.1355 32.862L47.8245 31.7909C46.3079 29.3993 43.9467 27.5258 40.8277 26.1333L40.0124 27.9596ZM46.1416 32.8715C47.397 34.8029 48.06 37.2931 48.06 40.4065H50.06C50.06 37.0131 49.3363 34.1167 47.8184 31.7815L46.1416 32.8715ZM48.06 40.4065C48.06 43.8275 47.0842 46.7536 45.1515 49.2314L46.7285 50.4615C48.9558 47.606 50.06 44.2388 50.06 40.4065H48.06ZM45.1498 49.2336C43.2536 51.6787 40.5886 53.5796 37.1029 54.9124L37.8171 56.7805C41.5847 55.34 44.5731 53.2409 46.7302 50.4593L45.1498 49.2336ZM37.1029 54.9124C33.6113 56.2474 29.576 56.9265 24.98 56.9265V58.9265C29.7706 58.9265 34.0554 58.2188 37.8171 56.7805L37.1029 54.9124ZM75.1488 55.5265L75.5524 54.6115L75.1488 55.5265ZM66.6687 48.3265L65.8199 48.8552L65.8239 48.8615L66.6687 48.3265ZM63.3087 36.1665L62.309 36.1897L62.3093 36.2L62.3097 36.2104L63.3087 36.1665ZM63.3087 22.3265L62.3097 22.2821L62.3093 22.2929L62.309 22.3037L63.3087 22.3265ZM66.6687 10.2465L65.8223 9.71401L65.82 9.71772L66.6687 10.2465ZM100.589 2.80646L100.174 3.71638L100.179 3.71863L100.589 2.80646ZM109.229 10.2465L108.382 10.7789L108.386 10.7851L109.229 10.2465ZM112.589 22.3265L111.589 22.3598L111.59 22.3719L112.589 22.3265ZM112.589 36.1665L111.59 36.12L111.59 36.1226L112.589 36.1665ZM109.229 48.3265L110.074 48.8615L110.078 48.8552L109.229 48.3265ZM100.749 55.5265L100.345 54.6115L100.749 55.5265ZM94.8288 43.8465L94.1434 43.1183L94.138 43.1234L94.1326 43.1286L94.8288 43.8465ZM97.7087 35.6865L96.7098 35.6411L96.7094 35.6495L96.7092 35.6579L97.7087 35.6865ZM97.7087 22.5665L96.7096 22.609L96.7099 22.614L97.7087 22.5665ZM96.2688 16.4865L95.3743 16.9337L95.3834 16.9518L95.3932 16.9695L96.2688 16.4865ZM92.9088 12.9665L92.4484 13.8542L92.9088 12.9665ZM79.6288 16.4865L80.5043 16.9695L80.5078 16.9633L80.5111 16.9571L79.6288 16.4865ZM78.1888 22.5665L77.1897 22.5239L77.1893 22.5333L77.189 22.5427L78.1888 22.5665ZM78.1888 35.6865L77.189 35.7092L77.1892 35.7192L77.1897 35.7293L78.1888 35.6865ZM81.0687 43.8465L80.3726 44.5644L81.0687 43.8465ZM87.9488 56.9265C83.1489 56.9265 79.0255 56.1438 75.5524 54.6115L74.7451 56.4414C78.5254 58.1091 82.9352 58.9265 87.9488 58.9265V56.9265ZM75.5524 54.6115C72.0983 53.0877 69.429 50.8158 67.5136 47.7914L65.8239 48.8615C67.9618 52.2371 70.9459 54.7653 74.7451 56.4414L75.5524 54.6115ZM67.5175 47.7977C65.603 44.7244 64.5155 40.8491 64.3078 36.1226L62.3097 36.2104C62.5286 41.1904 63.6811 45.4218 65.82 48.8552L67.5175 47.7977ZM64.3085 36.1432C64.2553 33.8576 64.2288 31.572 64.2288 29.2865H62.2287C62.2287 31.5876 62.2555 33.8886 62.309 36.1897L64.3085 36.1432ZM64.2288 29.2865C64.2288 27.0009 64.2553 24.6885 64.3085 22.3492L62.309 22.3037C62.2555 24.6578 62.2287 26.9854 62.2287 29.2865H64.2288ZM64.3078 22.3709C64.5154 17.6997 65.602 13.8501 67.5175 10.7752L65.82 9.71772C63.6822 13.1495 62.5288 17.3533 62.3097 22.2821L64.3078 22.3709ZM67.5152 10.7789C69.489 7.64103 72.1907 5.29046 75.6436 3.71637L74.8139 1.89656C71.0135 3.62913 68.0085 6.23856 65.8223 9.71401L67.5152 10.7789ZM75.6436 3.71637C79.1148 2.13388 83.208 1.32646 87.9488 1.32646V-0.673538C82.9828 -0.673538 78.596 0.172381 74.8139 1.89656L75.6436 3.71637ZM87.9488 1.32646C92.6344 1.32646 96.7013 2.13327 100.174 3.71637L101.004 1.89656C97.2228 0.172989 92.8631 -0.673538 87.9488 -0.673538V1.32646ZM100.179 3.71863C103.685 5.29399 106.411 7.64478 108.382 10.7789L110.075 9.71401C107.887 6.23481 104.852 3.6256 100.999 1.89429L100.179 3.71863ZM108.386 10.7851C110.349 13.8543 111.434 17.6959 111.589 22.3598L113.588 22.2931C113.424 17.3571 112.269 13.1453 110.071 9.7078L108.386 10.7851ZM111.59 22.3719C111.696 24.7038 111.749 27.0086 111.749 29.2865H113.749C113.749 26.9776 113.695 24.6425 113.588 22.2811L111.59 22.3719ZM111.749 29.2865C111.749 31.5643 111.696 33.8421 111.59 36.12L113.588 36.2129C113.695 33.9041 113.749 31.5953 113.749 29.2865H111.749ZM111.59 36.1226C111.382 40.8491 110.294 44.7244 108.38 47.7977L110.078 48.8552C112.216 45.4218 113.369 41.1904 113.588 36.2104L111.59 36.1226ZM108.384 47.7914C106.468 50.8158 103.799 53.0877 100.345 54.6115L101.152 56.4414C104.952 54.7653 107.936 52.2371 110.074 48.8615L108.384 47.7914ZM100.345 54.6115C96.8721 56.1438 92.7486 56.9265 87.9488 56.9265V58.9265C92.9623 58.9265 97.3721 58.1091 101.152 56.4414L100.345 54.6115ZM87.9488 47.4065C90.9924 47.4065 93.5497 46.4798 95.5249 44.5644L94.1326 43.1286C92.5879 44.6265 90.5584 45.4065 87.9488 45.4065V47.4065ZM95.5141 44.5747C97.5993 42.6121 98.5978 39.5827 98.7083 35.715L96.7092 35.6579C96.6063 39.2569 95.6848 41.6675 94.1434 43.1183L95.5141 44.5747ZM98.7077 35.7319C98.815 33.372 98.8688 31.1434 98.8688 29.0465H96.8688C96.8688 31.1095 96.8158 33.3076 96.7098 35.6411L98.7077 35.7319ZM98.8688 29.0465C98.8688 26.9494 98.815 24.7735 98.7076 22.5189L96.7099 22.614C96.8159 24.8394 96.8688 26.9835 96.8688 29.0465H98.8688ZM98.7078 22.5239C98.5972 19.9235 98.097 17.73 97.1443 16.0034L95.3932 16.9695C96.1472 18.3362 96.607 20.1961 96.7097 22.609L98.7078 22.5239ZM97.1632 16.0393C96.2789 14.2706 95.016 12.9327 93.3691 12.0787L92.4484 13.8542C93.6815 14.4936 94.6586 15.5023 95.3743 16.9337L97.1632 16.0393ZM93.3691 12.0787C91.7667 11.2479 89.9514 10.8465 87.9488 10.8465V12.8465C89.6795 12.8465 91.1708 13.1917 92.4484 13.8542L93.3691 12.0787ZM87.9488 10.8465C85.9944 10.8465 84.2067 11.25 82.6084 12.0787L83.5291 13.8542C84.8108 13.1896 86.2765 12.8465 87.9488 12.8465V10.8465ZM82.6084 12.0787C80.9679 12.9293 79.6833 14.2592 78.7464 16.0159L80.5111 16.9571C81.2809 15.5137 82.2896 14.4969 83.5291 13.8542L82.6084 12.0787ZM78.7532 16.0034C77.8005 17.73 77.3003 19.9235 77.1897 22.5239L79.1878 22.609C79.2905 20.1961 79.7503 18.3362 80.5043 16.9695L78.7532 16.0034ZM77.189 22.5427C77.1355 24.79 77.1087 26.9579 77.1087 29.0465H79.1087C79.1087 26.975 79.1353 24.8229 79.1885 22.5903L77.189 22.5427ZM77.1087 29.0465C77.1087 31.1349 77.1355 33.3559 77.189 35.7092L79.1885 35.6637C79.1353 33.3237 79.1087 31.118 79.1087 29.0465H77.1087ZM77.1897 35.7293C77.355 39.5877 78.3529 42.6059 80.3726 44.5644L81.7649 43.1286C80.2646 41.6737 79.3425 39.2519 79.1878 35.6436L77.1897 35.7293ZM80.3726 44.5644C82.3479 46.4798 84.9051 47.4065 87.9488 47.4065V45.4065C85.3391 45.4065 83.3096 44.6265 81.7649 43.1286L80.3726 44.5644ZM130.582 56.5665L129.875 57.2736L129.898 57.2971L129.923 57.319L130.582 56.5665ZM130.582 1.68646L129.923 0.933888L129.898 0.955812L129.875 0.979355L130.582 1.68646ZM142.582 1.84646L141.834 2.51083L141.874 2.55479L141.918 2.59387L142.582 1.84646ZM143.462 2.88646L142.533 3.25785L142.557 3.3172L142.588 3.37304L143.462 2.88646ZM157.542 28.1665L156.668 28.653L157.542 30.2216L158.416 28.653L157.542 28.1665ZM171.622 2.88646L170.764 2.37196L170.756 2.38579L170.748 2.39988L171.622 2.88646ZM172.422 1.84646L171.674 1.18208L171.669 1.18796L172.422 1.84646ZM184.422 1.68646L183.715 2.39357L183.738 2.41711L183.763 2.43904L184.422 1.68646ZM184.422 56.5665L183.763 55.8139L183.738 55.8358L183.715 55.8594L184.422 56.5665ZM171.942 56.5665L171.235 57.2736L171.258 57.2971L171.283 57.319L171.942 56.5665ZM171.382 25.1265H172.382L170.502 24.6509L171.382 25.1265ZM162.342 41.8465L161.462 41.3709L161.444 41.4049L161.428 41.4403L162.342 41.8465ZM161.382 43.1265L160.723 42.3739L161.382 43.1265ZM153.702 43.1265L154.36 42.3739L153.702 43.1265ZM152.662 41.8465L151.782 42.3221L151.788 42.3321L152.662 41.8465ZM143.622 25.1265L144.502 24.6509L142.622 25.1265H143.622ZM132.022 56.1265C131.747 56.1265 131.497 56.0386 131.24 55.8139L129.923 57.319C130.52 57.841 131.23 58.1265 132.022 58.1265V56.1265ZM131.289 55.8594C131.125 55.6952 131.022 55.4802 131.022 55.1265H129.022C129.022 55.946 129.292 56.691 129.875 57.2736L131.289 55.8594ZM131.022 55.1265V3.12646H129.022V55.1265H131.022ZM131.022 3.12646C131.022 2.77271 131.125 2.5577 131.289 2.39357L129.875 0.979355C129.292 1.56189 129.022 2.30688 129.022 3.12646H131.022ZM131.24 2.43904C131.497 2.21428 131.747 2.12646 132.022 2.12646V0.126461C131.23 0.126461 130.52 0.411976 129.923 0.933888L131.24 2.43904ZM132.022 2.12646L140.662 2.12646V0.126461L132.022 0.126461V2.12646ZM140.662 2.12646C141.329 2.12646 141.655 2.30855 141.834 2.51083L143.329 1.1821C142.656 0.424371 141.702 0.126461 140.662 0.126461V2.12646ZM141.918 2.59387C142.135 2.78752 142.292 2.94657 142.398 3.0724C142.511 3.20557 142.536 3.26495 142.533 3.25785L144.39 2.51507C144.189 2.0118 143.733 1.53154 143.246 1.09905L141.918 2.59387ZM142.588 3.37304L156.668 28.653L158.416 27.6799L144.336 2.39988L142.588 3.37304ZM158.416 28.653L172.496 3.37304L170.748 2.39988L156.668 27.6799L158.416 28.653ZM172.479 3.40096C172.593 3.21088 172.814 2.91694 173.174 2.50496L171.669 1.18796C171.283 1.62932 170.97 2.02871 170.764 2.37196L172.479 3.40096ZM173.169 2.51083C173.338 2.32071 173.68 2.12646 174.422 2.12646V0.126461C173.351 0.126461 172.359 0.412217 171.674 1.1821L173.169 2.51083ZM174.422 2.12646L182.982 2.12646V0.126461L174.422 0.126461V2.12646ZM182.982 2.12646C183.336 2.12646 183.551 2.22944 183.715 2.39357L185.129 0.979357C184.546 0.39682 183.801 0.126461 182.982 0.126461V2.12646ZM183.763 2.43904C183.965 2.61506 184.062 2.8167 184.062 3.12646H186.062C186.062 2.26289 185.733 1.50453 185.08 0.933887L183.763 2.43904ZM184.062 3.12646V55.1265H186.062V3.12646H184.062ZM184.062 55.1265C184.062 55.4362 183.965 55.6379 183.763 55.8139L185.08 57.319C185.733 56.7484 186.062 55.99 186.062 55.1265H184.062ZM183.715 55.8594C183.551 56.0235 183.336 56.1265 182.982 56.1265V58.1265C183.801 58.1265 184.546 57.8561 185.129 57.2736L183.715 55.8594ZM182.982 56.1265H173.462V58.1265H182.982V56.1265ZM173.462 56.1265C173.108 56.1265 172.838 56.0217 172.6 55.8139L171.283 57.319C171.899 57.8579 172.642 58.1265 173.462 58.1265V56.1265ZM172.649 55.8594C172.485 55.6952 172.382 55.4802 172.382 55.1265H170.382C170.382 55.946 170.652 56.691 171.235 57.2736L172.649 55.8594ZM172.382 55.1265V25.1265H170.382V55.1265H172.382ZM170.502 24.6509L161.462 41.3709L163.222 42.3221L172.262 25.6021L170.502 24.6509ZM161.428 41.4403C161.278 41.7774 161.05 42.0884 160.723 42.3739L162.04 43.879C162.567 43.4178 162.979 42.8755 163.256 42.2526L161.428 41.4403ZM160.723 42.3739C160.53 42.5429 160.204 42.6865 159.622 42.6865V44.6865C160.533 44.6865 161.38 44.4567 162.04 43.879L160.723 42.3739ZM159.622 42.6865H155.462V44.6865H159.622V42.6865ZM155.462 42.6865C154.879 42.6865 154.553 42.5429 154.36 42.3739L153.043 43.879C153.704 44.4567 154.551 44.6865 155.462 44.6865V42.6865ZM154.36 42.3739C154.018 42.0739 153.745 41.7368 153.536 41.3608L151.788 42.3321C152.112 42.9161 152.533 43.4323 153.043 43.879L154.36 42.3739ZM153.542 41.3709L144.502 24.6509L142.742 25.6021L151.782 42.3221L153.542 41.3709ZM142.622 25.1265V55.1265H144.622V25.1265H142.622ZM142.622 55.1265C142.622 55.4802 142.519 55.6952 142.355 55.8594L143.769 57.2736C144.352 56.691 144.622 55.946 144.622 55.1265H142.622ZM142.355 55.8594C142.191 56.0235 141.976 56.1265 141.622 56.1265V58.1265C142.441 58.1265 143.186 57.8561 143.769 57.2736L142.355 55.8594ZM141.622 56.1265H132.022V58.1265H141.622V56.1265ZM204.754 56.5665L205.461 55.8594V55.8594L204.754 56.5665ZM204.754 1.68646L205.461 2.39357V2.39357L204.754 1.68646ZM244.994 12.0865L245.701 12.7936L245.701 12.7936L244.994 12.0865ZM218.034 12.6465V11.6465H217.034V12.6465H218.034ZM218.034 23.4465H217.034V24.4465H218.034V23.4465ZM243.234 24.0865L242.481 24.745L242.503 24.77L242.527 24.7936L243.234 24.0865ZM243.234 33.9265L243.941 34.6336L243.964 34.61L243.986 34.585L243.234 33.9265ZM218.034 34.4865V33.4865H217.034V34.4865H218.034ZM218.034 45.6065H217.034V46.6065H218.034V45.6065ZM245.634 46.1665L244.927 46.8736L244.927 46.8736L245.634 46.1665ZM245.634 56.5665L244.927 55.8594L244.927 55.8594L245.634 56.5665ZM206.194 56.1265C205.84 56.1265 205.625 56.0235 205.461 55.8594L204.047 57.2736C204.629 57.8561 205.374 58.1265 206.194 58.1265V56.1265ZM205.461 55.8594C205.297 55.6952 205.194 55.4802 205.194 55.1265H203.194C203.194 55.946 203.464 56.691 204.047 57.2736L205.461 55.8594ZM205.194 55.1265V3.12646H203.194V55.1265H205.194ZM205.194 3.12646C205.194 2.77271 205.297 2.5577 205.461 2.39357L204.047 0.979355C203.464 1.56189 203.194 2.30688 203.194 3.12646H205.194ZM205.461 2.39357C205.625 2.22944 205.84 2.12646 206.194 2.12646V0.126461C205.374 0.126461 204.629 0.396819 204.047 0.979358L205.461 2.39357ZM206.194 2.12646L243.554 2.12646V0.126461L206.194 0.126461V2.12646ZM243.554 2.12646C243.908 2.12646 244.123 2.22944 244.287 2.39357L245.701 0.979357C245.118 0.39682 244.373 0.126461 243.554 0.126461V2.12646ZM244.287 2.39357C244.451 2.5577 244.554 2.77271 244.554 3.12646H246.554C246.554 2.30688 246.283 1.56189 245.701 0.979357L244.287 2.39357ZM244.554 3.12646V10.6465H246.554V3.12646H244.554ZM244.554 10.6465C244.554 11.0002 244.451 11.2152 244.287 11.3794L245.701 12.7936C246.283 12.211 246.554 11.466 246.554 10.6465H244.554ZM244.287 11.3794C244.123 11.5435 243.908 11.6465 243.554 11.6465V13.6465C244.373 13.6465 245.118 13.3761 245.701 12.7936L244.287 11.3794ZM243.554 11.6465L218.034 11.6465V13.6465L243.554 13.6465V11.6465ZM217.034 12.6465V23.4465H219.034V12.6465H217.034ZM218.034 24.4465L241.794 24.4465V22.4465L218.034 22.4465V24.4465ZM241.794 24.4465C242.104 24.4465 242.305 24.5438 242.481 24.745L243.986 23.428C243.416 22.7758 242.657 22.4465 241.794 22.4465V24.4465ZM242.527 24.7936C242.691 24.9577 242.794 25.1727 242.794 25.5265H244.794C244.794 24.7069 244.523 23.9619 243.941 23.3794L242.527 24.7936ZM242.794 25.5265V32.4865H244.794V25.5265H242.794ZM242.794 32.4865C242.794 32.7615 242.706 33.0111 242.481 33.268L243.986 34.585C244.508 33.9885 244.794 33.2781 244.794 32.4865H242.794ZM242.527 33.2194C242.363 33.3835 242.147 33.4865 241.794 33.4865V35.4865C242.613 35.4865 243.358 35.2161 243.941 34.6336L242.527 33.2194ZM241.794 33.4865L218.034 33.4865V35.4865L241.794 35.4865V33.4865ZM217.034 34.4865V45.6065H219.034V34.4865H217.034ZM218.034 46.6065L244.194 46.6065V44.6065L218.034 44.6065V46.6065ZM244.194 46.6065C244.548 46.6065 244.763 46.7094 244.927 46.8736L246.341 45.4594C245.758 44.8768 245.013 44.6065 244.194 44.6065V46.6065ZM244.927 46.8736C245.091 47.0377 245.194 47.2527 245.194 47.6065H247.194C247.194 46.7869 246.923 46.0419 246.341 45.4594L244.927 46.8736ZM245.194 47.6065V55.1265H247.194V47.6065H245.194ZM245.194 55.1265C245.194 55.4802 245.091 55.6952 244.927 55.8594L246.341 57.2736C246.923 56.691 247.194 55.946 247.194 55.1265H245.194ZM244.927 55.8594C244.763 56.0235 244.548 56.1265 244.194 56.1265V58.1265C245.013 58.1265 245.758 57.8561 246.341 57.2736L244.927 55.8594ZM244.194 56.1265L206.194 56.1265V58.1265L244.194 58.1265V56.1265ZM298.399 55.5265L298.802 54.6115L298.399 55.5265ZM289.919 48.3265L289.07 48.8552L289.074 48.8615L289.919 48.3265ZM286.559 36.1665L285.559 36.1897L285.559 36.2L285.56 36.2104L286.559 36.1665ZM286.559 22.3265L285.56 22.2821L285.559 22.2929L285.559 22.3037L286.559 22.3265ZM289.919 10.2465L289.072 9.71401L289.07 9.71772L289.919 10.2465ZM323.839 2.80646L323.424 3.71638L323.429 3.71863L323.839 2.80646ZM332.479 10.2465L331.632 10.7789L331.636 10.7851L332.479 10.2465ZM335.839 22.3265L334.839 22.3598L334.84 22.3719L335.839 22.3265ZM335.839 36.1665L334.84 36.12L334.84 36.1226L335.839 36.1665ZM332.479 48.3265L333.324 48.8615L333.328 48.8552L332.479 48.3265ZM323.999 55.5265L323.595 54.6115L323.999 55.5265ZM318.079 43.8465L317.393 43.1183L317.388 43.1234L317.383 43.1286L318.079 43.8465ZM320.959 35.6865L319.96 35.6411L319.959 35.6495L319.959 35.6579L320.959 35.6865ZM320.959 22.5665L319.96 22.609L319.96 22.614L320.959 22.5665ZM319.519 16.4865L318.624 16.9337L318.633 16.9518L318.643 16.9695L319.519 16.4865ZM316.159 12.9665L315.698 13.8542L316.159 12.9665ZM302.879 16.4865L303.754 16.9695L303.758 16.9633L303.761 16.9571L302.879 16.4865ZM301.439 22.5665L300.44 22.5239L300.439 22.5333L300.439 22.5427L301.439 22.5665ZM301.439 35.6865L300.439 35.7092L300.439 35.7192L300.44 35.7293L301.439 35.6865ZM304.319 43.8465L303.623 44.5644L304.319 43.8465ZM311.199 56.9265C306.399 56.9265 302.275 56.1438 298.802 54.6115L297.995 56.4414C301.775 58.1091 306.185 58.9265 311.199 58.9265V56.9265ZM298.802 54.6115C295.348 53.0877 292.679 50.8158 290.764 47.7914L289.074 48.8615C291.212 52.2371 294.196 54.7653 297.995 56.4414L298.802 54.6115ZM290.768 47.7977C288.853 44.7244 287.766 40.8491 287.558 36.1226L285.56 36.2104C285.779 41.1904 286.931 45.4218 289.07 48.8552L290.768 47.7977ZM287.558 36.1432C287.505 33.8576 287.479 31.572 287.479 29.2865L285.479 29.2865C285.479 31.5876 285.505 33.8886 285.559 36.1897L287.558 36.1432ZM287.479 29.2865C287.479 27.0009 287.505 24.6885 287.559 22.3492L285.559 22.3037C285.505 24.6578 285.479 26.9854 285.479 29.2865L287.479 29.2865ZM287.558 22.3709C287.765 17.6997 288.852 13.8501 290.768 10.7752L289.07 9.71772C286.932 13.1495 285.779 17.3533 285.56 22.2821L287.558 22.3709ZM290.765 10.7789C292.739 7.64103 295.441 5.29046 298.894 3.71637L298.064 1.89656C294.263 3.62913 291.258 6.23856 289.072 9.71401L290.765 10.7789ZM298.894 3.71637C302.365 2.13388 306.458 1.32646 311.199 1.32646V-0.673538C306.233 -0.673538 301.846 0.172381 298.064 1.89656L298.894 3.71637ZM311.199 1.32646C315.884 1.32646 319.951 2.13327 323.424 3.71637L324.254 1.89656C320.473 0.172989 316.113 -0.673538 311.199 -0.673538V1.32646ZM323.429 3.71863C326.935 5.29399 329.661 7.64478 331.632 10.7789L333.325 9.71401C331.137 6.23481 328.102 3.6256 324.249 1.89429L323.429 3.71863ZM331.636 10.7851C333.599 13.8543 334.684 17.6959 334.839 22.3598L336.838 22.2931C336.674 17.3571 335.519 13.1453 333.321 9.7078L331.636 10.7851ZM334.84 22.3719C334.946 24.7038 334.999 27.0086 334.999 29.2865H336.999C336.999 26.9776 336.945 24.6425 336.838 22.2811L334.84 22.3719ZM334.999 29.2865C334.999 31.5643 334.946 33.8421 334.84 36.12L336.838 36.2129C336.945 33.9041 336.999 31.5953 336.999 29.2865H334.999ZM334.84 36.1226C334.632 40.8491 333.544 44.7244 331.63 47.7977L333.328 48.8552C335.466 45.4218 336.619 41.1904 336.838 36.2104L334.84 36.1226ZM331.634 47.7914C329.719 50.8158 327.049 53.0877 323.595 54.6115L324.402 56.4414C328.202 54.7653 331.186 52.2371 333.324 48.8615L331.634 47.7914ZM323.595 54.6115C320.122 56.1438 315.999 56.9265 311.199 56.9265V58.9265C316.212 58.9265 320.622 58.1091 324.402 56.4414L323.595 54.6115ZM311.199 47.4065C314.242 47.4065 316.8 46.4798 318.775 44.5644L317.383 43.1286C315.838 44.6265 313.808 45.4065 311.199 45.4065V47.4065ZM318.764 44.5747C320.849 42.6121 321.848 39.5827 321.958 35.715L319.959 35.6579C319.856 39.2569 318.935 41.6675 317.393 43.1183L318.764 44.5747ZM321.958 35.7319C322.065 33.372 322.119 31.1434 322.119 29.0465H320.119C320.119 31.1095 320.066 33.3076 319.96 35.6411L321.958 35.7319ZM322.119 29.0465C322.119 26.9494 322.065 24.7735 321.958 22.5189L319.96 22.614C320.066 24.8394 320.119 26.9835 320.119 29.0465H322.119ZM321.958 22.5239C321.847 19.9235 321.347 17.73 320.394 16.0034L318.643 16.9695C319.397 18.3362 319.857 20.1961 319.96 22.609L321.958 22.5239ZM320.413 16.0393C319.529 14.2706 318.266 12.9327 316.619 12.0787L315.698 13.8542C316.932 14.4936 317.909 15.5023 318.624 16.9337L320.413 16.0393ZM316.619 12.0787C315.017 11.2479 313.201 10.8465 311.199 10.8465V12.8465C312.929 12.8465 314.421 13.1917 315.698 13.8542L316.619 12.0787ZM311.199 10.8465C309.244 10.8465 307.457 11.25 305.858 12.0787L306.779 13.8542C308.061 13.1896 309.526 12.8465 311.199 12.8465V10.8465ZM305.858 12.0787C304.218 12.9293 302.933 14.2592 301.996 16.0159L303.761 16.9571C304.531 15.5137 305.54 14.4969 306.779 13.8542L305.858 12.0787ZM302.003 16.0034C301.051 17.73 300.55 19.9235 300.44 22.5239L302.438 22.609C302.541 20.1961 303 18.3362 303.754 16.9695L302.003 16.0034ZM300.439 22.5427C300.386 24.79 300.359 26.9579 300.359 29.0465H302.359C302.359 26.975 302.385 24.8229 302.438 22.5903L300.439 22.5427ZM300.359 29.0465C300.359 31.1349 300.386 33.3559 300.439 35.7092L302.439 35.6637C302.385 33.3237 302.359 31.118 302.359 29.0465H300.359ZM300.44 35.7293C300.605 39.5877 301.603 42.6059 303.623 44.5644L305.015 43.1286C303.515 41.6737 302.592 39.2519 302.438 35.6436L300.44 35.7293ZM303.623 44.5644C305.598 46.4798 308.155 47.4065 311.199 47.4065V45.4065C308.589 45.4065 306.56 44.6265 305.015 43.1286L303.623 44.5644ZM353.832 56.5665L354.539 55.8594V55.8594L353.832 56.5665ZM353.832 1.68646L354.539 2.39357V2.39357L353.832 1.68646ZM393.432 1.68646L392.725 2.39357L392.748 2.41712L392.773 2.43904L393.432 1.68646ZM393.432 12.6465L392.773 11.8939L392.748 11.9158L392.725 11.9394L393.432 12.6465ZM367.352 13.2065V12.2065H366.352V13.2065H367.352ZM367.352 24.9665H366.352V25.9665H367.352V24.9665ZM391.832 25.6065L391.079 26.265L391.123 26.3151L391.173 26.359L391.832 25.6065ZM391.832 36.4865L392.539 37.1936L392.539 37.1936L391.832 36.4865ZM367.352 37.0465V36.0465H366.352V37.0465H367.352ZM355.272 56.1265C354.918 56.1265 354.703 56.0235 354.539 55.8594L353.125 57.2736C353.707 57.8561 354.452 58.1265 355.272 58.1265V56.1265ZM354.539 55.8594C354.375 55.6952 354.272 55.4802 354.272 55.1265H352.272C352.272 55.946 352.542 56.691 353.125 57.2736L354.539 55.8594ZM354.272 55.1265V3.12646H352.272V55.1265H354.272ZM354.272 3.12646C354.272 2.77271 354.375 2.5577 354.539 2.39357L353.125 0.979355C352.542 1.56189 352.272 2.30688 352.272 3.12646H354.272ZM354.539 2.39357C354.703 2.22944 354.918 2.12646 355.272 2.12646V0.126461C354.452 0.126461 353.707 0.396819 353.125 0.979358L354.539 2.39357ZM355.272 2.12646L391.992 2.12646V0.126461L355.272 0.126461V2.12646ZM391.992 2.12646C392.346 2.12646 392.561 2.22944 392.725 2.39357L394.139 0.979357C393.556 0.39682 392.811 0.126461 391.992 0.126461V2.12646ZM392.773 2.43904C392.975 2.61507 393.072 2.8167 393.072 3.12646L395.072 3.12646C395.072 2.26289 394.743 1.50452 394.09 0.933885L392.773 2.43904ZM393.072 3.12646V11.2065H395.072V3.12646L393.072 3.12646ZM393.072 11.2065C393.072 11.5162 392.975 11.7179 392.773 11.8939L394.09 13.399C394.743 12.8284 395.072 12.07 395.072 11.2065H393.072ZM392.725 11.9394C392.561 12.1035 392.346 12.2065 391.992 12.2065V14.2065C392.811 14.2065 393.556 13.9361 394.139 13.3536L392.725 11.9394ZM391.992 12.2065L367.352 12.2065V14.2065L391.992 14.2065V12.2065ZM366.352 13.2065V24.9665H368.352V13.2065H366.352ZM367.352 25.9665L390.392 25.9665V23.9665L367.352 23.9665V25.9665ZM390.392 25.9665C390.702 25.9665 390.903 26.0638 391.079 26.265L392.584 24.948C392.014 24.2958 391.255 23.9665 390.392 23.9665V25.9665ZM391.173 26.359C391.375 26.5351 391.472 26.7367 391.472 27.0465H393.472C393.472 26.1829 393.143 25.4245 392.49 24.8539L391.173 26.359ZM391.472 27.0465V35.0465H393.472V27.0465H391.472ZM391.472 35.0465C391.472 35.2789 391.391 35.5134 391.125 35.7794L392.539 37.1936C393.126 36.6062 393.472 35.8807 393.472 35.0465H391.472ZM391.125 35.7794C390.961 35.9435 390.746 36.0465 390.392 36.0465V38.0465C391.211 38.0465 391.956 37.7761 392.539 37.1936L391.125 35.7794ZM390.392 36.0465L367.352 36.0465V38.0465L390.392 38.0465V36.0465ZM366.352 37.0465V55.1265H368.352V37.0465H366.352ZM366.352 55.1265C366.352 55.4802 366.249 55.6952 366.085 55.8594L367.499 57.2736C368.082 56.691 368.352 55.946 368.352 55.1265H366.352ZM366.085 55.8594C365.921 56.0235 365.706 56.1265 365.352 56.1265V58.1265C366.171 58.1265 366.916 57.8561 367.499 57.2736L366.085 55.8594ZM365.352 56.1265H355.272V58.1265H365.352V56.1265ZM444.586 55.5265L444.99 54.6115L444.586 55.5265ZM436.106 48.3265L435.257 48.8552L435.261 48.8615L436.106 48.3265ZM432.746 36.1665L431.747 36.1897L431.747 36.2L431.747 36.2104L432.746 36.1665ZM432.746 22.3265L431.747 22.2821L431.747 22.2929L431.747 22.3037L432.746 22.3265ZM436.106 10.2465L435.26 9.71401L435.257 9.71772L436.106 10.2465ZM470.026 2.80646L469.611 3.71638L469.616 3.71863L470.026 2.80646ZM478.666 10.2465L477.82 10.7789L477.824 10.7851L478.666 10.2465ZM482.026 22.3265L481.027 22.3598L481.027 22.3719L482.026 22.3265ZM482.026 36.1665L481.027 36.12L481.027 36.1226L482.026 36.1665ZM478.666 48.3265L479.511 48.8615L479.515 48.8552L478.666 48.3265ZM470.186 55.5265L469.783 54.6115L470.186 55.5265ZM464.266 43.8465L463.581 43.1183L463.575 43.1234L463.57 43.1286L464.266 43.8465ZM467.146 35.6865L466.147 35.6411L466.147 35.6495L466.147 35.6579L467.146 35.6865ZM467.146 22.5665L466.147 22.609L466.147 22.614L467.146 22.5665ZM465.706 16.4865L464.812 16.9337L464.821 16.9518L464.831 16.9695L465.706 16.4865ZM462.346 12.9665L461.886 13.8542L462.346 12.9665ZM449.066 16.4865L449.942 16.9695L449.945 16.9633L449.949 16.9571L449.066 16.4865ZM447.626 22.5665L446.627 22.5239L446.627 22.5333L446.627 22.5427L447.626 22.5665ZM447.626 35.6865L446.626 35.7092L446.627 35.7192L446.627 35.7293L447.626 35.6865ZM450.506 43.8465L449.81 44.5644L450.506 43.8465ZM457.386 56.9265C452.586 56.9265 448.463 56.1438 444.99 54.6115L444.183 56.4414C447.963 58.1091 452.373 58.9265 457.386 58.9265V56.9265ZM444.99 54.6115C441.536 53.0877 438.867 50.8158 436.951 47.7914L435.261 48.8615C437.399 52.2371 440.383 54.7653 444.183 56.4414L444.99 54.6115ZM436.955 47.7977C435.041 44.7244 433.953 40.8491 433.745 36.1226L431.747 36.2104C431.966 41.1904 433.119 45.4218 435.257 48.8552L436.955 47.7977ZM433.746 36.1432C433.693 33.8576 433.666 31.572 433.666 29.2865H431.666C431.666 31.5876 431.693 33.8886 431.747 36.1897L433.746 36.1432ZM433.666 29.2865C433.666 27.0009 433.693 24.6885 433.746 22.3492L431.747 22.3037C431.693 24.6578 431.666 26.9854 431.666 29.2865H433.666ZM433.745 22.3709C433.953 17.6997 435.039 13.8501 436.955 10.7752L435.257 9.71772C433.12 13.1495 431.966 17.3533 431.747 22.2821L433.745 22.3709ZM436.953 10.7789C438.927 7.64103 441.628 5.29046 445.081 3.71637L444.251 1.89656C440.451 3.62913 437.446 6.23856 435.26 9.71401L436.953 10.7789ZM445.081 3.71637C448.552 2.13388 452.646 1.32646 457.386 1.32646V-0.673538C452.42 -0.673538 448.034 0.172381 444.251 1.89656L445.081 3.71637ZM457.386 1.32646C462.072 1.32646 466.139 2.13327 469.611 3.71637L470.441 1.89656C466.66 0.172989 462.301 -0.673538 457.386 -0.673538V1.32646ZM469.616 3.71863C473.123 5.29399 475.848 7.64478 477.82 10.7789L479.513 9.71401C477.324 6.23481 474.29 3.6256 470.436 1.89429L469.616 3.71863ZM477.824 10.7851C479.786 13.8543 480.871 17.6959 481.027 22.3598L483.026 22.2931C482.861 17.3571 481.706 13.1453 479.509 9.7078L477.824 10.7851ZM481.027 22.3719C481.133 24.7038 481.186 27.0086 481.186 29.2865H483.186C483.186 26.9776 483.133 24.6425 483.025 22.2811L481.027 22.3719ZM481.186 29.2865C481.186 31.5643 481.133 33.8421 481.027 36.12L483.025 36.2129C483.133 33.9041 483.186 31.5953 483.186 29.2865H481.186ZM481.027 36.1226C480.819 40.8491 479.732 44.7244 477.817 47.7977L479.515 48.8552C481.654 45.4218 482.806 41.1904 483.025 36.2104L481.027 36.1226ZM477.821 47.7914C475.906 50.8158 473.237 53.0877 469.783 54.6115L470.59 56.4414C474.389 54.7653 477.373 52.2371 479.511 48.8615L477.821 47.7914ZM469.783 54.6115C466.31 56.1438 462.186 56.9265 457.386 56.9265V58.9265C462.4 58.9265 466.81 58.1091 470.59 56.4414L469.783 54.6115ZM457.386 47.4065C460.43 47.4065 462.987 46.4798 464.962 44.5644L463.57 43.1286C462.025 44.6265 459.996 45.4065 457.386 45.4065V47.4065ZM464.952 44.5747C467.037 42.6121 468.035 39.5827 468.146 35.715L466.147 35.6579C466.044 39.2569 465.122 41.6675 463.581 43.1183L464.952 44.5747ZM468.145 35.7319C468.253 33.372 468.306 31.1434 468.306 29.0465H466.306C466.306 31.1095 466.253 33.3076 466.147 35.6411L468.145 35.7319ZM468.306 29.0465C468.306 26.9494 468.252 24.7735 468.145 22.5189L466.147 22.614C466.253 24.8394 466.306 26.9835 466.306 29.0465H468.306ZM468.145 22.5239C468.035 19.9235 467.534 17.73 466.582 16.0034L464.831 16.9695C465.585 18.3362 466.044 20.1961 466.147 22.609L468.145 22.5239ZM466.601 16.0393C465.716 14.2706 464.453 12.9327 462.807 12.0787L461.886 13.8542C463.119 14.4936 464.096 15.5023 464.812 16.9337L466.601 16.0393ZM462.807 12.0787C461.204 11.2479 459.389 10.8465 457.386 10.8465V12.8465C459.117 12.8465 460.608 13.1917 461.886 13.8542L462.807 12.0787ZM457.386 10.8465C455.432 10.8465 453.644 11.25 452.046 12.0787L452.967 13.8542C454.248 13.1896 455.714 12.8465 457.386 12.8465V10.8465ZM452.046 12.0787C450.405 12.9293 449.121 14.2592 448.184 16.0159L449.949 16.9571C450.718 15.5137 451.727 14.4969 452.967 13.8542L452.046 12.0787ZM448.191 16.0034C447.238 17.73 446.738 19.9235 446.627 22.5239L448.625 22.609C448.728 20.1961 449.188 18.3362 449.942 16.9695L448.191 16.0034ZM446.627 22.5427C446.573 24.79 446.546 26.9579 446.546 29.0465H448.546C448.546 26.975 448.573 24.8229 448.626 22.5903L446.627 22.5427ZM446.546 29.0465C446.546 31.1349 446.573 33.3559 446.626 35.7092L448.626 35.6637C448.573 33.3237 448.546 31.118 448.546 29.0465H446.546ZM446.627 35.7293C446.793 39.5877 447.79 42.6059 449.81 44.5644L451.202 43.1286C449.702 41.6737 448.78 39.2519 448.625 35.6436L446.627 35.7293ZM449.81 44.5644C451.785 46.4798 454.343 47.4065 457.386 47.4065V45.4065C454.777 45.4065 452.747 44.6265 451.202 43.1286L449.81 44.5644ZM510.259 55.6065L509.851 56.5191L509.859 56.5228L509.867 56.5263L510.259 55.6065ZM501.939 48.3265L501.081 48.8389L501.084 48.8451L501.939 48.3265ZM499.539 1.68646L500.246 2.39357V2.39357L499.539 1.68646ZM512.739 1.68646L512.032 2.39357V2.39357L512.739 1.68646ZM515.779 43.5265L515.051 44.2111L515.061 44.2225L515.072 44.2336L515.779 43.5265ZM529.859 43.5265L529.141 42.8303L529.141 42.8307L529.859 43.5265ZM532.979 1.68646L532.321 0.933888L532.296 0.955813L532.272 0.979355L532.979 1.68646ZM546.179 1.68646L545.472 2.39357L545.496 2.41712L545.521 2.43904L546.179 1.68646ZM543.859 48.3265L544.714 48.8451L544.718 48.8389L543.859 48.3265ZM535.539 55.6065L535.937 56.5243L535.948 56.5191L535.539 55.6065ZM522.899 56.9265C518.206 56.9265 514.13 56.1702 510.652 54.6866L509.867 56.5263C513.642 58.136 517.993 58.9265 522.899 58.9265V56.9265ZM510.668 54.6938C507.274 53.1742 504.659 50.8823 502.794 47.8079L501.084 48.8451C503.166 52.2773 506.098 54.8387 509.851 56.5191L510.668 54.6938ZM502.798 47.814C500.942 44.7039 499.979 40.7082 499.979 35.7665H497.979C497.979 40.9581 498.99 45.3357 501.081 48.8389L502.798 47.814ZM499.979 35.7665V3.12646L497.979 3.12646V35.7665H499.979ZM499.979 3.12646C499.979 2.77271 500.082 2.5577 500.246 2.39357L498.832 0.979355C498.25 1.56189 497.979 2.30688 497.979 3.12646L499.979 3.12646ZM500.246 2.39357C500.411 2.22944 500.626 2.12646 500.979 2.12646V0.126461C500.16 0.126461 499.415 0.396819 498.832 0.979358L500.246 2.39357ZM500.979 2.12646L511.299 2.12646V0.126461L500.979 0.126461V2.12646ZM511.299 2.12646C511.653 2.12646 511.868 2.22944 512.032 2.39357L513.446 0.979358C512.864 0.396819 512.119 0.126461 511.299 0.126461V2.12646ZM512.032 2.39357C512.196 2.5577 512.299 2.77271 512.299 3.12646H514.299C514.299 2.30688 514.029 1.56189 513.446 0.979355L512.032 2.39357ZM512.299 3.12646V35.6865H514.299V3.12646H512.299ZM512.299 35.6865C512.299 39.2972 513.16 42.1985 515.051 44.2111L516.508 42.8418C515.092 41.3345 514.299 39.0091 514.299 35.6865H512.299ZM515.072 44.2336C517.012 46.1735 519.667 47.0865 522.899 47.0865V45.0865C520.052 45.0865 517.96 44.2928 516.487 42.8194L515.072 44.2336ZM522.899 47.0865C526.083 47.0865 528.69 46.1706 530.578 44.2223L529.141 42.8307C527.722 44.2957 525.689 45.0865 522.899 45.0865V47.0865ZM530.577 44.2226C532.528 42.2106 533.419 39.3047 533.419 35.6865H531.419C531.419 39.0015 530.604 41.3224 529.141 42.8303L530.577 44.2226ZM533.419 35.6865V3.12646L531.419 3.12646V35.6865H533.419ZM533.419 3.12646C533.419 2.77271 533.522 2.5577 533.686 2.39357L532.272 0.979355C531.69 1.56189 531.419 2.30688 531.419 3.12646L533.419 3.12646ZM533.638 2.43904C533.895 2.21428 534.144 2.12646 534.419 2.12646V0.126461C533.628 0.126461 532.917 0.411975 532.321 0.933888L533.638 2.43904ZM534.419 2.12646L544.819 2.12646V0.126461L534.419 0.126461V2.12646ZM544.819 2.12646C545.091 2.12646 545.289 2.2099 545.472 2.39357L546.886 0.979357C546.323 0.416357 545.615 0.126461 544.819 0.126461V2.12646ZM545.521 2.43904C545.722 2.61507 545.819 2.8167 545.819 3.12646H547.819C547.819 2.26289 547.49 1.50452 546.838 0.933885L545.521 2.43904ZM545.819 3.12646V35.7665H547.819V3.12646H545.819ZM545.819 35.7665C545.819 40.7082 544.857 44.7039 543.001 47.814L544.718 48.8389C546.809 45.3357 547.819 40.9581 547.819 35.7665H545.819ZM543.004 47.8079C541.14 50.8823 538.524 53.1742 535.131 54.6938L535.948 56.5191C539.701 54.8387 542.633 52.2773 544.714 48.8451L543.004 47.8079ZM535.142 54.6887C531.721 56.1695 527.649 56.9265 522.899 56.9265V58.9265C527.857 58.9265 532.211 58.1367 535.937 56.5242L535.142 54.6887ZM565.988 56.5665L566.695 55.8594V55.8594L565.988 56.5665ZM565.988 1.68646L566.695 2.39357V2.39357L565.988 1.68646ZM605.428 5.92646L604.798 6.70322L604.804 6.70786L604.81 6.71242L605.428 5.92646ZM608.628 28.9665L607.814 28.3852L607.807 28.3964L608.628 28.9665ZM601.428 34.8865L601.021 33.9733L600.02 34.42L600.556 35.3757L601.428 34.8865ZM612.468 54.5665L613.363 54.1193L613.352 54.098L613.34 54.0772L612.468 54.5665ZM612.148 56.6465L612.855 57.3536V57.3536L612.148 56.6465ZM598.148 56.4065L597.405 57.0754L597.422 57.095L597.441 57.1136L598.148 56.4065ZM597.108 54.9665L598.003 54.5192L597.999 54.5128L597.996 54.5064L597.108 54.9665ZM587.988 37.3665L588.876 36.9064L588.596 36.3665H587.988V37.3665ZM579.748 37.3665V36.3665H578.748V37.3665H579.748ZM579.748 26.0865H578.748V27.0865H579.748V26.0865ZM594.628 24.2465L593.936 23.5245L593.929 23.5318L593.921 23.5394L594.628 24.2465ZM594.708 14.1665L593.971 14.8422L593.978 14.8504L593.986 14.8584L594.708 14.1665ZM579.748 12.2465V11.2465H578.748V12.2465H579.748ZM567.428 56.1265C567.074 56.1265 566.859 56.0235 566.695 55.8594L565.281 57.2736C565.864 57.8561 566.609 58.1265 567.428 58.1265V56.1265ZM566.695 55.8594C566.531 55.6952 566.428 55.4802 566.428 55.1265H564.428C564.428 55.946 564.698 56.691 565.281 57.2736L566.695 55.8594ZM566.428 55.1265V3.12646L564.428 3.12646V55.1265H566.428ZM566.428 3.12646C566.428 2.77271 566.531 2.5577 566.695 2.39357L565.281 0.979355C564.698 1.56189 564.428 2.30688 564.428 3.12646L566.428 3.12646ZM566.695 2.39357C566.859 2.22944 567.074 2.12646 567.428 2.12646V0.126461C566.609 0.126461 565.864 0.396819 565.281 0.979358L566.695 2.39357ZM567.428 2.12646L589.188 2.12646V0.126461L567.428 0.126461V2.12646ZM589.188 2.12646C595.92 2.12646 601.084 3.69151 604.798 6.70322L606.058 5.1497C601.879 1.76141 596.216 0.126461 589.188 0.126461V2.12646ZM604.81 6.71242C608.533 9.64092 610.428 13.8104 610.428 19.3665H612.428C612.428 13.2958 610.324 8.50533 606.046 5.14051L604.81 6.71242ZM610.428 19.3665C610.428 22.9831 609.539 25.9703 607.814 28.3852L609.442 29.5477C611.45 26.736 612.428 23.3232 612.428 19.3665H610.428ZM607.807 28.3964C606.1 30.8553 603.845 32.7122 601.021 33.9733L601.836 35.7996C604.984 34.3941 607.529 32.3043 609.45 29.5365L607.807 28.3964ZM600.556 35.3757L611.596 55.0557L613.34 54.0772L602.3 34.3972L600.556 35.3757ZM611.574 55.0137C611.687 55.2401 611.708 55.3788 611.708 55.4465H613.708C613.708 54.9808 613.569 54.5329 613.363 54.1193L611.574 55.0137ZM611.708 55.4465C611.708 55.5479 611.674 55.7064 611.441 55.9394L612.855 57.3536C613.369 56.8399 613.708 56.1984 613.708 55.4465H611.708ZM611.441 55.9394C611.321 56.0596 611.181 56.1265 610.948 56.1265V58.1265C611.675 58.1265 612.335 57.8734 612.855 57.3536L611.441 55.9394ZM610.948 56.1265H600.388V58.1265H610.948V56.1265ZM600.388 56.1265C599.511 56.1265 599.073 55.9168 598.855 55.6994L597.441 57.1136C598.184 57.8562 599.239 58.1265 600.388 58.1265V56.1265ZM598.891 55.7375C598.445 55.241 598.161 54.8361 598.003 54.5192L596.214 55.4137C596.482 55.9502 596.892 56.5053 597.405 57.0754L598.891 55.7375ZM597.996 54.5064L588.876 36.9064L587.1 37.8265L596.22 55.4265L597.996 54.5064ZM587.988 36.3665H579.748V38.3665H587.988V36.3665ZM578.748 37.3665V55.1265H580.748V37.3665H578.748ZM578.748 55.1265C578.748 55.4802 578.645 55.6952 578.481 55.8594L579.895 57.2736C580.478 56.691 580.748 55.946 580.748 55.1265H578.748ZM578.481 55.8594C578.317 56.0235 578.102 56.1265 577.748 56.1265V58.1265C578.568 58.1265 579.313 57.8561 579.895 57.2736L578.481 55.8594ZM577.748 56.1265H567.428V58.1265H577.748V56.1265ZM579.748 27.0865L589.028 27.0865V25.0865L579.748 25.0865V27.0865ZM589.028 27.0865C591.682 27.0865 593.851 26.4375 595.335 24.9536L593.921 23.5394C592.952 24.5087 591.388 25.0865 589.028 25.0865V27.0865ZM595.32 24.9685C596.836 23.5155 597.548 21.5527 597.548 19.2065H595.548C595.548 21.1269 594.98 22.5241 593.936 23.5245L595.32 24.9685ZM597.548 19.2065C597.548 16.9164 596.866 14.9726 595.43 13.4746L593.986 14.8584C595.004 15.9203 595.548 17.3365 595.548 19.2065H597.548ZM595.445 13.4907C594.004 11.9188 591.78 11.2465 589.028 11.2465V13.2465C591.503 13.2465 593.065 13.8541 593.971 14.8422L595.445 13.4907ZM589.028 11.2465L579.748 11.2465V13.2465L589.028 13.2465V11.2465ZM578.748 12.2465V26.0865H580.748V12.2465H578.748ZM654.332 56.5665L655.039 55.8594V55.8594L654.332 56.5665ZM654.332 1.68646L655.039 2.39357V2.39357L654.332 1.68646ZM666.172 1.76646L665.419 2.42497L665.463 2.47514L665.513 2.51904L666.172 1.76646ZM666.972 2.64646L666.077 3.09367L666.1 3.13898L666.127 3.18177L666.972 2.64646ZM686.492 33.4465L685.647 33.9818L687.492 36.8924V33.4465H686.492ZM687.052 1.68646L687.759 2.39357V2.39357L687.052 1.68646ZM699.532 1.68646L698.825 2.39357V2.39357L699.532 1.68646ZM699.532 56.5665L700.239 57.2736L700.263 57.25L700.284 57.225L699.532 56.5665ZM687.612 56.4865L686.859 57.145L686.881 57.17L686.905 57.1936L687.612 56.4865ZM686.892 55.6065L686.057 56.157L686.06 56.1612L686.892 55.6065ZM667.372 26.0065L668.207 25.4559L666.372 22.6736V26.0065H667.372ZM655.772 56.1265C655.418 56.1265 655.203 56.0235 655.039 55.8594L653.625 57.2736C654.207 57.8561 654.952 58.1265 655.772 58.1265V56.1265ZM655.039 55.8594C654.875 55.6952 654.772 55.4802 654.772 55.1265H652.772C652.772 55.946 653.042 56.691 653.625 57.2736L655.039 55.8594ZM654.772 55.1265V3.12646L652.772 3.12646V55.1265H654.772ZM654.772 3.12646C654.772 2.77271 654.875 2.5577 655.039 2.39357L653.625 0.979355C653.042 1.56189 652.772 2.30688 652.772 3.12646L654.772 3.12646ZM655.039 2.39357C655.203 2.22944 655.418 2.12646 655.772 2.12646V0.126461C654.952 0.126461 654.207 0.396819 653.625 0.979358L655.039 2.39357ZM655.772 2.12646L664.252 2.12646V0.126461L655.772 0.126461V2.12646ZM664.252 2.12646C665.04 2.12646 665.325 2.31678 665.419 2.42497L666.924 1.10796C666.272 0.362808 665.277 0.126461 664.252 0.126461V2.12646ZM665.513 2.51904C665.709 2.69032 665.852 2.82974 665.952 2.93913C666.059 3.05647 666.083 3.10502 666.077 3.09367L667.866 2.19925C667.663 1.79241 667.256 1.38665 666.83 1.01388L665.513 2.51904ZM666.127 3.18177L685.647 33.9818L687.337 32.9112L667.817 2.11115L666.127 3.18177ZM687.492 33.4465V3.12646L685.492 3.12646V33.4465H687.492ZM687.492 3.12646C687.492 2.77271 687.595 2.5577 687.759 2.39357L686.345 0.979355C685.762 1.56189 685.492 2.30688 685.492 3.12646L687.492 3.12646ZM687.759 2.39357C687.923 2.22944 688.138 2.12646 688.492 2.12646V0.126461C687.672 0.126461 686.927 0.39682 686.345 0.979358L687.759 2.39357ZM688.492 2.12646L698.092 2.12646V0.126461L688.492 0.126461V2.12646ZM698.092 2.12646C698.446 2.12646 698.661 2.22944 698.825 2.39357L700.239 0.97936C699.656 0.396819 698.911 0.126461 698.092 0.126461V2.12646ZM698.825 2.39357C698.989 2.5577 699.092 2.77271 699.092 3.12646H701.092C701.092 2.30688 700.822 1.56189 700.239 0.979353L698.825 2.39357ZM699.092 3.12646V55.1265H701.092V3.12646H699.092ZM699.092 55.1265C699.092 55.4015 699.004 55.6511 698.779 55.908L700.284 57.225C700.806 56.6285 701.092 55.9181 701.092 55.1265H699.092ZM698.825 55.8594C698.661 56.0235 698.446 56.1265 698.092 56.1265V58.1265C698.911 58.1265 699.656 57.8561 700.239 57.2736L698.825 55.8594ZM698.092 56.1265H689.532V58.1265H698.092V56.1265ZM689.532 56.1265C688.833 56.1265 688.492 55.9523 688.319 55.7794L686.905 57.1936C687.585 57.8739 688.524 58.1265 689.532 58.1265V56.1265ZM688.364 55.828C687.984 55.3936 687.788 55.1484 687.724 55.0518L686.06 56.1612C686.209 56.3845 686.493 56.726 686.859 57.145L688.364 55.828ZM687.727 55.0559L668.207 25.4559L666.537 26.557L686.057 56.157L687.727 55.0559ZM666.372 26.0065V55.1265H668.372V26.0065H666.372ZM666.372 55.1265C666.372 55.4802 666.269 55.6952 666.105 55.8594L667.519 57.2736C668.102 56.691 668.372 55.946 668.372 55.1265H666.372ZM666.105 55.8594C665.941 56.0235 665.726 56.1265 665.372 56.1265V58.1265C666.191 58.1265 666.936 57.8561 667.519 57.2736L666.105 55.8594ZM665.372 56.1265H655.772V58.1265H665.372V56.1265ZM719.832 56.5665L720.539 55.8594V55.8594L719.832 56.5665ZM719.832 1.68646L720.539 2.39357V2.39357L719.832 1.68646ZM759.432 1.68646L758.725 2.39357L758.748 2.41712L758.773 2.43904L759.432 1.68646ZM759.432 12.6465L758.773 11.8939L758.748 11.9158L758.725 11.9394L759.432 12.6465ZM733.352 13.2065V12.2065H732.352V13.2065H733.352ZM733.352 24.9665H732.352V25.9665H733.352V24.9665ZM757.832 25.6065L757.079 26.265L757.123 26.3151L757.173 26.359L757.832 25.6065ZM757.832 36.4865L758.539 37.1936V37.1936L757.832 36.4865ZM733.352 37.0465V36.0465H732.352V37.0465H733.352ZM721.272 56.1265C720.918 56.1265 720.703 56.0235 720.539 55.8594L719.125 57.2736C719.707 57.8561 720.452 58.1265 721.272 58.1265V56.1265ZM720.539 55.8594C720.375 55.6952 720.272 55.4802 720.272 55.1265H718.272C718.272 55.946 718.542 56.691 719.125 57.2736L720.539 55.8594ZM720.272 55.1265V3.12646L718.272 3.12646V55.1265H720.272ZM720.272 3.12646C720.272 2.77271 720.375 2.5577 720.539 2.39357L719.125 0.979355C718.542 1.56189 718.272 2.30688 718.272 3.12646L720.272 3.12646ZM720.539 2.39357C720.703 2.22944 720.918 2.12646 721.272 2.12646V0.126461C720.452 0.126461 719.707 0.396819 719.125 0.979358L720.539 2.39357ZM721.272 2.12646L757.992 2.12646V0.126461L721.272 0.126461V2.12646ZM757.992 2.12646C758.346 2.12646 758.561 2.22944 758.725 2.39357L760.139 0.979357C759.556 0.39682 758.811 0.126461 757.992 0.126461V2.12646ZM758.773 2.43904C758.975 2.61507 759.072 2.8167 759.072 3.12646H761.072C761.072 2.26289 760.743 1.50452 760.09 0.933885L758.773 2.43904ZM759.072 3.12646V11.2065L761.072 11.2065V3.12646H759.072ZM759.072 11.2065C759.072 11.5162 758.975 11.7179 758.773 11.8939L760.09 13.399C760.743 12.8284 761.072 12.07 761.072 11.2065L759.072 11.2065ZM758.725 11.9394C758.561 12.1035 758.346 12.2065 757.992 12.2065V14.2065C758.811 14.2065 759.556 13.9361 760.139 13.3536L758.725 11.9394ZM757.992 12.2065L733.352 12.2065V14.2065L757.992 14.2065V12.2065ZM732.352 13.2065V24.9665H734.352V13.2065H732.352ZM733.352 25.9665L756.392 25.9665V23.9665L733.352 23.9665V25.9665ZM756.392 25.9665C756.702 25.9665 756.903 26.0638 757.079 26.265L758.584 24.948C758.014 24.2958 757.255 23.9665 756.392 23.9665V25.9665ZM757.173 26.359C757.375 26.5351 757.472 26.7367 757.472 27.0465H759.472C759.472 26.1829 759.143 25.4245 758.49 24.8539L757.173 26.359ZM757.472 27.0465V35.0465H759.472V27.0465H757.472ZM757.472 35.0465C757.472 35.2789 757.391 35.5134 757.125 35.7794L758.539 37.1936C759.126 36.6062 759.472 35.8807 759.472 35.0465H757.472ZM757.125 35.7794C756.961 35.9435 756.746 36.0465 756.392 36.0465V38.0465C757.211 38.0465 757.956 37.7761 758.539 37.1936L757.125 35.7794ZM756.392 36.0465H733.352V38.0465H756.392V36.0465ZM732.352 37.0465V55.1265H734.352V37.0465H732.352ZM732.352 55.1265C732.352 55.4802 732.249 55.6952 732.085 55.8594L733.499 57.2736C734.082 56.691 734.352 55.946 734.352 55.1265H732.352ZM732.085 55.8594C731.921 56.0235 731.706 56.1265 731.352 56.1265V58.1265C732.171 58.1265 732.916 57.8561 733.499 57.2736L732.085 55.8594ZM731.352 56.1265L721.272 56.1265V58.1265L731.352 58.1265V56.1265ZM788.967 13.6865H789.967V12.6865H788.967V13.6865ZM773.287 13.1265L772.534 13.785L772.556 13.81L772.58 13.8336L773.287 13.1265ZM773.287 1.68646L773.994 2.39357V2.39357L773.287 1.68646ZM819.207 13.1265L819.914 13.8336L819.938 13.81L819.959 13.785L819.207 13.1265ZM803.527 13.6865V12.6865H802.527V13.6865H803.527ZM790.967 56.1265C790.613 56.1265 790.398 56.0235 790.234 55.8594L788.82 57.2736C789.402 57.8561 790.147 58.1265 790.967 58.1265V56.1265ZM790.234 55.8594C790.07 55.6952 789.967 55.4802 789.967 55.1265H787.967C787.967 55.946 788.237 56.691 788.82 57.2736L790.234 55.8594ZM789.967 55.1265V13.6865H787.967V55.1265H789.967ZM788.967 12.6865L774.727 12.6865V14.6865L788.967 14.6865V12.6865ZM774.727 12.6865C774.373 12.6865 774.158 12.5835 773.994 12.4194L772.58 13.8336C773.162 14.4161 773.907 14.6865 774.727 14.6865V12.6865ZM774.039 12.468C773.815 12.2111 773.727 11.9615 773.727 11.6865H771.727C771.727 12.4781 772.012 13.1885 772.534 13.785L774.039 12.468ZM773.727 11.6865V3.12646H771.727V11.6865H773.727ZM773.727 3.12646C773.727 2.77271 773.83 2.5577 773.994 2.39357L772.58 0.979355C771.997 1.56189 771.727 2.30688 771.727 3.12646H773.727ZM773.994 2.39357C774.158 2.22944 774.373 2.12646 774.727 2.12646V0.126461C773.907 0.126461 773.162 0.396819 772.58 0.979358L773.994 2.39357ZM774.727 2.12646L817.767 2.12646V0.126461L774.727 0.126461V2.12646ZM817.767 2.12646C818.121 2.12646 818.336 2.22944 818.5 2.39357L819.914 0.979357C819.331 0.39682 818.586 0.126461 817.767 0.126461V2.12646ZM818.5 2.39357C818.664 2.5577 818.767 2.77271 818.767 3.12646H820.767C820.767 2.30688 820.497 1.56189 819.914 0.979357L818.5 2.39357ZM818.767 3.12646V11.6865H820.767V3.12646H818.767ZM818.767 11.6865C818.767 11.9615 818.679 12.2111 818.454 12.468L819.959 13.785C820.481 13.1885 820.767 12.4781 820.767 11.6865H818.767ZM818.5 12.4194C818.336 12.5835 818.121 12.6865 817.767 12.6865V14.6865C818.586 14.6865 819.331 14.4161 819.914 13.8336L818.5 12.4194ZM817.767 12.6865L803.527 12.6865V14.6865L817.767 14.6865V12.6865ZM802.527 13.6865V55.1265H804.527V13.6865H802.527ZM802.527 55.1265C802.527 55.4802 802.424 55.6952 802.26 55.8594L803.674 57.2736C804.257 56.691 804.527 55.946 804.527 55.1265H802.527ZM802.26 55.8594C802.096 56.0235 801.881 56.1265 801.527 56.1265V58.1265C802.346 58.1265 803.091 57.8561 803.674 57.2736L802.26 55.8594ZM801.527 56.1265H790.967V58.1265H801.527V56.1265ZM842.481 55.6865L842.079 56.6021L842.091 56.607L842.481 55.6865ZM834.481 49.6865L833.677 50.2809L834.481 49.6865ZM831.601 41.8465H830.601V41.8657L830.602 41.8849L831.601 41.8465ZM832.081 40.7265L831.374 40.0194L832.081 40.7265ZM845.121 40.5665L844.54 41.3802L844.565 41.3981L844.591 41.4145L845.121 40.5665ZM846.241 41.6065L847.124 41.1359L847.087 41.068L847.041 41.0065L846.241 41.6065ZM848.001 43.9265L847.294 44.6336L847.306 44.6458L847.319 44.6575L848.001 43.9265ZM851.041 45.7665L850.677 46.6977L850.701 46.707L850.725 46.7151L851.041 45.7665ZM862.721 44.9665L862.207 44.109L862.2 44.1129L862.194 44.1168L862.721 44.9665ZM863.841 38.1665L863.157 38.896L863.17 38.9077L863.183 38.919L863.841 38.1665ZM859.681 36.0865L859.357 37.0324L859.373 37.0379L859.389 37.0428L859.681 36.0865ZM852.161 34.1665L851.955 35.145L851.962 35.1464L852.161 34.1665ZM841.761 30.8865L841.321 31.7843L841.331 31.7892L841.341 31.7939L841.761 30.8865ZM835.281 25.5265L834.449 26.0812L834.455 26.0904L835.281 25.5265ZM835.761 8.48646L834.953 7.89723L834.945 7.90844L835.761 8.48646ZM843.521 2.48646L843.122 1.56963L843.521 2.48646ZM864.961 1.76646L864.634 2.71146L864.64 2.71334L864.961 1.76646ZM872.081 5.60646L872.721 4.83824V4.83824L872.081 5.60646ZM876.401 10.7265L875.517 11.1943L875.526 11.21L875.535 11.2254L876.401 10.7265ZM878.001 15.9265H879.001V15.9108L879.001 15.8952L878.001 15.9265ZM877.521 17.1265L878.228 17.8336L878.255 17.8064L878.281 17.7773L877.521 17.1265ZM864.241 17.2865L863.794 18.1809H863.794L864.241 17.2865ZM863.121 16.2465L862.156 16.5096L862.199 16.6661L862.289 16.8012L863.121 16.2465ZM860.561 13.2065L859.999 14.0334L860.018 14.0462L860.037 14.0581L860.561 13.2065ZM849.761 13.1265L850.291 13.9745L850.3 13.9687L849.761 13.1265ZM848.881 19.6865L848.126 20.3414L848.138 20.3553L848.15 20.3688L848.881 19.6865ZM852.481 21.7665L852.147 22.7089L852.156 22.7121L852.481 21.7665ZM859.441 23.6065L859.228 24.5835L859.243 24.5867L859.258 24.5895L859.441 23.6065ZM871.201 27.0465L870.78 27.9535L870.787 27.9566L870.794 27.9596L871.201 27.0465ZM877.761 32.3265L876.917 32.862L876.923 32.8715L877.761 32.3265ZM876.721 49.8465L875.933 49.2314L875.931 49.2336L876.721 49.8465ZM868.241 55.8465L868.598 56.7805L868.241 55.8465ZM855.761 56.9265C850.513 56.9265 846.23 56.1905 842.872 54.7659L842.091 56.607C845.773 58.1691 850.343 58.9265 855.761 58.9265V56.9265ZM842.884 54.7709C839.482 53.2765 836.971 51.3731 835.285 49.0921L833.677 50.2809C835.618 52.9065 838.44 55.0031 842.079 56.602L842.884 54.7709ZM835.285 49.0921C833.579 46.7835 832.699 44.3608 832.601 41.808L830.602 41.8849C830.717 44.8788 831.757 47.6827 833.677 50.2809L835.285 49.0921ZM832.601 41.8465C832.601 41.7024 832.643 41.5787 832.788 41.4336L831.374 40.0194C830.879 40.5143 830.601 41.1372 830.601 41.8465H832.601ZM832.788 41.4336C832.995 41.2272 833.174 41.1665 833.361 41.1665V39.1665C832.588 39.1665 831.914 39.4791 831.374 40.0194L832.788 41.4336ZM833.361 41.1665H843.441V39.1665H833.361V41.1665ZM843.441 41.1665C844.099 41.1665 844.413 41.2894 844.54 41.3802L845.703 39.7527C845.083 39.3102 844.277 39.1665 843.441 39.1665V41.1665ZM844.591 41.4145C844.907 41.612 845.191 41.8724 845.441 42.2065L847.041 41.0065C846.652 40.4872 846.189 40.0543 845.651 39.7185L844.591 41.4145ZM845.359 42.0771C845.839 42.9771 846.489 43.8283 847.294 44.6336L848.708 43.2194C848.02 42.5313 847.497 41.8359 847.124 41.1359L845.359 42.0771ZM847.319 44.6575C848.228 45.506 849.356 46.1808 850.677 46.6977L851.406 44.8352C850.273 44.3921 849.374 43.8402 848.684 43.1954L847.319 44.6575ZM850.725 46.7151C852.138 47.1861 853.825 47.4065 855.761 47.4065V45.4065C853.964 45.4065 852.505 45.2002 851.357 44.8178L850.725 46.7151ZM855.761 47.4065C858.926 47.4065 861.468 46.9213 863.249 45.8161L862.194 44.1168C860.881 44.9316 858.784 45.4065 855.761 45.4065V47.4065ZM863.236 45.824C865.091 44.711 866.121 43.1018 866.121 41.0465H864.121C864.121 42.2977 863.552 43.3019 862.207 44.109L863.236 45.824ZM866.121 41.0465C866.121 39.5962 865.579 38.3579 864.5 37.4139L863.183 38.919C863.811 39.4684 864.121 40.15 864.121 41.0465H866.121ZM864.525 37.4369C863.507 36.4827 861.949 35.7338 859.973 35.1301L859.389 37.0428C861.253 37.6125 862.469 38.2503 863.157 38.896L864.525 37.4369ZM860.006 35.1405C858.081 34.4806 855.527 33.8305 852.361 33.1865L851.962 35.1464C855.089 35.7824 857.548 36.4123 859.357 37.0324L860.006 35.1405ZM852.367 33.1879C848.367 32.3457 844.976 31.2727 842.181 29.979L841.341 31.7939C844.307 33.1669 847.849 34.2806 851.955 35.145L852.367 33.1879ZM842.202 29.9887C839.501 28.6637 837.486 26.9817 836.107 24.9625L834.455 26.0904C836.063 28.4446 838.368 30.3359 841.321 31.7843L842.202 29.9887ZM836.113 24.9718C834.752 22.9301 834.041 20.3611 834.041 17.2065H832.041C832.041 20.6652 832.824 23.6428 834.449 26.0812L836.113 24.9718ZM834.041 17.2065C834.041 14.152 834.888 11.449 836.577 9.06448L834.945 7.90844C833.008 10.644 832.041 13.7542 832.041 17.2065H834.041ZM836.569 9.07563C838.317 6.6782 840.754 4.78234 843.921 3.4033L843.122 1.56963C839.675 3.07059 836.938 5.17472 834.953 7.89729L836.569 9.07563ZM843.921 3.4033C847.073 2.03031 850.851 1.32646 855.281 1.32646V-0.673538C850.645 -0.673538 846.583 0.0626144 843.122 1.56963L843.921 3.4033ZM855.281 1.32646C858.877 1.32646 861.989 1.79577 864.634 2.71145L865.288 0.821476C862.387 -0.182851 859.046 -0.673538 855.281 -0.673538V1.32646ZM864.64 2.71334C867.372 3.64135 869.632 4.86695 871.441 6.37468L872.721 4.83824C870.691 3.14598 868.204 1.81157 865.283 0.819581L864.64 2.71334ZM871.441 6.37468C873.282 7.90906 874.63 9.51815 875.517 11.1943L877.285 10.2586C876.252 8.30811 874.72 6.50386 872.721 4.83824L871.441 6.37468ZM875.535 11.2254C876.481 12.8698 876.954 14.444 877.002 15.9577L879.001 15.8952C878.941 13.9956 878.348 12.1032 877.268 10.2275L875.535 11.2254ZM877.001 15.9265C877.001 16.0785 876.952 16.2543 876.762 16.4757L878.281 17.7773C878.731 17.2519 879.001 16.6278 879.001 15.9265H877.001ZM876.814 16.4194C876.694 16.5396 876.554 16.6065 876.321 16.6065V18.6065C877.049 18.6065 877.709 18.3534 878.228 17.8336L876.814 16.4194ZM876.321 16.6065L865.761 16.6065V18.6065L876.321 18.6065V16.6065ZM865.761 16.6065C865.295 16.6065 864.948 16.5218 864.688 16.392L863.794 18.1809C864.388 18.4778 865.054 18.6065 865.761 18.6065V16.6065ZM864.688 16.392C864.447 16.2713 864.197 16.0572 863.953 15.6918L862.289 16.8012C862.686 17.3957 863.182 17.8749 863.794 18.1809L864.688 16.392ZM864.086 15.9833C863.679 14.4916 862.613 13.2952 861.085 12.3548L860.037 14.0581C861.282 14.8244 861.923 15.6546 862.156 16.5096L864.086 15.9833ZM861.124 12.3795C859.575 11.3264 857.599 10.8465 855.281 10.8465V12.8465C857.337 12.8465 858.881 13.2732 859.999 14.0334L861.124 12.3795ZM855.281 10.8465C852.83 10.8465 850.776 11.2895 849.222 12.2842L850.3 13.9687C851.413 13.2568 853.039 12.8465 855.281 12.8465V10.8465ZM849.231 12.2785C847.616 13.2878 846.841 14.8884 846.841 16.8865H848.841C848.841 15.4712 849.346 14.5651 850.291 13.9745L849.231 12.2785ZM846.841 16.8865C846.841 18.1917 847.273 19.3581 848.126 20.3414L849.637 19.0315C849.102 18.4149 848.841 17.7145 848.841 16.8865H846.841ZM848.15 20.3688C849.053 21.3361 850.424 22.0975 852.147 22.7089L852.816 20.824C851.232 20.2621 850.203 19.6368 849.612 19.0041L848.15 20.3688ZM852.156 22.7121C853.916 23.3169 856.278 23.9399 859.228 24.5835L859.654 22.6294C856.738 21.9931 854.46 21.3893 852.806 20.8208L852.156 22.7121ZM859.258 24.5895C864.065 25.4876 867.897 26.6147 870.78 27.9535L871.622 26.1395C868.532 24.7049 864.524 23.5386 859.625 22.6235L859.258 24.5895ZM870.794 27.9596C873.648 29.2338 875.66 30.8802 876.917 32.862L878.606 31.7909C877.089 29.3993 874.728 27.5258 871.609 26.1333L870.794 27.9596ZM876.923 32.8715C878.178 34.8029 878.841 37.2931 878.841 40.4065H880.841C880.841 37.0131 880.118 34.1167 878.6 31.7815L876.923 32.8715ZM878.841 40.4065C878.841 43.8275 877.865 46.7536 875.933 49.2314L877.51 50.4615C879.737 47.606 880.841 44.2388 880.841 40.4065H878.841ZM875.931 49.2336C874.035 51.6787 871.37 53.5796 867.884 54.9124L868.598 56.7805C872.366 55.34 875.354 53.2409 877.511 50.4593L875.931 49.2336ZM867.884 54.9124C864.393 56.2474 860.357 56.9265 855.761 56.9265V58.9265C860.552 58.9265 864.837 58.2188 868.598 56.7805L867.884 54.9124Z" fill="url(#paint0_linear_22_164)" fill-opacity="0.2"/>
<defs>
<linearGradient id="paint0_linear_22_164" x1="440.5" y1="-4.87354" x2="440.5" y2="65.1265" gradientUnits="userSpaceOnUse">
<stop stop-color="#C1FFF8"/>
<stop offset="1" stop-color="#C1FFF8" stop-opacity="0"/>
</linearGradient>
</defs>
</svg>
