<svg width="459" height="59" viewBox="0 0 459 59" fill="none" xmlns="http://www.w3.org/2000/svg">
<path d="M1.2 57.0832L0.440743 57.734L0.490804 57.7924L0.549209 57.8425L1.2 57.0832ZM0.8 55.1632L-0.139065 54.8195L-0.157286 54.8693L-0.170142 54.9207L0.8 55.1632ZM19.6 3.80323L20.5391 4.14697L20.5536 4.1072L20.5648 4.06635L19.6 3.80323ZM20.56 2.28323L21.2244 3.03065L21.229 3.02652L20.56 2.28323ZM36.64 2.28323L35.9329 2.99034L35.9721 3.0295L36.0153 3.0641L36.64 2.28323ZM37.68 3.80323L36.7152 4.06635L36.7262 4.10654L36.7405 4.14568L37.68 3.80323ZM56.4 55.1632L55.4605 55.5057L55.48 55.5593L55.5056 55.6104L56.4 55.1632ZM56 57.0832L56.7071 57.7903L56.7071 57.7903L56 57.0832ZM43.12 57.0032L42.3674 57.6617L42.4113 57.7119L42.4615 57.7558L43.12 57.0032ZM42.4 55.8832L43.3487 55.567L43.3418 55.5464L43.3341 55.5261L42.4 55.8832ZM39.28 47.7232L40.2141 47.3661L39.9683 46.7232H39.28V47.7232ZM17.92 47.7232V46.7232H17.2254L16.9829 47.3741L17.92 47.7232ZM14.88 55.8832L13.9429 55.5341L13.9368 55.5505L13.9313 55.567L14.88 55.8832ZM14.16 57.0032L14.8671 57.7103L14.8907 57.6868L14.9126 57.6617L14.16 57.0032ZM21.2 36.2032L20.2557 35.8742L19.7925 37.2032H21.2V36.2032ZM36.08 36.2032V37.2032H37.4976L37.0221 35.8678L36.08 36.2032ZM28.56 15.0832L29.5021 14.7478L28.5499 12.0735L27.6157 14.7542L28.56 15.0832ZM2.4 56.5632C2.24796 56.5632 2.07215 56.5137 1.85079 56.324L0.549209 57.8425C1.07451 58.2928 1.69871 58.5632 2.4 58.5632L2.4 56.5632ZM1.95926 56.4324C1.76952 56.2111 1.72 56.0353 1.72 55.8832H-0.28C-0.28 56.5845 -0.00951896 57.2087 0.440743 57.734L1.95926 56.4324ZM1.72 55.8832C1.72 55.6817 1.74031 55.5251 1.77014 55.4058L-0.170142 54.9207C-0.246976 55.228 -0.28 55.5515 -0.28 55.8832H1.72ZM1.73907 55.507L20.5391 4.14697L18.6609 3.45949L-0.139065 54.8195L1.73907 55.507ZM20.5648 4.06635C20.6708 3.67757 20.8808 3.33603 21.2244 3.03064L19.8956 1.53582C19.2792 2.08376 18.8492 2.75556 18.6352 3.54011L20.5648 4.06635ZM21.229 3.02652C21.534 2.75195 21.9929 2.56323 22.72 2.56323V0.563229C21.6338 0.563229 20.6526 0.854505 19.891 1.53993L21.229 3.02652ZM22.72 2.56323L34.56 2.56323V0.563229L22.72 0.563229V2.56323ZM34.56 2.56323C35.2934 2.56323 35.6967 2.75416 35.9329 2.99034L37.3471 1.57612C36.6233 0.852301 35.64 0.563229 34.56 0.563229V2.56323ZM36.0153 3.0641C36.4046 3.37556 36.6177 3.70873 36.7152 4.06635L38.6448 3.54011C38.4223 2.7244 37.942 2.04424 37.2647 1.50236L36.0153 3.0641ZM36.7405 4.14568L55.4605 55.5057L57.3395 54.8208L38.6195 3.46078L36.7405 4.14568ZM55.5056 55.6104C55.535 55.6693 55.56 55.7533 55.56 55.8832H57.56C57.56 55.4798 57.4784 55.0839 57.2944 54.716L55.5056 55.6104ZM55.56 55.8832C55.56 55.9847 55.5259 56.1431 55.2929 56.3761L56.7071 57.7903C57.2208 57.2767 57.56 56.6351 57.56 55.8832H55.56ZM55.2929 56.3761C55.1727 56.4963 55.0326 56.5632 54.8 56.5632V58.5632C55.5274 58.5632 56.1873 58.3101 56.7071 57.7903L55.2929 56.3761ZM54.8 56.5632H44.96V58.5632H54.8V56.5632ZM44.96 56.5632C44.3034 56.5632 43.9602 56.4096 43.7785 56.2507L42.4615 57.7558C43.1332 58.3435 44.0166 58.5632 44.96 58.5632V56.5632ZM43.8726 56.3447C43.5352 55.9591 43.3942 55.7035 43.3487 55.567L41.4513 56.1995C41.6191 56.7029 41.9581 57.194 42.3674 57.6617L43.8726 56.3447ZM43.3341 55.5261L40.2141 47.3661L38.346 48.0804L41.466 56.2404L43.3341 55.5261ZM39.28 46.7232L17.92 46.7232V48.7232L39.28 48.7232V46.7232ZM16.9829 47.3741L13.9429 55.5341L15.8171 56.2323L18.8571 48.0723L16.9829 47.3741ZM13.9313 55.567C13.8858 55.7035 13.7448 55.9591 13.4074 56.3447L14.9126 57.6617C15.3219 57.194 15.6609 56.7029 15.8287 56.1995L13.9313 55.567ZM13.4529 56.2961C13.3634 56.3856 13.059 56.5632 12.24 56.5632V58.5632C13.2344 58.5632 14.2099 58.3675 14.8671 57.7103L13.4529 56.2961ZM12.24 56.5632H2.4L2.4 58.5632H12.24V56.5632ZM21.2 37.2032L36.08 37.2032V35.2032L21.2 35.2032V37.2032ZM37.0221 35.8678L29.5021 14.7478L27.6179 15.4187L35.1379 36.5387L37.0221 35.8678ZM27.6157 14.7542L20.2557 35.8742L22.1443 36.5323L29.5043 15.4123L27.6157 14.7542ZM71.4256 57.0032L72.1327 56.2961V56.2961L71.4256 57.0032ZM71.4256 2.12323L72.1327 2.83034L72.1327 2.83034L71.4256 2.12323ZM108.546 3.48323L108.946 2.56669L108.546 3.48323ZM115.026 9.00323L114.16 9.50351L114.166 9.51497L114.173 9.52624L115.026 9.00323ZM116.066 22.5232L115.171 22.076L115.168 22.0827L115.165 22.0894L116.066 22.5232ZM113.426 26.1232L112.757 25.3799L112.747 25.3885L112.738 25.3973L113.426 26.1232ZM110.546 28.2032L110.12 27.2984L108.203 28.2003L110.118 29.107L110.546 28.2032ZM115.906 32.9232L115.089 33.5007L115.094 33.5073L115.099 33.5137L115.906 32.9232ZM115.906 49.7232L115.058 49.1932L115.055 49.1981L115.906 49.7232ZM109.026 55.5632L109.433 56.4764L109.441 56.4731L109.026 55.5632ZM85.1856 47.1632H84.1856V48.1632H85.1856V47.1632ZM101.586 45.1632L102.336 45.8239L101.586 45.1632ZM101.506 35.8832L100.768 36.559L100.776 36.5671L100.784 36.5751L101.506 35.8832ZM85.1856 33.9632V32.9632H84.1856V33.9632H85.1856ZM85.1856 23.8032H84.1856V24.8032H85.1856V23.8032ZM100.546 22.1232L99.8385 21.4161L99.8299 21.4247L99.8215 21.4336L100.546 22.1232ZM100.546 13.6432L99.8215 14.3329L99.8383 14.3505L99.856 14.3674L100.546 13.6432ZM85.1856 11.9632V10.9632H84.1856V11.9632H85.1856ZM72.8656 56.5632C72.5119 56.5632 72.2969 56.4603 72.1327 56.2961L70.7185 57.7103C71.3011 58.2929 72.046 58.5632 72.8656 58.5632V56.5632ZM72.1327 56.2961C71.9686 56.132 71.8656 55.917 71.8656 55.5632H69.8656C69.8656 56.3828 70.136 57.1278 70.7185 57.7103L72.1327 56.2961ZM71.8656 55.5632L71.8656 3.56323H69.8656L69.8656 55.5632H71.8656ZM71.8656 3.56323C71.8656 3.20948 71.9686 2.99447 72.1327 2.83034L70.7185 1.41612C70.136 1.99866 69.8656 2.74365 69.8656 3.56323H71.8656ZM72.1327 2.83034C72.2969 2.66621 72.5119 2.56323 72.8656 2.56323V0.563229C72.046 0.563229 71.3011 0.833587 70.7185 1.41613L72.1327 2.83034ZM72.8656 2.56323L97.2656 2.56323V0.563229L72.8656 0.563229V2.56323ZM97.2656 2.56323C101.77 2.56323 105.381 3.19324 108.146 4.39977L108.946 2.56669C105.844 1.21322 101.935 0.563229 97.2656 0.563229V2.56323ZM108.146 4.39977C110.915 5.60806 112.896 7.31611 114.16 9.50351L115.891 8.50295C114.382 5.89035 112.043 3.9184 108.946 2.56669L108.146 4.39977ZM114.173 9.52624C115.5 11.689 116.186 14.3006 116.186 17.4032H118.186C118.186 13.9992 117.431 11.0108 115.878 8.48021L114.173 9.52624ZM116.186 17.4032C116.186 19.1913 115.839 20.741 115.171 22.076L116.96 22.9704C117.786 21.3188 118.186 19.4551 118.186 17.4032H116.186ZM115.165 22.0894C114.521 23.4255 113.716 24.5164 112.757 25.3799L114.095 26.8665C115.268 25.8101 116.223 24.501 116.967 22.957L115.165 22.0894ZM112.738 25.3973C111.774 26.3106 110.901 26.931 110.12 27.2984L110.971 29.108C112.004 28.6222 113.051 27.8559 114.113 26.8492L112.738 25.3973ZM110.118 29.107C111.961 29.9803 113.623 31.4271 115.089 33.5007L116.722 32.3458C115.095 30.0461 113.183 28.3462 110.974 27.2995L110.118 29.107ZM115.099 33.5137C116.563 35.5147 117.306 37.8637 117.306 40.6032H119.306C119.306 37.4761 118.449 34.7051 116.713 32.3327L115.099 33.5137ZM117.306 40.6032C117.306 43.9675 116.543 46.817 115.058 49.1932L116.754 50.2532C118.468 47.5094 119.306 44.279 119.306 40.6032H117.306ZM115.055 49.1981C113.626 51.5142 111.495 53.3376 108.611 54.6534L109.441 56.4731C112.636 55.0156 115.092 52.9456 116.757 50.2483L115.055 49.1981ZM108.618 54.6501C105.795 55.9103 102.263 56.5632 97.9856 56.5632V58.5632C102.455 58.5632 106.283 57.8828 109.433 56.4764L108.618 54.6501ZM97.9856 56.5632H72.8656V58.5632H97.9856V56.5632ZM85.1856 48.1632H96.3856V46.1632H85.1856V48.1632ZM96.3856 48.1632C98.8771 48.1632 100.921 47.4319 102.336 45.8239L100.835 44.5026C99.9034 45.5612 98.4809 46.1632 96.3856 46.1632V48.1632ZM102.336 45.8239C103.663 44.3161 104.346 42.5637 104.346 40.6032H102.346C102.346 42.0561 101.855 43.3437 100.835 44.5026L102.336 45.8239ZM104.346 40.6032C104.346 38.4938 103.643 36.6681 102.228 35.1913L100.784 36.5751C101.822 37.6584 102.346 38.9793 102.346 40.6032H104.346ZM102.243 35.2075C100.829 33.6649 98.8198 32.9632 96.3856 32.9632V34.9632C98.4315 34.9632 99.8358 35.5415 100.768 36.559L102.243 35.2075ZM96.3856 32.9632H85.1856V34.9632H96.3856V32.9632ZM84.1856 33.9632L84.1856 47.1632H86.1856L86.1856 33.9632H84.1856ZM85.1856 24.8032H95.6656V22.8032H85.1856V24.8032ZM95.6656 24.8032C98.0106 24.8032 99.9473 24.2014 101.27 22.8129L99.8215 21.4336C99.0106 22.285 97.694 22.8032 95.6656 22.8032V24.8032ZM101.253 22.8303C102.582 21.5011 103.226 19.7961 103.226 17.8032H101.226C101.226 19.3303 100.749 20.5053 99.8385 21.4161L101.253 22.8303ZM103.226 17.8032C103.226 15.8542 102.575 14.1951 101.235 12.9191L99.856 14.3674C100.756 15.2247 101.226 16.3389 101.226 17.8032H103.226ZM101.27 12.9536C99.9473 11.565 98.0106 10.9632 95.6656 10.9632V12.9632C97.694 12.9632 99.0106 13.4814 99.8215 14.3329L101.27 12.9536ZM95.6656 10.9632L85.1856 10.9632V12.9632H95.6656V10.9632ZM84.1856 11.9632V23.8032H86.1856V11.9632H84.1856ZM145.274 55.9632L145.677 55.0483H145.677L145.274 55.9632ZM136.794 48.7632L135.945 49.292L135.949 49.2983L136.794 48.7632ZM133.434 36.6032L132.434 36.6265L132.434 36.6368L132.435 36.6471L133.434 36.6032ZM133.434 22.7632L132.435 22.7188L132.434 22.7297L132.434 22.7405L133.434 22.7632ZM136.794 10.6832L135.947 10.1508L135.945 10.1545L136.794 10.6832ZM170.714 3.24323L170.299 4.15315L170.304 4.1554L170.714 3.24323ZM179.354 10.6832L178.507 11.2157L178.511 11.2219L179.354 10.6832ZM182.714 22.7632L181.714 22.7965L181.715 22.8086L182.714 22.7632ZM182.714 36.6032L181.715 36.5568L181.715 36.5593L182.714 36.6032ZM179.354 48.7632L180.199 49.2983L180.203 49.292L179.354 48.7632ZM170.874 55.9632L170.47 55.0483L170.874 55.9632ZM164.954 44.2832L164.268 43.555L164.263 43.5601L164.258 43.5653L164.954 44.2832ZM167.834 36.1232L166.835 36.0778L166.834 36.0862L166.834 36.0947L167.834 36.1232ZM167.834 23.0032L166.835 23.0457L166.835 23.0508L167.834 23.0032ZM166.394 16.9232L165.499 17.3704L165.508 17.3886L165.518 17.4063L166.394 16.9232ZM163.034 13.4032L162.573 14.291L163.034 13.4032ZM149.754 16.9232L150.629 17.4063L150.633 17.4001L150.636 17.3938L149.754 16.9232ZM148.314 23.0032L147.315 22.9607L147.314 22.9701L147.314 22.9794L148.314 23.0032ZM148.314 36.1232L147.314 36.146L147.314 36.156L147.315 36.166L148.314 36.1232ZM151.194 44.2832L150.498 45.0011L151.194 44.2832ZM158.074 57.3632C153.274 57.3632 149.15 56.5805 145.677 55.0483L144.87 56.8782C148.65 58.5459 153.06 59.3632 158.074 59.3632V57.3632ZM145.677 55.0483C142.223 53.5244 139.554 51.2526 137.639 48.2282L135.949 49.2983C138.087 52.6739 141.071 55.202 144.87 56.8782L145.677 55.0483ZM137.643 48.2345C135.728 45.1612 134.641 41.2859 134.433 36.5593L132.435 36.6471C132.654 41.6272 133.806 45.8586 135.945 49.292L137.643 48.2345ZM134.433 36.58C134.38 34.2944 134.354 32.0088 134.354 29.7232H132.354C132.354 32.0243 132.381 34.3254 132.434 36.6265L134.433 36.58ZM134.354 29.7232C134.354 27.4376 134.38 25.1252 134.433 22.786L132.434 22.7405C132.381 25.0946 132.354 27.4221 132.354 29.7232H134.354ZM134.433 22.8076C134.64 18.1364 135.727 14.2869 137.643 11.212L135.945 10.1545C133.807 13.5862 132.654 17.79 132.435 22.7188L134.433 22.8076ZM137.64 11.2157C139.614 8.0778 142.316 5.72723 145.769 4.15314L144.939 2.33332C141.138 4.0659 138.133 6.67533 135.947 10.1508L137.64 11.2157ZM145.769 4.15314C149.24 2.57064 153.333 1.76323 158.074 1.76323V-0.236771C153.108 -0.236771 148.721 0.609149 144.939 2.33332L145.769 4.15314ZM158.074 1.76323C162.759 1.76323 166.826 2.57004 170.299 4.15314L171.129 2.33332C167.348 0.609757 162.988 -0.236771 158.074 -0.236771V1.76323ZM170.304 4.1554C173.81 5.73076 176.536 8.08155 178.507 11.2157L180.2 10.1508C178.012 6.67158 174.977 4.06237 171.124 2.33106L170.304 4.1554ZM178.511 11.2219C180.474 14.2911 181.559 18.1326 181.714 22.7965L183.713 22.7299C183.549 17.7938 182.394 13.582 180.196 10.1446L178.511 11.2219ZM181.715 22.8086C181.821 25.1405 181.874 27.4454 181.874 29.7232H183.874C183.874 27.4144 183.82 25.0793 183.713 22.7178L181.715 22.8086ZM181.874 29.7232C181.874 32.0011 181.821 34.2789 181.715 36.5568L183.713 36.6497C183.82 34.3409 183.874 32.0321 183.874 29.7232H181.874ZM181.715 36.5593C181.507 41.2859 180.419 45.1612 178.505 48.2345L180.203 49.292C182.341 45.8586 183.494 41.6272 183.713 36.6471L181.715 36.5593ZM178.509 48.2282C176.593 51.2526 173.924 53.5244 170.47 55.0483L171.277 56.8782C175.077 55.202 178.061 52.6739 180.199 49.2983L178.509 48.2282ZM170.47 55.0483C166.997 56.5805 162.874 57.3632 158.074 57.3632V59.3632C163.087 59.3632 167.497 58.5459 171.277 56.8782L170.47 55.0483ZM158.074 47.8432C161.117 47.8432 163.675 46.9165 165.65 45.0011L164.258 43.5653C162.713 45.0633 160.683 45.8432 158.074 45.8432V47.8432ZM165.639 45.0114C167.724 43.0489 168.723 40.0195 168.833 36.1518L166.834 36.0947C166.731 39.6936 165.81 42.1042 164.268 43.555L165.639 45.0114ZM168.833 36.1686C168.94 33.8087 168.994 31.5802 168.994 29.4832H166.994C166.994 31.5463 166.941 33.7444 166.835 36.0778L168.833 36.1686ZM168.994 29.4832C168.994 27.3862 168.94 25.2103 168.833 22.9557L166.835 23.0508C166.941 25.2762 166.994 27.4203 166.994 29.4832H168.994ZM168.833 22.9607C168.722 20.3603 168.222 18.1668 167.269 16.4402L165.518 17.4063C166.272 18.773 166.732 20.6329 166.835 23.0457L168.833 22.9607ZM167.288 16.476C166.404 14.7074 165.141 13.3694 163.494 12.5155L162.573 14.291C163.807 14.9304 164.784 15.939 165.499 17.3704L167.288 16.476ZM163.494 12.5155C161.892 11.6846 160.076 11.2832 158.074 11.2832V13.2832C159.804 13.2832 161.296 13.6285 162.573 14.291L163.494 12.5155ZM158.074 11.2832C156.119 11.2832 154.332 11.6867 152.733 12.5155L153.654 14.291C154.936 13.6264 156.401 13.2832 158.074 13.2832V11.2832ZM152.733 12.5155C151.093 13.3661 149.808 14.696 148.871 16.4526L150.636 17.3938C151.406 15.9505 152.415 14.9337 153.654 14.291L152.733 12.5155ZM148.878 16.4402C147.926 18.1668 147.425 20.3603 147.315 22.9607L149.313 23.0457C149.416 20.6329 149.875 18.773 150.629 17.4063L148.878 16.4402ZM147.314 22.9794C147.261 25.2268 147.234 27.3947 147.234 29.4832H149.234C149.234 27.4117 149.26 25.2597 149.313 23.027L147.314 22.9794ZM147.234 29.4832C147.234 31.5717 147.261 33.7927 147.314 36.146L149.313 36.1005C149.26 33.7605 149.234 31.5548 149.234 29.4832H147.234ZM147.315 36.166C147.48 40.0244 148.478 43.0426 150.498 45.0011L151.89 43.5653C150.39 42.1105 149.467 39.6887 149.313 36.0804L147.315 36.166ZM150.498 45.0011C152.473 46.9165 155.03 47.8432 158.074 47.8432V45.8432C155.464 45.8432 153.435 45.0633 151.89 43.5653L150.498 45.0011ZM210.947 56.0432L210.538 56.9559L210.546 56.9596L210.555 56.9631L210.947 56.0432ZM202.627 48.7632L201.768 49.2757L201.772 49.2818L202.627 48.7632ZM200.227 2.12323L200.934 2.83034L200.934 2.83034L200.227 2.12323ZM213.427 2.12323L212.72 2.83034V2.83034L213.427 2.12323ZM216.467 43.9632L215.738 44.6479L215.749 44.6593L215.76 44.6703L216.467 43.9632ZM230.547 43.9632L229.829 43.2671L229.829 43.2674L230.547 43.9632ZM233.667 2.12323L233.008 1.37066L232.983 1.39258L232.96 1.41612L233.667 2.12323ZM246.867 2.12323L246.16 2.83034L246.183 2.85388L246.208 2.87581L246.867 2.12323ZM244.547 48.7632L245.402 49.2819L245.406 49.2757L244.547 48.7632ZM236.227 56.0432L236.624 56.961L236.636 56.9559L236.227 56.0432ZM223.587 57.3632C218.893 57.3632 214.818 56.607 211.339 55.1234L210.555 56.9631C214.329 58.5728 218.681 59.3632 223.587 59.3632V57.3632ZM211.356 55.1305C207.962 53.611 205.347 51.319 203.482 48.2446L201.772 49.2818C203.854 52.7141 206.785 55.2755 210.538 56.9559L211.356 55.1305ZM203.486 48.2508C201.63 45.1406 200.667 41.145 200.667 36.2032L198.667 36.2032C198.667 41.3948 199.678 45.7725 201.768 49.2757L203.486 48.2508ZM200.667 36.2032V3.56323H198.667V36.2032L200.667 36.2032ZM200.667 3.56323C200.667 3.20948 200.77 2.99447 200.934 2.83034L199.52 1.41612C198.937 1.99866 198.667 2.74365 198.667 3.56323H200.667ZM200.934 2.83034C201.098 2.66621 201.313 2.56323 201.667 2.56323V0.563229C200.847 0.563229 200.102 0.833587 199.52 1.41613L200.934 2.83034ZM201.667 2.56323L211.987 2.56323V0.563229L201.667 0.563229V2.56323ZM211.987 2.56323C212.341 2.56323 212.556 2.66621 212.72 2.83034L214.134 1.41613C213.551 0.833587 212.806 0.563229 211.987 0.563229V2.56323ZM212.72 2.83034C212.884 2.99447 212.987 3.20948 212.987 3.56323H214.987C214.987 2.74365 214.717 1.99866 214.134 1.41612L212.72 2.83034ZM212.987 3.56323V36.1232H214.987V3.56323H212.987ZM212.987 36.1232C212.987 39.7339 213.847 42.6352 215.738 44.6479L217.196 43.2786C215.78 41.7712 214.987 39.4459 214.987 36.1232H212.987ZM215.76 44.6703C217.7 46.6103 220.354 47.5232 223.587 47.5232V45.5232C220.74 45.5232 218.647 44.7295 217.174 43.2561L215.76 44.6703ZM223.587 47.5232C226.771 47.5232 229.378 46.6074 231.265 44.659L229.829 43.2674C228.409 44.7324 226.377 45.5232 223.587 45.5232V47.5232ZM231.265 44.6594C233.216 42.6473 234.107 39.7415 234.107 36.1232H232.107C232.107 39.4383 231.291 41.7591 229.829 43.2671L231.265 44.6594ZM234.107 36.1232V3.56323H232.107V36.1232H234.107ZM234.107 3.56323C234.107 3.20948 234.21 2.99447 234.374 2.83034L232.96 1.41612C232.377 1.99866 232.107 2.74365 232.107 3.56323H234.107ZM234.325 2.87581C234.582 2.65105 234.832 2.56323 235.107 2.56323V0.563229C234.315 0.563229 233.605 0.848743 233.008 1.37066L234.325 2.87581ZM235.107 2.56323L245.507 2.56323V0.563229L235.107 0.563229V2.56323ZM245.507 2.56323C245.778 2.56323 245.976 2.64667 246.16 2.83034L247.574 1.41612C247.011 0.853125 246.302 0.563229 245.507 0.563229V2.56323ZM246.208 2.87581C246.41 3.05184 246.507 3.25347 246.507 3.56323H248.507C248.507 2.69966 248.178 1.94129 247.525 1.37065L246.208 2.87581ZM246.507 3.56323V36.2032H248.507V3.56323H246.507ZM246.507 36.2032C246.507 41.145 245.544 45.1406 243.688 48.2508L245.406 49.2757C247.496 45.7725 248.507 41.3948 248.507 36.2032H246.507ZM243.692 48.2446C241.827 51.319 239.212 53.611 235.818 55.1305L236.636 56.9559C240.389 55.2755 243.32 52.7141 245.402 49.2818L243.692 48.2446ZM235.83 55.1255C232.409 56.6063 228.336 57.3632 223.587 57.3632V59.3632C228.544 59.3632 232.899 58.5735 236.624 56.961L235.83 55.1255ZM278.436 14.1232H279.436V13.1232H278.436V14.1232ZM262.756 13.5632L262.003 14.2217L262.025 14.2468L262.049 14.2703L262.756 13.5632ZM262.756 2.12323L263.463 2.83034V2.83034L262.756 2.12323ZM308.676 13.5632L309.383 14.2703L309.406 14.2468L309.428 14.2217L308.676 13.5632ZM292.996 14.1232V13.1232H291.996V14.1232H292.996ZM280.436 56.5632C280.082 56.5632 279.867 56.4603 279.703 56.2961L278.289 57.7103C278.871 58.2929 279.616 58.5632 280.436 58.5632V56.5632ZM279.703 56.2961C279.539 56.132 279.436 55.917 279.436 55.5632H277.436C277.436 56.3828 277.706 57.1278 278.289 57.7103L279.703 56.2961ZM279.436 55.5632V14.1232H277.436V55.5632H279.436ZM278.436 13.1232L264.196 13.1232V15.1232L278.436 15.1232V13.1232ZM264.196 13.1232C263.842 13.1232 263.627 13.0203 263.463 12.8561L262.049 14.2703C262.631 14.8529 263.376 15.1232 264.196 15.1232V13.1232ZM263.508 12.9047C263.283 12.6479 263.196 12.3982 263.196 12.1232H261.196C261.196 12.9149 261.481 13.6253 262.003 14.2217L263.508 12.9047ZM263.196 12.1232V3.56323L261.196 3.56323V12.1232H263.196ZM263.196 3.56323C263.196 3.20948 263.299 2.99447 263.463 2.83034L262.049 1.41612C261.466 1.99866 261.196 2.74365 261.196 3.56323L263.196 3.56323ZM263.463 2.83034C263.627 2.66621 263.842 2.56323 264.196 2.56323V0.563229C263.376 0.563229 262.631 0.833587 262.049 1.41613L263.463 2.83034ZM264.196 2.56323L307.236 2.56323V0.563229L264.196 0.563229V2.56323ZM307.236 2.56323C307.589 2.56323 307.804 2.6662 307.969 2.83034L309.383 1.41612C308.8 0.833587 308.055 0.563229 307.236 0.563229V2.56323ZM307.969 2.83034C308.133 2.99446 308.236 3.20948 308.236 3.56323H310.236C310.236 2.74365 309.965 1.99866 309.383 1.41612L307.969 2.83034ZM308.236 3.56323V12.1232H310.236V3.56323H308.236ZM308.236 12.1232C308.236 12.3982 308.148 12.6479 307.923 12.9047L309.428 14.2217C309.95 13.6253 310.236 12.9149 310.236 12.1232H308.236ZM307.969 12.8561C307.804 13.0203 307.589 13.1232 307.236 13.1232V15.1232C308.055 15.1232 308.8 14.8529 309.383 14.2703L307.969 12.8561ZM307.236 13.1232L292.996 13.1232V15.1232L307.236 15.1232V13.1232ZM291.996 14.1232V55.5632H293.996V14.1232H291.996ZM291.996 55.5632C291.996 55.917 291.893 56.132 291.729 56.2961L293.143 57.7103C293.725 57.1278 293.996 56.3828 293.996 55.5632H291.996ZM291.729 56.2961C291.564 56.4603 291.349 56.5632 290.996 56.5632V58.5632C291.815 58.5632 292.56 58.2929 293.143 57.7103L291.729 56.2961ZM290.996 56.5632L280.436 56.5632V58.5632L290.996 58.5632V56.5632ZM358.462 56.0432L358.054 56.9559L358.062 56.9596L358.07 56.9631L358.462 56.0432ZM350.142 48.7632L349.284 49.2757L349.287 49.2818L350.142 48.7632ZM347.742 2.12323L348.45 2.83034V2.83034L347.742 2.12323ZM360.943 2.12323L360.235 2.83034V2.83034L360.943 2.12323ZM363.983 43.9632L363.254 44.6479L363.264 44.6593L363.275 44.6703L363.983 43.9632ZM378.062 43.9632L377.345 43.2671L377.344 43.2674L378.062 43.9632ZM381.182 2.12323L380.524 1.37066L380.499 1.39258L380.475 1.41612L381.182 2.12323ZM394.383 2.12323L393.675 2.83034L393.699 2.85388L393.724 2.87581L394.383 2.12323ZM392.062 48.7632L392.918 49.2819L392.921 49.2757L392.062 48.7632ZM383.742 56.0432L384.14 56.961L384.151 56.9559L383.742 56.0432ZM371.103 57.3632C366.409 57.3632 362.334 56.607 358.855 55.1234L358.07 56.9631C361.845 58.5728 366.196 59.3632 371.103 59.3632V57.3632ZM358.871 55.1305C355.477 53.611 352.862 51.319 350.997 48.2446L349.287 49.2818C351.369 52.7141 354.301 55.2755 358.054 56.9559L358.871 55.1305ZM351.001 48.2508C349.145 45.1406 348.182 41.145 348.182 36.2032H346.182C346.182 41.3948 347.193 45.7725 349.284 49.2757L351.001 48.2508ZM348.182 36.2032V3.56323H346.182V36.2032H348.182ZM348.182 3.56323C348.182 3.20948 348.285 2.99447 348.45 2.83034L347.035 1.41612C346.453 1.99866 346.182 2.74365 346.182 3.56323H348.182ZM348.45 2.83034C348.614 2.66621 348.829 2.56323 349.182 2.56323V0.563229C348.363 0.563229 347.618 0.833587 347.035 1.41613L348.45 2.83034ZM349.182 2.56323L359.503 2.56323V0.563229L349.182 0.563229V2.56323ZM359.503 2.56323C359.856 2.56323 360.071 2.66621 360.235 2.83034L361.65 1.41613C361.067 0.833587 360.322 0.563229 359.503 0.563229V2.56323ZM360.235 2.83034C360.4 2.99447 360.503 3.20948 360.503 3.56323L362.503 3.56323C362.503 2.74365 362.232 1.99866 361.65 1.41612L360.235 2.83034ZM360.503 3.56323V36.1232H362.503V3.56323L360.503 3.56323ZM360.503 36.1232C360.503 39.7339 361.363 42.6352 363.254 44.6479L364.711 43.2786C363.295 41.7712 362.503 39.4459 362.503 36.1232H360.503ZM363.275 44.6703C365.215 46.6103 367.87 47.5232 371.103 47.5232V45.5232C368.255 45.5232 366.163 44.7295 364.69 43.2561L363.275 44.6703ZM371.103 47.5232C374.286 47.5232 376.893 46.6074 378.781 44.659L377.344 43.2674C375.925 44.7324 373.892 45.5232 371.103 45.5232V47.5232ZM378.78 44.6594C380.731 42.6473 381.622 39.7415 381.622 36.1232H379.622C379.622 39.4383 378.807 41.7591 377.345 43.2671L378.78 44.6594ZM381.622 36.1232V3.56323H379.622V36.1232H381.622ZM381.622 3.56323C381.622 3.20948 381.725 2.99447 381.89 2.83034L380.475 1.41612C379.893 1.99866 379.622 2.74365 379.622 3.56323H381.622ZM381.841 2.87581C382.098 2.65105 382.347 2.56323 382.622 2.56323V0.563229C381.831 0.563229 381.12 0.848743 380.524 1.37066L381.841 2.87581ZM382.622 2.56323L393.022 2.56323V0.563229L382.622 0.563229V2.56323ZM393.022 2.56323C393.294 2.56323 393.492 2.64667 393.675 2.83034L395.09 1.41612C394.527 0.853125 393.818 0.563229 393.022 0.563229V2.56323ZM393.724 2.87581C393.925 3.05184 394.022 3.25347 394.022 3.56323L396.022 3.56323C396.022 2.69966 395.693 1.94129 395.041 1.37065L393.724 2.87581ZM394.022 3.56323V36.2032H396.022V3.56323L394.022 3.56323ZM394.022 36.2032C394.022 41.145 393.06 45.1406 391.204 48.2508L392.921 49.2757C395.012 45.7725 396.022 41.3948 396.022 36.2032H394.022ZM391.207 48.2446C389.343 51.319 386.728 53.611 383.334 55.1305L384.151 56.9559C387.904 55.2755 390.836 52.7141 392.918 49.2818L391.207 48.2446ZM383.345 55.1255C379.924 56.6063 375.852 57.3632 371.103 57.3632V59.3632C376.06 59.3632 380.414 58.5735 384.14 56.961L383.345 55.1255ZM421.231 56.1232L420.829 57.0388L420.841 57.0438L421.231 56.1232ZM413.231 50.1232L412.427 50.7176L413.231 50.1232ZM410.351 42.2832H409.351V42.3025L409.352 42.3217L410.351 42.2832ZM410.831 41.1632L410.124 40.4561L410.831 41.1632ZM423.871 41.0032L423.29 41.817L423.315 41.8349L423.341 41.8512L423.871 41.0032ZM424.991 42.0432L425.874 41.5726L425.837 41.5048L425.791 41.4432L424.991 42.0432ZM426.751 44.3632L426.044 45.0703L426.056 45.0825L426.069 45.0943L426.751 44.3632ZM429.791 46.2032L429.427 47.1345L429.451 47.1438L429.475 47.1519L429.791 46.2032ZM441.471 45.4032L440.957 44.5457L440.95 44.5496L440.944 44.5536L441.471 45.4032ZM442.591 38.6032L441.907 39.3328L441.92 39.3445L441.933 39.3558L442.591 38.6032ZM438.431 36.5232L438.107 37.4692L438.123 37.4747L438.139 37.4796L438.431 36.5232ZM430.911 34.6032L430.705 35.5818L430.712 35.5832L430.911 34.6032ZM420.511 31.3232L420.071 32.221L420.081 32.226L420.091 32.2307L420.511 31.3232ZM414.031 25.9632L413.199 26.518L413.205 26.5272L414.031 25.9632ZM414.511 8.92323L413.703 8.334L413.695 8.34521L414.511 8.92323ZM422.271 2.92323L421.872 2.0064L422.271 2.92323ZM443.711 2.20323L443.384 3.14823L443.39 3.15011L443.711 2.20323ZM450.831 6.04323L451.471 5.27501V5.27501L450.831 6.04323ZM455.151 11.1632L454.267 11.6311L454.276 11.6468L454.285 11.6622L455.151 11.1632ZM456.751 16.3632H457.751V16.3476L457.751 16.332L456.751 16.3632ZM456.271 17.5632L456.978 18.2703L457.006 18.2432L457.031 18.214L456.271 17.5632ZM442.991 17.7232L442.544 18.6177L442.991 17.7232ZM441.871 16.6832L440.906 16.9463L440.949 17.1029L441.039 17.2379L441.871 16.6832ZM439.311 13.6432L438.749 14.4702L438.768 14.483L438.787 14.4949L439.311 13.6432ZM428.511 13.5632L429.041 14.4113L429.05 14.4055L428.511 13.5632ZM427.631 20.1232L426.876 20.7782L426.888 20.7921L426.9 20.8055L427.631 20.1232ZM431.231 22.2032L430.897 23.1457L430.906 23.1489L431.231 22.2032ZM438.191 24.0432L437.978 25.0202L437.993 25.0235L438.008 25.0262L438.191 24.0432ZM449.951 27.4832L449.53 28.3902L449.537 28.3934L449.544 28.3964L449.951 27.4832ZM456.511 32.7632L455.667 33.2988L455.673 33.3082L456.511 32.7632ZM455.471 50.2832L454.683 49.6682L454.681 49.6704L455.471 50.2832ZM446.991 56.2832L447.348 57.2173L446.991 56.2832ZM434.511 57.3632C429.263 57.3632 424.98 56.6272 421.622 55.2027L420.841 57.0438C424.523 58.6059 429.093 59.3632 434.511 59.3632V57.3632ZM421.634 55.2077C418.232 53.7132 415.721 51.8099 414.035 49.5288L412.427 50.7176C414.368 53.3433 417.19 55.4399 420.829 57.0388L421.634 55.2077ZM414.035 49.5288C412.329 47.2203 411.449 44.7976 411.351 42.2448L409.352 42.3217C409.467 45.3155 410.507 48.1195 412.427 50.7176L414.035 49.5288ZM411.351 42.2832C411.351 42.1391 411.393 42.0154 411.538 41.8703L410.124 40.4561C409.629 40.951 409.351 41.574 409.351 42.2832H411.351ZM411.538 41.8703C411.745 41.6639 411.924 41.6032 412.111 41.6032V39.6032C411.338 39.6032 410.664 39.9158 410.124 40.4561L411.538 41.8703ZM412.111 41.6032L422.191 41.6032V39.6032L412.111 39.6032V41.6032ZM422.191 41.6032C422.849 41.6032 423.163 41.7261 423.29 41.817L424.452 40.1895C423.833 39.747 423.027 39.6032 422.191 39.6032V41.6032ZM423.341 41.8512C423.657 42.0487 423.941 42.3092 424.191 42.6432L425.791 41.4432C425.402 40.9239 424.939 40.4911 424.401 40.1552L423.341 41.8512ZM424.109 42.5138C424.589 43.4138 425.239 44.2651 426.044 45.0703L427.458 43.6561C426.77 42.968 426.247 42.2726 425.874 41.5726L424.109 42.5138ZM426.069 45.0943C426.978 45.9428 428.106 46.6176 429.427 47.1345L430.156 45.272C429.023 44.8289 428.124 44.277 427.434 43.6322L426.069 45.0943ZM429.475 47.1519C430.888 47.6228 432.575 47.8432 434.511 47.8432V45.8432C432.714 45.8432 431.255 45.637 430.107 45.2545L429.475 47.1519ZM434.511 47.8432C437.676 47.8432 440.218 47.358 441.999 46.2529L440.944 44.5536C439.631 45.3684 437.534 45.8432 434.511 45.8432V47.8432ZM441.986 46.2607C443.841 45.1478 444.871 43.5386 444.871 41.4832H442.871C442.871 42.7345 442.302 43.7387 440.957 44.5457L441.986 46.2607ZM444.871 41.4832C444.871 40.033 444.329 38.7946 443.25 37.8507L441.933 39.3558C442.561 39.9052 442.871 40.5868 442.871 41.4832H444.871ZM443.275 37.8737C442.257 36.9194 440.699 36.1705 438.723 35.5669L438.139 37.4796C440.003 38.0493 441.219 38.687 441.907 39.3328L443.275 37.8737ZM438.756 35.5773C436.831 34.9174 434.277 34.2673 431.111 33.6233L430.712 35.5832C433.839 36.2192 436.298 36.8491 438.107 37.4692L438.756 35.5773ZM431.117 33.6247C427.117 32.7825 423.726 31.7095 420.931 30.4158L420.091 32.2307C423.057 33.6036 426.599 34.7173 430.705 35.5818L431.117 33.6247ZM420.952 30.4254C418.251 29.1005 416.236 27.4184 414.857 25.3993L413.205 26.5272C414.813 28.8814 417.118 30.7727 420.071 32.221L420.952 30.4254ZM414.863 25.4085C413.502 23.3669 412.791 20.7979 412.791 17.6432H410.791C410.791 21.1019 411.574 24.0796 413.199 26.5179L414.863 25.4085ZM412.791 17.6432C412.791 14.5888 413.638 11.8857 415.327 9.50125L413.695 8.34521C411.758 11.0807 410.791 14.191 410.791 17.6432H412.791ZM415.319 9.5124C417.067 7.11497 419.504 5.2191 422.671 3.84007L421.872 2.0064C418.425 3.50736 415.688 5.61149 413.703 8.33406L415.319 9.5124ZM422.671 3.84007C425.823 2.46708 429.601 1.76323 434.031 1.76323V-0.236771C429.395 -0.236771 425.333 0.499382 421.872 2.0064L422.671 3.84007ZM434.031 1.76323C437.627 1.76323 440.739 2.23254 443.384 3.14822L444.038 1.25824C441.137 0.253917 437.796 -0.236771 434.031 -0.236771V1.76323ZM443.39 3.15011C446.122 4.07812 448.382 5.30372 450.191 6.81145L451.471 5.27501C449.441 3.58274 446.954 2.24834 444.033 1.25635L443.39 3.15011ZM450.191 6.81145C452.032 8.34583 453.38 9.95492 454.267 11.6311L456.035 10.6953C455.002 8.74487 453.47 6.94063 451.471 5.27501L450.191 6.81145ZM454.285 11.6622C455.231 13.3065 455.704 14.8808 455.752 16.3945L457.751 16.332C457.691 14.4324 457.098 12.5399 456.018 10.6643L454.285 11.6622ZM455.751 16.3632C455.751 16.5153 455.702 16.6911 455.512 16.9124L457.031 18.214C457.481 17.6887 457.751 17.0645 457.751 16.3632H455.751ZM455.564 16.8561C455.444 16.9763 455.304 17.0432 455.071 17.0432V19.0432C455.799 19.0432 456.459 18.7901 456.978 18.2703L455.564 16.8561ZM455.071 17.0432L444.511 17.0432V19.0432L455.071 19.0432V17.0432ZM444.511 17.0432C444.045 17.0432 443.698 16.9586 443.438 16.8288L442.544 18.6177C443.138 18.9146 443.804 19.0432 444.511 19.0432V17.0432ZM443.438 16.8288C443.197 16.7081 442.947 16.494 442.703 16.1285L441.039 17.2379C441.436 17.8325 441.932 18.3117 442.544 18.6177L443.438 16.8288ZM442.836 16.4201C442.429 14.9284 441.363 13.7319 439.835 12.7916L438.787 14.4949C440.032 15.2612 440.673 16.0914 440.906 16.9463L442.836 16.4201ZM439.874 12.8163C438.325 11.7632 436.349 11.2832 434.031 11.2832V13.2832C436.087 13.2832 437.631 13.71 438.749 14.4702L439.874 12.8163ZM434.031 11.2832C431.58 11.2832 429.526 11.7262 427.972 12.721L429.05 14.4055C430.163 13.6935 431.789 13.2832 434.031 13.2832V11.2832ZM427.981 12.7152C426.366 13.7246 425.591 15.3251 425.591 17.3232H427.591C427.591 15.908 428.096 15.0019 429.041 14.4112L427.981 12.7152ZM425.591 17.3232C425.591 18.6285 426.023 19.7948 426.876 20.7782L428.387 19.4683C427.852 18.8516 427.591 18.1513 427.591 17.3232H425.591ZM426.9 20.8055C427.803 21.7729 429.174 22.5343 430.897 23.1457L431.566 21.2608C429.982 20.6989 428.953 20.0735 428.362 19.4409L426.9 20.8055ZM430.906 23.1489C432.666 23.7537 435.028 24.3766 437.978 25.0202L438.404 23.0662C435.488 22.4298 433.21 21.8261 431.556 21.2575L430.906 23.1489ZM438.008 25.0262C442.815 25.9244 446.647 27.0515 449.53 28.3902L450.372 26.5762C447.282 25.1416 443.274 23.9754 438.375 23.0602L438.008 25.0262ZM449.544 28.3964C452.398 29.6706 454.41 31.317 455.667 33.2988L457.356 32.2277C455.839 29.8361 453.478 27.9625 450.359 26.5701L449.544 28.3964ZM455.673 33.3082C456.928 35.2397 457.591 37.7299 457.591 40.8432H459.591C459.591 37.4499 458.868 34.5534 457.35 32.2182L455.673 33.3082ZM457.591 40.8432C457.591 44.2643 456.615 47.1904 454.683 49.6682L456.26 50.8983C458.487 48.0428 459.591 44.6755 459.591 40.8432H457.591ZM454.681 49.6704C452.785 52.1155 450.12 54.0164 446.634 55.3492L447.348 57.2173C451.116 55.7767 454.104 53.6776 456.261 50.8961L454.681 49.6704ZM446.634 55.3492C443.143 56.6842 439.107 57.3632 434.511 57.3632V59.3632C439.302 59.3632 443.587 58.6556 447.348 57.2173L446.634 55.3492Z" fill="url(#paint0_linear_22_160)" fill-opacity="0.2"/>
<defs>
<linearGradient id="paint0_linear_22_160" x1="230.5" y1="-4.43677" x2="230.5" y2="65.5632" gradientUnits="userSpaceOnUse">
<stop stop-color="#C1FFF8"/>
<stop offset="1" stop-color="#C1FFF8" stop-opacity="0"/>
</linearGradient>
</defs>
</svg>
