<svg width="124" height="125" viewBox="0 0 124 125" fill="none" xmlns="http://www.w3.org/2000/svg">
<path d="M113.667 44.0433C113.667 60.8866 101.267 74.785 85.1467 77.2133V76.9033C83.545 56.8566 67.27 40.5816 47.0683 38.98H46.9133C49.3417 22.86 63.24 10.46 80.0833 10.46C98.6317 10.46 113.667 25.495 113.667 44.0433Z" fill="#C1FFF8"/>
<path d="M77.3967 77.5231C76.105 61.1448 62.9817 48.0215 46.6034 46.7298C45.725 46.6781 44.795 46.6265 43.9167 46.6265C25.3684 46.6265 10.3334 61.6615 10.3334 80.2098C10.3334 98.7581 25.3684 113.793 43.9167 113.793C62.465 113.793 77.5 98.7581 77.5 80.2098C77.5 79.3315 77.4484 78.4015 77.3967 77.5231ZM48.4634 84.7565L43.9167 93.1265L39.37 84.7565L31 80.2098L39.37 75.6631L43.9167 67.2931L48.4634 75.6631L56.8334 80.2098L48.4634 84.7565Z" fill="#C1FFF8"/>
</svg>
