<svg width="88" height="89" viewBox="0 0 88 89" fill="none" xmlns="http://www.w3.org/2000/svg">
<g filter="url(#filter0_d_22_249)">
<rect x="4" y="0.126465" width="80" height="80" rx="10" fill="#171B3F"/>
<path d="M57.7958 27.7966C57.7851 27.7759 57.7675 27.7597 57.7459 27.7509C55.2573 26.6091 52.6311 25.7949 49.9331 25.3287C49.9086 25.3241 49.8833 25.3274 49.8607 25.3381C49.8382 25.3487 49.8196 25.3662 49.8076 25.3881C49.45 26.0371 49.1253 26.7038 48.8349 27.3856C45.9266 26.9441 42.9682 26.9441 40.0599 27.3856C39.7676 26.7021 39.4377 26.0352 39.0719 25.3881C39.0594 25.3667 39.0407 25.3496 39.0183 25.339C38.9959 25.3284 38.9708 25.3248 38.9463 25.3287C36.248 25.7939 33.6216 26.6081 31.1333 27.7509C31.112 27.76 31.0941 27.7754 31.0819 27.795C26.1058 35.2261 24.7427 42.4745 25.4114 49.6332C25.4133 49.6507 25.4187 49.6677 25.4273 49.6831C25.4359 49.6985 25.4474 49.7121 25.4614 49.7229C28.3589 51.8683 31.5998 53.5059 35.0458 54.5658C35.07 54.5731 35.096 54.5728 35.12 54.5649C35.1441 54.557 35.1652 54.5419 35.1804 54.5217C35.9206 53.5146 36.5764 52.4482 37.1412 51.3334C37.149 51.3181 37.1534 51.3013 37.1542 51.2842C37.155 51.267 37.1522 51.2499 37.1459 51.234C37.1396 51.218 37.13 51.2036 37.1177 51.1916C37.1055 51.1796 37.0908 51.1703 37.0747 51.1644C36.0405 50.7687 35.0393 50.2917 34.0805 49.7379C34.0631 49.7277 34.0485 49.7133 34.0379 49.6961C34.0274 49.6788 34.0212 49.6593 34.02 49.6391C34.0188 49.6189 34.0226 49.5988 34.0311 49.5804C34.0395 49.5621 34.0523 49.5461 34.0684 49.5339C34.2696 49.3831 34.4709 49.2263 34.6631 49.068C34.6801 49.0539 34.7008 49.0449 34.7227 49.042C34.7446 49.039 34.7669 49.0422 34.7871 49.0513C41.0687 51.9181 47.8694 51.9181 54.0767 49.0513C54.0969 49.0416 54.1194 49.038 54.1417 49.0407C54.1639 49.0434 54.1849 49.0523 54.2023 49.0665C54.3944 49.2248 54.5957 49.3831 54.7984 49.5339C54.8146 49.546 54.8275 49.5619 54.8361 49.5801C54.8447 49.5984 54.8486 49.6185 54.8475 49.6387C54.8465 49.6589 54.8405 49.6785 54.8301 49.6958C54.8197 49.7131 54.8051 49.7276 54.7878 49.7379C53.8312 50.2964 52.8291 50.7731 51.7922 51.1629C51.7761 51.1691 51.7615 51.1785 51.7493 51.1907C51.7371 51.2029 51.7276 51.2175 51.7214 51.2336C51.7153 51.2496 51.7126 51.2668 51.7135 51.2841C51.7145 51.3013 51.719 51.3181 51.7269 51.3334C52.3012 52.442 52.956 53.5071 53.6862 54.5199C53.701 54.5407 53.722 54.5563 53.7461 54.5645C53.7703 54.5727 53.7964 54.5731 53.8208 54.5656C57.273 53.5093 60.5196 51.8715 63.4207 49.7229C63.4349 49.7126 63.4466 49.6994 63.4552 49.6842C63.4638 49.669 63.4691 49.6521 63.4707 49.6347C64.2712 41.3585 62.1304 34.1696 57.7958 27.7966ZM38.0793 45.2743C36.1881 45.2743 34.6298 43.5387 34.6298 41.4073C34.6298 39.2758 36.1578 37.5402 38.0793 37.5402C40.0158 37.5402 41.559 39.2909 41.5288 41.4072C41.5288 43.5387 40.0006 45.2743 38.0793 45.2743ZM50.8333 45.2743C48.9421 45.2743 47.3838 43.5387 47.3838 41.4073C47.3838 39.2758 48.9119 37.5402 50.8333 37.5402C52.7699 37.5402 54.313 39.2909 54.2828 41.4072C54.2828 43.5387 52.7699 45.2743 50.8333 45.2743Z" fill="#C1FFF8"/>
</g>
<defs>
<filter id="filter0_d_22_249" x="0" y="0.126465" width="88" height="88" filterUnits="userSpaceOnUse" color-interpolation-filters="sRGB">
<feFlood flood-opacity="0" result="BackgroundImageFix"/>
<feColorMatrix in="SourceAlpha" type="matrix" values="0 0 0 0 0 0 0 0 0 0 0 0 0 0 0 0 0 0 127 0" result="hardAlpha"/>
<feOffset dy="4"/>
<feGaussianBlur stdDeviation="2"/>
<feComposite in2="hardAlpha" operator="out"/>
<feColorMatrix type="matrix" values="0 0 0 0 0 0 0 0 0 0 0 0 0 0 0 0 0 0 0.25 0"/>
<feBlend mode="normal" in2="BackgroundImageFix" result="effect1_dropShadow_22_249"/>
<feBlend mode="normal" in="SourceGraphic" in2="effect1_dropShadow_22_249" result="shape"/>
</filter>
</defs>
</svg>
