<svg width="80" height="81" viewBox="0 0 80 81" fill="none" xmlns="http://www.w3.org/2000/svg">
<rect y="0.126465" width="80" height="80" rx="10" fill="#171B3F"/>
<path d="M24.5096 30.7534C24.5615 30.2406 24.366 29.7335 23.983 29.3885L20.0821 24.6893V23.9873H32.1941L41.5562 44.5194L49.7871 23.9873L61.3333 23.9874V24.6893L57.9981 27.887C57.7105 28.1061 57.5679 28.4665 57.6276 28.8231V52.3188C57.5679 52.6753 57.7105 53.0357 57.9981 53.2548L61.2552 56.4526V57.1545H44.872V56.4526L48.246 53.1767C48.5777 52.8453 48.5777 52.7477 48.5777 52.2409V33.2492L39.1962 57.0764H37.9285L27.006 33.2492V49.2186C26.9151 49.8899 27.138 50.566 27.6107 51.0514L31.9993 56.3744V57.0764H19.5555V56.3744L23.9442 51.0514C24.4133 50.5651 24.6231 49.8845 24.5096 49.2186V30.7534Z" fill="#C1FFF8"/>
</svg>
