<svg width="635" height="58" viewBox="0 0 635 58" fill="none" xmlns="http://www.w3.org/2000/svg">
<path d="M1.2 56.6465L0.440743 57.2973L0.490804 57.3557L0.549209 57.4057L1.2 56.6465ZM0.8 54.7265L-0.139065 54.3827L-0.157286 54.4325L-0.170142 54.4839L0.8 54.7265ZM19.6 3.36646L20.5391 3.7102L20.5536 3.67043L20.5648 3.62958L19.6 3.36646ZM20.56 1.84646L21.2244 2.59388L21.229 2.58976L20.56 1.84646ZM36.64 1.84646L35.9329 2.55357L35.9721 2.59273L36.0153 2.62733L36.64 1.84646ZM37.68 3.36646L36.7152 3.62958L36.7262 3.66977L36.7405 3.70891L37.68 3.36646ZM56.4 54.7265L55.4605 55.0689L55.48 55.1226L55.5056 55.1737L56.4 54.7265ZM56 56.6465L56.7071 57.3536L56.7071 57.3536L56 56.6465ZM43.12 56.5665L42.3674 57.225L42.4113 57.2751L42.4615 57.319L43.12 56.5665ZM42.4 55.4465L43.3487 55.1302L43.3418 55.1096L43.3341 55.0893L42.4 55.4465ZM39.28 47.2865L40.2141 46.9293L39.9683 46.2865H39.28V47.2865ZM17.92 47.2865V46.2865H17.2254L16.9829 46.9374L17.92 47.2865ZM14.88 55.4465L13.9429 55.0974L13.9368 55.1137L13.9313 55.1302L14.88 55.4465ZM14.16 56.5665L14.8671 57.2736L14.8907 57.25L14.9126 57.225L14.16 56.5665ZM21.2 35.7665L20.2557 35.4374L19.7925 36.7665H21.2V35.7665ZM36.08 35.7665V36.7665H37.4976L37.0221 35.431L36.08 35.7665ZM28.56 14.6465L29.5021 14.311L28.5499 11.6367L27.6157 14.3174L28.56 14.6465ZM2.4 56.1265C2.24796 56.1265 2.07215 56.0769 1.85079 55.8872L0.549209 57.4057C1.07451 57.856 1.69871 58.1265 2.4 58.1265L2.4 56.1265ZM1.95926 55.9957C1.76952 55.7743 1.72 55.5985 1.72 55.4465H-0.28C-0.28 56.1478 -0.00951896 56.7719 0.440743 57.2973L1.95926 55.9957ZM1.72 55.4465C1.72 55.2449 1.74031 55.0883 1.77014 54.969L-0.170142 54.4839C-0.246976 54.7913 -0.28 55.1147 -0.28 55.4465H1.72ZM1.73907 55.0702L20.5391 3.7102L18.6609 3.02272L-0.139065 54.3827L1.73907 55.0702ZM20.5648 3.62958C20.6708 3.2408 20.8808 2.89926 21.2244 2.59387L19.8956 1.09905C19.2792 1.647 18.8492 2.31879 18.6352 3.10334L20.5648 3.62958ZM21.229 2.58976C21.534 2.31519 21.9929 2.12646 22.72 2.12646V0.126461C21.6338 0.126461 20.6526 0.417737 19.891 1.10317L21.229 2.58976ZM22.72 2.12646L34.56 2.12646V0.126461L22.72 0.126461V2.12646ZM34.56 2.12646C35.2934 2.12646 35.6967 2.31739 35.9329 2.55357L37.3471 1.13935C36.6233 0.415534 35.64 0.126461 34.56 0.126461V2.12646ZM36.0153 2.62733C36.4046 2.93879 36.6177 3.27196 36.7152 3.62958L38.6448 3.10334C38.4223 2.28763 37.942 1.60747 37.2647 1.06559L36.0153 2.62733ZM36.7405 3.70891L55.4605 55.0689L57.3395 54.384L38.6195 3.02401L36.7405 3.70891ZM55.5056 55.1737C55.535 55.2325 55.56 55.3165 55.56 55.4465H57.56C57.56 55.0431 57.4784 54.6471 57.2944 54.2793L55.5056 55.1737ZM55.56 55.4465C55.56 55.5479 55.5259 55.7064 55.2929 55.9394L56.7071 57.3536C57.2208 56.8399 57.56 56.1984 57.56 55.4465H55.56ZM55.2929 55.9394C55.1727 56.0596 55.0326 56.1265 54.8 56.1265V58.1265C55.5274 58.1265 56.1873 57.8734 56.7071 57.3536L55.2929 55.9394ZM54.8 56.1265H44.96V58.1265H54.8V56.1265ZM44.96 56.1265C44.3034 56.1265 43.9602 55.9729 43.7785 55.8139L42.4615 57.319C43.1332 57.9067 44.0166 58.1265 44.96 58.1265V56.1265ZM43.8726 55.908C43.5352 55.5224 43.3942 55.2668 43.3487 55.1302L41.4513 55.7627C41.6191 56.2662 41.9581 56.7572 42.3674 57.225L43.8726 55.908ZM43.3341 55.0893L40.2141 46.9293L38.346 47.6436L41.466 55.8036L43.3341 55.0893ZM39.28 46.2865L17.92 46.2865V48.2865L39.28 48.2865V46.2865ZM16.9829 46.9374L13.9429 55.0974L15.8171 55.7956L18.8571 47.6356L16.9829 46.9374ZM13.9313 55.1302C13.8858 55.2668 13.7448 55.5224 13.4074 55.908L14.9126 57.225C15.3219 56.7572 15.6609 56.2662 15.8287 55.7627L13.9313 55.1302ZM13.4529 55.8594C13.3634 55.9488 13.059 56.1265 12.24 56.1265V58.1265C13.2344 58.1265 14.2099 57.9308 14.8671 57.2736L13.4529 55.8594ZM12.24 56.1265H2.4L2.4 58.1265H12.24V56.1265ZM21.2 36.7665L36.08 36.7665V34.7665L21.2 34.7665V36.7665ZM37.0221 35.431L29.5021 14.311L27.6179 14.9819L35.1379 36.1019L37.0221 35.431ZM27.6157 14.3174L20.2557 35.4374L22.1443 36.0955L29.5043 14.9755L27.6157 14.3174ZM71.4256 56.5665L72.1327 55.8594V55.8594L71.4256 56.5665ZM71.4256 1.68646L72.1327 2.39357L72.1327 2.39357L71.4256 1.68646ZM108.546 3.04646L108.946 2.12992L108.546 3.04646ZM115.026 8.56646L114.16 9.06674L114.166 9.0782L114.173 9.08948L115.026 8.56646ZM116.066 22.0865L115.171 21.6392L115.168 21.6459L115.165 21.6526L116.066 22.0865ZM113.426 25.6865L112.757 24.9432L112.747 24.9517L112.738 24.9605L113.426 25.6865ZM110.546 27.7665L110.12 26.8616L108.203 27.7635L110.118 28.6702L110.546 27.7665ZM115.906 32.4865L115.089 33.0639L115.094 33.0705L115.099 33.077L115.906 32.4865ZM115.906 49.2865L115.058 48.7565L115.055 48.7614L115.906 49.2865ZM109.026 55.1265L109.433 56.0396L109.441 56.0363L109.026 55.1265ZM85.1856 46.7265H84.1856V47.7265H85.1856V46.7265ZM101.586 44.7265L102.336 45.3871L101.586 44.7265ZM101.506 35.4465L100.768 36.1222L100.776 36.1304L100.784 36.1384L101.506 35.4465ZM85.1856 33.5265V32.5265H84.1856V33.5265H85.1856ZM85.1856 23.3665H84.1856V24.3665H85.1856V23.3665ZM100.546 21.6865L99.8385 20.9794L99.8299 20.988L99.8215 20.9968L100.546 21.6865ZM100.546 13.2065L99.8215 13.8961L99.8383 13.9138L99.856 13.9306L100.546 13.2065ZM85.1856 11.5265V10.5265H84.1856V11.5265H85.1856ZM72.8656 56.1265C72.5119 56.1265 72.2969 56.0235 72.1327 55.8594L70.7185 57.2736C71.3011 57.8561 72.046 58.1265 72.8656 58.1265V56.1265ZM72.1327 55.8594C71.9686 55.6952 71.8656 55.4802 71.8656 55.1265H69.8656C69.8656 55.946 70.136 56.691 70.7185 57.2736L72.1327 55.8594ZM71.8656 55.1265L71.8656 3.12646H69.8656L69.8656 55.1265H71.8656ZM71.8656 3.12646C71.8656 2.77271 71.9686 2.5577 72.1327 2.39357L70.7185 0.979355C70.136 1.56189 69.8656 2.30688 69.8656 3.12646H71.8656ZM72.1327 2.39357C72.2969 2.22944 72.5119 2.12646 72.8656 2.12646V0.126461C72.046 0.126461 71.3011 0.396819 70.7185 0.979358L72.1327 2.39357ZM72.8656 2.12646L97.2656 2.12646V0.126461L72.8656 0.126461V2.12646ZM97.2656 2.12646C101.77 2.12646 105.381 2.75647 108.146 3.963L108.946 2.12992C105.844 0.776451 101.935 0.126461 97.2656 0.126461V2.12646ZM108.146 3.963C110.915 5.17129 112.896 6.87934 114.16 9.06674L115.891 8.06618C114.382 5.45358 112.043 3.48163 108.946 2.12992L108.146 3.963ZM114.173 9.08948C115.5 11.2522 116.186 13.8638 116.186 16.9665H118.186C118.186 13.5624 117.431 10.5741 115.878 8.04344L114.173 9.08948ZM116.186 16.9665C116.186 18.7546 115.839 20.3042 115.171 21.6392L116.96 22.5337C117.786 20.882 118.186 19.0184 118.186 16.9665H116.186ZM115.165 21.6526C114.521 22.9887 113.716 24.0796 112.757 24.9432L114.095 26.4298C115.268 25.3733 116.223 24.0642 116.967 22.5203L115.165 21.6526ZM112.738 24.9605C111.774 25.8738 110.901 26.4942 110.12 26.8616L110.971 28.6713C112.004 28.1854 113.051 27.4191 114.113 26.4124L112.738 24.9605ZM110.118 28.6702C111.961 29.5435 113.623 30.9903 115.089 33.0639L116.722 31.909C115.095 29.6093 113.183 27.9094 110.974 26.8627L110.118 28.6702ZM115.099 33.077C116.563 35.0779 117.306 37.4269 117.306 40.1665H119.306C119.306 37.0393 118.449 34.2684 116.713 31.896L115.099 33.077ZM117.306 40.1665C117.306 43.5307 116.543 46.3803 115.058 48.7565L116.754 49.8165C118.468 47.0727 119.306 43.8422 119.306 40.1665H117.306ZM115.055 48.7614C113.626 51.0775 111.495 52.9008 108.611 54.2166L109.441 56.0363C112.636 54.5788 115.092 52.5088 116.757 49.8116L115.055 48.7614ZM108.618 54.2133C105.795 55.4736 102.263 56.1265 97.9856 56.1265V58.1265C102.455 58.1265 106.283 57.446 109.433 56.0396L108.618 54.2133ZM97.9856 56.1265H72.8656V58.1265H97.9856V56.1265ZM85.1856 47.7265H96.3856V45.7265H85.1856V47.7265ZM96.3856 47.7265C98.8771 47.7265 100.921 46.9952 102.336 45.3871L100.835 44.0658C99.9034 45.1244 98.4809 45.7265 96.3856 45.7265V47.7265ZM102.336 45.3871C103.663 43.8793 104.346 42.1269 104.346 40.1665H102.346C102.346 41.6193 101.855 42.9069 100.835 44.0658L102.336 45.3871ZM104.346 40.1665C104.346 38.057 103.643 36.2313 102.228 34.7546L100.784 36.1384C101.822 37.2216 102.346 38.5426 102.346 40.1665H104.346ZM102.243 34.7707C100.829 33.2282 98.8198 32.5265 96.3856 32.5265V34.5265C98.4315 34.5265 99.8358 35.1048 100.768 36.1222L102.243 34.7707ZM96.3856 32.5265H85.1856V34.5265H96.3856V32.5265ZM84.1856 33.5265L84.1856 46.7265H86.1856L86.1856 33.5265H84.1856ZM85.1856 24.3665H95.6656V22.3665H85.1856V24.3665ZM95.6656 24.3665C98.0106 24.3665 99.9473 23.7647 101.27 22.3761L99.8215 20.9968C99.0106 21.8482 97.694 22.3665 95.6656 22.3665V24.3665ZM101.253 22.3936C102.582 21.0644 103.226 19.3594 103.226 17.3665H101.226C101.226 18.8935 100.749 20.0686 99.8385 20.9794L101.253 22.3936ZM103.226 17.3665C103.226 15.4174 102.575 13.7583 101.235 12.4823L99.856 13.9306C100.756 14.788 101.226 15.9022 101.226 17.3665H103.226ZM101.27 12.5168C99.9473 11.1282 98.0106 10.5265 95.6656 10.5265V12.5265C97.694 12.5265 99.0106 13.0447 99.8215 13.8961L101.27 12.5168ZM95.6656 10.5265L85.1856 10.5265V12.5265H95.6656V10.5265ZM84.1856 11.5265V23.3665H86.1856V11.5265H84.1856ZM145.274 55.5265L145.677 54.6115H145.677L145.274 55.5265ZM136.794 48.3265L135.945 48.8552L135.949 48.8615L136.794 48.3265ZM133.434 36.1665L132.434 36.1897L132.434 36.2L132.435 36.2104L133.434 36.1665ZM133.434 22.3265L132.435 22.2821L132.434 22.2929L132.434 22.3037L133.434 22.3265ZM136.794 10.2465L135.947 9.71401L135.945 9.71772L136.794 10.2465ZM170.714 2.80646L170.299 3.71638L170.304 3.71863L170.714 2.80646ZM179.354 10.2465L178.507 10.7789L178.511 10.7851L179.354 10.2465ZM182.714 22.3265L181.714 22.3598L181.715 22.3719L182.714 22.3265ZM182.714 36.1665L181.715 36.12L181.715 36.1226L182.714 36.1665ZM179.354 48.3265L180.199 48.8615L180.203 48.8552L179.354 48.3265ZM170.874 55.5265L170.47 54.6115L170.874 55.5265ZM164.954 43.8465L164.268 43.1183L164.263 43.1234L164.258 43.1286L164.954 43.8465ZM167.834 35.6865L166.835 35.6411L166.834 35.6495L166.834 35.6579L167.834 35.6865ZM167.834 22.5665L166.835 22.609L166.835 22.614L167.834 22.5665ZM166.394 16.4865L165.499 16.9337L165.508 16.9518L165.518 16.9695L166.394 16.4865ZM163.034 12.9665L162.573 13.8542L163.034 12.9665ZM149.754 16.4865L150.629 16.9695L150.633 16.9633L150.636 16.9571L149.754 16.4865ZM148.314 22.5665L147.315 22.5239L147.314 22.5333L147.314 22.5427L148.314 22.5665ZM148.314 35.6865L147.314 35.7092L147.314 35.7192L147.315 35.7293L148.314 35.6865ZM151.194 43.8465L150.498 44.5644L151.194 43.8465ZM158.074 56.9265C153.274 56.9265 149.15 56.1438 145.677 54.6115L144.87 56.4414C148.65 58.1091 153.06 58.9265 158.074 58.9265V56.9265ZM145.677 54.6115C142.223 53.0877 139.554 50.8158 137.639 47.7914L135.949 48.8615C138.087 52.2371 141.071 54.7653 144.87 56.4414L145.677 54.6115ZM137.643 47.7977C135.728 44.7244 134.641 40.8491 134.433 36.1226L132.435 36.2104C132.654 41.1904 133.806 45.4218 135.945 48.8552L137.643 47.7977ZM134.433 36.1432C134.38 33.8576 134.354 31.572 134.354 29.2865H132.354C132.354 31.5876 132.381 33.8886 132.434 36.1897L134.433 36.1432ZM134.354 29.2865C134.354 27.0009 134.38 24.6885 134.433 22.3492L132.434 22.3037C132.381 24.6578 132.354 26.9854 132.354 29.2865H134.354ZM134.433 22.3709C134.64 17.6997 135.727 13.8501 137.643 10.7752L135.945 9.71772C133.807 13.1495 132.654 17.3533 132.435 22.2821L134.433 22.3709ZM137.64 10.7789C139.614 7.64103 142.316 5.29046 145.769 3.71637L144.939 1.89656C141.138 3.62913 138.133 6.23856 135.947 9.71401L137.64 10.7789ZM145.769 3.71637C149.24 2.13388 153.333 1.32646 158.074 1.32646V-0.673538C153.108 -0.673538 148.721 0.172381 144.939 1.89656L145.769 3.71637ZM158.074 1.32646C162.759 1.32646 166.826 2.13327 170.299 3.71637L171.129 1.89656C167.348 0.172989 162.988 -0.673538 158.074 -0.673538V1.32646ZM170.304 3.71863C173.81 5.29399 176.536 7.64478 178.507 10.7789L180.2 9.71401C178.012 6.23481 174.977 3.6256 171.124 1.89429L170.304 3.71863ZM178.511 10.7851C180.474 13.8543 181.559 17.6959 181.714 22.3598L183.713 22.2931C183.549 17.3571 182.394 13.1453 180.196 9.7078L178.511 10.7851ZM181.715 22.3719C181.821 24.7038 181.874 27.0086 181.874 29.2865H183.874C183.874 26.9776 183.82 24.6425 183.713 22.2811L181.715 22.3719ZM181.874 29.2865C181.874 31.5643 181.821 33.8421 181.715 36.12L183.713 36.2129C183.82 33.9041 183.874 31.5953 183.874 29.2865H181.874ZM181.715 36.1226C181.507 40.8491 180.419 44.7244 178.505 47.7977L180.203 48.8552C182.341 45.4218 183.494 41.1904 183.713 36.2104L181.715 36.1226ZM178.509 47.7914C176.593 50.8158 173.924 53.0877 170.47 54.6115L171.277 56.4414C175.077 54.7653 178.061 52.2371 180.199 48.8615L178.509 47.7914ZM170.47 54.6115C166.997 56.1438 162.874 56.9265 158.074 56.9265V58.9265C163.087 58.9265 167.497 58.1091 171.277 56.4414L170.47 54.6115ZM158.074 47.4065C161.117 47.4065 163.675 46.4798 165.65 44.5644L164.258 43.1286C162.713 44.6265 160.683 45.4065 158.074 45.4065V47.4065ZM165.639 44.5747C167.724 42.6121 168.723 39.5827 168.833 35.715L166.834 35.6579C166.731 39.2569 165.81 41.6675 164.268 43.1183L165.639 44.5747ZM168.833 35.7319C168.94 33.372 168.994 31.1434 168.994 29.0465H166.994C166.994 31.1095 166.941 33.3076 166.835 35.6411L168.833 35.7319ZM168.994 29.0465C168.994 26.9494 168.94 24.7735 168.833 22.5189L166.835 22.614C166.941 24.8394 166.994 26.9835 166.994 29.0465H168.994ZM168.833 22.5239C168.722 19.9235 168.222 17.73 167.269 16.0034L165.518 16.9695C166.272 18.3362 166.732 20.1961 166.835 22.609L168.833 22.5239ZM167.288 16.0393C166.404 14.2706 165.141 12.9327 163.494 12.0787L162.573 13.8542C163.807 14.4936 164.784 15.5023 165.499 16.9337L167.288 16.0393ZM163.494 12.0787C161.892 11.2479 160.076 10.8465 158.074 10.8465V12.8465C159.804 12.8465 161.296 13.1917 162.573 13.8542L163.494 12.0787ZM158.074 10.8465C156.119 10.8465 154.332 11.25 152.733 12.0787L153.654 13.8542C154.936 13.1896 156.401 12.8465 158.074 12.8465V10.8465ZM152.733 12.0787C151.093 12.9293 149.808 14.2592 148.871 16.0159L150.636 16.9571C151.406 15.5137 152.415 14.4969 153.654 13.8542L152.733 12.0787ZM148.878 16.0034C147.926 17.73 147.425 19.9235 147.315 22.5239L149.313 22.609C149.416 20.1961 149.875 18.3362 150.629 16.9695L148.878 16.0034ZM147.314 22.5427C147.261 24.79 147.234 26.9579 147.234 29.0465H149.234C149.234 26.975 149.26 24.8229 149.313 22.5903L147.314 22.5427ZM147.234 29.0465C147.234 31.1349 147.261 33.3559 147.314 35.7092L149.313 35.6637C149.26 33.3237 149.234 31.118 149.234 29.0465H147.234ZM147.315 35.7293C147.48 39.5877 148.478 42.6059 150.498 44.5644L151.89 43.1286C150.39 41.6737 149.467 39.2519 149.313 35.6436L147.315 35.7293ZM150.498 44.5644C152.473 46.4798 155.03 47.4065 158.074 47.4065V45.4065C155.464 45.4065 153.435 44.6265 151.89 43.1286L150.498 44.5644ZM210.947 55.6065L210.538 56.5191L210.546 56.5228L210.555 56.5263L210.947 55.6065ZM202.627 48.3265L201.768 48.8389L201.772 48.8451L202.627 48.3265ZM200.227 1.68646L200.934 2.39357L200.934 2.39357L200.227 1.68646ZM213.427 1.68646L212.72 2.39357V2.39357L213.427 1.68646ZM216.467 43.5265L215.738 44.2111L215.749 44.2225L215.76 44.2336L216.467 43.5265ZM230.547 43.5265L229.829 42.8303L229.829 42.8307L230.547 43.5265ZM233.667 1.68646L233.008 0.933888L232.983 0.955813L232.96 0.979355L233.667 1.68646ZM246.867 1.68646L246.16 2.39357L246.183 2.41712L246.208 2.43904L246.867 1.68646ZM244.547 48.3265L245.402 48.8451L245.406 48.8389L244.547 48.3265ZM236.227 55.6065L236.624 56.5243L236.636 56.5191L236.227 55.6065ZM223.587 56.9265C218.893 56.9265 214.818 56.1702 211.339 54.6866L210.555 56.5263C214.329 58.136 218.681 58.9265 223.587 58.9265V56.9265ZM211.356 54.6938C207.962 53.1742 205.347 50.8823 203.482 47.8079L201.772 48.8451C203.854 52.2773 206.785 54.8387 210.538 56.5191L211.356 54.6938ZM203.486 47.814C201.63 44.7039 200.667 40.7082 200.667 35.7665L198.667 35.7665C198.667 40.9581 199.678 45.3357 201.768 48.8389L203.486 47.814ZM200.667 35.7665V3.12646H198.667V35.7665L200.667 35.7665ZM200.667 3.12646C200.667 2.77271 200.77 2.5577 200.934 2.39357L199.52 0.979355C198.937 1.56189 198.667 2.30688 198.667 3.12646H200.667ZM200.934 2.39357C201.098 2.22944 201.313 2.12646 201.667 2.12646V0.126461C200.847 0.126461 200.102 0.396819 199.52 0.979358L200.934 2.39357ZM201.667 2.12646L211.987 2.12646V0.126461L201.667 0.126461V2.12646ZM211.987 2.12646C212.341 2.12646 212.556 2.22944 212.72 2.39357L214.134 0.979358C213.551 0.396819 212.806 0.126461 211.987 0.126461V2.12646ZM212.72 2.39357C212.884 2.5577 212.987 2.77271 212.987 3.12646H214.987C214.987 2.30688 214.717 1.56189 214.134 0.979355L212.72 2.39357ZM212.987 3.12646V35.6865H214.987V3.12646H212.987ZM212.987 35.6865C212.987 39.2972 213.847 42.1985 215.738 44.2111L217.196 42.8418C215.78 41.3345 214.987 39.0091 214.987 35.6865H212.987ZM215.76 44.2336C217.7 46.1735 220.354 47.0865 223.587 47.0865V45.0865C220.74 45.0865 218.647 44.2928 217.174 42.8194L215.76 44.2336ZM223.587 47.0865C226.771 47.0865 229.378 46.1706 231.265 44.2223L229.829 42.8307C228.409 44.2957 226.377 45.0865 223.587 45.0865V47.0865ZM231.265 44.2226C233.216 42.2106 234.107 39.3047 234.107 35.6865H232.107C232.107 39.0015 231.291 41.3224 229.829 42.8303L231.265 44.2226ZM234.107 35.6865V3.12646H232.107V35.6865H234.107ZM234.107 3.12646C234.107 2.77271 234.21 2.5577 234.374 2.39357L232.96 0.979355C232.377 1.56189 232.107 2.30688 232.107 3.12646H234.107ZM234.325 2.43904C234.582 2.21428 234.832 2.12646 235.107 2.12646V0.126461C234.315 0.126461 233.605 0.411975 233.008 0.933888L234.325 2.43904ZM235.107 2.12646L245.507 2.12646V0.126461L235.107 0.126461V2.12646ZM245.507 2.12646C245.778 2.12646 245.976 2.2099 246.16 2.39357L247.574 0.979357C247.011 0.416357 246.302 0.126461 245.507 0.126461V2.12646ZM246.208 2.43904C246.41 2.61507 246.507 2.8167 246.507 3.12646H248.507C248.507 2.26289 248.178 1.50452 247.525 0.933885L246.208 2.43904ZM246.507 3.12646V35.7665H248.507V3.12646H246.507ZM246.507 35.7665C246.507 40.7082 245.544 44.7039 243.688 47.814L245.406 48.8389C247.496 45.3357 248.507 40.9581 248.507 35.7665H246.507ZM243.692 47.8079C241.827 50.8823 239.212 53.1742 235.818 54.6938L236.636 56.5191C240.389 54.8387 243.32 52.2773 245.402 48.8451L243.692 47.8079ZM235.83 54.6887C232.409 56.1695 228.336 56.9265 223.587 56.9265V58.9265C228.544 58.9265 232.899 58.1367 236.624 56.5242L235.83 54.6887ZM278.436 13.6865H279.436V12.6865H278.436V13.6865ZM262.756 13.1265L262.003 13.785L262.025 13.81L262.049 13.8336L262.756 13.1265ZM262.756 1.68646L263.463 2.39357V2.39357L262.756 1.68646ZM308.676 13.1265L309.383 13.8336L309.406 13.81L309.428 13.785L308.676 13.1265ZM292.996 13.6865V12.6865H291.996V13.6865H292.996ZM280.436 56.1265C280.082 56.1265 279.867 56.0235 279.703 55.8594L278.289 57.2736C278.871 57.8561 279.616 58.1265 280.436 58.1265V56.1265ZM279.703 55.8594C279.539 55.6952 279.436 55.4802 279.436 55.1265H277.436C277.436 55.946 277.706 56.691 278.289 57.2736L279.703 55.8594ZM279.436 55.1265V13.6865H277.436V55.1265H279.436ZM278.436 12.6865L264.196 12.6865V14.6865L278.436 14.6865V12.6865ZM264.196 12.6865C263.842 12.6865 263.627 12.5835 263.463 12.4194L262.049 13.8336C262.631 14.4161 263.376 14.6865 264.196 14.6865V12.6865ZM263.508 12.468C263.283 12.2111 263.196 11.9615 263.196 11.6865H261.196C261.196 12.4781 261.481 13.1885 262.003 13.785L263.508 12.468ZM263.196 11.6865V3.12646L261.196 3.12646V11.6865H263.196ZM263.196 3.12646C263.196 2.77271 263.299 2.5577 263.463 2.39357L262.049 0.979355C261.466 1.56189 261.196 2.30688 261.196 3.12646L263.196 3.12646ZM263.463 2.39357C263.627 2.22944 263.842 2.12646 264.196 2.12646V0.126461C263.376 0.126461 262.631 0.396819 262.049 0.979358L263.463 2.39357ZM264.196 2.12646L307.236 2.12646V0.126461L264.196 0.126461V2.12646ZM307.236 2.12646C307.589 2.12646 307.804 2.22944 307.969 2.39357L309.383 0.979357C308.8 0.39682 308.055 0.126461 307.236 0.126461V2.12646ZM307.969 2.39357C308.133 2.5577 308.236 2.77271 308.236 3.12646H310.236C310.236 2.30688 309.965 1.56189 309.383 0.979357L307.969 2.39357ZM308.236 3.12646V11.6865H310.236V3.12646H308.236ZM308.236 11.6865C308.236 11.9615 308.148 12.2111 307.923 12.468L309.428 13.785C309.95 13.1885 310.236 12.4781 310.236 11.6865H308.236ZM307.969 12.4194C307.804 12.5835 307.589 12.6865 307.236 12.6865V14.6865C308.055 14.6865 308.8 14.4161 309.383 13.8336L307.969 12.4194ZM307.236 12.6865L292.996 12.6865V14.6865L307.236 14.6865V12.6865ZM291.996 13.6865V55.1265H293.996V13.6865H291.996ZM291.996 55.1265C291.996 55.4802 291.893 55.6952 291.729 55.8594L293.143 57.2736C293.725 56.691 293.996 55.946 293.996 55.1265H291.996ZM291.729 55.8594C291.564 56.0235 291.349 56.1265 290.996 56.1265V58.1265C291.815 58.1265 292.56 57.8561 293.143 57.2736L291.729 55.8594ZM290.996 56.1265L280.436 56.1265V58.1265L290.996 58.1265V56.1265ZM358.108 13.6865H359.108V12.6865H358.108V13.6865ZM342.427 13.1265L341.675 13.785L341.697 13.81L341.72 13.8336L342.427 13.1265ZM342.427 1.68646L343.135 2.39357V2.39357L342.427 1.68646ZM388.348 13.1265L389.055 13.8336L389.078 13.81L389.1 13.785L388.348 13.1265ZM372.668 13.6865V12.6865H371.668V13.6865H372.668ZM360.108 56.1265C359.754 56.1265 359.539 56.0235 359.375 55.8594L357.96 57.2736C358.543 57.8561 359.288 58.1265 360.108 58.1265V56.1265ZM359.375 55.8594C359.21 55.6952 359.108 55.4802 359.108 55.1265H357.108C357.108 55.946 357.378 56.691 357.96 57.2736L359.375 55.8594ZM359.108 55.1265V13.6865H357.108V55.1265H359.108ZM358.108 12.6865H343.867V14.6865H358.108V12.6865ZM343.867 12.6865C343.514 12.6865 343.299 12.5835 343.135 12.4194L341.72 13.8336C342.303 14.4161 343.048 14.6865 343.867 14.6865V12.6865ZM343.18 12.468C342.955 12.2111 342.867 11.9615 342.867 11.6865L340.867 11.6865C340.867 12.4781 341.153 13.1885 341.675 13.785L343.18 12.468ZM342.867 11.6865V3.12646H340.867V11.6865L342.867 11.6865ZM342.867 3.12646C342.867 2.77271 342.97 2.5577 343.135 2.39357L341.72 0.979355C341.138 1.56189 340.867 2.30688 340.867 3.12646H342.867ZM343.135 2.39357C343.299 2.22944 343.514 2.12646 343.867 2.12646V0.126461C343.048 0.126461 342.303 0.396819 341.72 0.979358L343.135 2.39357ZM343.867 2.12646L386.908 2.12646V0.126461L343.867 0.126461V2.12646ZM386.908 2.12646C387.261 2.12646 387.476 2.22944 387.64 2.39357L389.055 0.979357C388.472 0.39682 387.727 0.126461 386.908 0.126461V2.12646ZM387.64 2.39357C387.805 2.5577 387.908 2.77271 387.908 3.12646L389.908 3.12646C389.908 2.30688 389.637 1.56189 389.055 0.979357L387.64 2.39357ZM387.908 3.12646V11.6865H389.908V3.12646L387.908 3.12646ZM387.908 11.6865C387.908 11.9615 387.82 12.2111 387.595 12.468L389.1 13.785C389.622 13.1885 389.908 12.4781 389.908 11.6865H387.908ZM387.64 12.4194C387.476 12.5835 387.261 12.6865 386.908 12.6865V14.6865C387.727 14.6865 388.472 14.4161 389.055 13.8336L387.64 12.4194ZM386.908 12.6865L372.668 12.6865V14.6865L386.908 14.6865V12.6865ZM371.668 13.6865V55.1265H373.668V13.6865H371.668ZM371.668 55.1265C371.668 55.4802 371.565 55.6952 371.4 55.8594L372.815 57.2736C373.397 56.691 373.668 55.946 373.668 55.1265H371.668ZM371.4 55.8594C371.236 56.0235 371.021 56.1265 370.668 56.1265V58.1265C371.487 58.1265 372.232 57.8561 372.815 57.2736L371.4 55.8594ZM370.668 56.1265H360.108V58.1265H370.668V56.1265ZM413.399 55.5265L413.802 54.6115L413.399 55.5265ZM404.919 48.3265L404.07 48.8552L404.074 48.8615L404.919 48.3265ZM401.559 36.1665L400.559 36.1897L400.559 36.2L400.56 36.2104L401.559 36.1665ZM401.559 22.3265L400.56 22.2821L400.559 22.2929L400.559 22.3037L401.559 22.3265ZM404.919 10.2465L404.072 9.71401L404.07 9.71772L404.919 10.2465ZM438.839 2.80646L438.424 3.71638L438.429 3.71863L438.839 2.80646ZM447.479 10.2465L446.632 10.7789L446.636 10.7851L447.479 10.2465ZM450.839 22.3265L449.839 22.3598L449.84 22.3719L450.839 22.3265ZM450.839 36.1665L449.84 36.12L449.84 36.1226L450.839 36.1665ZM447.479 48.3265L448.324 48.8615L448.328 48.8552L447.479 48.3265ZM438.999 55.5265L438.595 54.6115L438.999 55.5265ZM433.079 43.8465L432.393 43.1183L432.388 43.1234L432.383 43.1286L433.079 43.8465ZM435.959 35.6865L434.96 35.6411L434.959 35.6495L434.959 35.6579L435.959 35.6865ZM435.959 22.5665L434.96 22.609L434.96 22.614L435.959 22.5665ZM434.519 16.4865L433.624 16.9337L433.633 16.9518L433.643 16.9695L434.519 16.4865ZM431.159 12.9665L430.698 13.8542L431.159 12.9665ZM417.879 16.4865L418.754 16.9695L418.758 16.9633L418.761 16.9571L417.879 16.4865ZM416.439 22.5665L415.44 22.5239L415.439 22.5333L415.439 22.5427L416.439 22.5665ZM416.439 35.6865L415.439 35.7092L415.439 35.7192L415.44 35.7293L416.439 35.6865ZM419.319 43.8465L418.623 44.5644L419.319 43.8465ZM426.199 56.9265C421.399 56.9265 417.275 56.1438 413.802 54.6115L412.995 56.4414C416.775 58.1091 421.185 58.9265 426.199 58.9265V56.9265ZM413.802 54.6115C410.348 53.0877 407.679 50.8158 405.764 47.7914L404.074 48.8615C406.212 52.2371 409.196 54.7653 412.995 56.4414L413.802 54.6115ZM405.768 47.7977C403.853 44.7244 402.766 40.8491 402.558 36.1226L400.56 36.2104C400.779 41.1904 401.931 45.4218 404.07 48.8552L405.768 47.7977ZM402.558 36.1432C402.505 33.8576 402.479 31.572 402.479 29.2865H400.479C400.479 31.5876 400.505 33.8886 400.559 36.1897L402.558 36.1432ZM402.479 29.2865C402.479 27.0009 402.505 24.6885 402.559 22.3492L400.559 22.3037C400.505 24.6578 400.479 26.9854 400.479 29.2865H402.479ZM402.558 22.3709C402.765 17.6997 403.852 13.8501 405.768 10.7752L404.07 9.71772C401.932 13.1495 400.779 17.3533 400.56 22.2821L402.558 22.3709ZM405.765 10.7789C407.739 7.64103 410.441 5.29046 413.894 3.71637L413.064 1.89656C409.263 3.62913 406.258 6.23856 404.072 9.71401L405.765 10.7789ZM413.894 3.71637C417.365 2.13388 421.458 1.32646 426.199 1.32646V-0.673538C421.233 -0.673538 416.846 0.172381 413.064 1.89656L413.894 3.71637ZM426.199 1.32646C430.884 1.32646 434.951 2.13327 438.424 3.71637L439.254 1.89656C435.473 0.172989 431.113 -0.673538 426.199 -0.673538V1.32646ZM438.429 3.71863C441.935 5.29399 444.661 7.64478 446.632 10.7789L448.325 9.71401C446.137 6.23481 443.102 3.6256 439.249 1.89429L438.429 3.71863ZM446.636 10.7851C448.599 13.8543 449.684 17.6959 449.839 22.3598L451.838 22.2931C451.674 17.3571 450.519 13.1453 448.321 9.7078L446.636 10.7851ZM449.84 22.3719C449.946 24.7038 449.999 27.0086 449.999 29.2865H451.999C451.999 26.9776 451.945 24.6425 451.838 22.2811L449.84 22.3719ZM449.999 29.2865C449.999 31.5643 449.946 33.8421 449.84 36.12L451.838 36.2129C451.945 33.9041 451.999 31.5953 451.999 29.2865H449.999ZM449.84 36.1226C449.632 40.8491 448.544 44.7244 446.63 47.7977L448.328 48.8552C450.466 45.4218 451.619 41.1904 451.838 36.2104L449.84 36.1226ZM446.634 47.7914C444.719 50.8158 442.049 53.0877 438.595 54.6115L439.402 56.4414C443.202 54.7653 446.186 52.2371 448.324 48.8615L446.634 47.7914ZM438.595 54.6115C435.122 56.1438 430.999 56.9265 426.199 56.9265V58.9265C431.212 58.9265 435.622 58.1091 439.402 56.4414L438.595 54.6115ZM426.199 47.4065C429.242 47.4065 431.8 46.4798 433.775 44.5644L432.383 43.1286C430.838 44.6265 428.808 45.4065 426.199 45.4065V47.4065ZM433.764 44.5747C435.849 42.6121 436.848 39.5827 436.958 35.715L434.959 35.6579C434.856 39.2569 433.935 41.6675 432.393 43.1183L433.764 44.5747ZM436.958 35.7319C437.065 33.372 437.119 31.1434 437.119 29.0465H435.119C435.119 31.1095 435.066 33.3076 434.96 35.6411L436.958 35.7319ZM437.119 29.0465C437.119 26.9494 437.065 24.7735 436.958 22.5189L434.96 22.614C435.066 24.8394 435.119 26.9835 435.119 29.0465H437.119ZM436.958 22.5239C436.847 19.9235 436.347 17.73 435.394 16.0034L433.643 16.9695C434.397 18.3362 434.857 20.1961 434.96 22.609L436.958 22.5239ZM435.413 16.0393C434.529 14.2706 433.266 12.9327 431.619 12.0787L430.698 13.8542C431.932 14.4936 432.909 15.5023 433.624 16.9337L435.413 16.0393ZM431.619 12.0787C430.017 11.2479 428.201 10.8465 426.199 10.8465V12.8465C427.929 12.8465 429.421 13.1917 430.698 13.8542L431.619 12.0787ZM426.199 10.8465C424.244 10.8465 422.457 11.25 420.858 12.0787L421.779 13.8542C423.061 13.1896 424.526 12.8465 426.199 12.8465V10.8465ZM420.858 12.0787C419.218 12.9293 417.933 14.2592 416.996 16.0159L418.761 16.9571C419.531 15.5137 420.54 14.4969 421.779 13.8542L420.858 12.0787ZM417.003 16.0034C416.051 17.73 415.55 19.9235 415.44 22.5239L417.438 22.609C417.541 20.1961 418 18.3362 418.754 16.9695L417.003 16.0034ZM415.439 22.5427C415.386 24.79 415.359 26.9579 415.359 29.0465H417.359C417.359 26.975 417.385 24.8229 417.438 22.5903L415.439 22.5427ZM415.359 29.0465C415.359 31.1349 415.386 33.3559 415.439 35.7092L417.439 35.6637C417.385 33.3237 417.359 31.118 417.359 29.0465H415.359ZM415.44 35.7293C415.605 39.5877 416.603 42.6059 418.623 44.5644L420.015 43.1286C418.515 41.6737 417.592 39.2519 417.438 35.6436L415.44 35.7293ZM418.623 44.5644C420.598 46.4798 423.155 47.4065 426.199 47.4065V45.4065C423.589 45.4065 421.56 44.6265 420.015 43.1286L418.623 44.5644ZM468.832 56.5665L469.539 55.8594V55.8594L468.832 56.5665ZM468.832 1.68646L469.539 2.39357V2.39357L468.832 1.68646ZM481.792 1.68646L481.085 2.39357V2.39357L481.792 1.68646ZM482.352 20.8865H481.352V23.706L483.128 21.5165L482.352 20.8865ZM497.152 2.64646L497.928 3.27654L497.958 3.24015L497.984 3.20116L497.152 2.64646ZM498.192 1.68646L498.747 2.51851L498.756 2.51221L498.765 2.50569L498.192 1.68646ZM512.992 1.68646L512.233 2.33725L512.258 2.36641L512.285 2.39357L512.992 1.68646ZM513.152 3.76646L512.371 3.14176L512.368 3.14589L513.152 3.76646ZM494.032 27.9265L493.248 27.3059L492.761 27.9208L493.242 28.5401L494.032 27.9265ZM514.672 54.4865L513.882 55.1001L513.921 55.1494L513.965 55.1936L514.672 54.4865ZM514.432 56.6465L513.725 55.9394L514.432 56.6465ZM499.152 56.4865L498.488 57.2339L498.507 57.2511L498.527 57.2673L499.152 56.4865ZM498.192 55.5265L498.992 54.9265L498.982 54.9136L498.972 54.901L498.192 55.5265ZM482.352 35.7665L483.132 35.141L481.352 32.9202V35.7665H482.352ZM470.272 56.1265C469.918 56.1265 469.703 56.0235 469.539 55.8594L468.125 57.2736C468.707 57.8561 469.452 58.1265 470.272 58.1265V56.1265ZM469.539 55.8594C469.375 55.6952 469.272 55.4802 469.272 55.1265H467.272C467.272 55.946 467.542 56.691 468.125 57.2736L469.539 55.8594ZM469.272 55.1265V3.12646H467.272V55.1265H469.272ZM469.272 3.12646C469.272 2.77271 469.375 2.5577 469.539 2.39357L468.125 0.979355C467.542 1.56189 467.272 2.30688 467.272 3.12646H469.272ZM469.539 2.39357C469.703 2.22944 469.918 2.12646 470.272 2.12646V0.126461C469.452 0.126461 468.707 0.396819 468.125 0.979358L469.539 2.39357ZM470.272 2.12646L480.352 2.12646V0.126461L470.272 0.126461V2.12646ZM480.352 2.12646C480.706 2.12646 480.921 2.22944 481.085 2.39357L482.499 0.979358C481.916 0.396819 481.171 0.126461 480.352 0.126461V2.12646ZM481.085 2.39357C481.249 2.5577 481.352 2.77271 481.352 3.12646L483.352 3.12646C483.352 2.30688 483.082 1.56189 482.499 0.979355L481.085 2.39357ZM481.352 3.12646V20.8865H483.352V3.12646L481.352 3.12646ZM483.128 21.5165L497.928 3.27654L496.375 2.01638L481.575 20.2564L483.128 21.5165ZM497.984 3.20116C498.097 3.03171 498.327 2.79844 498.747 2.51851L497.637 0.854412C497.097 1.21449 496.634 1.62121 496.32 2.09176L497.984 3.20116ZM498.765 2.50569C499.085 2.28169 499.561 2.12646 500.272 2.12646V0.126461C499.277 0.126461 498.365 0.344564 497.618 0.867233L498.765 2.50569ZM500.272 2.12646L511.792 2.12646V0.126461L500.272 0.126461V2.12646ZM511.792 2.12646C511.972 2.12646 512.097 2.17935 512.233 2.33725L513.751 1.03567C513.246 0.446905 512.572 0.126461 511.792 0.126461V2.12646ZM512.285 2.39357C512.43 2.53866 512.472 2.66235 512.472 2.80646H514.472C514.472 2.09724 514.194 1.47426 513.699 0.979353L512.285 2.39357ZM512.472 2.80646C512.472 2.97528 512.429 3.06926 512.371 3.14176L513.933 4.39116C514.301 3.93033 514.472 3.38431 514.472 2.80646H512.472ZM512.368 3.14589L493.248 27.3059L494.816 28.547L513.936 4.38703L512.368 3.14589ZM493.242 28.5401L513.882 55.1001L515.461 53.8729L494.821 27.3129L493.242 28.5401ZM513.965 55.1936C513.949 55.1781 513.953 55.1724 513.963 55.2027C513.975 55.2378 513.992 55.3135 513.992 55.4465H515.992C515.992 54.8657 515.846 54.2464 515.379 53.7794L513.965 55.1936ZM513.992 55.4465C513.992 55.5479 513.958 55.7064 513.725 55.9394L515.139 57.3536C515.653 56.8399 515.992 56.1984 515.992 55.4465H513.992ZM513.725 55.9394C513.58 56.0844 513.456 56.1265 513.312 56.1265V58.1265C514.021 58.1265 514.644 57.8485 515.139 57.3536L513.725 55.9394ZM513.312 56.1265L501.392 56.1265V58.1265L513.312 58.1265V56.1265ZM501.392 56.1265C500.569 56.1265 500.073 55.9427 499.777 55.7056L498.527 57.2673C499.297 57.8836 500.295 58.1265 501.392 58.1265V56.1265ZM499.816 55.7391C499.336 55.3122 499.085 55.0509 498.992 54.9265L497.392 56.1265C497.619 56.4287 498.008 56.8074 498.488 57.2339L499.816 55.7391ZM498.972 54.901L483.132 35.141L481.572 36.3919L497.412 56.1519L498.972 54.901ZM481.352 35.7665V55.1265H483.352V35.7665H481.352ZM481.352 55.1265C481.352 55.4802 481.249 55.6952 481.085 55.8594L482.499 57.2736C483.082 56.691 483.352 55.946 483.352 55.1265H481.352ZM481.085 55.8594C480.921 56.0235 480.706 56.1265 480.352 56.1265V58.1265C481.171 58.1265 481.916 57.8561 482.499 57.2736L481.085 55.8594ZM480.352 56.1265H470.272V58.1265H480.352V56.1265ZM529.801 56.5665L530.508 55.8594V55.8594L529.801 56.5665ZM529.801 1.68646L530.508 2.39357V2.39357L529.801 1.68646ZM570.041 12.0865L570.748 12.7936V12.7936L570.041 12.0865ZM543.081 12.6465V11.6465H542.081V12.6465H543.081ZM543.081 23.4465H542.081V24.4465H543.081V23.4465ZM568.281 24.0865L567.528 24.745L567.55 24.77L567.574 24.7936L568.281 24.0865ZM568.281 33.9265L568.988 34.6336L569.011 34.61L569.033 34.585L568.281 33.9265ZM543.081 34.4865V33.4865H542.081V34.4865H543.081ZM543.081 45.6065H542.081V46.6065H543.081V45.6065ZM570.681 46.1665L569.974 46.8736V46.8736L570.681 46.1665ZM570.681 56.5665L569.974 55.8594V55.8594L570.681 56.5665ZM531.241 56.1265C530.887 56.1265 530.672 56.0235 530.508 55.8594L529.094 57.2736C529.676 57.8561 530.421 58.1265 531.241 58.1265V56.1265ZM530.508 55.8594C530.344 55.6952 530.241 55.4802 530.241 55.1265H528.241C528.241 55.946 528.511 56.691 529.094 57.2736L530.508 55.8594ZM530.241 55.1265V3.12646H528.241V55.1265H530.241ZM530.241 3.12646C530.241 2.77271 530.344 2.5577 530.508 2.39357L529.094 0.979355C528.511 1.56189 528.241 2.30688 528.241 3.12646H530.241ZM530.508 2.39357C530.672 2.22944 530.887 2.12646 531.241 2.12646V0.126461C530.421 0.126461 529.676 0.396819 529.094 0.979358L530.508 2.39357ZM531.241 2.12646L568.601 2.12646V0.126461L531.241 0.126461V2.12646ZM568.601 2.12646C568.954 2.12646 569.169 2.22944 569.333 2.39357L570.748 0.979357C570.165 0.39682 569.42 0.126461 568.601 0.126461V2.12646ZM569.333 2.39357C569.498 2.5577 569.601 2.77271 569.601 3.12646H571.601C571.601 2.30688 571.33 1.56189 570.748 0.979357L569.333 2.39357ZM569.601 3.12646V10.6465H571.601V3.12646H569.601ZM569.601 10.6465C569.601 11.0002 569.498 11.2152 569.333 11.3794L570.748 12.7936C571.33 12.211 571.601 11.466 571.601 10.6465H569.601ZM569.333 11.3794C569.169 11.5435 568.954 11.6465 568.601 11.6465V13.6465C569.42 13.6465 570.165 13.3761 570.748 12.7936L569.333 11.3794ZM568.601 11.6465L543.081 11.6465V13.6465L568.601 13.6465V11.6465ZM542.081 12.6465V23.4465H544.081V12.6465H542.081ZM543.081 24.4465L566.841 24.4465V22.4465L543.081 22.4465V24.4465ZM566.841 24.4465C567.15 24.4465 567.352 24.5438 567.528 24.745L569.033 23.428C568.463 22.7758 567.704 22.4465 566.841 22.4465V24.4465ZM567.574 24.7936C567.738 24.9577 567.841 25.1727 567.841 25.5265H569.841C569.841 24.7069 569.57 23.9619 568.988 23.3794L567.574 24.7936ZM567.841 25.5265V32.4865H569.841V25.5265H567.841ZM567.841 32.4865C567.841 32.7615 567.753 33.0111 567.528 33.268L569.033 34.585C569.555 33.9885 569.841 33.2781 569.841 32.4865H567.841ZM567.574 33.2194C567.409 33.3835 567.194 33.4865 566.841 33.4865V35.4865C567.66 35.4865 568.405 35.2161 568.988 34.6336L567.574 33.2194ZM566.841 33.4865L543.081 33.4865V35.4865L566.841 35.4865V33.4865ZM542.081 34.4865V45.6065H544.081V34.4865H542.081ZM543.081 46.6065L569.241 46.6065V44.6065L543.081 44.6065V46.6065ZM569.241 46.6065C569.594 46.6065 569.809 46.7094 569.974 46.8736L571.388 45.4594C570.805 44.8768 570.06 44.6065 569.241 44.6065V46.6065ZM569.974 46.8736C570.138 47.0377 570.241 47.2527 570.241 47.6065H572.241C572.241 46.7869 571.97 46.0419 571.388 45.4594L569.974 46.8736ZM570.241 47.6065V55.1265H572.241V47.6065H570.241ZM570.241 55.1265C570.241 55.4802 570.138 55.6952 569.974 55.8594L571.388 57.2736C571.97 56.691 572.241 55.946 572.241 55.1265H570.241ZM569.974 55.8594C569.809 56.0235 569.594 56.1265 569.241 56.1265V58.1265C570.06 58.1265 570.805 57.8561 571.388 57.2736L569.974 55.8594ZM569.241 56.1265L531.241 56.1265V58.1265L569.241 58.1265V56.1265ZM588.894 56.5665L589.602 55.8594V55.8594L588.894 56.5665ZM588.894 1.68646L589.602 2.39357V2.39357L588.894 1.68646ZM600.734 1.76646L599.982 2.42497L600.026 2.47514L600.076 2.51904L600.734 1.76646ZM601.534 2.64646L600.64 3.09367L600.663 3.13898L600.69 3.18177L601.534 2.64646ZM621.054 33.4465L620.21 33.9818L622.054 36.8924V33.4465H621.054ZM621.614 1.68646L622.321 2.39357V2.39357L621.614 1.68646ZM634.094 1.68646L633.387 2.39357V2.39357L634.094 1.68646ZM634.094 56.5665L634.802 57.2736L634.825 57.25L634.847 57.225L634.094 56.5665ZM622.174 56.4865L621.422 57.145L621.444 57.17L621.467 57.1936L622.174 56.4865ZM621.454 55.6065L620.62 56.157L620.622 56.1612L621.454 55.6065ZM601.934 26.0065L602.769 25.4559L600.934 22.6736V26.0065H601.934ZM590.334 56.1265C589.981 56.1265 589.766 56.0235 589.602 55.8594L588.187 57.2736C588.77 57.8561 589.515 58.1265 590.334 58.1265V56.1265ZM589.602 55.8594C589.437 55.6952 589.334 55.4802 589.334 55.1265H587.334C587.334 55.946 587.605 56.691 588.187 57.2736L589.602 55.8594ZM589.334 55.1265V3.12646L587.334 3.12646V55.1265H589.334ZM589.334 3.12646C589.334 2.77271 589.437 2.5577 589.602 2.39357L588.187 0.979355C587.605 1.56189 587.334 2.30688 587.334 3.12646L589.334 3.12646ZM589.602 2.39357C589.766 2.22944 589.981 2.12646 590.334 2.12646V0.126461C589.515 0.126461 588.77 0.396819 588.187 0.979358L589.602 2.39357ZM590.334 2.12646L598.814 2.12646V0.126461L590.334 0.126461V2.12646ZM598.814 2.12646C599.603 2.12646 599.887 2.31678 599.982 2.42497L601.487 1.10796C600.835 0.362808 599.84 0.126461 598.814 0.126461V2.12646ZM600.076 2.51904C600.272 2.69032 600.415 2.82974 600.514 2.93913C600.621 3.05647 600.646 3.10502 600.64 3.09367L602.429 2.19925C602.225 1.79241 601.819 1.38665 601.393 1.01388L600.076 2.51904ZM600.69 3.18177L620.21 33.9818L621.899 32.9112L602.379 2.11115L600.69 3.18177ZM622.054 33.4465V3.12646L620.054 3.12646V33.4465H622.054ZM622.054 3.12646C622.054 2.77271 622.157 2.5577 622.321 2.39357L620.907 0.979355C620.325 1.56189 620.054 2.30688 620.054 3.12646L622.054 3.12646ZM622.321 2.39357C622.486 2.22944 622.701 2.12646 623.054 2.12646V0.126461C622.235 0.126461 621.49 0.39682 620.907 0.979358L622.321 2.39357ZM623.054 2.12646L632.654 2.12646V0.126461L623.054 0.126461V2.12646ZM632.654 2.12646C633.008 2.12646 633.223 2.22944 633.387 2.39357L634.802 0.97936C634.219 0.396819 633.474 0.126461 632.654 0.126461V2.12646ZM633.387 2.39357C633.551 2.5577 633.654 2.77271 633.654 3.12646H635.654C635.654 2.30688 635.384 1.56189 634.801 0.979353L633.387 2.39357ZM633.654 3.12646V55.1265H635.654V3.12646H633.654ZM633.654 55.1265C633.654 55.4015 633.567 55.6511 633.342 55.908L634.847 57.225C635.369 56.6285 635.654 55.9181 635.654 55.1265H633.654ZM633.387 55.8594C633.223 56.0235 633.008 56.1265 632.654 56.1265V58.1265C633.474 58.1265 634.219 57.8561 634.802 57.2736L633.387 55.8594ZM632.654 56.1265H624.094V58.1265H632.654V56.1265ZM624.094 56.1265C623.395 56.1265 623.054 55.9523 622.881 55.7794L621.467 57.1936C622.148 57.8739 623.087 58.1265 624.094 58.1265V56.1265ZM622.927 55.828C622.547 55.3936 622.351 55.1484 622.286 55.0518L620.622 56.1612C620.771 56.3845 621.055 56.726 621.422 57.145L622.927 55.828ZM622.289 55.0559L602.769 25.4559L601.1 26.557L620.62 56.157L622.289 55.0559ZM600.934 26.0065V55.1265H602.934V26.0065H600.934ZM600.934 55.1265C600.934 55.4802 600.831 55.6952 600.667 55.8594L602.081 57.2736C602.664 56.691 602.934 55.946 602.934 55.1265H600.934ZM600.667 55.8594C600.503 56.0235 600.288 56.1265 599.934 56.1265V58.1265C600.754 58.1265 601.499 57.8561 602.081 57.2736L600.667 55.8594ZM599.934 56.1265L590.334 56.1265V58.1265L599.934 58.1265V56.1265Z" fill="url(#paint0_linear_22_401)" fill-opacity="0.2"/>
<defs>
<linearGradient id="paint0_linear_22_401" x1="320.5" y1="-4.87354" x2="320.5" y2="65.1265" gradientUnits="userSpaceOnUse">
<stop stop-color="#C1FFF8"/>
<stop offset="1" stop-color="#C1FFF8" stop-opacity="0"/>
</linearGradient>
</defs>
</svg>
